<svg width="112" height="112" viewBox="0 0 112 112" fill="none"
    xmlns="http://www.w3.org/2000/svg">
    <rect width="112" height="112" rx="56" fill="#4B4B5E"/>
    <g clip-path="url(#clip0_1798_519)">
        <path fill-rule="evenodd" clip-rule="evenodd" d="M76.28 67.07L72 35.45C71.88 34.58 70.77 34.04 69.53 34.24L64.07 35.13C62.88 35.32 62.02 36.14 62.13 36.98L66.42 68.67L76.27 67.06L76.28 67.07ZM46.53 68.29V35.79C46.53 34.93 45.83 34.24 44.98 34.24H37.67C36.81 34.24 36.12 34.94 36.12 35.79V68.29H46.53ZM82.01 78.41H29.5C28.95 78.41 28.5 77.96 28.5 77.41C28.5 76.86 28.95 76.41 29.5 76.41H82.01C82.56 76.41 83.01 76.86 83.01 77.41C83.01 77.96 82.56 78.41 82.01 78.41ZM36.12 71.52V70.08H46.53V71.52C46.53 72.37 45.84 73.07 44.98 73.07H37.67C36.82 73.07 36.12 72.38 36.12 71.52ZM59.49 40.45V35.79C59.49 34.93 58.79 34.24 57.94 34.24H50.63C49.77 34.24 49.08 34.94 49.08 35.79V40.45H59.49ZM49.08 71.52V42.25H59.49V71.52C59.49 72.37 58.8 73.07 57.94 73.07H50.63C49.78 73.07 49.08 72.38 49.08 71.52ZM66.91 72.34L66.64 70.31L76.49 68.7L76.78 70.81C76.89 71.65 76.03 72.47 74.84 72.66L69.38 73.55C68.14 73.75 67.03 73.21 66.91 72.34Z" fill="white"/>
    </g>
    <defs>
        <clipPath id="clip0_1798_519">
            <rect width="55" height="45" fill="white" transform="translate(28.5 33.5)"/>
        </clipPath>
    </defs>
</svg>
