<svg width="112" height="112" viewBox="0 0 112 112" fill="none"
    xmlns="http://www.w3.org/2000/svg">
    <rect width="112" height="112" rx="56" fill="#4B4B5E"/>
    <g clip-path="url(#clip0_1799_550)">
        <path d="M45.1058 41.7433C44.6811 40.9958 43.9298 40.4866 43.0696 40.3783C41.8064 40.1941 40.7176 39.4358 40.1187 38.32C39.0407 36.1208 40.5651 33.1633 43.516 31.7333C46.4669 30.3033 49.7444 30.9316 50.8224 33.1308C51.3342 34.29 51.2689 35.6225 50.6373 36.7166C50.2018 37.4533 50.1365 38.3525 50.4631 39.1433C50.9858 40.205 52.2816 40.6491 53.3487 40.1291L58.0962 37.8325C60.3175 36.76 62.9853 37.67 64.0633 39.88L66.3827 44.6033C66.9053 45.665 68.2011 46.1091 69.2682 45.5891C70.0196 45.1666 70.5205 44.4191 70.6402 43.5633C70.8253 42.3066 71.5876 41.2233 72.7091 40.6275C74.9196 39.555 77.8922 41.0716 79.3295 44.0075C80.7669 46.9433 80.1353 50.2041 77.9249 51.2766C76.7598 51.7858 75.4204 51.7208 74.3207 51.0925C73.5802 50.6591 72.6764 50.5941 71.8815 50.9191C70.8144 51.4391 70.368 52.7283 70.8907 53.79L75.8125 63.8433C76.8905 66.0533 75.9758 68.7075 73.7544 69.78L69.0069 72.0875C67.9398 72.6075 66.644 72.1633 66.1213 71.1016C65.7947 70.3108 65.86 69.4008 66.2955 68.6641C66.9271 67.57 67.0033 66.2375 66.4807 65.0783C65.4027 62.8791 62.1251 62.2508 59.1742 63.6808C56.2233 65.1108 54.6989 68.0683 55.7769 70.2675C56.3758 71.3833 57.4756 72.1525 58.7278 72.3258C59.588 72.4341 60.3393 72.9433 60.764 73.6908C61.2867 74.7525 60.8402 76.0416 59.7731 76.5616L49.6682 81.4583C47.4469 82.5308 44.7791 81.6208 43.7011 79.4108L38.7793 69.3575C38.2567 68.2958 38.7031 67.0066 39.7702 66.4866C40.5651 66.1616 41.4689 66.2266 42.2093 66.66C43.3091 67.2883 44.6484 67.3641 45.8135 66.8441C48.024 65.7716 48.6556 62.5108 47.2182 59.575C45.7809 56.6391 42.8082 55.1225 40.5978 56.195C39.4762 56.7908 38.7031 57.885 38.5289 59.1308C38.42 59.9758 37.9082 60.7341 37.1569 61.1566C36.0898 61.6766 34.794 61.2325 34.2713 60.1708L31.952 55.4475C30.874 53.2375 31.7887 50.5833 34.01 49.5108L44.1149 44.6141C45.182 44.0941 45.6284 42.805 45.1058 41.7433Z" fill="white"/>
    </g>
    <defs>
        <clipPath id="clip0_1799_550">
            <rect width="49" height="52" fill="white" transform="translate(31.5 30)"/>
        </clipPath>
    </defs>
</svg>
