<svg xmlns="http://www.w3.org/2000/svg" width="64" height="64" fill="none" viewBox="0 0 64 64">
    <g clip-path="url(#a)">
        <rect width="64" height="64" fill="#4B4B5E" rx="32"/>
        <path stroke="#fff" stroke-miterlimit="10" d="M22.774 37.319c.898 0 1.626-2.184 1.626-4.878s-.728-4.877-1.626-4.877-1.626 2.183-1.626 4.877.728 4.878 1.626 4.878Z"/>
        <path fill="#fff" d="M45.195 31.563a4.9 4.9 0 0 1-1.87-.536 13.77 13.77 0 0 0-25.347-5.934q-.533.78-1.17 1.479a8.32 8.32 0 0 0-2.586 5.87 8.28 8.28 0 0 0 2.601 5.901q.645.707 1.187 1.496a13.77 13.77 0 0 0 24.778-3.366c.838.3 1.714.481 2.602.537a9.8 9.8 0 0 0 3.723-.894V30.23a5.07 5.07 0 0 1-3.919 1.333m-15.576 13.12h-.423a5.24 5.24 0 0 1-2.634-1.381c-.878-1.203-1.122-4.634-2.634-4.552-1.105 0-.357.877-1.349.926-2.325.098-2.227-4.877-3.69-4.877-.895 0-.732 1.626-.39 3.138l-.521-.618a6.78 6.78 0 0 1-2.228-4.878 6.8 6.8 0 0 1 2.212-4.877l.601-.716c-.341 1.496-.504 3.106.39 3.138 1.464 0 1.35-4.877 3.691-4.877.976 0 .244.861 1.333.91 1.512.082 1.756-3.251 2.634-4.552a5 5 0 0 1 2.39-1.317h.618a12.243 12.243 0 1 1 0 24.485z"/>
    </g>
    <defs>
        <clipPath id="a">
            <path fill="#fff" d="M0 0h64v64H0z"/>
        </clipPath>
    </defs>
</svg>