<svg xmlns="http://www.w3.org/2000/svg" width="64" height="64" fill="none" viewBox="0 0 64 64">
    <g clip-path="url(#a)">
        <rect width="64" height="64" fill="#4B4B5E" rx="32"/>
        <path fill="#fff" d="M34.054 18.956C23.688 17.226 15 21.711 15 27.928c0 5.698 3.291 7.064 6.662 7.064 0-3.826 7.449-4.368 10.913-3.214-3.224-.365-9.673-.26-9.673 3.85 0 .259 0 2.908 4.144 3.297 1.683.175 3.386.12 5.05-.165-.046.394.062.79.303 1.124.242.333.605.584 1.03.713q.521.155 1.065.235a20.9 20.9 0 0 0 3.997 4.015c.36-.02.702-.144.973-.353a.95.95 0 0 0 .4-.648c-.817-.763-1.351-1.728-1.532-2.767h1.039s5.783-.306 5.33-2.931c0-.071 0-.142-.067-.212.778.14 1.58.14 2.358 0 1.786-.471 2.532-2.214 2.665-4.498.2-3.944-5.25-12.751-15.603-14.482"/>
    </g>
    <defs>
        <clipPath id="a">
            <path fill="#fff" d="M0 0h64v64H0z"/>
        </clipPath>
    </defs>
</svg>