<svg xmlns="http://www.w3.org/2000/svg" width="64" height="64" fill="none" viewBox="0 0 64 64">
    <g clip-path="url(#a)">
        <rect width="64" height="64" fill="#4B4B5E" rx="32"/>
        <path fill="#fff" d="M45.495 24.796c-2.853 0-5.047.603-7.53.534-2.482-.068-3.62-1.878-5.965-1.508-2.345-.37-3.538 1.371-5.966 1.508-2.427.138-4.676-.534-7.529-.534-3.73 0-5.486 2.742-5.486 4.265s.508 4.114 4.636 5.115l.603.11a1.76 1.76 0 0 1-.7-1.372 1.7 1.7 0 0 1 .495-1.18 2.44 2.44 0 0 1-2.058-2.248c-.096-1.687 1.797-2.277 2.606-2.29a25 25 0 0 1 6.076.877c1.59.617 5.005 7.063 5.046 9.874s.137 8.545.137 8.545h4.28s.082-5.733.137-8.544c.054-2.812 3.456-9.258 5.046-9.875a25 25 0 0 1 6.076-.878c.809 0 2.743.604 2.606 2.29a2.455 2.455 0 0 1-1.975 2.25c.315.312.497.735.507 1.18a1.78 1.78 0 0 1-.713 1.37l.59-.109c4.114-.987 4.635-3.675 4.635-5.115s-1.824-4.265-5.554-4.265"/>
        <path fill="#fff" d="M25.143 31.666a8 8 0 0 1-1.166.26c-.439 0-.576-.122-.576-.122a3.06 3.06 0 0 0-2.372-.947c-1.509 0-2.743.919-2.743 2.057 0 1.139 1.234 2.057 2.743 2.057a2.524 2.524 0 0 0 2.742-1.892s0-.274.398-.48a5.3 5.3 0 0 1 1.084-.33zM39.008 31.666q.58.177 1.18.26c.438 0 .562-.123.562-.123a3 3 0 0 1 2.318-.96c1.508 0 2.742.92 2.742 2.058s-1.234 2.057-2.742 2.057a2.55 2.55 0 0 1-2.743-1.893s0-.274-.412-.48a5 5 0 0 0-1.07-.329z"/>
    </g>
    <defs>
        <clipPath id="a">
            <path fill="#fff" d="M0 0h64v64H0z"/>
        </clipPath>
    </defs>
</svg>