<svg xmlns="http://www.w3.org/2000/svg" width="64" height="64" fill="none" viewBox="0 0 64 64">
    <g clip-path="url(#a)">
        <rect width="64" height="64" fill="#4B4B5E" rx="32"/>
        <path fill="#fff" d="m45.508 37.99 2.017-2.03-.492-.505-1.135-1.134-2.004 2.004a2.75 2.75 0 0 1-2.117.756 11.58 11.58 0 0 0-10.752 0 2.8 2.8 0 0 1-1.878-.668l-.58-.567-.593-.592a13 13 0 0 1-.794-.895 13.36 13.36 0 0 1-2.37-6.303 11.1 11.1 0 0 0-5.898-8.52 1.26 1.26 0 0 0-1.273 2.155 6.93 6.93 0 0 1 3.201 3.214 15.1 15.1 0 0 1 1.777 5.47 13.36 13.36 0 0 0 2.736 5.786 23 23 0 0 0 2.52 2.521c.162.34.256.709.278 1.084-.521.841-.8 1.81-.807 2.799 0 3.075 2.76 5.684 6.542 6.504a3.87 3.87 0 0 1 1.387 2.874h2.306a3.86 3.86 0 0 1 1.425-2.962q.588-.127 1.16-.316c3.15-1.059 5.344-3.416 5.344-6.163a6.15 6.15 0 0 0-.719-2.673c.003-.68.26-1.337.719-1.84"/>
    </g>
    <defs>
        <clipPath id="a">
            <path fill="#fff" d="M0 0h64v64H0z"/>
        </clipPath>
    </defs>
</svg>