<svg xmlns="http://www.w3.org/2000/svg" width="64" height="64" fill="none" viewBox="0 0 64 64">
    <g clip-path="url(#a)">
        <rect width="64" height="64" fill="#4B4B5E" rx="32"/>
        <path stroke="#fff" stroke-linecap="round" stroke-miterlimit="10" stroke-width=".75" d="m45.387 46.223-.83 1.42M31.828 28.323c7.046 2.103 6.558 3.41 7.956 4.91 1.83 1.966 1.716 3.228 2.91 6.319.613 1.59.874 7.273 5.011 7.637M47.671 44.382l-3.114.796"/>
        <path stroke="#fff" stroke-dasharray="2 2 2 2 2 2" stroke-linecap="round" stroke-linejoin="round" stroke-width="2" d="M36.226 29.982c3.49 2.353 4.626 2.546 7.808 14.4"/>
        <path stroke="#fff" stroke-linecap="round" stroke-miterlimit="10" stroke-width=".75" d="M23.997 31.312a4.17 4.17 0 0 0-1.852 1.853c-.307.795-.455 1.67-2.057 2.034M22.179 34.04l1.16.739M23.338 25.845c-1.75.319-2.943-1.397-3.682-2.443M21.213 25.686l-1.784.694M28.782 22.834a8.8 8.8 0 0 0 .705-3.273c-.091-1.421-.228-2.99-.228-2.99M29.566 20.072l2.262-2.069M29.464 18.708l-2.08-.92M32.521 24.64c1.25-.51 1.785-.602 3.217-1.238 1.432-.637 2.716-1.137 2.716-1.137M36.613 22.834l-.16-1.853M29.566 32.528s2.194 1.887 2.194 3.08c.099.84.447 1.632 1 2.273M31.6 36.267l-2.738 1.16"/>
        <path fill="#fff" fill-rule="evenodd" d="M30.703 33.676c-1.807-1.727-5.398-2.125-7.774-1.58a6.63 6.63 0 0 0-.92-6.5c3.195-.373 4.95-1.858 6.352-3.044.268-.227.523-.444.773-.639.728 2.289 1.785 2.235 3.134 2.166.506-.026 1.054-.054 1.64.039-.66.67-2.455 2.5-1.137 4.455-.943.386-1.386.75-1.67 1.523a6.8 6.8 0 0 0-.398 3.58m-2.185-6.74a1.92 1.92 0 0 0-.963-.886 1.89 1.89 0 0 0-2.171 1.16c-.273.92.011 1.863.693 2.056s2.273-.045 2.614-1.034a1.92 1.92 0 0 0-.173-1.297" clip-rule="evenodd"/>
        <path stroke="#fff" stroke-linecap="round" stroke-miterlimit="10" stroke-width=".75" d="M30.362 36.79a2.59 2.59 0 0 1-.648 2.785"/>
    </g>
    <defs>
        <clipPath id="a">
            <path fill="#fff" d="M0 0h64v64H0z"/>
        </clipPath>
    </defs>
</svg>