<svg xmlns="http://www.w3.org/2000/svg" width="64" height="64" fill="none" viewBox="0 0 64 64">
    <g clip-path="url(#a)">
        <rect width="64" height="64" fill="#4B4B5E" rx="32"/>
        <path fill="#fff" stroke="#fff" stroke-miterlimit="10" d="m35.924 33.88-6.517-6.41-.278 1.293s5.129 2.98 6.592 5.983c.481-1.431.203-.865.203-.865Z"/>
        <path fill="#fff" d="M21.736 20.28c3.771-.642 4.273 3.045 6.197 3.205a3.8 3.8 0 0 0 2.521-.79l.94 2.745s-1.122 1.069-1.196 1.784c-.075.716.609 3.291-.428 5.236s-2.49 3.323-2.852 4.754c-.364 1.432-.075 1.945-.823 5.236a11.9 11.9 0 0 1-2.244 4.979h-2.137zM41.18 38.305c1.188-2.558.62-5.343-1.27-6.221-1.888-.878-4.383.484-5.572 3.042-1.188 2.558-.62 5.343 1.269 6.221s4.384-.484 5.572-3.042"/>
        <path fill="#fff" d="M41.822 28.368a49 49 0 0 0-2.34 2.137 2.9 2.9 0 0 1 2.362.876c.517.445.936.995 1.228 1.613a23 23 0 0 0 3.067-4.167c4.273-6.272-1.56-10.396-8.334-9.189a23.8 23.8 0 0 0-7.704 3.206l.983 2.82a16.44 16.44 0 0 1 6.56-3.472c4.68-1.079 9.243 1.742 4.178 6.176"/>
    </g>
    <defs>
        <clipPath id="a">
            <path fill="#fff" d="M0 0h64v64H0z"/>
        </clipPath>
    </defs>
</svg>