<svg xmlns="http://www.w3.org/2000/svg" width="64" height="64" fill="none" viewBox="0 0 64 64">
    <g clip-path="url(#a)">
        <rect width="64" height="64" fill="#4B4B5E" rx="32"/>
        <g fill="#fff" clip-path="url(#b)">
            <path d="M23.683 21.692s-1.273.484-1.386 1.78c-.113 1.295.354 4.044.735 4.927.382.883.439 1.153.213 1.467-.227.313-.637 1.04-.764 2.193s-.043 1.908.495 2.833c.537.926 2.15 2.322 2.758 2.72.608.4.75.613 1.386.727.637.114 4.173.726 4.173.883 0 .156-.1 1.95 0 2.093.099.142.325-.043.184.584-.142.626-.877 1.239-1.754 1.338-.877.1-.707 1.026-1.995 1.524-1.287.498-2.927 1.652-4.314 1.068-1.386-.584-1.343-1.153-1.499-1.638-.155-.484.156-1.85-.51-2.762-.664-.912-1.583-2.065-1.484-2.62s.113-.826.693-.4c.58.428 3.027 1.154 3.027 1.154s-.75 2.507.764 3.176c1.513.67 3.21.085 3.635-.3.424-.384 1.188-.996.976-1.466-.213-.47-.142-.911-1.712-1.267s-3.409-.157-5.063-.954c-1.655-.798-3.381-1.724-3.763-2.735s-.51-2.606-.778-3.517c-.269-.911-1.301-2.634-1.91-2.834-.607-.2-2.432-.27-2.856-1.04-.425-.768-1.146-2.69-.863-4.713.283-2.022.608-3.902 1.867-4.529s3.62-.384 5.445-.056c1.825.327 2.504.783 3.027 1.167.523.385 1.302.897 1.273 1.197M40.317 21.692s1.273.484 1.386 1.78c.113 1.295-.354 4.044-.736 4.927-.381.883-.438 1.153-.212 1.467.227.313.637 1.04.764 2.193s.043 1.908-.495 2.833c-.537.926-2.15 2.322-2.758 2.72-.608.4-.75.613-1.386.727-.637.114-4.173.726-4.173.883 0 .156.1 1.95 0 2.093-.099.142-.325-.043-.184.584.142.626.877 1.239 1.754 1.338.877.1.707 1.026 1.995 1.524 1.287.498 2.927 1.652 4.314 1.068 1.386-.584 1.343-1.153 1.499-1.638.155-.484-.156-1.85.51-2.762.664-.912 1.583-2.065 1.484-2.62s-.113-.826-.693-.4c-.58.428-3.027 1.154-3.027 1.154s.75 2.507-.764 3.176c-1.513.67-3.21.085-3.635-.3-.424-.384-1.188-.996-.976-1.466.213-.47.142-.911 1.712-1.267s3.409-.157 5.064-.954c1.654-.798 3.38-1.724 3.762-2.735s.51-2.606.778-3.517c.269-.911 1.301-2.634 1.91-2.834.608-.2 2.432-.27 2.856-1.04.425-.768 1.132-2.705.85-4.742-.284-2.036-.61-3.901-1.882-4.514-1.273-.612-3.621-.399-5.446-.057s-2.503.784-3.026 1.168c-.524.384-1.302.897-1.273 1.196z"/>
            <path d="M24.687 21.805s-.41-.1-.664.513c-.255.612-.906 1.837-.792 3.275.113 1.439.72 2.55.594 3.39-.128.84-.27 1.267-.425 1.367s-.41.413.312.584c.72.17 1.145-.143 1.456-.328.312-.185 1.033-.071 1.556.826s1.429 3.147 2.207 3.36 1.952.143 2.05.713c.1.57-.339.783-.395.811-.057.029-.906.285-.807.599.1.313.891.47 1.061.968s.481.769.693 1.025c.212.257-.042 2.008.156 2.08.198.07.721.17.806-.143s-.212-1.851 0-1.908.594-.427.721-.77c.128-.341.425-.726.99-.94.566-.213-.028-.583-.65-.939s-.552-.926-.156-1.082 1.754-.086 2.306-.869c.551-.783 1.33-2.805 1.881-3.36.552-.556 1.131-.698 1.627-.214.495.484 1.428.17 1.442 0 .014-.171-.933-1.809-.82-2.407s.735-2.506.693-3.304c-.042-.797-.311-2.762-.721-3.118-.41-.357-1.005.555-1.712 1.068-.707.512-1.174 1.025-2.659.57-1.485-.456-2.518-.271-3.706-.314s-3.423.427-3.946.399c-.523-.029-1.81-.698-2.235-1.097s-.509-.612-.848-.755z"/>
        </g>
    </g>
    <defs>
        <clipPath id="a">
            <path fill="#fff" d="M0 0h64v64H0z"/>
        </clipPath>
        <clipPath id="b">
            <path fill="#fff" d="M12 19h40v27H12z"/>
        </clipPath>
    </defs>
</svg>