<svg xmlns="http://www.w3.org/2000/svg" width="64" height="64" fill="none" viewBox="0 0 64 64">
    <g clip-path="url(#a)">
        <rect width="64" height="64" fill="#4B4B5E" rx="32"/>
        <path fill="#fff" d="M16.889 17.81c3.958-.678 4.43 3.207 6.512 3.34a4 4 0 0 0 2.651-.762l.968 2.88s-1.21 1.102-1.21 1.877.642 3.462-.448 5.508-2.65 3.425-3.086 4.926 0 2.046-.812 5.508a12.4 12.4 0 0 1-2.36 5.217H16.89z"/>
        <path fill="#fff" d="M40.432 29.454c-1.343 1.21-2.493 1.21-3.764 1.768a3.8 3.8 0 0 1 3.074 1.137c.787.666 2.18.533 2.59 1.283-.06-1.79 2.167-3.34 2.99-4.539 5.508-8.146-2.106-13.557-10.942-11.923a26.8 26.8 0 0 0-9.296 3.729l.883 3.63a19.9 19.9 0 0 1 8.256-4.042c6.076-1.453 12.71 3.196 6.21 8.957"/>
        <path fill="#fff" d="M37.019 31.052c-.073 0-5.762 1.21-5.762 1.21-2.82 1.078-1.21 1.95 2.082 1.514 2.566-.351 4.709-1.21 4.66-.666-.048.545-4.2 2.76-3.728 3.57.472.812 5.096-2.493 5.52-1.706.244.377.44.784.58 1.21.703 1.562 1.38 3.438 1.986 2.421a3.17 3.17 0 0 0 0-2.965 3.3 3.3 0 0 1 0-1.973l-.714-1.792z"/>
    </g>
    <defs>
        <clipPath id="a">
            <path fill="#fff" d="M0 0h64v64H0z"/>
        </clipPath>
    </defs>
</svg>