<svg xmlns="http://www.w3.org/2000/svg" width="64" height="64" fill="none" viewBox="0 0 64 64">
    <g clip-path="url(#a)">
        <rect width="64" height="64" fill="#4B4B5E" rx="32"/>
        <g fill="#fff" clip-path="url(#b)">
            <path d="M27.286 28.941c.249 1.087-2.192 1.656-1.622 2.73.774 1.075 2.412 1.416 3.668.746.205-.114.38-.24.541-.392 1.462-1.163-.263-2.174.278-3.008.38-.581.526-.518 1.009-.746a2.53 2.53 0 0 1 1.461-.29c1.096 0 1.608 1.744 3.508 1.137 1.9-.606 1.725-2.148.716-3.299-.833-.948-2.543.658-3.551 0-.57-.404.862-2.11-.629-1.87-1.49.24-1.462.935-1.257 2.44-.146.454-.526.82-1.023 1.01a3.03 3.03 0 0 1-1.637.354c-1.462-.86-2.149-1.2-3.084-.177-.936 1.024 1.461.733 1.622 1.365"/>
            <path d="M49.868 22.874c-1.17-.252-3.77.367-4.092.152s-.541-.771-1.564-1.264a3.34 3.34 0 0 0-2.631-.215c-.804.266-.278-.48-2.924-.392a8.1 8.1 0 0 0-3.42.645h-.058c-2.266-.316-4.838.05-7.206 1.05-2.25.934-4.005 2.325-5.116 3.841l.044-.126c-1.68.62-3.055 1.744-3.873 3.16-1.462 2.186-.41 2.161-1.125 2.68-.804.58-1.228 1.453-1.17 2.35.059.683.234 1.353.512 1.985 0 .303-2.178 2.603-2.924 3.88-.233.215-.38.518-.321.834.073.43.468.758.95.822.044 0 .088-.026.146-.038.16 0 .307-.026.453-.089.176-.1.395-.417.614-.834.293-.38.526-.77.526-1.011.497-.96 1.082-1.997 1.784-2.338.482-.493 1.593-.215 3.069.038v.783l.03-.215s0 3.223 5.071 4.07c3.42.569 8.434.14 8.434-2.313 3.054 1.1 5.685-3.766 5.685-5.536v-2.869c-.716.607-1.827.708-2.645.164-.015 0-.03-.025-.059-.038.775.253 1.681.14 2.207 0 .03 0 .044-.025.073-.025 1.038-.303 2.5-1.959 3.245-3.096 1.272-1.858 1.725-4.348 2.733-4.538 1.155-.543 3.201.303 3.815 0 .249-.114.424-.316.468-.556.102-.442-.234-.86-.745-.948zm-21.252 1.1c1.623-.683 3.318-1.036 4.926-1.036.482 0 .95.038 1.418.1 1.885.266 3.288 1.062 3.946 2.238s.512 2.616-.424 4.057c-.687 1.074-1.754 2.035-3.055 2.831-.92-.948-1.9-1.845-2.967-2.68l-.029.026-.117.076c.482.885.95 1.719 1.462 2.528.102.253.234.493.394.708-.16.075-.307.164-.467.227-4.268 1.782-8.872 1.2-10.276-1.302s.921-5.99 5.19-7.773M18.867 36.31c.775-1.264.98-2.73.556-4.12-.19-1.644.833-3.21 2.543-3.931a5.2 5.2 0 0 0-.395 1.946h-.015v6.168c1.667.013 3.362-.025 4.765-.77.03-.014.073-.026.103-.051.16-.114.292-.24.38-.405 0 0 0-.012.014-.025h.03c-.483 1.15-2.807 1.479-4.034 1.542-.161 0-.366.012-.556.012h-.073c-.205 0-.424 0-.643-.012-2.046-.076-4.604-.443-2.69-.392zm22.83-8.178c-.423.329-.686.506-.92.57v-2.175h-.03a4.2 4.2 0 0 0-.54-1.807c-.658-1.176-1.827-2.048-3.391-2.553 1.271-.493 2.777-.405 3.96.303 1.053.897 2.456 1.403 3.933 1.44-.731 1.543-1.754 2.958-3.011 4.222"/>
        </g>
    </g>
    <defs>
        <clipPath id="a">
            <path fill="#fff" d="M0 0h64v64H0z"/>
        </clipPath>
        <clipPath id="b">
            <path fill="#fff" d="M14 21.143h36.643v21.714H14z"/>
        </clipPath>
    </defs>
</svg>