<svg xmlns="http://www.w3.org/2000/svg" width="64" height="64" fill="none" viewBox="0 0 64 64">
    <g clip-path="url(#a)">
        <rect width="64" height="64" fill="#4B4B5E" rx="32"/>
        <g clip-path="url(#b)">
            <path fill="#fff" d="M46.22 17.306a6 6 0 0 0-.973-.856c-1.297-.925-2.903-1.436-4.556-1.45-2.038.014-3.984.787-5.359 2.154-.185.194-.355.387-.525.594-.572.621-1.406 1.008-2.301 1.077-.942-.041-1.823-.428-2.425-1.077a4 4 0 0 0-.525-.594C28.196 15.787 26.22 15 24.166 15c-3.923 0-7.12 2.817-7.166 6.325v.76c.293 3.12 2.286 5.647 4.633 8.534a13.2 13.2 0 0 1 2.41 6.131v11.393h16.756V36.75a13.2 13.2 0 0 1 2.41-6.131c2.347-2.887 4.34-5.414 4.633-8.535v-.76c0-1.463-.587-2.9-1.637-4.018zm-7.351 1.85a4.74 4.74 0 0 1 2.764.87c.216.153.417.332.587.525.093.07.17.139.232.221a19.6 19.6 0 0 0-4.155-1.615zm4 3.467a5.8 5.8 0 0 0-2.224.29l-.14.083a3.6 3.6 0 0 0-.648-2.32c.772.373 1.992.911 2.147 1.035.34.263.633.567.865.912m-4.896-2.154c.324.18.587.4.803.676.463.566.68 1.257.587 1.947a3.9 3.9 0 0 1-.911 1.188l-.263.442-.154.276v.07a7 7 0 0 1-.927-.443 2.6 2.6 0 0 1-.34-.193l-.139-.11a2 2 0 0 1-.262-.263v-.152l.046.042c.34-.263.633-.58.85-.94.432-.787.68-1.657.71-2.54m-4.587 9.46c-.34.151-.664.33-.957.538l-.788.47a.8.8 0 0 0-.093-.263 2.77 2.77 0 0 0 1.19-1.381c.17-.566-.062-1.27.447-1.74.124-.11.263-.207.402-.29a4.1 4.1 0 0 0 1.374 1.38c.665.415 1.39.76 2.163.995h.154c.293.36.51.76.602 1.201-.926-.234-1.776-.704-2.702-.91a3.6 3.6 0 0 0-1.792 0m1.606 1.145c-.17.387-.37.746-.571 1.119a4.05 4.05 0 0 0-1.807-.47l.247-.138c.263-.193.54-.373.85-.51a2.25 2.25 0 0 1 1.281 0m-5.112-2.568c.047-.346.14-.677.31-.98a4.24 4.24 0 0 1 1.466-1.768c.803-.47 1.653-.87 2.533-1.188.108.014.201.014.31 0 .292 0 .586-.055.864-.152.139.221.309.414.51.594l-1.545.663c-.68.248-1.328.58-1.915.994-.556.47-.865 1.132-.818 1.81 0 .29-.062.565-.201.828a2.2 2.2 0 0 1-.463.455l-.325-.372c-.293-.29-.726-.456-.726-.884m.618 3.687a4.4 4.4 0 0 0-1.19 1.008l-.679-.539c.54-.732.927-1.56 1.143-2.416.51.552.757 1.243.726 1.947m7.089-4.295-.186.221-.092.11c-.077.07-.14.139-.2.222l-.387-.152a9 9 0 0 1-1.066-.553 4.5 4.5 0 0 1-.834-.621c-.108-.097-.185-.207-.262-.318l.324-.138 2.07-.87.973.428s.139.014.216 0c.03.235.123.456.247.663l-.062.028c-.232.331-.479.663-.741.98m-2.394-7.057c.093-.124.2-.248.309-.359.278-.248.587-.47.911-.662h.325c0 .745-.14 1.505-.417 2.209l-.17-.083-.17-.11-.278-.207a5 5 0 0 1-.51-.484h-.108l-.093-.096zm-4.247.788a3.6 3.6 0 0 0 1.652.455 3.5 3.5 0 0 0 1.545-.428c.417.525.942.967 1.544 1.298h.093c-.2.18-.433.318-.68.428-.309.18-.71.18-1.019 0a8 8 0 0 0-.741-.607 3.8 3.8 0 0 0-1.792-.456 2.65 2.65 0 0 0-1.173-.442zm1.714 2.03c.14.069.247.152.355.248-.68.152-1.343.36-1.976.622a5.5 5.5 0 0 0-1.375 1.215l-.077-.083-.124-.18a2.3 2.3 0 0 1-.309-.47v-.082c-.077-.097-.077-.207-.077-.29v-.387c.927-.87 2.379-1.118 3.583-.593m-6.424-4.433c1.25 0 2.44.47 3.274 1.298.123.124.231.262.34.4h.077c-.356.138-.71.263-1.081.346a5.2 5.2 0 0 1-3.383-.677c-.525-.276-1.019-.58-1.544-.829a4.74 4.74 0 0 1 2.316-.538m-3.32 1.312.23.096h.016l-.942.87c.17-.359.402-.676.695-.966m-.943 2.817v-.097l.216-.193a9 9 0 0 1 1.946 4.985c-1.174-1.367-1.915-2.983-2.162-4.695m2.255.566v.124a9 9 0 0 0-1.298-1.74l1.22-1.118c.495.29 1.004.538 1.545.745a2.4 2.4 0 0 0-.85.608 6.6 6.6 0 0 0-.617 1.381m1.313.207.262-.621q.094-.27.232-.498a.3.3 0 0 1 .077-.11l.185-.166h.093c.077-.041.17-.082.262-.124h.109l.247-.083.417-.083c.17.125.355.235.556.318.417.069.85.11 1.281.097a4.8 4.8 0 0 0-1.451 1.05c-.34.482-.618.993-.803 1.532-.448.456-1.066.76-1.73.87-.077-.331-.17-.649-.263-.967.17-.4.34-.814.526-1.215m-.31 3.508a6.7 6.7 0 0 0 2.101-.953c.37-.318.649-.704.803-1.146a.8.8 0 0 0 .077.193c.108.18.232.345.356.511.139.22.34.414.571.566h.093a4.1 4.1 0 0 0-.48 1.243v.18c-.092-.07-.184-.139-.293-.18a2.33 2.33 0 0 0-1.374 0c-.417.11-.772.331-1.205.525-.17.069-.355.11-.54.152-.016-.36-.108-.732-.108-1.091m.263 2.085c.186-.028.355-.055.525-.11.386-.139.773-.29 1.143-.47.232-.124.51-.18.772-.166a.9.9 0 0 1 .263.124l.355.332s.077.097.124.124c-.14.47-.278.925-.448 1.381-.031.11-.077.221-.124.332v.096l-.092.18a3 3 0 0 1-.201.29c0 .027-.031.055-.046.083l-1.746-1.381a9 9 0 0 0-.525-.815m1.807 4.75a15 15 0 0 0-.432-1.836l1.838 1.422c-.448.18-.927.318-1.406.414m8.71 3.039v9.666l-6.98-.096v-9.667c-.185-1.92 1.359-3.618 3.49-3.84h.031c2.162.236 3.707 1.99 3.46 3.937m1.838-3.232c-.123-.097-.247-.207-.37-.29a9.5 9.5 0 0 0-2.1-1.09c.277-.498.509-1.009.725-1.52a9.8 9.8 0 0 0 1.977.58c.062.166.14.331.216.497-.2.594-.355 1.202-.448 1.823m1.993-4.847c-.34.428-.633.898-.865 1.38a4 4 0 0 0-.803-1.836c.34-.4.68-.815.988-1.243.263.207.54.387.834.553.17.11.355.207.54.29-.215.276-.447.566-.694.856m1.359-1.712c-.325-.18-.649-.346-.973-.553-.726-.442-1.19-1.022-.726-1.823l.093-.138c.108-.22.293-.414.51-.552.107-.083.216-.152.339-.221.54.608 1.096 1.326 1.637 1.989-.247.414-.54.842-.88 1.298m1.436-2.362c-.417-.51-.819-1.036-1.236-1.56.201-.042.417-.083.618-.097q.557-.061 1.112 0a5.7 5.7 0 0 1-.494 1.657"/>
        </g>
    </g>
    <defs>
        <clipPath id="a">
            <path fill="#fff" d="M0 0h64v64H0z"/>
        </clipPath>
        <clipPath id="b">
            <path fill="#fff" d="M17 15h30.857v33.143H17z"/>
        </clipPath>
    </defs>
</svg>