<svg xmlns="http://www.w3.org/2000/svg" width="112" height="112" fill="none" viewBox="0 0 112 112">
    <g clip-path="url(#a)">
        <rect width="112" height="112" fill="#4B4B5E" rx="56"/>
        <g clip-path="url(#b)">
            <path fill="#fff" d="M40.943 26.915c-3.358-2.423-9.373.124-13.459 5.637-4.085 5.513-4.662 11.94-1.303 14.339 3.358 2.398 9.374-.1 13.459-5.612s4.662-11.941 1.303-14.364m-2.531 10.26a.48.48 0 0 1-.551.173h-.05a.435.435 0 0 1-.1-.618c1.202-2.027 1.252-3.362 1.027-3.535s-.903-.05-1.905.593a16 16 0 0 0-3.434 3.164c-2.506 3.165-2.882 5.81-2.682 5.983s1.053.05 2.507-1.063c.175-.173.476-.173.626 0a.43.43 0 0 1 0 .618c-1.654 1.285-3.208 1.483-3.71 1.063-.5-.42-.576-1.162-.325-2.101a14.5 14.5 0 0 1 2.882-4.945 17.8 17.8 0 0 1 3.61-3.485c1.679-1.064 2.531-.89 2.982-.544 1.203.989-.175 3.634-.902 4.721z"/>
            <path fill="#4B4B5E" d="m56.608 72.304.075.025h-.075z"/>
            <path fill="#fff" d="M76.258 36.853c-5.013-4.945-14.412-3.758-20.953 2.695a18.93 18.93 0 0 0-5.565 10.407c1.379.272 3.359.965 5.063 1.904a5.7 5.7 0 0 1-.175-3.239c.05-.271.35-.444.627-.395h.05a.493.493 0 0 1 .35.618c-.476 1.335-.15 2.794.803 3.832a4.03 4.03 0 0 0 3.935.593 12 12 0 0 0 5.288-3.214 11.9 11.9 0 0 0 3.258-5.24 3.83 3.83 0 0 0-.601-3.882c-.527-.47-1.203-.766-1.905-.791a.51.51 0 0 1-.476-.569c0-.272.25-.494.526-.494.953.074 1.83.47 2.506 1.112a4.87 4.87 0 0 1 .878 4.945 13.1 13.1 0 0 1-3.51 5.71 13.6 13.6 0 0 1-5.789 3.486c-.576.149-1.479.223-2.08.247-.05-.024-.1-.098-.15-.123 2.23 1.978 2.932 3.288 3.784 5.834.426 1.261.426 2.003.426 2.003s5.765.148 12.482-6.626a12.7 12.7 0 0 0 1.378-1.68c3.885-5.959 4.01-13.03-.15-17.133"/>
            <path fill="#fff" d="M46.958 49.956c-8.997-1.187-16.968 2.966-17.82 9.27s5.74 12.41 14.712 13.597c8.998 1.187 16.969-2.966 17.82-9.27.853-6.305-5.739-12.41-14.712-13.597m-2.13 15.698c-5.79-.766-9.975-3.783-9.574-6.75.225-1.754 2.18-3.238 5.213-3.831a.595.595 0 0 1 .677.47c.05.296-.15.618-.451.667-2.482.47-4.136 1.533-4.311 2.818-.301 2.225 3.659 4.673 8.596 5.34 4.938.643 9.4-.667 9.7-2.917.15-1.013-.501-2.027-1.73-2.967a.61.61 0 0 1-.15-.815.57.57 0 0 1 .802-.1 4.41 4.41 0 0 1 2.231 3.956c-.401 2.967-5.263 4.87-11.053 4.104zm10.802 7.145c-1.679-.668-2.055.741-2.155.988-.125.272 0 .816.927 1.657a16 16 0 0 0 3.96 2.472c3.76 1.805 6.291 1.434 6.417 1.162s-.2-1.088-1.68-2.25a.49.49 0 0 1 0-.667l.05-.05a.437.437 0 0 1 .602.05c1.654 1.31 2.331 2.521 1.955 3.387a2.02 2.02 0 0 1-2.005.89 15 15 0 0 1-5.664-1.583 17.4 17.4 0 0 1-4.186-2.744c-1.479-1.384-1.63-1.953-1.303-2.694.075-.174.45-.371.3-.445-.1-.05-.476.099-.727.173-1.203.346-1.83.395-3.057.519l-1.53.099c-1.152 3.757 2.733 8.504 8.974 10.927 6.441 2.497 12.882 1.409 14.411-2.472.602-2.176-.2-4.797-1.704-6.502-.075-.075-.175-.124-.276-.1-.526.075-2.255.372-4.41.223-1.655-.099-4.487-.593-8.397-2.769l-.502-.247z"/>
            <path fill="#fff" d="M74.83 56.952c-.427.42-1.805 1.582-1.805 1.582s3.183 1.607 3.082 4.747c-.2 2.99-3.935 5.463-8.496 5.463h-.777a11.23 11.23 0 0 1-5.59-1.73h-.05c-.852 1.335-2.005 2.496-3.358 3.436 0 0-2.005 1.236-2.005 1.434 0 .148.727.494.727.494.701.371 1.554.791 2.255 1.162 1.98.742 4.286 1.607 6.392 1.607 2.105 0 4.235-.297 4.235-.297 7.67-.84 13.535-5.414 13.535-10.902-.326-3.906-2.782-7.293-6.391-8.875-.05 0-.126.173-.427.445 0 0-.877.94-1.353 1.41zm-2.582 2.324c-1.404.988-2.758 1.903-5.565 3.016-1.403.568-3.484.692-3.935.692-.05 0-.1.05-.1.099-.15 1.038-.526 2.126-.927 2.991h.05c1.504.964 3.308 1.41 5.088 1.508h.727c3.91 0 7.218-1.804 7.368-4.277.276-1.582-1.178-3.337-2.681-4.03z"/>
        </g>
    </g>
    <defs>
        <clipPath id="a">
            <path fill="#fff" d="M0 0h112v112H0z"/>
        </clipPath>
        <clipPath id="b">
            <path fill="#fff" d="M24 26h59v60H24z"/>
        </clipPath>
    </defs>
</svg>