<svg xmlns="http://www.w3.org/2000/svg" width="64" height="64" fill="none" viewBox="0 0 64 64">
    <g clip-path="url(#a)">
        <rect width="64" height="64" fill="#4B4B5E" rx="32"/>
        <path fill="#fff" d="M25.589 41.896a.648.648 0 1 0 0-1.296.648.648 0 0 0 0 1.296M19.333 41.896a.648.648 0 1 0 0-1.296.648.648 0 0 0 0 1.296M38.088 41.896a.648.648 0 1 0 0-1.296.648.648 0 0 0 0 1.296M44.344 41.896a.648.648 0 1 0 0-1.296.648.648 0 0 0 0 1.296M31.845 41.896a.648.648 0 1 0 0-1.296.648.648 0 0 0 0 1.296M25.589 45.781a.648.648 0 1 0 0-1.295.648.648 0 0 0 0 1.295M19.333 45.781a.648.648 0 1 0 0-1.295.648.648 0 0 0 0 1.295M38.088 45.781a.648.648 0 1 0 0-1.295.648.648 0 0 0 0 1.295M44.344 45.781a.648.648 0 1 0 0-1.295.648.648 0 0 0 0 1.295M31.845 45.781a.648.648 0 1 0 0-1.295.648.648 0 0 0 0 1.295M47.4 37.259a3.89 3.89 0 0 0-2.758-1.373 3.9 3.9 0 0 0-1.891.583c-.431.277-.927.438-1.438.466a2.7 2.7 0 0 1-1.373-.466 3.9 3.9 0 0 0-1.956-.583c-.79 0-2.396 1.062-2.888 1.062a2.6 2.6 0 0 1-1.295-.453l-.169-.091a3.3 3.3 0 0 0-1.697-.518 3.9 3.9 0 0 0-1.89.583 3 3 0 0 1-1.451.466 2.76 2.76 0 0 1-1.373-.466 3.9 3.9 0 0 0-1.982-.583c-.79 0-2.41 1.062-2.901 1.062a2.6 2.6 0 0 1-1.296-.453 3.6 3.6 0 0 0-1.839-.61 3.6 3.6 0 0 0-2.59 1.425.7.7 0 0 0 .155.972.65.65 0 0 0 .402.13.71.71 0 0 0 .582-.298 2.15 2.15 0 0 1 1.49-.868c.406.037.794.18 1.127.414a3.9 3.9 0 0 0 2.008.635 8.2 8.2 0 0 0 2.448-.907q.25-.097.518-.116c.194-.01.388.02.57.09l.194.091.427.22a4 4 0 0 0 2.06.635q.447-.006.88-.117l1.982-.829q.233-.075.48-.09c.919 0 2.059 1.023 3.199 1.023a8.3 8.3 0 0 0 2.448-.907q.25-.1.518-.116c.194-.008.388.023.57.09l.18.091.428.22c.62.396 1.337.616 2.073.635a4.3 4.3 0 0 0 2.11-.622c.365-.238.784-.38 1.218-.414a2.36 2.36 0 0 1 1.62.867.71.71 0 0 0 .57.272.7.7 0 0 0 .44-.155.71.71 0 0 0 .09-.997M28.114 26.405a3.5 3.5 0 0 1 0-.648H16.457v1.295h11.657a3.5 3.5 0 0 1 0-.647M35.808 25.757q.021.324 0 .648.021.323 0 .647h11.657v-1.295z"/>
        <path fill="#fff" d="M34.487 25.757q.085.318.09.648a2.59 2.59 0 1 1-5.18 0q.006-.33.09-.648h-1.372q-.03.323 0 .648a3.886 3.886 0 0 0 7.77 0 5 5 0 0 0 0-.648zM47.53 32.35H16.444v1.295H47.53z"/>
        <path fill="#fff" d="M35.808 16.03c-.414 0-2.306 2.5-3.627 5.466a12.6 12.6 0 0 0-1.476 5.18 1.295 1.295 0 0 0 2.59 0 11.7 11.7 0 0 1-.13-4.74c.55-2.1 1.443-4.096 2.643-5.906"/>
    </g>
    <defs>
        <clipPath id="a">
            <path fill="#fff" d="M0 0h64v64H0z"/>
        </clipPath>
    </defs>
</svg>