<svg xmlns="http://www.w3.org/2000/svg" width="64" height="64" fill="none" viewBox="0 0 64 64">
    <g clip-path="url(#a)">
        <rect width="64" height="64" fill="currentColor" rx="32"/>
        <path fill="#fff" stroke="#fff" stroke-miterlimit="10" d="m30.283 33.782 6.575-6.467.28 1.314s-5.173 3.008-6.65 6.036c-.463-1.455-.205-.883-.205-.883Z"/>
        <path fill="#fff" d="M44.953 20.222c-3.794-.646-4.247 3.072-6.241 3.234a3.88 3.88 0 0 1-2.533-.82l-.938 2.77s1.132 1.079 1.208 1.8c.075.723-.615 3.32.42 5.282s2.544 3.352 2.867 4.797.075 1.961.83 5.28a12 12 0 0 0 2.263 5.024h2.156zM30.592 41.309c1.906-.886 2.479-3.695 1.28-6.276s-3.716-3.955-5.621-3.07-2.479 3.696-1.28 6.276 3.716 3.955 5.621 3.07"/>
        <path fill="#fff" d="M24.7 28.425c1.078.927 1.692 1.52 2.36 2.155a2.94 2.94 0 0 0-2.392.884 4.9 4.9 0 0 0-1.229 1.628 23.2 23.2 0 0 1-3.104-4.182c-4.333-6.327 1.584-10.488 8.418-9.27 2.873.67 5.61 1.826 8.094 3.417l-1.272 2.76a16.7 16.7 0 0 0-6.671-3.558c-4.71-1.153-9.302 1.693-4.204 6.166"/>
    </g>
    <defs>
        <clipPath id="a">
            <path fill="#fff" d="M0 0h64v64H0z"/>
        </clipPath>
    </defs>
</svg>