<svg xmlns="http://www.w3.org/2000/svg" width="64" height="64" fill="none" viewBox="0 0 64 64">
    <g clip-path="url(#a)">
        <rect width="64" height="64" fill="#4B4B5E" rx="32"/>
        <g fill="#fff" clip-path="url(#b)">
            <path d="m23.054 34.142-.071.521c-.114.897.271 1.867 1.014 2.547l.114.116c.728.593 1.67.84 2.5.637l.513-.13s1.043-.854 1.6-1.433a4 4 0 0 1-.572.058c-1.056 0-2.199-.42-3.127-1.26a5.15 5.15 0 0 1-1.414-2.156 25 25 0 0 0-.557 1.086z"/>
            <path d="M23.783 37.543c-.871-.796-1.257-1.896-1.129-2.865-.47.115-.9.347-1.228.723-1 1.129-.756 3.01.543 4.197 1.3 1.187 3.17 1.23 4.17.102a2.56 2.56 0 0 0 .585-1.318c-.942.232-2.07-.028-2.941-.824zM20.455 41.957a3.05 3.05 0 0 1-.628-2.865c-.471.087-.942.275-1.314.622-1.156 1.028-1.228 2.88-.157 4.11 1.071 1.245 2.885 1.404 4.041.377.386-.348.643-.782.786-1.245-.957.174-2.014-.174-2.728-.999M39.648 32.796c-1.17 1.013-2.585 1.433-3.713 1.23 0 .58.172 1.1.514 1.52 1.057 1.26 3.342 1.042 5.113-.478 1.756-1.52 2.327-3.777 1.27-5.036-.356-.42-.842-.651-1.399-.753.014 1.158-.614 2.49-1.785 3.517"/>
            <path d="M41.819 35.778c-1.171 1.013-2.442 1.447-3.585 1.23.015.579.029 1.1.4 1.534 1.085 1.288 3.399 1.1 5.155-.42s2.314-3.806 1.228-5.094c-.357-.435-.856-.68-1.428-.782.029 1.172-.585 2.518-1.77 3.546zM44.818 39.512c-1.214 1.273-2.585 2.055-3.628 2.2-.042.52.058.97.343 1.258.886.869 3.07.015 4.884-1.895s2.556-4.154 1.67-5.023c-.3-.289-.742-.376-1.256-.303-.086 1.07-.814 2.489-2.013 3.762M50.316 39.512c-.329.81-.9 1.389-1.486 1.591.129.276.329.493.586.608.785.333 1.885-.55 2.37-1.75.486-1.202.2-2.288-.585-2.62-.257-.116-.543-.102-.828 0 .27.55.27 1.374-.057 2.185zM46.603 44.823c-1.2.622-2.414.825-3.242.593-.143.406-.171.782 0 1.1.486.956 2.342.97 4.141.03 1.8-.941 2.856-2.476 2.37-3.445-.156-.319-.485-.521-.899-.637-.3.81-1.157 1.708-2.356 2.33v.029zM30.366 23.895c.7.767 1.57 1.78 2.499 2.2.985.434 2.07.044 2.07.044 1.057-.464 2.057-1.52 2.842-2.345.286-.304.529-.565.771-.782l-.114-5.282c-.028-1.346-1.185-2.403-2.513-2.287-1.057.087-3.584.029-3.699.029h-.142c-1.343-.101-2.485.999-2.471 2.374l.071 5.34c.215.203.429.449.686.71M30.552 34.055c-.957.087-2.214-.318-2.842-.709-.172-.101-.6-.521-.6-.521-1-.912-1.585-2.113-1.628-3.314a2.5 2.5 0 0 0-.857.593c-.442.492-.657 1.158-.614 1.896.057.999.571 1.997 1.4 2.735 1.485 1.346 3.57 1.448 4.64.246.23-.246.386-.564.486-.926zM20.398 45.46h-.214c-.885-.058-1.7-.478-2.3-1.172a3.47 3.47 0 0 1-.842-2.46c.029-.377.115-.725.257-1.057-.214.115-.428.231-.628.29a.7.7 0 0 0-.428.404c-.029.073-.757 1.896.542 3.705 1.271 1.766 3.428 1.78 3.513 1.78.243 0 .472-.13.6-.332.271-.434.643-.985 1.043-1.578-.457.275-.986.42-1.543.42M20.541 38.34l-.171.564c-.257.853-.043 1.823.557 2.518.6.709 1.528 1.042 2.399.883l.585-.102s.714-.84 1.114-1.375a2.9 2.9 0 0 1-.7.13h-.171c-.886 0-1.8-.361-2.513-1.012-.643-.594-1.086-1.607-1.086-1.607z"/>
            <path d="m35.578 33.433.414.072c1.071.188 2.37-.246 3.413-1.143 1.057-.926 1.671-2.142 1.657-3.242v-.434s-.557-3.358-.557-4.849c0-.29-.172-.55-.429-.665a.69.69 0 0 0-.77.144l-2.257 2.215c-.985.955-1.856 1.49-2.3 1.577-.113.03-1.17.16-1.484.044-1.157-.42-1.828-.898-2.542-1.896l-1.614-2.244a.71.71 0 0 0-.685-.29.72.72 0 0 0-.571.493c-.443 1.39-1.586 5.24-1.586 5.24l-.057.506c-.114 1.042.314 2.156 1.143 3.01l.228.203c.971.883 2.242 1.259 3.328.998l.5-.115s1.527.043 2.227.029h.043c.585 0 1.9.361 1.9.361zM40.705 41.248l.285-.043c1.014-.145 2.328-.941 3.413-2.099 1.1-1.172 1.828-2.518 1.914-3.546l.029-.29s-.143-.187-.272-.274a4.4 4.4 0 0 1-.1.94c-.242 1.043-.885 2.041-1.799 2.823-.9.781-1.985 1.259-3.027 1.346h-.329c-.286 0-.557-.044-.814-.101.243.405.471.81.7 1.23zM53.029 39.034c-.1-.29-.258-.507-.443-.695.157.565.114 1.245-.172 1.954-.328.796-.885 1.447-1.499 1.795.257.072.557.115.885 0 .415-.145.743-.478.986-.985.371-.767.457-1.461.257-2.055zM50.258 44.592s-.057-.102-.1-.16c-.285.941-1.214 1.969-2.57 2.663-.914.478-1.87.738-2.7.738h-.028c-.257 0-.5-.043-.714-.087.057.13.129.261.172.391.114.26.357.434.628.434h.143c.485 0 2.17-.057 3.313-.723 1.356-.796 1.985-2.446 2.013-2.518a.73.73 0 0 0-.157-.753zM42.69 44.693l.314.087c.728.202 1.828 0 2.884-.522v-.029l.115-.057c1.07-.55 1.899-1.375 2.185-2.142l.114-.304s-.157-.521-.243-.724l-.171-.362.37-.13c.515-.174 1-.71 1.272-1.39l.071-.159c.215-.636.215-1.273 0-1.707l-.185-.362s-.143-.333-.414-.434c-.115-.044-.072.086-.186.043.457 1.201-.314 3.213-2 4.993-1.356 1.419-3.098 2.157-4.298 2.171h-.043a.57.57 0 0 0-.3.087c.215.405.486.926.486.926z"/>
        </g>
    </g>
    <defs>
        <clipPath id="a">
            <path fill="#fff" d="M0 0h64v64H0z"/>
        </clipPath>
        <clipPath id="b">
            <path fill="#fff" d="M16 15.429h37.143v33.143H16z"/>
        </clipPath>
    </defs>
</svg>