<svg xmlns="http://www.w3.org/2000/svg" width="64" height="64" fill="none" viewBox="0 0 64 64">
    <g clip-path="url(#a)">
        <rect width="64" height="64" fill="currentColor" rx="32"/>
        <path fill="#fff" d="M42.571 36.724a3.26 3.26 0 0 0-.59-2.043 3.6 3.6 0 0 0 .39-1.665c0-1.417-.697-2.563-1.56-2.575v-.283a2.6 2.6 0 0 0-1.24-2.516 3 3 0 0 0 .072-.673c0-1.31-.59-2.362-1.358-2.539a4 4 0 0 0 0-.567 2.75 2.75 0 0 0-1.051-2.362c.023-1.405-.72-2.492-1.56-2.492-.838 0-1.558 1.181-1.558 2.563q0 .352.059.697h-.13c-.874 0-1.57 1.18-1.57 2.574v.178a2.6 2.6 0 0 0-.461.814.9.9 0 0 0-.19-.177q.1-.431.107-.874c0-1.417-.709-2.562-1.57-2.562v-.213c0-1.417-.721-1.96-1.595-1.96s-1.535.543-1.535 1.96a3 3 0 0 0 0 .307 3.06 3.06 0 0 0-.803 2.244c-.01.526.086 1.048.283 1.535a2.79 2.79 0 0 0-1.039 2.362 3 3 0 0 0 0 .319 3.02 3.02 0 0 0-.838 2.256c-.01.66.166 1.311.507 1.877a3.6 3.6 0 0 0-.401 1.7 3.7 3.7 0 0 0 .354 1.619c-.091.35-.139.712-.142 1.075 0 1.405.685 2.539 1.547 2.562a1 1 0 0 0 0 .19c0 1.298.58 2.361 1.347 2.538a2.07 2.07 0 0 0 1.677.992 2.21 2.21 0 0 0 1.925-1.429c.18.117.388.182.602.19.685 0 1.275-.745 1.476-1.76a1.39 1.39 0 0 0 1.181.803h-.012a2.48 2.48 0 0 0 1.181 2.113 2.27 2.27 0 0 0 1.949 1.488c1.18 0 2.126-1.18 2.255-2.704a2.93 2.93 0 0 0 .922-2.362 4.3 4.3 0 0 0-.071-.685c.85-.07 1.44-1.157 1.44-2.515"/>
    </g>
    <defs>
        <clipPath id="a">
            <path fill="#fff" d="M0 0h64v64H0z"/>
        </clipPath>
    </defs>
</svg>