<svg xmlns="http://www.w3.org/2000/svg" width="64" height="64" fill="none" viewBox="0 0 64 64">
    <g clip-path="url(#a)">
        <rect width="64" height="64" fill="currentColor" rx="32"/>
        <path fill="#fff" d="M47.951 15.536a11.1 11.1 0 0 0-4.007 3.557 11.1 11.1 0 0 0-1.873 5.028 13.4 13.4 0 0 1-2.363 6.304c-.25.315-.515.605-.791.895l-.59.593-.579.567a2.78 2.78 0 0 1-1.872.668 11.04 11.04 0 0 0-5.378-1.336 11.1 11.1 0 0 0-5.34 1.26 2.73 2.73 0 0 1-2.11-.756L21.05 30.3l-1.131 1.135-.49.504 2.01 2.03c.464.51.72 1.176.716 1.866a6.2 6.2 0 0 0-.766 2.723c0 2.748 2.186 5.106 5.327 6.165q.57.189 1.156.315A3.85 3.85 0 0 1 29.292 48h2.3a3.88 3.88 0 0 1 1.382-2.912c3.77-.82 6.52-3.43 6.52-6.506a5.4 5.4 0 0 0-.803-2.799c.022-.376.116-.744.276-1.084q1.353-1.163 2.513-2.521a13.4 13.4 0 0 0 2.727-5.787c.25-1.929.869-3.79 1.822-5.484a6.92 6.92 0 0 1 3.191-3.215 1.261 1.261 0 0 0-1.269-2.156"/>
    </g>
    <defs>
        <clipPath id="a">
            <path fill="#fff" d="M0 0h64v64H0z"/>
        </clipPath>
    </defs>
</svg>