<svg xmlns="http://www.w3.org/2000/svg" width="64" height="64" fill="none" viewBox="0 0 64 64">
    <g clip-path="url(#a)">
        <rect width="64" height="64" fill="currentColor" rx="32"/>
        <g fill="#fff" clip-path="url(#b)">
            <path d="M32.502 44.619c-1.655 0-3.082-.657-3.87-1.613-.387.472-.627 1.025-.627 1.613 0 1.785 2.009 3.236 4.486 3.236s4.486-1.45 4.486-3.236c0-.588-.24-1.14-.628-1.613-.776.968-2.203 1.613-3.87 1.613z"/>
            <path d="M35.607 48.547v.023c0 .264-1.347.852-3.573.852-1.815 0-2.899-.438-2.899-.91-.034-.357-.091-.898-.126-1.509a3.6 3.6 0 0 1-.901-1.014 35 35 0 0 0 .17 2.58c0 1.072 1.405 1.717 3.756 1.717 1.53 0 4.418-.357 4.429-1.705.034-.795.057-1.486.068-2.096a3.8 3.8 0 0 1-.878.76c0 .438-.023.875-.046 1.313zM30.482 28.102c.582.322 1.495.242 1.495.242s.913.08 1.495-.242c.88-.484 2.283-2.442 2.477-3.916.149-1.095-.388-2.592-1.255-3.571-.856-.98-1.735-1.175-2.557-1.175s-2.089.242-2.9 1.175c-.855.979-1.392 2.488-1.255 3.57.194 1.475 1.598 3.433 2.477 3.917z"/>
            <path d="M41.017 28.205c-.09-.564-.194-1.267-.114-1.624.183-.783.411-2.58-.057-3.156-.25-.31-.605-.449-.913-.334-.228.081-.388.277-.388.507 0 .092 0 .265.011.472.023.357.046.887 0 1.106-.114.415-.216 1.071-.296 1.601-.012.104-.035.196-.046.288-.833-.76-1.963-1.313-3.344-.91-.594 1.117-1.462 2.154-2.135 2.523-.662.368-1.632.31-1.758.3h-.262c-.354 0-1.005-.047-1.484-.312-.674-.369-1.541-1.394-2.135-2.522-1.346-.403-2.465.126-3.298.864-.023-.139-.046-.3-.08-.473-.08-.53-.183-1.186-.297-1.6-.034-.116 0-.38.034-.6.046-.403.103-.829-.057-1.105-.16-.265-.354-.404-.57-.427-.252-.023-.468.116-.685.392-.457.564-.274 2.235-.058 3.156.103.45.069 1.083.035 1.74-.023.356-.035.713-.035 1.059v.288h.012v.046c-.16 1.509 1.415 6.289 2.066 7.245.593.864 1.278.46 1.883.115.16-.092.343-.196.525-.288.035-.057.046-.104.08-.173.582-1.29 2.546-.126 2.774-.023l.525.254s-.069.057-.103.092l-.08.034s.012 0 .023.012c-.308.3-.776.875-1.244 1.958a2.33 2.33 0 0 1-.183-1.152c.046-.576.936-.944.936-.944s-1.94-.945-2.397-.104c-.456.84-.262 1.094-.673 1.267s-1.256.472-1.256.944c0 .473.48 2.846 1.667 3.318.274.115.56.092.867.103 0 .023 0 .046-.011.07a3.4 3.4 0 0 0-.24.806c.057-.08.103-.162.16-.23l.217-.265.217.264c.08.093.182.162.262.242.046-.196.092-.357.16-.484a.2.2 0 0 0 .034-.103v-.035c.537.357.514.795 2.66.795 2.249 0 2.1-.472 2.728-.84.171-.105.33-.15.49-.185.092.184.183.368.297.564.046.08.08.3.103.565.194-.162.388-.311.537-.507l.194-.242a1 1 0 0 0-.16-.357c-.023-.046-.034-.08-.057-.127.068-.011.137-.023.217-.046 1.175-.472 1.666-2.845 1.666-3.317s-.833-.76-1.255-.944c-.423-.185-.229-.427-.674-1.267-.445-.841-2.397.103-2.397.103s.88.357.936.945c.023.219.034.564-.091.944-.365-.795-.765-1.451-1.358-1.958l.388-.196c.228-.103 2.123-1.175 2.682-.115.034.058.137.242.16.3.194.092.388.195.56.299.604.357 1.277.749 1.871-.115.502-.726 1.53-3.675 1.918-5.702.137-.265.25-.714.376-1.52l.023-.104c.046-.276-.023-.714-.103-1.21zm-7.065 11.196c-.388.38-.993.714-1.963.921h-.023c-.868-.184-1.427-.472-1.815-.806.525-1.347 1.039-1.935 1.29-2.165.125.138.262.207.377.219h.09c.23 0 .457-.127.674-.357.594.506.97 1.232 1.37 2.188"/>
        </g>
    </g>
    <defs>
        <clipPath id="a">
            <path fill="#fff" d="M0 0h64v64H0z"/>
        </clipPath>
        <clipPath id="b">
            <path fill="#fff" d="M22.857 19.429h18.286v30.857H22.857z"/>
        </clipPath>
    </defs>
</svg>