<svg xmlns="http://www.w3.org/2000/svg" width="64" height="64" fill="none" viewBox="0 0 64 64">
    <g clip-path="url(#a)">
        <rect width="64" height="64" fill="#4B4B5E" rx="32"/>
        <path fill="#fff" d="M47.26 27.088a64 64 0 0 1-4.613.42c-3.864.263-6.204.421-9.66 3.943a14.8 14.8 0 0 1-2.629 2.143 18 18 0 0 0 1.42-3.536 9 9 0 0 0 .197-3.062v-1.459c.394-.63.946-1.485 1.538-2.352h.63c1.825.049 3.633-.363 5.258-1.197a.63.63 0 0 0 .236-.893.736.736 0 0 0-.96-.21 9.34 9.34 0 0 1-4.323.998q.06-.093.105-.197c.539-1.012.42-2.97 1.38-3.167a.657.657 0 0 0 .526-.776.697.697 0 0 0-1-.486c-1.655.329-1.787 2.839-2.326 3.851q-.31.614-.696 1.183c-.263.381-.526.775-.763 1.143a39 39 0 0 0-2.05-7.11l-.079-.381a.697.697 0 0 0-.867-.434.644.644 0 0 0-.46.815 42 42 0 0 1 1.84 9.765q.039 1.095-.092 2.182a9.7 9.7 0 0 1-5.257-7.373.684.684 0 0 0-.723-.618.67.67 0 0 0-.67.67c-.027.25.289 5.507 6.308 8.688a12.54 12.54 0 0 1-2.747 4.941 6.7 6.7 0 0 0-1.196 1.775 14.5 14.5 0 0 0-.972 4.258q-.111 1.186-.342 2.352a3.2 3.2 0 0 1-.394 1 61 61 0 0 1-1.814-7.334 18 18 0 0 1 0-1.946 7.4 7.4 0 0 0 3.943-3.167.617.617 0 0 0-.276-.88.723.723 0 0 0-.946.25 5.9 5.9 0 0 1-2.721 2.378c.131-2.182.407-4.35.407-4.376a.66.66 0 0 0-.604-.723.696.696 0 0 0-.775.565 46.5 46.5 0 0 0-.408 8.03q.149 1.144.434 2.26a6.57 6.57 0 0 1-3.273-3.114.736.736 0 0 0-.933-.25.63.63 0 0 0-.329.868 8.04 8.04 0 0 0 4.903 4.1 105 105 0 0 0 1.314 4.6 4.4 4.4 0 0 1-.88.486 1.22 1.22 0 0 1 1.05.119c.527.276 1.066.985.855 1.314 0 .066-.092.092-.131.131a5.69 5.69 0 0 0 3.338-4.021c.184-.933.276-1.696.355-2.419.085-1.352.382-2.682.88-3.943q.185-.432.46-.814a19.7 19.7 0 0 0 5.166-3.562 14.08 14.08 0 0 1 9.108 2.523c.123.087.27.133.42.132a.7.7 0 0 0 .552-.263.606.606 0 0 0-.144-.907 15.77 15.77 0 0 0-8.504-2.826 8.7 8.7 0 0 1 2.445-1.511 12.1 12.1 0 0 0 5.678 1.183 22 22 0 0 0 2.944-.21.66.66 0 0 0 .59-.736.71.71 0 0 0-.788-.552 17.7 17.7 0 0 1-6.413-.263c.867-.145 1.813-.21 2.957-.29 1.143-.078 2.852-.197 4.718-.433a.657.657 0 0 0 .591-.736.683.683 0 0 0-.788-.539"/>
        <path fill="#fff" d="M23.484 47c-.17.223-.788.13-1.17-.132-.38-.263-.538-.657-.367-.894.17-.236.644-.197 1.025 0s.696.802.512 1.025"/>
    </g>
    <defs>
        <clipPath id="a">
            <path fill="#fff" d="M0 0h64v64H0z"/>
        </clipPath>
    </defs>
</svg>