<svg xmlns="http://www.w3.org/2000/svg" width="64" height="64" fill="none" viewBox="0 0 64 64">
    <g clip-path="url(#a)">
        <rect width="64" height="64" fill="#4B4B5E" rx="32"/>
        <path fill="#fff" d="M39.723 21.888c-4.48 0-3.147 2.187-5.707 2.208-2.325 0-1.824-4.427-1.824-4.427h-2.667s-.309 4.267 1.28 6.315c2.571 3.328 2.944 9.867-2.133 9.781-2.133 0-2.133-2.069-5.141-2.069A5.27 5.27 0 0 0 19.2 35.68l1.995 1.28a2.05 2.05 0 0 1 1.802-1.13 2.133 2.133 0 0 1 2.07 2.186c0 1.301-1.6 2.517-.534 4.65s4.16 2.88 9.142 2.433c4.394-.299 8.394-5.344 10.154-10.966 2.304-7.466.331-12.245-4.106-12.245"/>
    </g>
    <defs>
        <clipPath id="a">
            <path fill="#fff" d="M0 0h64v64H0z"/>
        </clipPath>
    </defs>
</svg>