<svg xmlns="http://www.w3.org/2000/svg" width="64" height="64" fill="none" viewBox="0 0 64 64">
    <g clip-path="url(#a)">
        <rect width="64" height="64" fill="currentColor" rx="32"/>
        <g fill="#fff" clip-path="url(#b)">
            <path d="M35.128 48H31.01V37.307a2.59 2.59 0 0 0-1.256-2.155c-4.907-1.083-8.33-4.533-8.33-8.393 0-1.23.348-2.432.976-3.49a2.62 2.62 0 0 0-.722-1.52l-2.82-2.894L21.717 16l2.915 2.895c.468.436 1.096.7 1.751.713a14.4 14.4 0 0 1 6.699-1.56c2.3-.039 4.599.516 6.658 1.574a2.63 2.63 0 0 0 1.952-.688l2.861-2.841 2.875 2.868-2.902 2.828a2.57 2.57 0 0 0-.722 1.573 8.1 8.1 0 0 1 .896 3.37c0 3.477-2.634 6.544-6.885 8.024-.455.158-.923.29-1.377.396a2.6 2.6 0 0 0-1.297 2.208V48zm-2.78-1.322h1.443v-9.331c.027-1.428.83-2.71 2.073-3.397l.174-.067a11 11 0 0 0 1.323-.37c3.704-1.282 6.003-3.872 6.003-6.754a6.7 6.7 0 0 0-.829-2.934l-.08-.159v-.172a3.92 3.92 0 0 1 1.11-2.643l1.965-1.917-.976-.965-1.939 1.917a3.98 3.98 0 0 1-3.155 1.031l-.24-.08c-1.886-.99-4.038-1.533-6.15-1.48-2.207 0-4.32.476-6.218 1.48l-.133.067h-.16a3.87 3.87 0 0 1-2.875-1.097l-1.966-1.956-.989.99 1.912 1.97c.682.7 1.07 1.613 1.11 2.578v.198l-.107.172a5.54 5.54 0 0 0-.883 2.987c0 3.265 3.035 6.186 7.394 7.124l.187.066c1.203.688 1.979 1.957 2.005 3.331v9.411"/>
            <path d="M38.805 35.681c-.575-.198-1.016-.251-1.39-.185-.08.026-.16.053-.241.066a2.6 2.6 0 0 0-1.297 2.208v8.935s.053.04.08.053c1.096.383 3.904-1.507 5.014-4.627s.388-5.551-2.153-6.45zM30.235 37.717a2.59 2.59 0 0 0-1.257-2.155c-.093-.026-.2-.053-.294-.08-.348-.026-.749 0-1.27.2-2.54.898-3.236 3.33-2.14 6.45 1.084 3.066 3.878 4.93 4.948 4.626v-9.041z"/>
        </g>
    </g>
    <defs>
        <clipPath id="a">
            <path fill="#fff" d="M0 0h64v64H0z"/>
        </clipPath>
        <clipPath id="b">
            <path fill="#fff" d="M18.857 16h28.571v32h-28.57z"/>
        </clipPath>
    </defs>
</svg>