<svg xmlns="http://www.w3.org/2000/svg" width="64" height="64" fill="none" viewBox="0 0 64 64">
    <g clip-path="url(#a)">
        <rect width="64" height="64" fill="#4B4B5E" rx="32"/>
        <g clip-path="url(#b)">
            <path fill="#fff" d="M45.955 37.984a4.91 4.91 0 0 1-3.227-2.67c-.73-1.871-6.695-8.36-12.173-11.658C25.974 20.97 22.9 16.292 22.215 11H18l.487 35.912c.03 1.81 5.95 4.019 5.95 4.019 1.552.476 3.135.844 4.733 1.105 6.345.613 10.317-1.32 13.36-7.272.35-.982 1.446-2.516 2.39-2.7a2.23 2.23 0 0 0 1.628-.966 2.257 2.257 0 0 0-.593-3.114m-13.727-8.698c.122-.154.29-.215.487-.215h.061c.655.03 1.552.736 2.222 1.749.304.46.76.828 1.202 1.181.457.368.898.721 1.005 1.074.137.552 0 1.166-.335 1.61-.472.553-1.674.016-3.47-1.534a5.2 5.2 0 0 1-1.126-2.147v-.046a1.76 1.76 0 0 1-.046-1.672m-8.476 3.927c.03-.154.152-.276.35-.384.274-.138.685-.23 1.202-.23.685 0 1.537.154 2.435.522.64.26 1.4.368 2.116.46.73.107 1.43.2 1.81.445.533.353.852.982.822 1.61-.076.43-.776 1.044-4.778.43a7.1 7.1 0 0 1-2.724-1.38l-.183-.108c-.791-.46-1.202-.72-1.05-1.38zm8.903 4.525c.395 0 .852.092 1.323.261.503.184 1.02.138 1.477.092.426-.046.806-.077 1.02.077.395.353.623.859.638 1.396 0 .184-.06.322-.182.445-.396.398-1.416.567-2.968.506a3.74 3.74 0 0 1-1.887-.936l-.045-.03a.96.96 0 0 1-.518-1.074.6.6 0 0 1 .29-.522c.212-.138.501-.215.867-.215zm-9.222 3.774c0-.874 1.126-1.35 2.16-1.35h.016c.274 0 .563.03.837.092h.304c.852.2 1.385.322 2.648.66.806.276 1.46.905 1.75 1.718.091.353 0 .736-.244 1.012a3.12 3.12 0 0 1-2.404.905c-.365 0-.715-.046-1.065-.122-.776-.2-1.522-.46-2.252-.798l-.32-.138a1.806 1.806 0 0 1-1.43-1.979m7.03 5.354c-.06.215-.7.797-1.796 1.196-.79.292-2.297.645-3.515-.2-.608-.429-1.248-.935-1.324-1.549-.03-.398.107-.736.396-.981.335-.292.852-.43 1.446-.43.32 0 .67.046 1.02.138.562.154 1.186.062 1.734-.03.533-.077 1.035-.154 1.309 0a1.85 1.85 0 0 1 .7 1.871zm7.64 1.181c-.35.476-.883.644-1.34.46-.822-.322-1.704.016-2.404.307-.761.307-1.08.399-1.233.092-.289-.567-.365-1.028-.258-1.38.167-.476.67-.722 1.126-.936q.205-.093.365-.184c1.324-.767 2.07-1.059 2.572-1.059s.776.322 1.126.782c.548.706.365 1.473.045 1.918m6.923-8.115v.322h-.015v.445h-.426c-.791.046-1.583.169-2.374.322-.274.26-.532.997-.776 1.764-.487 1.504-1.096 3.36-2.693 4.08a2.1 2.1 0 0 0-.26-.72c1.264-.583 1.781-2.179 2.238-3.59.137-.399.258-.767.395-1.089-.182.153-.365.368-.563.583-.715.782-1.597 1.749-3.378 1.749h-.03c-2.268.368-4.46 1.365-6.3 2.822.015-.291 0-.583-.107-.859 1.872-1.396 4.048-2.362 6.346-2.73 1.506 0 2.206-.767 2.891-1.519.426-.46.822-.89 1.37-1.074-.122 0-.259 0-.366.015-.136.108-.273.23-.426.369-.897.782-2.008 1.749-3.773 1.749h-.031c-.624.138-1.202.276-1.735.398-1.187.276-2.085.491-3.12.491-.152 0-.304 0-.456-.03.091-.23.122-.491.091-.767 1.111.06 2.01-.138 3.303-.445.532-.123 1.126-.261 1.826-.415 1.339 0 2.222-.598 2.967-1.227-.609 0-1.309-.2-2.222-.828 0-.077.046-.138.046-.215 0-.2-.046-.399-.106-.583l.076-.107c1.43 1.12 2.13 1.012 3.013.89.06 0 .137-.016.213-.031.076-.061.167-.123.243-.184-.624-.292-1.187-.69-1.552-1.273-.624-.967-.883-1.09-3.5-1.488a7.3 7.3 0 0 1-3.09-1.013c0-.046.047-.077.062-.123 0-.276-.046-.552-.137-.813.974.66 2.1 1.074 3.271 1.181 2.587.4 3.211.537 4.048 1.826.427.66 1.187 1.058 1.994 1.288.06 0 .137 0 .198-.015-.03 0-.046-.015-.076-.03-.655-.4-.776-.69-.898-1.151-.107-.353-.244-.844-1.08-1.764a13 13 0 0 0-2.953-1.38q.228-.323.32-.691c1.08.353 2.115.828 3.074 1.442l.076.061c.989 1.09 1.156 1.703 1.278 2.117.091.322.122.43.548.69a5.5 5.5 0 0 0 2.48.599h.046l-.046.383v.507z"/>
        </g>
    </g>
    <defs>
        <clipPath id="a">
            <path fill="#fff" d="M0 0h64v64H0z"/>
        </clipPath>
        <clipPath id="b">
            <path fill="#fff" d="M18 11h28.929v41.143H18z"/>
        </clipPath>
    </defs>
</svg>