<svg xmlns="http://www.w3.org/2000/svg" width="64" height="64" fill="none" viewBox="0 0 64 64">
    <g clip-path="url(#a)">
        <rect width="64" height="64" fill="#4B4B5E" rx="32"/>
        <path fill="#fff" d="M41.961 49.828c.714-.714.907-1.68.431-2.155-.476-.476-1.44-.283-2.155.43-.714.715-.907 1.68-.43 2.156.475.476 1.44.283 2.154-.431"/>
        <path fill="#fff" d="M48.299 39.932a1.22 1.22 0 0 0-1.707.207 8 8 0 0 1-1.694 1.511c-.23.125-.484.2-.744.22q.35-.44.634-.927a16.5 16.5 0 0 0 1.536-9.167 1.23 1.23 0 1 0-2.438.33 14.4 14.4 0 0 1-1.037 7.24 10.4 10.4 0 0 1-1.218-1.938 11.6 11.6 0 0 1-.318-3.474 1.22 1.22 0 0 0-2.438-.061 13.7 13.7 0 0 0 .488 4.462 14.6 14.6 0 0 0 1.926 3.084c-.634.622-1.34 1.219-1.975 1.743a9 9 0 0 0-.256-.987 23 23 0 0 0-.439-3.255 10.3 10.3 0 0 0-2.108-3.804 12.4 12.4 0 0 1-1.524-2.352 9.75 9.75 0 0 0 3.547-2.134 16.6 16.6 0 0 0 2.853-5.449 1.22 1.22 0 0 0-2.329-.731 14.5 14.5 0 0 1-2.182 4.388 6.3 6.3 0 0 1-2.097 1.329 48.8 48.8 0 0 1 2.597-9.618 1.829 1.829 0 1 0-3.413-1.305c-.134.366-.695 1.865-1.293 3.791q-.692-1.051-1.536-1.986a10.2 10.2 0 0 0-4.413-2.56 1.22 1.22 0 1 0-.609 2.364 7.6 7.6 0 0 1 3.206 1.817l.512.61c-.918.327-1.879.52-2.852.572a10.5 10.5 0 0 1-3.658-1.329 1.22 1.22 0 0 0-1.67.44 1.22 1.22 0 0 0 .44 1.657c1.481.91 3.146 1.481 4.875 1.67 1.416-.079 2.81-.38 4.133-.89h.073q.283.54.5 1.11a20 20 0 0 0-.683 4.998 33.4 33.4 0 0 0-4.973-1.902 22.1 22.1 0 0 0-7.985-.817 1.229 1.229 0 0 0 .304 2.438c2.363-.182 4.739.07 7.01.744.427.122.829.244 1.219.378-2.072.09-4.09.69-5.876 1.743a1.219 1.219 0 0 0 1.366 2.012 11.87 11.87 0 0 1 7.314-1.28 7.23 7.23 0 0 1 4.547 2.877 6.5 6.5 0 0 1 1.219 2.035q.28 1.426.353 2.877c.01 1.388.296 2.76.842 4.035a11.2 11.2 0 0 0 2.62 2.914 2.67 2.67 0 0 1 .854-1.902 2.84 2.84 0 0 1 1.56-.84q-.65-.57-1.219-1.22a30 30 0 0 0 1.682-1.353q.746.105 1.5.11a5.55 5.55 0 0 0 2.962-.695 10.6 10.6 0 0 0 2.28-2.048 1.22 1.22 0 0 0-.268-1.682"/>
    </g>
    <defs>
        <clipPath id="a">
            <path fill="#fff" d="M0 0h64v64H0z"/>
        </clipPath>
    </defs>
</svg>