<svg xmlns="http://www.w3.org/2000/svg" width="64" height="64" fill="none" viewBox="0 0 64 64">
    <g clip-path="url(#a)">
        <rect width="64" height="64" fill="currentColor" rx="32"/>
        <path fill="#fff" d="M26.808 30.3a6.1 6.1 0 0 0-.075-2.702s2.011 0 2.602-2.804c.716-3.243-1.257-5.845-4.752-6.612-6.21-1.333-9.228 6.399-9.906 9.504-.68 3.105-.503 11.528 5.028 12.735 3.244.691 6.21 0 6.94-3.42a3.85 3.85 0 0 0-1.71-4.4 4.16 4.16 0 0 0 1.873-2.3M37.192 30.3a6.1 6.1 0 0 1 .075-2.702s-2.011 0-2.602-2.804c-.716-3.243 1.257-5.845 4.752-6.612 6.21-1.333 9.228 6.399 9.906 9.504.68 3.105.503 11.528-5.028 12.735-3.244.691-6.21 0-6.94-3.42a3.85 3.85 0 0 1 1.71-4.4 4.16 4.16 0 0 1-1.873-2.3"/>
        <path fill="#fff" d="M29.385 33.783v16.645h1.257V33.783a5.03 5.03 0 0 0-2.514-4.3q-.015.389-.1.767-.058.284-.19.54a3.77 3.77 0 0 1 1.547 2.993M34.627 33.783v16.645H33.37V33.783a5.03 5.03 0 0 1 2.515-4.3c0 .252 0 .503.1.767q.075.278.189.54a3.77 3.77 0 0 0-1.547 2.993"/>
    </g>
    <defs>
        <clipPath id="a">
            <path fill="#fff" d="M0 0h64v64H0z"/>
        </clipPath>
    </defs>
</svg>