<svg xmlns="http://www.w3.org/2000/svg" width="64" height="64" fill="none" viewBox="0 0 64 64">
    <g clip-path="url(#a)">
        <rect width="64" height="64" fill="currentColor" rx="32"/>
        <path fill="#fff" d="M43.32 33.107s-1.333-5.534-4.84-7.054c-1.027-.333-4 .534-2.2 4.92-.44-.52-2.093-3.746-.707-5.826a5.33 5.33 0 0 1 4.107-2.08 1.867 1.867 0 0 0 1.813-2.374c-.293-2.026-2.946-1.746-2.946-1.746s-6.867-.134-8.507 4.4c0-5.507 7.04-5.534 7.04-5.534 0-1.706-5.907-2.76-9.68.16-5.08 3.92-5.04 10.667-.973 15.787a9.05 9.05 0 0 1-4-7c-.667.853-2.667 4-2.08 9.733.84 8.667 19.253 15.6 22.28 11.214 3.026-4.387.693-14.6.693-14.6M23.6 19.653c-.453-.893-4-.826-4 .2v7.52a9.3 9.3 0 0 1 2.56-3.026 9.33 9.33 0 0 1 1.44-4.694"/>
    </g>
    <defs>
        <clipPath id="a">
            <path fill="#fff" d="M0 0h64v64H0z"/>
        </clipPath>
    </defs>
</svg>