<svg xmlns="http://www.w3.org/2000/svg" width="64" height="64" fill="none" viewBox="0 0 64 64">
    <g clip-path="url(#a)">
        <rect width="64" height="64" fill="#4B4B5E" rx="32"/>
        <g clip-path="url(#b)">
            <path fill="#fff" d="M23.892 15.38c-2.159-1.384-6.026.07-8.652 3.221-2.626 3.15-2.997 6.823-.838 8.194 2.16 1.37 6.026-.057 8.653-3.207 2.626-3.15 2.996-6.823.837-8.208m-1.627 5.863a.33.33 0 0 1-.354.099h-.033c-.129-.085-.16-.24-.064-.354.773-1.158.805-1.92.66-2.02-.145-.099-.58-.028-1.224.34a10 10 0 0 0-2.207 1.808c-1.612 1.808-1.853 3.32-1.724 3.418.128.1.676.029 1.61-.607.114-.1.307-.1.404 0a.227.227 0 0 1 0 .353c-1.064.735-2.063.848-2.385.607-.322-.24-.37-.664-.21-1.2a8.1 8.1 0 0 1 1.853-2.826c.661-.763 1.45-1.427 2.32-1.992 1.08-.607 1.628-.508 1.918-.31.773.565-.113 2.076-.58 2.698z"/>
            <path fill="#4B4B5E" d="m33.962 41.317.048.014h-.048z"/>
            <path fill="#fff" d="M46.594 21.059c-3.222-2.826-9.264-2.148-13.47 1.54-1.885 1.596-3.126 3.687-3.577 5.947.886.155 2.16.55 3.255 1.088a2.9 2.9 0 0 1-.113-1.85c.032-.156.226-.255.403-.227h.032c.177.043.274.198.226.353-.306.763-.097 1.597.515 2.19a2.85 2.85 0 0 0 2.53.339 7.94 7.94 0 0 0 3.4-1.837c.983-.819 1.708-1.85 2.094-2.994.339-.75.194-1.597-.386-2.218a2.1 2.1 0 0 0-1.225-.452c-.193-.014-.322-.156-.306-.325 0-.156.161-.283.338-.283a2.8 2.8 0 0 1 1.612.636c.757.777.983 1.865.564 2.825-.42 1.243-1.193 2.36-2.256 3.264-1.031.932-2.304 1.61-3.722 1.991-.37.085-.95.128-1.337.142-.033-.014-.065-.057-.097-.071 1.434 1.13 1.885 1.879 2.433 3.334.274.72.274 1.144.274 1.144s3.706.085 8.024-3.786c.322-.296.628-.621.886-.96 2.497-3.405 2.578-7.445-.097-9.79"/>
            <path fill="#fff" d="M27.759 28.546c-5.784-.678-10.908 1.695-11.456 5.297-.548 3.603 3.69 7.092 9.458 7.77 5.784.678 10.908-1.695 11.456-5.297.548-3.603-3.69-7.092-9.458-7.77m-1.37 8.97c-3.722-.437-6.412-2.16-6.154-3.856.145-1.003 1.401-1.85 3.35-2.19.21-.028.404.1.436.269.032.17-.097.353-.29.381-1.595.268-2.659.876-2.772 1.61-.193 1.272 2.353 2.67 5.527 3.052 3.174.367 6.042-.382 6.236-1.667.096-.58-.323-1.159-1.112-1.695-.161-.113-.21-.311-.097-.467a.4.4 0 0 1 .516-.056c.918.466 1.466 1.342 1.434 2.26-.258 1.696-3.384 2.783-7.106 2.345zM33.334 41.6c-1.08-.382-1.322.423-1.386.564-.08.156 0 .466.596.947.774.579 1.628 1.06 2.546 1.412 2.417 1.032 4.044.82 4.125.664.08-.155-.13-.621-1.08-1.285a.257.257 0 0 1 0-.382l.032-.028a.306.306 0 0 1 .387.028c1.064.75 1.499 1.441 1.257 1.936-.274.381-.79.579-1.29.508a10.6 10.6 0 0 1-3.64-.904 11.4 11.4 0 0 1-2.691-1.568c-.95-.791-1.047-1.116-.838-1.54.048-.099.29-.212.193-.254-.064-.028-.306.056-.467.099-.773.198-1.176.226-1.966.297l-.983.056c-.74 2.147 1.757 4.86 5.769 6.244 4.14 1.427 8.281.805 9.264-1.413.387-1.243-.129-2.74-1.095-3.715-.049-.042-.113-.07-.178-.056-.338.042-1.45.212-2.835.127-1.064-.057-2.885-.34-5.398-1.582l-.322-.142z"/>
            <path fill="#fff" d="M45.676 32.544c-.274.24-1.16.904-1.16.904s2.046.918 1.982 2.712c-.13 1.71-2.53 3.122-5.462 3.122h-.5a7.9 7.9 0 0 1-3.593-.988h-.032c-.548.762-1.29 1.426-2.16 1.963 0 0-1.288.706-1.288.82 0 .084.467.282.467.282.451.212.999.452 1.45.664 1.273.424 2.755.918 4.109.918 1.353 0 2.723-.17 2.723-.17 4.93-.48 8.7-3.093 8.7-6.23-.21-2.231-1.788-4.167-4.108-5.07-.032 0-.08.098-.274.253 0 0-.564.537-.87.806zm-1.66 1.328c-.902.565-1.772 1.087-3.577 1.723-.902.325-2.24.396-2.53.396-.032 0-.064.028-.064.056-.096.594-.338 1.215-.596 1.71h.032c.967.55 2.127.805 3.271.861h.467c2.514 0 4.64-1.03 4.737-2.444.178-.904-.757-1.907-1.724-2.302z"/>
        </g>
    </g>
    <defs>
        <clipPath id="a">
            <path fill="#fff" d="M0 0h64v64H0z"/>
        </clipPath>
        <clipPath id="b">
            <path fill="#fff" d="M13 14.857h37.929v34.286H13z"/>
        </clipPath>
    </defs>
</svg>