<svg xmlns="http://www.w3.org/2000/svg" width="64" height="64" fill="none" viewBox="0 0 64 64">
    <g clip-path="url(#a)">
        <rect width="64" height="64" fill="currentColor" rx="32"/>
        <g fill="#fff" clip-path="url(#b)">
            <path d="M41.303 31.87s-.014 0-.028-.014c-.029-.307-.465-4.985-1.493-7.205a.22.22 0 0 0-.084-.112c-.887-.74-1.549-.433-1.915-.265-.056.028-.14.056-.112.07-.564-.168-1.056-.028-1.338.377-.281.377-.295.95-.084 1.438-.507.321-.606.74-.62.977a1.26 1.26 0 0 0 .296.852 1 1 0 0 0-.324.74c0 .363.197.824.76 1.09a.48.48 0 0 0-.126.39c.014.126.084.224.197.322.028.223.126.502.366.74q.612.565 1.942.377c.268.405.86 1.005 1.38 1.173a1 1 0 0 0 .338.055c.352 0 .676-.181.93-.544a.31.31 0 0 0-.085-.433zM32.757 33.364c-.042.098-.07.377-.084.46-.014.043-.535 1.244.042 5.335.028.168-.099.307-.253.335h-.043c-.14 0-.281-.112-.295-.251-.606-4.37 0-5.474.014-5.656 0-.055.042-.14.084-.223 0 0 .014-.028 0-.056s-1.548-.056-1.548-.056c-.352 0-.775 0-1.31-.028-3.28-.181-4.533 1.271-4.885 1.816-.169.084-.169.349-.169.963 0 1.075.113 3.854 1.183 6.354 1.281 2.988 3.534 4.58 6.518 4.58 3.365 0 7.532-1.927 8.264-11.073 0-.154.014-.28.028-.35.042-.083.056-.181.014-.265 0-.028-.028-.056-.056-.084-.507-.935-2.985-2.08-5.125-2.08-.872 0-1.619.14-2.154.251 0 0-.197-.014-.225.028"/>
            <path d="M31.744 49.143c-9.686 0-10.263-14.075-10.263-14.215 0-.181.14-.349.323-.349.212 0 .353.14.353.335 0 .14.549 13.559 9.587 13.559s10.01-9.09 10.488-13.461l.028-.21c.014-.181.169-.335.38-.293a.327.327 0 0 1 .296.377l-.028.21c-.465 4.203-1.535 14.06-11.164 14.06zM42.908 33.252a.54.54 0 0 1-.521-.446c-1.183-8.295-2.929-12.33-5.336-12.33s-2.562 1.02-2.647 2.304c-.084 1.033-.183 2.457-2.154 2.457-1.717 0-1.886-1.312-2.013-2.276-.183-1.34-.338-2.485-3.14-2.485-1.984 0-3.645 4.05-4.898 12.036a.51.51 0 0 1-.606.433.525.525 0 0 1-.436-.6c1.408-8.937 3.238-12.916 5.955-12.916 3.73 0 3.998 2.038 4.181 3.393.155 1.103.254 1.368.971 1.368.944 0 1.014-.363 1.099-1.48.098-1.313.239-3.281 3.702-3.281 3.111 0 5.068 4.077 6.364 13.223a.505.505 0 0 1-.451.587h-.07z"/>
        </g>
    </g>
    <defs>
        <clipPath id="a">
            <path fill="#fff" d="M0 0h64v64H0z"/>
        </clipPath>
        <clipPath id="b">
            <path fill="#fff" d="M21.143 19.429h22.286v29.714H21.143z"/>
        </clipPath>
    </defs>
</svg>