<svg xmlns="http://www.w3.org/2000/svg" width="64" height="64" fill="none" viewBox="0 0 64 64">
    <g clip-path="url(#a)">
        <rect width="64" height="64" fill="currentColor" rx="32"/>
        <path fill="#fff" d="M33.406 20.694c.016-.436.144-.86.371-1.233a1.81 1.81 0 0 1 1.664-.921c.616.012 1.21.226 1.694.609q.586.45 1.084.995a29.3 29.3 0 0 1 3.655 4.457 48 48 0 0 1 3.477 6.21 29.6 29.6 0 0 1 2.437 8.365c.683 4.933.297 7.755-1.115 8.484-1.827.95-8.988.312-12.302-1.902a2 2 0 0 1-.802-1.07 4.7 4.7 0 0 1-.163-1.04zM31.772 25.225A4.34 4.34 0 0 1 28.8 21.14v-6.865h-2.971v6.865a4.34 4.34 0 0 1-2.972 4.1v2.466h8.915z"/>
    </g>
    <defs>
        <clipPath id="a">
            <path fill="#fff" d="M0 0h64v64H0z"/>
        </clipPath>
    </defs>
</svg>