<svg xmlns="http://www.w3.org/2000/svg" width="64" height="64" fill="none" viewBox="0 0 64 64">
    <g clip-path="url(#a)">
        <rect width="64" height="64" fill="currentColor" rx="32"/>
        <path fill="#fff" d="M44.594 24.446c-.927-1.418-6.631-4.177-13.046-6.527-5.082-1.814-6.047-2.452-12.12-2.49v6.385s12.45 2.031 13.835 2.338c1.384.306 3.328-.575 4.636.23s1.677 1.545 1.144 4.035-2.173 3.64-3.481 3.308c-2.414-.587-1.982-3.908-2.795-4.202-1.69-.6-13.338-2.554-13.338-2.554v9.95c7.914-1.942 11.433-1.01 11.433-1.01s-2.96 6.386-3.202 10.103a14.7 14.7 0 0 0 .305 4.56h5.602s1.664-8.685 1.461-10.742c-.203-2.056-2.388-4.866-2.236-5.632.153-.766 1.118.983 3.634.983 1.969 0 2.693-1.762 3.43-1.417.736.345-.839 3.512-1.106 5.402-.266 1.89-1.753 11.405-1.753 11.405h4.129a80.6 80.6 0 0 0 2.35-13.359c.305-2.171 2.731-8.43 1.118-10.767m-2.795 5.415c-.965.115-.572-1.942-.762-3.078-.19-1.137-1.093-2.427-.254-2.555a2.53 2.53 0 0 1 1.688.724 2.56 2.56 0 0 1 .764 1.677c.012 1.584-.47 3.104-1.436 3.232"/>
    </g>
    <defs>
        <clipPath id="a">
            <path fill="#fff" d="M0 0h64v64H0z"/>
        </clipPath>
    </defs>
</svg>