<svg xmlns="http://www.w3.org/2000/svg" width="64" height="64" fill="none" viewBox="0 0 64 64">
    <g clip-path="url(#a)">
        <rect width="64" height="64" fill="currentColor" rx="32"/>
        <path fill="#fff" d="M46.762 31.44a1.65 1.65 0 0 0-.59-1.276 1.62 1.62 0 0 0 .519-1.18 1.65 1.65 0 0 0-.78-1.383 1.63 1.63 0 0 0 .78-1.381 1.67 1.67 0 0 0-.508-1.181l.154-.366a3.4 3.4 0 0 0-2.02-4.488 3.78 3.78 0 0 0-3.755.638 1.94 1.94 0 0 0-1.04-.33 1.665 1.665 0 0 0-1.853 1.44v.26a1.83 1.83 0 0 0-1.488-.792 1.78 1.78 0 0 0-1.701 1.004 1.83 1.83 0 0 0-1.476-.744 1.78 1.78 0 0 0-1.689.957 1.62 1.62 0 0 0-1.677-1.57 2.2 2.2 0 0 0-.567.07 2.16 2.16 0 0 0-2.15-1.653 2.42 2.42 0 0 0-2.007.874l-.366-.437a2.88 2.88 0 0 0-3.543-.52 2.01 2.01 0 0 0-1.027 2.031 2.36 2.36 0 0 0-2.256 1.606 1.75 1.75 0 0 0 .46 1.63 1.87 1.87 0 0 0-.79 1.063 1.91 1.91 0 0 0 1.05 2.267 1.32 1.32 0 0 0-1.098 1.264 1.38 1.38 0 0 0 .992 1.5 1.44 1.44 0 0 0-.862 1.299v.319a1.48 1.48 0 0 0 1.181 1.405 3.01 3.01 0 0 0-1.417 2.516v.673a3.12 3.12 0 0 0 3.165 3.035v1.263a.638.638 0 0 0 1.275 0V39.99a3.13 3.13 0 0 0 3.095-3.035v-.673a3.01 3.01 0 0 0-1.441-2.528 1.49 1.49 0 0 0 1.18-1.405v-.319a1.42 1.42 0 0 0-.602-1.18c.264-.253.424-.594.45-.958a1.57 1.57 0 0 0-.26-.968c.347-.242.601-.596.72-1.004a1.93 1.93 0 0 0-.602-2.007c.243-.046.478-.13.696-.248a2.36 2.36 0 0 0 1.736.78c.352.01.703-.054 1.028-.19v.248a1.63 1.63 0 0 0 1.665 1.524 1.79 1.79 0 0 0 1.7-.957 1.64 1.64 0 0 0 1.713 1.535 1.77 1.77 0 0 0 1.7-1.015 1.8 1.8 0 0 0 1.465.756 1.665 1.665 0 0 0 1.818-1.43v-.224a1.87 1.87 0 0 0 1.5.791q.246-.001.484-.059.1.105.225.178a1.69 1.69 0 0 0-.78 1.381 1.64 1.64 0 0 0 .638 1.264 1.67 1.67 0 0 0-.52 1.18 1.64 1.64 0 0 0 .544 1.182 2.36 2.36 0 0 0-.685 1.677c0 .418.12.827.342 1.18a2.6 2.6 0 0 0-.945 1.536v.224q-.175.119-.307.284c-.168.227-.27.497-.295.78a1.97 1.97 0 0 0-.897.72 2.22 2.22 0 0 0-2.362-.331A3.76 3.76 0 0 0 32 37.569h-.236a3.614 3.614 0 0 0-3.685 3.543v.224a3.38 3.38 0 0 0 1.063 2.456c-.198.212-.312.49-.319.78a1.18 1.18 0 0 0 1.004 1.18v.119a1.18 1.18 0 0 0 .709 1.063v1.523a1.274 1.274 0 0 0 2.539 0V46.78a1.18 1.18 0 0 0 .555-.968v-.071h.307a1.63 1.63 0 0 0 1.44-1.429c0-.449-.059-.472-.059-.472a1.75 1.75 0 0 0 1.453.614 1.55 1.55 0 0 0 1.429-1.181 2.36 2.36 0 0 0 2.48.65 1.96 1.96 0 0 0 1.18-1.11 1.417 1.417 0 0 0 1.95-.343 1.78 1.78 0 0 0 .247-1.536 2.44 2.44 0 0 0 1.477-1.818 2.92 2.92 0 0 0-.662-2.575 2.36 2.36 0 0 0 1.772-2.255 2.36 2.36 0 0 0-.579-1.512 1.62 1.62 0 0 0 .697-1.334"/>
    </g>
    <defs>
        <clipPath id="a">
            <path fill="#fff" d="M0 0h64v64H0z"/>
        </clipPath>
    </defs>
</svg>