<svg xmlns="http://www.w3.org/2000/svg" width="64" height="64" fill="none" viewBox="0 0 64 64">
    <g clip-path="url(#a)">
        <rect width="64" height="64" fill="currentColor" rx="32"/>
        <path fill="#fff" d="M26.858 22.433a1.658 1.658 0 0 0-1.722-1.823 2.4 2.4 0 0 0-1.433.516q-.496.368-.918.817a24.8 24.8 0 0 0-3.093 3.771 40.5 40.5 0 0 0-2.941 5.28 24.6 24.6 0 0 0-2.062 7.078c-.578 4.174-.29 6.562.968 7.178 1.546.805 7.543.264 10.41-1.609.322-.215.562-.535.678-.905q.118-.432.138-.88V31.409c0-4.538-.025-8.8-.025-8.976M37.154 22.433c.014-.369.122-.728.315-1.043a1.53 1.53 0 0 1 1.408-.78c.52.011 1.024.192 1.433.516q.496.38.917.842a24.8 24.8 0 0 1 3.093 3.771 40.5 40.5 0 0 1 2.942 5.255 25 25 0 0 1 2.061 7.078c.579 4.174.252 6.562-.942 7.178-1.547.805-7.606.264-10.41-1.609a1.7 1.7 0 0 1-.678-.905 4 4 0 0 1-.139-.88zM35.771 26.268a3.67 3.67 0 0 1-2.514-3.458v-5.808h-2.514v5.808a3.67 3.67 0 0 1-2.514 3.47v2.087h7.542z"/>
    </g>
    <defs>
        <clipPath id="a">
            <path fill="#fff" d="M0 0h64v64H0z"/>
        </clipPath>
    </defs>
</svg>