<svg xmlns="http://www.w3.org/2000/svg" width="64" height="64" fill="none" viewBox="0 0 64 64">
    <g clip-path="url(#a)">
        <rect width="64" height="64" fill="currentColor" rx="32"/>
        <path fill="#fff" d="M40.78 26.614c-4.52-9.238-12.305-8.448-14.734-6.519-2.428 1.929-3.602 4.079-2.858 7.088.465 1.847 2.591 2.812 4.369 4.101a4.1 4.1 0 0 0-.802 2.162 7.5 7.5 0 0 1-2.138 1.51 28 28 0 0 1-3.358 1.01l.779 1.72a22 22 0 0 0 3.16-1.01 10.1 10.1 0 0 0 2.324-1.604 4.14 4.14 0 0 0 2.882.872c.406 2.242.244 4.647.917 6.297.93 2.324 3.625 2.405 5.647 2.045 4.206-.744 8.331-8.435 3.811-17.673m-7.437 6.808a16 16 0 0 1-1.278.64 8 8 0 0 0-.93-2.069 12 12 0 0 0-.871-1.162q.828-.413 1.696-.732.408.549.71 1.162c.325.685.552 1.413.673 2.161m-2.324-4.24c-.453.174-1.08.43-1.673.72a7.6 7.6 0 0 0-2.056-1.325 4.29 4.29 0 0 1 3.718.604zm-2.963 4.647c-.028-.6.176-1.186.57-1.638.39.375.723.806.987 1.278q.27.527.454 1.092c-1.14.023-1.894-.395-2.022-.72zm4.311 1.476 1.08-.547a5.32 5.32 0 0 1-.999 3.033 9.7 9.7 0 0 0-.093-2.475z"/>
    </g>
    <defs>
        <clipPath id="a">
            <path fill="#fff" d="M0 0h64v64H0z"/>
        </clipPath>
    </defs>
</svg>