<svg xmlns="http://www.w3.org/2000/svg" width="64" height="64" fill="none" viewBox="0 0 64 64">
    <g clip-path="url(#a)">
        <rect width="64" height="64" fill="currentColor" rx="32"/>
        <path fill="#fff" d="M44.376 31.507c.127-.31-2.918-1.903-4.313-1.142-1.396.761-3.186 1.635-4.145 2.044l.395-1.41a2.07 2.07 0 0 0 1.41-1.889c.155-1.099-.282-2.072-1.001-2.255l-.085-1.607a7.9 7.9 0 0 1 1.917-1.48c.649-.366 1.579-.55 2.326-.902a5.47 5.47 0 0 0 2.622-3.481c-.226-.07-1.142 2.17-2.918 2.946-.747.338-1.691.507-2.34.874a8 8 0 0 0-1.663 1.24v-.719a2.24 2.24 0 0 0 1.184-1.818c.05-.308.05-.622 0-.93q.238-1.623.69-3.2c.502-1.194.898-2.43 1.185-3.693a8.46 8.46 0 0 0-1.819 3.481 16 16 0 0 0-.563 2.34 1.04 1.04 0 0 0-.578-.296 1.17 1.17 0 0 0-.733.184c-.113-1.89-.465-6.583-.818-6.583s-.07 3.735.085 5.906c-1.001-1.903-2.82-5.23-3.087-5.103s2.692 5.808 3.073 6.611c-.14.279-.23.579-.268.888a2.2 2.2 0 0 0 .69 2.114l.212 3.454a2 2 0 0 0-.24.225c-.648-1.071-2.044-3.453-3.242-5.906-.93-1.874-5.158-3.495-5.243-3.185s3.89 1.677 4.722 3.566c.155.352.31.705.48 1.057a10.6 10.6 0 0 0-2.143-.987 8.76 8.76 0 0 0-4.06-.465c-.084.212 2.072.465 3.862 1.1 1.03.376 2.01.878 2.918 1.494a49 49 0 0 0 2.284 3.946 3 3 0 0 0-.24.832 2.47 2.47 0 0 0 .437 1.903l-.747 2.593a1.93 1.93 0 0 0-1.156.987l-1.72-.831c0-.691-.69-1.636-1.874-2.298a4.1 4.1 0 0 0-2.34-.578 15.4 15.4 0 0 0-1.508-3.862 4.95 4.95 0 0 0-2.481-2.227c-.183.084 1.057.987 1.875 2.453q.421.763.733 1.578a4 4 0 0 0-.423-.409 6.23 6.23 0 0 0-3.285-1.41c-.211.1 1.607.72 2.82 1.833a6.2 6.2 0 0 1 1.522 2.382l-.07.085a1 1 0 0 0 0 .874c-.977.128-1.962.185-2.947.169-2.368 0-4.876-.55-4.905-.324a11.95 11.95 0 0 0 4.891 1c1.137.035 2.275-.04 3.397-.225.393.46.872.838 1.41 1.114q.394.21.817.352l-2.494 2.03h-.367a8.7 8.7 0 0 0-2.128-.578 5.95 5.95 0 0 0-3.13.253c0 .24 1.607.198 3.073.423q.659.102 1.297.296a.6.6 0 0 0-.141.127 15 15 0 0 1-1.945.522c-1.663.267-3.552.282-3.496.521a7.4 7.4 0 0 0 3.552.141c.697-.095 1.381-.26 2.044-.493.367.179.779.247 1.184.197.775-.084 1.41-.48 1.325-.86s-.197-.338-.451-.437l2.326-1.945c.339.072.69.072 1.029 0l2.072 1.03a2.26 2.26 0 0 0 .282 1.747l-1.17 2.495a2.2 2.2 0 0 0-1.847 1.24 2.34 2.34 0 0 0-.24 2.072l-.605.832h-3.933a1.9 1.9 0 0 0-1.057-.451h-.268a8.3 8.3 0 0 0-2.157-.423 5.64 5.64 0 0 0-3.1.62c0 .226 1.606 0 3.086.113l.959.113v.098a.45.45 0 0 0 0 .226 9 9 0 0 0-1.297.48 7.5 7.5 0 0 0-2.918 2.043c.085.225 1.692-.775 3.242-1.41a12 12 0 0 1 1.621-.563q.296.111.606.169c.413.074.84.01 1.212-.184l3.37.1-.663.887c-.691-.14-1.523.465-1.931 1.41-.13.318-.201.657-.212 1a6 6 0 0 0-.817.451c-1.227.705-2.354 1.931-2.256 2.115.1.183 1.41-.874 2.622-1.65l.536-.295a1.13 1.13 0 0 0 .606.775.8.8 0 0 0 .31 0 1 1 0 0 1 0 .098c-.211.889-.719 1.819-.48 1.847.24.028.86-.775 1.142-1.621a2 2 0 0 0 0-.409c.5-.298.888-.754 1.1-1.297a2.55 2.55 0 0 0 .155-1.677l2.03-2.819h.253c.466 1.221.756 2.503.86 3.806 0 1.184.099 2.086.254 2.1s.268-.93.338-2.157a11 11 0 0 0-.86-4.017c.371-.24.677-.57.888-.958a2.26 2.26 0 0 0 .24-2.072l.62-1.311 1.255 1.691a1.48 1.48 0 0 0 .592 1.156c.08.891.429 1.737 1 2.425a6.6 6.6 0 0 0 3.623 2.001c.197-.14-1.987-1.1-3.157-2.495a4.2 4.2 0 0 1-.776-1.41c.395.17.747.198.916 0q.077-.107.085-.239c.38.183.803.395 1.226.648 1.41.874 2.904 2.087 3.017 1.875.112-.211-1.212-1.522-2.608-2.424a11.4 11.4 0 0 0-2.001-.973 2.4 2.4 0 0 0-.325-.338 2.04 2.04 0 0 0-1.043-.508l-1.508-1.987.324-.705a2.1 2.1 0 0 0 1.607-1.635 2.25 2.25 0 0 0-.282-2.156l.085-.31a29 29 0 0 0 2.819-1.297c.795.15 1.558.436 2.255.846 1.255.718 2.523 1.987 2.58 1.776a6.74 6.74 0 0 0-2.368-2.383 6.3 6.3 0 0 0-1.621-.704c.253-.155.507-.296.76-.465 1.41-.902 4.102.86 4.272.45"/>
    </g>
    <defs>
        <clipPath id="a">
            <path fill="#fff" d="M0 0h64v64H0z"/>
        </clipPath>
    </defs>
</svg>