<svg xmlns="http://www.w3.org/2000/svg" width="64" height="64" fill="none" viewBox="0 0 64 64">
    <g clip-path="url(#a)">
        <rect width="64" height="64" fill="currentColor" rx="32"/>
        <path fill="#fff" d="M25.865 16.957c0 1.246.749 5.115 3.24 6.477 1.944 1.07 6.495.968 8.223 1.466.766.35 1.45.863 2.004 1.505a6 6 0 0 1 1.207 2.217c.115.674 1.08-.483 2.506-.264 1.426.22 2.42 2.843 2.002 4.69a4.93 4.93 0 0 1-1.908 2.514 4.8 4.8 0 0 1-3.017.813 5.46 5.46 0 0 1-3.385-2.052c-1.224-2.227-.388-3.43-1.829-2.77s.49 2.74 1.08 4.397c.22.465.287.99.191 1.496-.096.507-.35.969-.723 1.317a2.544 2.544 0 0 1-3.298.322 9.3 9.3 0 0 0-2.074-.996c-1.843-.586-4.003-.571-4.147-2.286-.144-1.714 1.353-1.846 1.353-2.095s-3.7-.616-3.485-2.536c.173-1.465 2.88-1.7 2.88-1.7s2.578 0 2.578-.308c0-.307-5.76-.996-6.135 1.788-.259 2.023 2.334 2.243 2.477 4.397.145 2.154-1.44 3.048-.244 3.605 1.584.718 3.081-.572 4.68-.41 1.599.16 3.154 1.758 4.09 1.729 1.34 0 2.03-2.711 4.58-3.107a3.6 3.6 0 0 1 2.264.288c.705.34 1.285.902 1.652 1.602a4.35 4.35 0 0 1 .024 2.897 4.26 4.26 0 0 1-1.795 2.247 9.55 9.55 0 0 1-9.908.66c.432 2.096-1.08 2.535-1.685 2.564-1.742.118-2.534-2.286-3.758-2.93a8.84 8.84 0 0 0-5.228-.924c-1.555.352-2.074-1.934-.317-2.36a10.35 10.35 0 0 1 6.005.91c.849.395 1.6.975 2.204 1.7-.01-.476.136-.94.418-1.32q.37-.532.85-.967l2.102-.557 2.592 1.993 1.44.118s-2.203 0 .13-.074a5.7 5.7 0 0 0 3.974-1.465.92.92 0 0 0 .144-1.187c-.216-.264-.504-.367-1.08 0-.907.557-2.088 2.638-3.14 2.682-.662 0-5.558-1.627-6.336-1.466-1.555.381-3.168 1.04-4.838.25a3.9 3.9 0 0 1-1.642-1.186 4 4 0 0 1-.835-1.863c-.087-1.216.763-2.257.705-2.93-.057-.675-3.024-2.287-2.29-5.702.735-3.414 5.329-4.396 7.201-4.19 1.872.204 4.58.952 4.651 2.93.072 1.979-1.756 2.74-1.814 2.931s.547.528.749 1.465a3.7 3.7 0 0 1-.432 2.038q.625.075 1.224.278c.533.22.994.66 1.051.63a17.5 17.5 0 0 1-1.354-3.883c-.085-.797.107-1.6.544-2.267a3.36 3.36 0 0 1 1.847-1.382c1.843-.557 3.975.395 4.32 1.465s.303 2.066 1.268 2.931a1.66 1.66 0 0 0 1.247.392 1.65 1.65 0 0 0 1.143-.641c.303-.454.49-1.95-.1-1.642a3.2 3.2 0 0 1-2.305.279c-1.642-.44-1.915-3.195-2.88-3.708s-4.55-.322-5.328-.498-5.357-1.378-6.855-4.63a12.25 12.25 0 0 1-1.44-5.775c-.187-1.202 2.75-1.143 2.765.088"/>
    </g>
    <defs>
        <clipPath id="a">
            <path fill="#fff" d="M0 0h64v64H0z"/>
        </clipPath>
    </defs>
</svg>