<svg xmlns="http://www.w3.org/2000/svg" width="64" height="64" fill="none" viewBox="0 0 64 64">
    <g clip-path="url(#a)">
        <rect width="64" height="64" fill="currentColor" rx="32"/>
        <g fill="#fff" clip-path="url(#b)">
            <path d="M33.758 35.635c.8-.275 1.693-.64 1.995-1.281.144-.288.144-.614.013-.94-.341-.89-1.535-.445-2.795.012-.761.275-1.548.575-2.112.575h-.132c-1.43 0-2.086-.248-2.69-.98l-.236-.287-.236.287c-.42.497-.643 1.072-.643 1.66 0 1.79 1.994 3.24 4.435 3.24 1.102 0 3.766-.091 4.527-1.006a.86.86 0 0 0 .21-.718c-.145-.81-1.3-.706-2.336-.562"/>
            <path d="m35.136 28.474-.236-.262-.236.262c-.67.757-1.942 1.24-3.307 1.24s-2.624-.47-3.306-1.24l-.237-.262-.236.262c-.433.483-.643 1.006-.643 1.541 0 1.647 1.982 2.993 4.422 2.993s4.422-1.346 4.422-2.993c0-.535-.223-1.058-.643-1.541M34.847 15.106l-.21-.249-.21.248c-.616.706-1.797 1.137-3.057 1.137s-2.414-.444-3.057-1.15l-.21-.235-.21.248c-.394.445-.59.941-.59 1.425 0 1.529 1.823 2.77 4.08 2.77s4.081-1.241 4.081-2.77c0-.497-.21-.98-.59-1.425z"/>
            <path d="m34.769 24.292-.224-.288-.223.288c-.63.797-1.797 1.28-3.03 1.28h-.027c-1.246 0-2.414-.496-3.03-1.28l-.224-.288-.223.275c-.38.47-.59 1.02-.59 1.568 0 1.816 1.68 3.07 4.08 3.07s4.081-1.267 4.081-3.07c0-.536-.197-1.072-.577-1.568zM36.474 37.908c-.262-.183-.55-.261-.826-.209l-.105.04c-.328.182-.696.561-1.155 1.032-.853.888-2.034 2.104-3.201 2.104-.998 0-2.1-1.176-2.9-2.039-.748-.797-1.247-1.32-1.732-1.137-.46.183-1.05.614-1.22 1.673-.132.77.511 1.15 1.18 1.555.63.379 1.417.836 1.903 1.764l.38.758c.722 1.477 1.536 3.15 2.887 3.162h.013c1.312 0 1.863-1.228 2.506-2.652.184-.405.38-.85.604-1.281.577-1.11 1.18-1.646 1.614-2.025.46-.405.853-.758.76-1.45-.065-.537-.34-1.046-.72-1.32z"/>
            <path d="m34.874 19.522-.224-.261-.223.261c-.55.667-1.154.902-2.453.915h-.131c-.525 0-1.247-.274-1.942-.536-1.155-.43-2.244-.823-2.559-.013-.118.314-.118.601.013.876.315.666 1.286.993 2.073 1.254.04 0 .066.026.105.04-.079-.027-.157-.04-.236-.066-.722-.209-1.483-.418-1.929-.104a.79.79 0 0 0-.328.574.83.83 0 0 0 .236.667c.735.81 3.123.889 4.107.889 3.36 0 4.055-1.62 4.055-2.98 0-.536-.197-1.058-.59-1.516zM22.527 48.571c.708-.43 3.7-2.182 6.626-2.979-.499-1.02-1.247-2.587-1.653-3.293-.29-.497-.932-.889-1.549-1.19-1.548 1.66-3.543 2.784-5.17 3.346-.118.3-.406 1.19 0 2.287.394 1.085 1.378 1.66 1.759 1.83zM36.133 39.555l-.013-.026.026.026zM43.337 44.651c-2.047-.719-4.475-2.025-6.154-3.79-.538.536-1.693 1.739-2.008 2.497-.262.64-.721 1.555-1.01 2.13 3.123.666 6.534 2.26 7.27 2.613.314-.13 1.14-.523 1.495-1.072a3.1 3.1 0 0 0 .42-2.365zM28.3 37.87c-.184.078 1.732 2.116 2.61 2.273.88.157 1.943-.823 2.27-1.137.329-.314.723-.549.539-.627-.367-.157-1.548.431-2.808.248s-2.191-.94-2.611-.745z"/>
        </g>
    </g>
    <defs>
        <clipPath id="a">
            <path fill="#fff" d="M0 0h64v64H0z"/>
        </clipPath>
        <clipPath id="b">
            <path fill="#fff" d="M20.571 14.857h22.857v33.714H20.571z"/>
        </clipPath>
    </defs>
</svg>