<svg xmlns="http://www.w3.org/2000/svg" width="64" height="64" fill="none" viewBox="0 0 64 64">
    <g clip-path="url(#a)">
        <rect width="64" height="64" fill="currentColor" rx="32"/>
        <g fill="#fff" clip-path="url(#b)">
            <path d="M43.406 25.51c-2.062.22-5.878.829-5.545 4.931a9.7 9.7 0 0 1-1.448 5.733c-.896 1.372-2.164 1.877-2.56 2.679-.398.802-.142 4.4.588 5.176.73.777.436 4.542.436 4.542h1.408c.192-1.63.256-3.287.218-4.93.064-4.542 5.52-14.934 8.068-15.917a7.86 7.86 0 0 1 4.418-.622v-.647a18.3 18.3 0 0 0-5.583-.944M42.407 21.952c-3.842-.53-5.789-3.028-9.528-2.42-3.74-.608-5.699 1.812-9.528 2.42-2.42.518-4.892.712-7.351.556l.102 2.188c3.407-1.191 14.228-1.773 16.866-1.773s12.717.582 16.072 1.734l.103-2.02c-2.267 0-4.52-.232-6.736-.685M21.187 27.685c2.56.983 7.99 11.375 8.068 15.917-.052 1.644.012 3.3.217 4.93h1.383s-.179-3.882.423-4.542.999-4.335.602-5.176-1.665-1.294-2.561-2.679a9.5 9.5 0 0 1-1.473-5.733c.32-4.063-3.483-4.671-5.52-4.891a22.7 22.7 0 0 0-6.172.931v.427c1.716-.129 3.445.143 5.033.816"/>
        </g>
    </g>
    <defs>
        <clipPath id="a">
            <path fill="#fff" d="M0 0h64v64H0z"/>
        </clipPath>
        <clipPath id="b">
            <path fill="#fff" d="M16 19.429h33.143v29.143H16z"/>
        </clipPath>
    </defs>
</svg>