<svg xmlns="http://www.w3.org/2000/svg" width="64" height="64" fill="none" viewBox="0 0 64 64">
    <g clip-path="url(#a)">
        <rect width="64" height="64" fill="#4B4B5E" rx="32"/>
        <path fill="#fff" d="M34.4 24.65a8.38 8.38 0 0 0-6.789 6.486c-.795 3.072 0 4.114-.795 7.515-.795 3.402-4.937 1.92-6.24 3.717s-1.042 3.963-3.154 3.387-3.977-8.873-2.976-12.918c1-4.046 2.468-6.254 6.363-8.023s13.591-.165 13.591-.165"/>
        <path fill="#fff" d="M49.829 26.857c0-2.016-8.49-2.592-11.287-2.592s-7.927.74-9.6 5.938.603 9.381 2.578 9.025c1.975-.357 2.825-2.908 4.772-3.045a15.6 15.6 0 0 0 6.858-2.962c2.112-1.468 6.679-4.32 6.679-6.364"/>
    </g>
    <defs>
        <clipPath id="a">
            <path fill="#fff" d="M0 0h64v64H0z"/>
        </clipPath>
    </defs>
</svg>