<svg xmlns="http://www.w3.org/2000/svg" width="64" height="64" fill="none" viewBox="0 0 64 64">
    <g clip-path="url(#a)">
        <rect width="64" height="64" fill="currentColor" rx="32"/>
        <path fill="#fff" d="M34.491 32.057a6.4 6.4 0 0 0 .667-2.8s2.093.493 3.453-2.147c1.614-3.133.347-6.333-3.053-8.08-6-3.08-11.213 4-12.773 7.014-1.56 3.013-3.68 11.667 1.693 14.44 3.12 1.6 6.36 1.666 8-1.6a4.11 4.11 0 0 0-.547-4.987 4.32 4.32 0 0 0 2.56-1.84"/>
        <path fill="#fff" d="M35.945 31.177a4.9 4.9 0 0 1-.374 1.254 3.7 3.7 0 0 1 1.56 2.946V51.91h1.334V35.378a4.89 4.89 0 0 0-2.52-4.2"/>
    </g>
    <defs>
        <clipPath id="a">
            <path fill="#fff" d="M0 0h64v64H0z"/>
        </clipPath>
    </defs>
</svg>