<svg xmlns="http://www.w3.org/2000/svg" width="64" height="64" fill="none" viewBox="0 0 64 64">
    <g clip-path="url(#a)">
        <rect width="64" height="64" fill="currentColor" rx="32"/>
        <path fill="#fff" d="M31.18 20.694a1.96 1.96 0 0 0-2.035-2.154 2.82 2.82 0 0 0-1.694.609 8.3 8.3 0 0 0-1.084.965 29.3 29.3 0 0 0-3.655 4.458 48 48 0 0 0-3.477 6.24 29.1 29.1 0 0 0-2.436 8.364c-.683 4.933-.297 7.755 1.114 8.484 1.828.95 8.915.312 12.302-1.902.382-.255.665-.632.802-1.07q.14-.511.164-1.04V20.694M41.714 25.225a4.34 4.34 0 0 1-2.971-4.085v-6.865h-2.971v6.865a4.34 4.34 0 0 1-2.972 4.1v2.466h8.914z"/>
    </g>
    <defs>
        <clipPath id="a">
            <path fill="#fff" d="M0 0h64v64H0z"/>
        </clipPath>
    </defs>
</svg>