<svg xmlns="http://www.w3.org/2000/svg" width="64" height="64" fill="none" viewBox="0 0 64 64">
    <g clip-path="url(#a)">
        <rect width="64" height="64" fill="currentColor" rx="32"/>
        <path fill="#fff" d="M30.194 31.924a6.4 6.4 0 0 1-.666-2.8s-2.08.48-3.44-2.147c-1.627-3.133-.374-6.333 3.053-8.12 5.987-3.04 11.24 4 12.76 7.054 1.52 3.053 3.68 11.613-1.693 14.426-3.12 1.6-6.36 1.68-8-1.587a4.11 4.11 0 0 1 .546-4.986 4.4 4.4 0 0 1-2.56-1.84"/>
        <path fill="#fff" d="M28.74 31.044c.075.433.205.854.388 1.253a3.63 3.63 0 0 0-1.574 2.933v16.547h-1.333V35.23a4.9 4.9 0 0 1 2.52-4.186"/>
    </g>
    <defs>
        <clipPath id="a">
            <path fill="#fff" d="M0 0h64v64H0z"/>
        </clipPath>
    </defs>
</svg>