<svg xmlns="http://www.w3.org/2000/svg" width="64" height="64" fill="none" viewBox="0 0 64 64">
    <g clip-path="url(#a)">
        <rect width="64" height="64" fill="currentColor" rx="32"/>
        <path fill="#fff" d="M43.317 25.554a3.9 3.9 0 0 1 1.064-2.55l2.863-2.864-.704-.688-1.564-1.565-2.864 2.723a3.8 3.8 0 0 1-2.988 1.064 16.33 16.33 0 0 0-15.207 0 3.83 3.83 0 0 1-2.8-1.064l-2.864-2.832-.688.704L16 20.046l2.77 2.957a3.8 3.8 0 0 1 1.079 2.535 7.65 7.65 0 0 0-1.142 3.943c0 4.365 3.911 8.042 9.246 9.2a3.9 3.9 0 0 1 1.972 3.285v4.052h3.254v-4.083a3.91 3.91 0 0 1 2.018-3.286 13 13 0 0 0 1.565-.454c4.459-1.564 7.54-4.85 7.557-8.73a8.9 8.9 0 0 0-1.002-3.911"/>
    </g>
    <defs>
        <clipPath id="a">
            <path fill="#fff" d="M0 0h64v64H0z"/>
        </clipPath>
    </defs>
</svg>