<svg xmlns="http://www.w3.org/2000/svg" width="64" height="64" fill="none" viewBox="0 0 64 64">
    <g clip-path="url(#a)">
        <rect width="64" height="64" fill="currentColor" rx="32"/>
        <path fill="#fff" d="M23.825 29.723c1.375 1.238 2.55 1.238 3.85 1.82a3.89 3.89 0 0 0-3.144 1.15c-.805.694-2.228.545-2.65 1.325.063-1.844-2.215-3.429-3.045-4.654-5.706-8.332 2.08-13.804 11.068-12.194a28.6 28.6 0 0 1 9.804 3.949l-1.238 3.454a20 20 0 0 0-8.38-4.011c-6.19-1.473-12.974 3.28-6.265 9.16"/>
        <path fill="#fff" d="M27.255 31.357c.074 0 5.892 1.238 5.892 1.238 2.885 1.114 1.238 2.005-2.13 1.547-2.624-.347-4.815-1.238-4.765-.668s4.296 2.822 3.813 3.714c-.483.89-5.212-2.575-5.633-1.77-.257.383-.46.8-.607 1.237-.718 1.597-1.41 3.516-2.03 2.476a3.28 3.28 0 0 1 0-3.033 3.35 3.35 0 0 0 0-2.018l.607-1.807zM47.842 17.826c-4.036-.693-4.531 3.268-6.648 3.441a4.1 4.1 0 0 1-2.724-.878l-.99 2.958s1.238 1.114 1.238 1.907-.656 3.553.458 5.632c1.114 2.08 2.674 3.566 3.07 5.113s.074 2.08.88 5.633a12.7 12.7 0 0 0 2.413 5.335h2.265z"/>
    </g>
    <defs>
        <clipPath id="a">
            <path fill="#fff" d="M0 0h64v64H0z"/>
        </clipPath>
    </defs>
</svg>