<svg xmlns="http://www.w3.org/2000/svg" width="64" height="64" fill="none" viewBox="0 0 64 64">
    <g clip-path="url(#a)">
        <rect width="64" height="64" fill="currentColor" rx="32"/>
        <g fill="#fff" clip-path="url(#b)">
            <path d="M46.346 30.241c-.97-5.372-4.09-.455-11.237 2.162.106.159.202.318.319.466.256.255.266.54.17.827.107.042.214.074.341.116a5.18 5.18 0 0 1 4.08-2.49h.106c.16.032.256.18.224.34a.284.284 0 0 1-.34.222 4.52 4.52 0 0 0-3.473 2.098c.33.053.66.085.99.085a17.3 17.3 0 0 0 3.771-.414.3.3 0 0 1 .362.191v.021a.27.27 0 0 1-.202.329 5 5 0 0 0-1.14 0c-.607.116-1.704.434-2.13.508a4 4 0 0 1-.81.085h-.287a5.2 5.2 0 0 1-1.396-.127 6 6 0 0 1-.607-.222 5 5 0 0 1-.373.339c.107.127.213.254.341.37a4.47 4.47 0 0 1 1.672 3.943c.022.53.054 1.123.139 1.865a.286.286 0 0 1-.266.307.313.313 0 0 1-.33-.254c-.128-.753-.128-1.357-.128-1.897a9 9 0 0 0-.096-1.23l-.213-.752c-.16-.37-.373-.71-.65-1.006a5.86 5.86 0 0 1-1.406 3.38.31.31 0 0 1-.415 0 .25.25 0 0 1-.107-.233q0-.096.064-.16a5.17 5.17 0 0 0 1.31-3.602 2.6 2.6 0 0 1-.468-.435c-.33.106-.66.149-1.002.085a4.24 4.24 0 0 0-1.182 1.823l-.256 1.197a11 11 0 0 0 0 1.187 22.5 22.5 0 0 0 .373 4.864.315.315 0 0 1-.245.382.3.3 0 0 1-.351-.212v-.18a20 20 0 0 1-.576-3.55c-.127.18-.266.35-.404.53-.139.18-.256.38-.363.55-.287.477-.362 1.834-1.118 1.94-.17 0-.48 0-.5-.18-.022-.18.266-.35.383-.477.309-.318.426-1.145.703-1.611l.064-.096a3.74 3.74 0 0 0-1.981.318c-.15.075-.341 0-.416-.137a.33.33 0 0 1 .15-.435 4.47 4.47 0 0 1 2.375-.37h.277c.309-.403.596-.795.798-1.06v-.763q0-.763.224-1.495.32-.873.799-1.684a6.7 6.7 0 0 0-1.3.953 5.1 5.1 0 0 1-4.441 1.516h-2.13a.313.313 0 0 1-.32-.318c0-.18.138-.318.32-.318a24 24 0 0 1 2.13 0c.511 0 1.843-.16 1.843-.16a5.6 5.6 0 0 0 1.565-.688 6.6 6.6 0 0 1-3.653-1.727.34.34 0 0 1 0-.456.33.33 0 0 1 .447 0 5.84 5.84 0 0 0 3.952 1.622c.586-.54 1.267-.965 1.97-1.314-.063-.043-.149-.075-.202-.138-.064-.106 0-.562-.149-1.325l.085-.053s-.053.01-.074.021c-3.622.763-4.282.043-10.78-4.026-3.845-2.406-4.09 4.577-2.663 8.254 1.587 3.996 3.036 6.359 7.2 7.418 3.058.742 8.384 2.755 11.58 1.494 2.8-1.091 4.377-2.66 6.923-5.033 3.12-2.925 2.95-6.644 2.13-11.18"/>
            <path d="M46.165 21.15a5.45 5.45 0 0 1-.469-2.565c.01-.445-.17-.88-.49-1.187a5 5 0 0 0-3.28-.795.735.735 0 0 0-.736.731v.022c0 .402.341.71.746.699h.043a3.7 3.7 0 0 1 2.13.381v.096a6.9 6.9 0 0 0 .575 3.179c.17.328.256.689.266 1.06-.02.932-1.555 1.504-2.524 1.504-.5 0-.767-.434-1.268-1.367a9 9 0 0 0-.65-1.123 2.76 2.76 0 0 0-2.886-.72c-1.48.307-3.1 1.313-3.376 2.871-.107.562-.288.615-.352.636a3 3 0 0 1-1.065-.064 5.1 5.1 0 0 0-1.332-.148c-.127 0-.138 0-.18-.085a2.57 2.57 0 0 1 .18-1.844c.906-.582.714-1.271.629-1.462-.458-1.123-2.844-1.41-4.335-1.187a5.3 5.3 0 0 0-3.345 2.12 9 9 0 0 1-.607.635 2.525 2.525 0 0 0-.703 3.413c.32.784.522 1.61.607 2.448.021.55.298 1.07.746 1.398.916.668 2.29.424 3.387.233.277-.053.554-.084.83-.106.47 0 .49.053.682.53.16.816.81 1.452 1.63 1.6a2.25 2.25 0 0 1 1.768 2.332c.064.37.778.243 1.183.159.404-.085 1.065-.615 1.065-.986 0-.085-.33-1.706-3.26-2.766h-.16c-.543-.137-.617-.392-.788-.826a2.04 2.04 0 0 0-2.12-1.452c-.383.01-.766.064-1.14.138-.68.116-1.81.318-2.193 0 0 0-.128-.085-.15-.36a9.9 9.9 0 0 0-.702-2.809c-.373-.996-.48-1.208.32-1.843.255-.244.5-.499.734-.774a3.95 3.95 0 0 1 2.418-1.643 5.75 5.75 0 0 1 2.44.18 3.77 3.77 0 0 0-.523 3.275 1.67 1.67 0 0 0 1.811 1.134c.298 0 .597.021.884.085a3.9 3.9 0 0 0 1.79 0 2.03 2.03 0 0 0 1.363-1.76c.15-.847 1.214-1.483 2.194-1.684.725-.149 1.204 0 1.3.106.202.307.394.625.554.953.49.933 1.065 2.12 2.535 2.183 1.885.117 4.069-1.06 4.197-2.83a3.8 3.8 0 0 0-.373-1.716"/>
        </g>
    </g>
    <defs>
        <clipPath id="a">
            <path fill="#fff" d="M0 0h64v64H0z"/>
        </clipPath>
        <clipPath id="b">
            <path fill="#fff" d="M17.714 16.571h29.143v30.286H17.714z"/>
        </clipPath>
    </defs>
</svg>