<svg xmlns="http://www.w3.org/2000/svg" width="64" height="64" fill="none" viewBox="0 0 64 64">
    <g clip-path="url(#a)">
        <rect width="64" height="64" fill="#4B4B5E" rx="32"/>
        <path fill="#fff" d="M48.726 22.7a1.05 1.05 0 0 0-.246-1.062.95.95 0 0 0 .207-.583 1.05 1.05 0 0 0-2.02-.453 1.06 1.06 0 0 0-1.4.635 1.2 1.2 0 0 0-.388-.078 1.05 1.05 0 0 0-1.036.932h-.168a1.075 1.075 0 0 0-1.075 1.063q.013.153.064.297a1.1 1.1 0 0 0-.466-.116 1.06 1.06 0 0 0-1.049.932 1.04 1.04 0 0 0-.622-.22 1.06 1.06 0 0 0-1.049.959 1.04 1.04 0 0 0-.816-.415 1.08 1.08 0 0 0-.997.687 1 1 0 0 0-.648-.233 1.09 1.09 0 0 0-.829.414 1.023 1.023 0 0 0-1.697-.078 1.05 1.05 0 0 0-.932-.57 1.06 1.06 0 0 0-.997.726 1.1 1.1 0 0 0-.467-.104 1.02 1.02 0 0 0-.803.402 1.06 1.06 0 0 0-1.723.31 1.05 1.05 0 0 0-.984-.673 1.06 1.06 0 0 0-1.049.945 1 1 0 0 0-.285-.064 1.06 1.06 0 0 0-1.062 1.062 1 1 0 0 0 0 .337 1 1 0 0 0-.389-.078 1.06 1.06 0 0 0-1.062 1.062c.003.21.07.413.195.583a1.075 1.075 0 0 0-1.075 1.062q.006.2.077.389a1.05 1.05 0 0 0-.31 2.046 2.73 2.73 0 0 0-.506 1.58c0 .42.103.833.298 1.205a26 26 0 0 1 2.526-2.81c.047-.497.197-.978.44-1.413a3.4 3.4 0 0 1 0-1.036 1.36 1.36 0 0 1 .285-.647q.22-.222.35-.506.13-.425.181-.867.012.475-.065.945c-.059.179-.156.342-.285.48a1.06 1.06 0 0 0-.271.634 4 4 0 0 0 0 .622c.212-.333.506-.605.854-.79.319-.152.608-.358.855-.61a66 66 0 0 0 1.037-1.657c-.213.65-.477 1.283-.79 1.891-.216.284-.49.518-.804.686a1.74 1.74 0 0 0-.867.985 4 4 0 0 0-.273.803 17 17 0 0 1 2.332-1.736 9.2 9.2 0 0 1 3.886-1.295h.401q.129-.327.298-.635c.145-.276.371-.502.648-.647l.53-.35c.274-.313.497-.667.661-1.05a5 5 0 0 1-.401 1.063c-.168.203-.375.37-.609.492-.268.13-.477.357-.583.635 0 .168-.103.31-.142.453h.103c1.152-.037 2.3-.162 3.433-.375a8.1 8.1 0 0 0 2.163-.868q.416-.683.932-1.296a3.7 3.7 0 0 1 1.101-.608 4 4 0 0 0-.842.595 3 3 0 0 0-.505 1.024 22 22 0 0 0 4.08-2.5s-4.416 4.52-9.87 4.676h-.505q.276.183.57.337c.407.184.867.216 1.295.09.22-.078.622-.324.933-.233a2.73 2.73 0 0 0 1.58-.272s-.984.712-1.606.518c-.233-.065-.712.26-.92.311a2.3 2.3 0 0 1-1.411 0 5.2 5.2 0 0 1-1.127-.674 7.2 7.2 0 0 0-3.886 1.49c-.764.583-1.425 1.088-2.008 1.593q.535.151 1.088.207c.488.044.976-.09 1.374-.375.168-.156.401-.531.712-.57.647-.065 1.295-.92 1.295-.92s-.557 1.062-1.204 1.127c-.246 0-.57.596-.739.725a2.07 2.07 0 0 1-1.23.363 5.3 5.3 0 0 1-1.671-.233 13 13 0 0 0-2.668 2.953 2.73 2.73 0 0 0 1.67.687 1.72 1.72 0 0 0 1.736 1.722 1.71 1.71 0 0 0 1.425-.79c.225.099.467.151.712.156a1.735 1.735 0 0 0 1.607-1.088c.181.07.374.11.57.116a1.75 1.75 0 0 0 1.748-1.748 1.8 1.8 0 0 0-.181-.752 1.19 1.19 0 0 0 .66-1.062 1 1 0 0 0 0-.181q.098.009.194 0a1.18 1.18 0 0 0 1.192-1.127c.201.154.446.24.7.246a1.19 1.19 0 0 0 1.152-.932 1.03 1.03 0 0 0 .907.53 1.06 1.06 0 0 0 1.05-.958q.154.02.31 0a1.05 1.05 0 0 0 .907-.544c.183.15.411.232.647.233a1.05 1.05 0 0 0 1.01-.803q.186.08.39.078a1.06 1.06 0 0 0 1.061-1.062 1.3 1.3 0 0 0 0-.324q.169.03.337 0a1.06 1.06 0 0 0 1.062-.997q.123.01.246 0a1.06 1.06 0 0 0 1.062-1.062 1.06 1.06 0 0 0 .894-1.037v-.116a1.036 1.036 0 0 0 .816-1.01q.063-.135.116-.272a1 1 0 0 0 .26-.415 1.06 1.06 0 0 0 0-.492v-.155c.172-.114.307-.277.388-.467"/>
        <path fill="#fff" d="M43.053 33.71a6.5 6.5 0 0 0-2.733-1.606 1.45 1.45 0 0 1-1.062 1.295 1.3 1.3 0 0 1-.959-.324c-.064.842-1.165.984-1.787.777h-.272q.01.123 0 .246a1.61 1.61 0 0 1-.92 1.412c.162.308.246.65.246.997a2.357 2.357 0 0 1-2.409 2.306 2.4 2.4 0 0 1-.803-.156 2.38 2.38 0 0 1-2.227 1.451c-.34 0-.674-.071-.985-.207a2.42 2.42 0 0 1-1.982 1.062 2.36 2.36 0 0 1-2.409-2.306 3.626 3.626 0 0 1-3.575-3.561 3.5 3.5 0 0 1 .7-2.086 1.295 1.295 0 0 1-.376-2.422v-.31a2.59 2.59 0 0 1 .933-2.164q.209-.181.466-.285c-.557 0-1.295-.647-1.658-1.606a2.1 2.1 0 0 1 0-2.24 4.76 4.76 0 0 0-1.956 1.1 7.36 7.36 0 0 0-1.852 5.324 14.52 14.52 0 0 0 4.132 10.53 7.23 7.23 0 0 0 4.792 2.124h.182c4.83.104 6.981-2.59 8.535-4.65 1.296-1.722 1.917-2.344 3.187-2.344 3.108 0 3.134 5.608 3.134 5.893a1.995 1.995 0 0 0 2.215 1.762c1.878 0 2.24-1.295 2.24-1.697 0-.401.13-5.414-2.797-8.315"/>
        <path fill="#fff" d="M23.577 27.437c.535-.224.632-1.207.218-2.197s-1.183-1.611-1.718-1.387-.632 1.207-.218 2.197 1.184 1.61 1.718 1.387"/>
    </g>
    <defs>
        <clipPath id="a">
            <path fill="#fff" d="M0 0h64v64H0z"/>
        </clipPath>
    </defs>
</svg>