<svg xmlns="http://www.w3.org/2000/svg" width="264" height="49" fill="none" viewBox="0 0 264 49">
    <g clip-path="url(#a)">
        <mask id="b" width="264" height="49" x="0" y="0" maskUnits="userSpaceOnUse" style="mask-type:luminance">
            <path fill="#fff" d="M264 0H0v49h264z"/>
        </mask>
        <g fill="currentColor" mask="url(#b)">
            <path d="M62.902 0c-.15 2.225.075 4.577-.614 6.621-.328.98-2.335 1.72-3.682 1.94-1.704.277-2.31.869-2.301 2.58a66 66 0 0 0 4.387 23.632c1.21 3.134 3.574 4.493 7.036 5.488-2.924-5.364.242-8.206 3.817-10.836.455-.335 1.298-.607 1.746-.413 5.006 2.17 6.635 6.281 4.347 11.645 3.433-1.087 6.43-2.003 7.843-5.52a60 60 0 0 0 4.398-24.11c-.02-.773-.732-2.026-1.37-2.215C83.434 7.33 82.239 5.419 83.315 0h4.083c3.047 1.213 4.04 3.37 3.62 6.637-.384 3.623-.5 7.27-.344 10.91l.996-14.199.383.007q-.442 11.77-.885 23.539l.664.066c.215-2.913.531-5.822.612-8.739.07-2.527-.404-5.045 1.787-7.138.541-.515.145-2.06.102-3.133-.041-1.005-.382-2.034-.244-3.003.286-1.994 2.007-2.871 3.763-1.925 3.295 1.775 4.194 4.903 4.491 8.339.297 3.42-.681 6.283-3.806 7.97-.818.443-2.345.535-3.013.052-.805-.581-1.302-1.912-1.452-2.986-.154-1.09.28-2.267.455-3.4l-.832-.17c-.176 1.19-.657 2.43-.476 3.563.781 4.874-.05 9.454-2.012 13.912-.29.796-.503 1.618-.636 2.456-1.13 5.069-3.492 9.016-8.636 11.157-2.74 1.141-5.007 3.377-7.648 4.823-.819.449-2.377.285-3.24-.214a64.6 64.6 0 0 1-8.626-5.667c-2.04-1.665-4.319-3.67-5.186-6.006a109 109 0 0 1-4.296-15.878c-.532-2.584-.092-5.37-.092-8.063l.755-.063.682 13.675.87-.04-.946-24.247.324-.017.96 12.91c0-2.62.239-5.267-.051-7.854-.533-4.786-.384-5.298 3.886-7.274zm23.98 34.93c4.076-3.36 3.027-8.073 3.536-12.552zm-27.688-.43-3.345-12.885c1.042 4.13-.964 8.991 3.345 12.884m3.808 7.605.58-.582-5.61-6.904a9.54 9.54 0 0 0 1.573 4.385 9.45 9.45 0 0 0 3.457 3.101m19.586-.33.46.462c3.084-1.474 4.695-4.07 5.792-7.057l-.574-.446-5.676 7.041m-.13-1.575-6.62 2.326c3.543 1.436 4.75 1.027 6.612-2.325M69.93 42.503l-6.116-2.396c1.892 3.412 2.677 3.733 6.116 2.396m8.812 2.695-.057-.804c-1.134-.092-2.349-.455-3.367-.154-.463.137-.539 1.586-.79 2.44l.658.473zm-11.12-.81-.145.627 3.655 2.23c-.335-1.56-.33-2.842-.693-2.956-.844-.267-1.866.03-2.817.098M264.001 15.81c-2.409 6.926-5.972 9.357-14.324 9.675-2.378.09-4.766.116-7.142.005-2.038-.095-2.679.794-2.643 2.722.08 4.247 0 8.497.028 12.745.01 1.597-.145 2.834-2.268 2.814-2.006-.018-2.35-1.03-2.343-2.74q.066-17.335-.008-34.669c-.01-1.894.492-2.848 2.557-2.778 4.586.154 9.178.141 13.763.297 6.305.213 10.64 3.107 12.376 9.377zm-17.012-8.343-.022.23c-1.701 0-3.429-.176-5.089.083-.716.112-1.814 1.097-1.848 1.733-.18 3.387-.136 6.793-.019 10.187.02.566.797 1.603 1.193 1.588 4.552-.172 9.168-.114 13.616-.936 2.946-.545 4.566-3.632 4.398-6.166-.189-2.813-2.03-5.157-5.177-5.906-2.285-.543-4.696-.56-7.051-.813M179.858 13.904c-4.654 10.754-9.081 20.996-13.511 31.237l-.768.13-13.276-30.793-.542.003c-.777 3.239-1.574 6.474-2.327 9.718-1.288 5.54-2.547 11.088-3.823 16.631-.704 3.06-1.241 3.355-4.849 2.356l9.661-40.618.692-.052 14.817 33.538 14.837-33.459.712-.056 9.649 40.492c-3.283 1.348-4.091.938-4.813-2.187a12823 12823 0 0 0-5.64-24.315c-.164-.703-.428-1.382-.818-2.624M41.184 13.119l-3.158 2.332c-.983-1.053-1.818-1.995-2.704-2.885C27.214 4.403 13.47 5.59 7.037 15.05c-3.27 4.81-3.809 9.978-1.258 15.23 2.915 6.007 7.983 9.127 14.511 9.855 4.535.502 9.091-.732 12.764-3.457a12 12 0 0 0 3.39-3.382c.876-1.467 1.176-3.279 1.725-4.94a38 38 0 0 0-4.532-.754c-2.631-.13-5.273-.06-7.91-.047-1.341.007-2.045-.54-2.068-1.958-.023-1.38.562-2.064 1.95-2.064 5.018 0 10.037.011 15.055-.009 1.55-.007 2.002.763 2.027 2.23.096 5.66-1.937 10.268-6.498 13.702a23.4 23.4 0 0 1-15.166 4.655 23.42 23.42 0 0 1-14.652-6.103 19.2 19.2 0 0 1-4.819-6.737 19.33 19.33 0 0 1 .471-16.207A19.2 19.2 0 0 1 7.23 8.623a23.24 23.24 0 0 1 16.811-5.39 23.3 23.3 0 0 1 15.755 7.998c.44.5.796 1.075 1.391 1.89M106.195 23.627c0-5.684.076-11.37-.042-17.054-.044-2.155.556-3.143 2.853-2.996 4.82.31 9.734-.002 14.456.817 10.921 1.895 17.778 10.59 17.128 20.958-.572 9.133-9.208 17.242-19.444 18.042-4.143.323-8.312.229-12.469.36-1.817.058-2.543-.677-2.514-2.566.09-5.852.033-11.707.032-17.56m4.585 16.567c4.977-.581 9.622-.59 13.958-1.752 6.879-1.844 11.579-8.424 11.501-14.867-.079-6.616-4.705-12.87-11.672-14.716-3.703-.98-7.711-.799-11.576-1.192-1.856-.189-2.27.65-2.251 2.37.084 7.384.039 14.77.04 22.155v8M212.271 2.862l19.215 40.256c-3.354 1.114-4.075.846-5.277-1.84-1.248-2.789-2.337-5.658-3.755-8.355a3.7 3.7 0 0 0-1.126-1.157 3.7 3.7 0 0 0-1.505-.568c-4.837-.17-9.687-.186-14.521.01-.972.039-2.287 1.01-2.771 1.912-1.401 2.609-2.458 5.402-3.652 8.121-1.214 2.765-1.847 3.02-5.253 1.855l17.939-40.237.709.003m-.297 8.501c-2.41 5.53-4.5 10.33-6.758 15.509h14.563c-2.591-5.15-5.027-9.986-7.805-15.509M43.887 11.874c.366-3.321.962-6.577 4.105-8.54 2.301-1.44 4.235-.38 4.285 2.338.066 3.67.108 7.348-.09 11.009-.056 1.01-.783 2.421-1.607 2.825-.81.397-2.302.036-3.2-.494-2.645-1.566-3.665-4.086-3.493-7.138"/>
        </g>
    </g>
    <defs>
        <clipPath id="a">
            <path fill="currentColor" d="M0 0h264v49H0z"/>
        </clipPath>
    </defs>
</svg>