<svg xmlns="http://www.w3.org/2000/svg" width="161" height="54" fill="none" viewBox="0 0 161 54">
    <g clip-path="url(#a)">
        <path fill="currentColor" d="M24.656 5.055V43H14.79V27.063h-2.953V43H1.969V5.055h9.867v13.57h2.953V5.055zm25.383 6.843V43h-9.633l.164-2.578q-.984 1.57-2.437 2.367-1.43.774-3.305.773-2.133 0-3.539-.75t-2.086-1.992a7.4 7.4 0 0 1-.82-2.578q-.165-1.359-.164-5.367V11.898h9.468v21.165q0 3.632.211 4.312.235.68 1.22.68 1.053 0 1.241-.703.211-.704.211-4.524v-20.93zm3.68-6.843h9.843q4.664 0 7.055.726 2.415.727 3.89 2.953 1.477 2.204 1.477 7.125 0 3.33-1.054 4.641-1.032 1.313-4.102 2.016 3.422.773 4.64 2.578 1.22 1.78 1.22 5.484v3.516q0 3.843-.891 5.695-.867 1.851-2.79 2.531-1.92.68-7.874.68H53.719zm9.867 6.492v8.437q.633-.023.984-.023 1.454 0 1.852-.703.398-.727.398-4.102 0-1.78-.328-2.484-.328-.728-.867-.914-.515-.187-2.04-.211m0 14.344v10.617q2.085-.07 2.648-.656.586-.586.586-2.883v-3.54q0-2.437-.515-2.952-.516-.517-2.72-.586m47.109-20.836V43h-8.625V17.383L98.625 43h-6.117l-3.633-25.031V43H80.25V5.055h12.773q.563 3.42 1.196 8.062l1.36 9.656 2.25-17.718zm21 0L137.344 43h-10.102l-.492-6.82h-3.539l-.586 6.82h-10.219l5.016-37.945zm-5.226 24.398q-.75-6.445-1.5-15.914-1.5 10.875-1.875 15.914zm12.562-24.398h9.938q4.031 0 6.187.633 2.18.631 3.258 1.828 1.102 1.195 1.477 2.906.398 1.688.398 5.25v3.305q0 3.632-.75 5.296t-2.766 2.555q-1.992.89-5.226.89h-2.649V43h-9.867zm9.867 6.492v9.656q.423.024.727.024 1.359 0 1.875-.657.539-.68.539-2.789v-3.117q0-1.945-.609-2.531-.61-.585-2.532-.586"/>
    </g>
    <defs>
        <clipPath id="a">
            <path fill="currentColor" d="M0 0h161v54H0z"/>
        </clipPath>
    </defs>
</svg>