<svg xmlns="http://www.w3.org/2000/svg" width="107" height="107" fill="none" viewBox="0 0 107 107">
    <mask id="a" width="107" height="107" x="0" y="0" maskUnits="userSpaceOnUse" style="mask-type:luminance">
        <path fill="#fff" d="M106.515 0H0v106.391h106.515z"/>
    </mask>
    <g fill="currentColor" mask="url(#a)">
        <path d="M76.199 22.481a1.97 1.97 0 0 1 1.423 1.051c.373.726.684 1.483.928 2.262.053.382.01.77-.125 1.132a6.7 6.7 0 0 1-2.709 3.768c-.826.611-1.713 1.138-2.545 1.741-.915.663-1.835 1.327-2.688 2.065a35.5 35.5 0 0 1-5.586 3.77c-2.13 1.228-4.272 2.433-6.354 3.736a15.75 15.75 0 0 0-4.79 4.5 11.6 11.6 0 0 0-1.599 3.565 1.6 1.6 0 0 1-.281.591 3.35 3.35 0 0 0-.694 3.3c.074.241.14.485.218.726a1.79 1.79 0 0 1-.2 1.68c-.547.812-.978 1.7-1.452 2.563-.215.389-.158.6.243.788q.467.215.958.366a.656.656 0 0 1 .5.739 3.4 3.4 0 0 0 0 .758c.057.336-.02.79.551.81.053 0 .167.285.13.4a.655.655 0 0 0 .186.8 1.64 1.64 0 0 1 .563 1.6 2.146 2.146 0 0 0 2.137 2.616c1.263.09 2.529.149 3.787.283.74.069 1.469.216 2.177.439a2.685 2.685 0 0 1 1.9 3.289 2.24 2.24 0 0 1-1.345 1.889c-1.319.578-2.663 1.1-3.988 1.666q-1.183.462-2.3 1.067a3.58 3.58 0 0 0-1.794 3.547 3.7 3.7 0 0 0 3.206 3.2c.763.112 1.53.189 2.392.294a4 4 0 0 1-.277.339 7.17 7.17 0 0 1-7.753 1.489 3.27 3.27 0 0 1-2.408-2.51 4.92 4.92 0 0 1 1.332-4.759 11.8 11.8 0 0 1 2.949-1.917c.793-.411 1.6-.806 2.364-1.261a4.54 4.54 0 0 0 2.345-3.007 1.46 1.46 0 0 0-.05-.775 3.34 3.34 0 0 0-3.261-2.143c-1.128-.058-2.264.046-3.4.039a9 9 0 0 1-1.727-.158 1.4 1.4 0 0 1-1.172-1.475 2.6 2.6 0 0 1 .035-.844 1.126 1.126 0 0 0-.543-1.334c-.628-.491-.615-.483-.438-1.246a.63.63 0 0 0-.193-.488c-.393-.371-.625-.757-.336-1.295a.6.6 0 0 0 .042-.173c.164-.988.162-.984-.8-1.283a4.3 4.3 0 0 1-.743-.3c-.671-.359-.782-.808-.335-1.419.325-.444.7-.852 1.031-1.29.432-.569.88-1.13 1.26-1.733a1.87 1.87 0 0 0-.059-2.394c-.339-.408-.095-.9-.048-1.335.565-5.231 3.22-9.239 7.318-12.4a68.6 68.6 0 0 1 8.6-5.36 59 59 0 0 0 8.766-5.514c1.322-1.079 2.494-2.342 3.735-3.52.304-.309.496-.71.544-1.141.1-.6.24-1.188.366-1.8"/>
        <path d="M22.146 57.416a4.2 4.2 0 0 1-.259-2.382 2.74 2.74 0 0 1 1.832-1.981 8.5 8.5 0 0 1 3.59-.6c2.124.084 4.244.29 6.365.464a6.36 6.36 0 0 0 3.317-.477 3.68 3.68 0 0 0 2.038-2.519c.408-1.55.8-3.1 1.2-4.658.222-.877.442-1.755.641-2.638a9.4 9.4 0 0 1 1.912-3.84 22.8 22.8 0 0 1 5.882-4.97c3.928-2.455 7.9-4.833 11.867-7.233a128 128 0 0 0 12.409-8.287c.456-.355 1.018-.575 1.465-.94q1.373-1.036 2.562-2.277a5.6 5.6 0 0 0 1.36-5.36 4.86 4.86 0 0 1 2.56 2.691 4.32 4.32 0 0 1-.384 3.409 12.45 12.45 0 0 1-3.46 4.166 49 49 0 0 1-4.241 2.972c-5.418 3.474-10.875 6.889-16.282 10.379-2.315 1.494-4.544 3.121-6.813 4.686a14.7 14.7 0 0 0-6.246 9.923 32 32 0 0 1-1.174 4.611 9 9 0 0 1-1.46 2.428 5.94 5.94 0 0 1-4.63 2.136 28.6 28.6 0 0 1-6.822-.653c-1.373-.234-2.776-.312-4.169-.41a5.2 5.2 0 0 0-1.324.161 2.41 2.41 0 0 0-1.73 1.194M74.762 32.486A5.73 5.73 0 0 1 77 36.535a4.44 4.44 0 0 1-.873 2.761 8.8 8.8 0 0 1-2.483 2.423c-2.189 1.412-4.415 2.769-6.638 4.13a35 35 0 0 0-5.035 3.471 7.3 7.3 0 0 0-2.493 3.57 3.6 3.6 0 0 0 .038 2.063 2.08 2.08 0 0 1-.284 1.792q-.195.298-.422.575a1.085 1.085 0 0 0 .6 1.81c.714.193.831.413.736 1.142-.024.186.15.4.236.6.059.137.19.278.176.4-.043.393.106.61.492.642.456.038.608.308.6.722v.8a.877.877 0 0 0 .788.969 4.9 4.9 0 0 0 2.239-.237c1.3-.319 2.588-.676 3.9-.923a9.3 9.3 0 0 1 4.909.587c1.207.425 2.376.953 3.493 1.579a5.95 5.95 0 0 0 4.526.562c.404-.11.819-.177 1.237-.2-.927 1.056-1.783 2.186-2.8 3.149a5.27 5.27 0 0 1-4.17 1.221 10 10 0 0 1-3.6-.978 5.16 5.16 0 0 1-1.823-1.333 4.5 4.5 0 0 0-2.592-1.392 12.6 12.6 0 0 0-2.589-.439c-.918.037-1.83.158-2.726.361-1.497.349-3.052.37-4.558.064-1.384-.355-1.733-1.187-1.123-2.544.161-.357.138-.592-.158-.807a2.44 2.44 0 0 1-.876-1.7 16 16 0 0 1-.45-1.942c-.008-.1-.227-.232-.37-.275a3.2 3.2 0 0 0-.872-.161.52.52 0 0 1-.565-.455.89.89 0 0 1 .167-.631c.373-.443.8-.845 1.208-1.255a1.36 1.36 0 0 0 .4-1.544 5.1 5.1 0 0 1 .119-3.144q.214-.977.478-1.946a6.55 6.55 0 0 1 2.163-3.1 14 14 0 0 1 1.625-1.093c1.646-1.1 3.27-2.242 4.942-3.3 1.848-1.173 3.739-2.279 5.615-3.406a8.82 8.82 0 0 0 4.145-4.736q.266-.94.435-1.9M15.095 61.792a3.1 3.1 0 0 1 2.543-3.36 9 9 0 0 1 4.6.14q2.24.686 4.394 1.606c5.339 2.139 10.447 4.778 15.629 7.257a23 23 0 0 1 5.679 3.6c.779.67 1.459 1.446 2.019 2.306 1.028 1.7.826 2.264-.387 3.466a18 18 0 0 1-2.338 1.7c-.727.514-1.494.98-2.177 1.547a3.59 3.59 0 0 0-1.3 3.713q.152 1.013.407 2.006a4.49 4.49 0 0 0 3.835 3.057c.288.055.576.106.95.174a8.4 8.4 0 0 1-2.492 1.427 7.55 7.55 0 0 1-4.388.333 4.863 4.863 0 0 1-3.615-5.644 6.22 6.22 0 0 1 2.56-3.988c.985-.722 1.954-1.465 2.935-2.193a3.22 3.22 0 0 0 .753-4.071 6.1 6.1 0 0 0-2.045-2.225 67 67 0 0 0-3.994-2.361 609 609 0 0 0-9.338-5.068 38.8 38.8 0 0 0-8.146-3.382 10.5 10.5 0 0 0-5.158-.325c-.3.07-.593.18-.928.285"/>
        <path d="M78.704 20.668a40 40 0 0 1 10.82 12.485 41.37 41.37 0 0 1-31.291 61.256 41.37 41.37 0 0 1-25.551-76.933 40.9 40.9 0 0 1 24.566-5.348 39.1 39.1 0 0 1 15.2 4.538c-13.017-6.187-26-6.305-38.8.493a39.6 39.6 0 0 0-18.322 20.247 41.216 41.216 0 0 0 65.833 46.318 39.84 39.84 0 0 0 13.368-32.111c-.507-12.693-6.074-22.91-15.821-30.948"/>
        <path d="M4.96 57.335c.157.057.31.128.47.169q2.481.645 4.964 1.28a1 1 0 0 1 .254.08q.147.105.278.229a1.1 1.1 0 0 1-.236.231c-.981.5-1.968.99-2.951 1.485q-1.15.58-2.3 1.165l.022.122c.352-.032.7-.06 1.055-.1.962-.1 1.927-.172 2.884-.3.682-.094 1.555.056 1.577-1.128l.156.1.21 1.965a1 1 0 0 1-.16 0c-.15-.621-.584-.754-1.15-.688-1.4.164-2.806.32-4.21.482-.523.06-.747.407-.757.948l-.163-.051c-.05-.578-.116-1.156-.131-1.734 0-.095.214-.219.35-.289 1.353-.688 2.71-1.368 4.065-2.051.14-.071.276-.153.523-.29-.93-.245-1.742-.46-2.555-.671-.834-.216-1.668-.434-2.505-.638-.281-.069-.428-.185-.432-.509-.005-.4-.088-.8-.13-1.2q0-.187.025-.372c.119.14.2.193.215.26.1.5.458.6.874.555 1.39-.139 2.779-.3 4.17-.443.565-.056.978-.247.972-.933l.149.03.268 2.4-.12.027a1 1 0 0 1-.11-.216.62.62 0 0 0-.735-.5q-1.689.148-3.376.314c-.481.047-.961.11-1.441.166l-.016.1M99.02 34.11c-.842.054-1.684.105-2.526.162-1.1.073-2.2.155-3.3.219a1.3 1.3 0 0 1-.4-.112 1.8 1.8 0 0 1 .218-.356 977 977 0 0 1 3.781-3.81c.11-.111.211-.231.316-.347l-.078-.121c-1.508.723-3.021 1.436-4.521 2.176-.4.2-.318.589-.2.957a3.28 3.28 0 0 1-.929-1.754c.026-.007.068-.028.078-.018.555.573.612.589 1.343.259 1.085-.491 2.171-.979 3.247-1.489.577-.274 1.3-.473.947-1.439h.171c.238.541.489 1.078.7 1.63.029.076-.134.246-.234.347a917 917 0 0 1-3.209 3.243c-.11.112-.211.233-.414.459.871-.059 1.606-.107 2.34-.16.981-.07 1.96-.15 2.942-.208a.46.46 0 0 1 .371.147c.258.5.479 1.011.714 1.524-.077.028-.118.052-.127.044-.576-.546-.681-.564-1.436-.219-1.151.527-2.3 1.05-3.449 1.586-.735.345-.8.471-.706 1.21a5.3 5.3 0 0 1-1.07-2.215c.043.018.091.022.113.049.414.512.52.566 1.137.3 1.12-.487 2.222-1.011 3.331-1.521.295-.135.587-.276.88-.414l-.028-.129M85.709 15.083l1.877 1.625c-.13.064-.177.108-.2.1-.68-.263-.782-.248-1.268.272-.385.411-.756.835-1.167 1.291l2.154 1.928c.507-.614 1.011-1.191 1.466-1.8.088-.119 0-.385-.04-.576a1.1 1.1 0 0 0-.177-.3l.123-.107 1.9 1.692c-.19 0-.286.03-.331 0-.4-.312-.726-.159-1.017.156-.425.459-.839.928-1.256 1.394-.467.521-.941 1.037-1.4 1.566-.4.462-.9.919-.168 1.59l-.2.072-1.819-1.633.047-.189c.729.62 1.11.092 1.515-.35.37-.4.738-.812 1.15-1.267l-2.161-1.929c-.526.624-1.027 1.207-1.515 1.8-.3.364-.078.686.161 1.005a5.26 5.26 0 0 1-1.877-1.566c.011-.01.029-.03.033-.028.707.43 1.117-.034 1.528-.5.786-.9 1.58-1.784 2.361-2.684.577-.665.581-.749.2-1.466l.081-.082M28.792 17.352l-2.081 1.227c-.03-.107-.054-.148-.044-.16.47-.552.49-.628.112-1.283-.6-1.043-1.222-2.078-1.843-3.111-.548-.912-.557-.911-1.536-.974l2.07-1.235c.042.1.069.141.06.148-.525.508-.437.681-.112 1.292.264.5.57.971.9 1.517l2.46-1.492c-.437-.665-.823-1.331-1.3-1.923-.133-.166-.537-.113-.83-.163a5.6 5.6 0 0 1 2.076-1.2q-.073.117-.17.216a.6.6 0 0 0-.153.837q1.178 2 2.385 3.981c.265.435.67.481 1.146.2l.027.185-2.127 1.293c0-.131-.021-.216 0-.232.478-.316.407-.715.166-1.127-.3-.514-.607-1.024-.934-1.521a.37.37 0 0 0-.342-.11c-.734.419-1.454.863-2.252 1.345.45.7.854 1.371 1.316 2 .107.145.41.159.63.2a.8.8 0 0 0 .313-.067l.066.149M62.425 10.292c.146-.1.193-.157.233-.152.6.068.776-.33.876-.8.118-.552.205-1.11.335-1.66.057-.238-.015-.327-.234-.37-.73-.141-1.459-.283-2.186-.438-.255-.055-.355.057-.4.28-.119.628-.251 1.253-.357 1.883-.08.48.222.727.656.875a4.3 4.3 0 0 1-2.433-.432c.061-.024.114-.065.161-.06.529.069.722-.266.813-.693.189-.886.362-1.775.541-2.663q.119-.59.233-1.18c.115-.59.325-1.21-.6-1.445l.123-.147 2.352.475.062.152c-.992-.092-1.021.61-1.148 1.23l-.28 1.363 2.815.552c.134-.716.269-1.367.374-2.024.073-.46-.206-.731-.652-.885l.093-.141 2.374.432c-.058.1-.081.169-.1.168-.631-.031-.853.36-.959.9-.256 1.3-.538 2.588-.778 3.887-.133.719-.076.785.579 1.388zM73.343 13.315a2.6 2.6 0 0 0 1.432-1.475c.05-.15-.079-.378-.169-.548-.055-.1-.19-.168-.29-.249l.064-.115 1.933.941c-.048.066-.073.111-.081.109-.586-.2-.974.118-1.376.483q-.585.52-1.244.943a.32.32 0 0 0-.128.506 1.19 1.19 0 0 0 1.117.683h.468a1.607 1.607 0 0 1-2.262-.457.65.65 0 0 0-.651-.4 5 5 0 0 1-2.71-1.043.822.822 0 0 1-.167-1.257 3.26 3.26 0 0 1 2.494-1.466c.346-.026.39-.178.447-.458.05-.437.183-.86.392-1.247a1.56 1.56 0 0 1 2.649.325.955.955 0 0 1-.669 1.363q-.633.129-1.28.145c-.2.017-.412.015-.379.3q.152 1.328.317 2.654.034.134.091.259m-2.925-1.589a1.794 1.794 0 0 0 1.707 1.867c.29.015.435-.066.385-.411a57 57 0 0 1-.331-2.732c-.03-.317-.161-.369-.431-.325a1.59 1.59 0 0 0-1.332 1.6m2.9-1.774c.824 0 1.365-.359 1.495-.975a.89.89 0 0 0-.493-.994.784.784 0 0 0-1.034.355q-.238.571-.347 1.18c-.07.315.071.487.379.434M14.9 72.512l1.09 2.142-.118.177c-.432-.864-.983-.511-1.5-.253-1.133.564-2.252 1.155-3.382 1.724-.493.248-.808.563-.587 1.164.01.026-.037.072-.084.157a1.4 1.4 0 0 1-.193-.226c-.4-.783-.8-1.562-1.174-2.358a4 4 0 0 1-.3-1.02 1.418 1.418 0 0 1 1.9-1.57q.597.302 1.123.714.102-.114.191-.239.558-.837 1.111-1.676a2.4 2.4 0 0 0 .485-1.526c.2.4.421.784.6 1.192.035.08-.076.24-.146.347-.534.825-1.082 1.64-1.6 2.474a.77.77 0 0 0-.09.519c.065.315.244.436.577.24.435-.256.9-.458 1.345-.7.662-.366.711-.48.61-1.195l.15-.085m-2.659 2.282c-.12-.252-.2-.438-.3-.62a1.79 1.79 0 0 0-1.252-1.042 1.32 1.32 0 0 0-1.476.737 1.75 1.75 0 0 0 .4 1.842.7.7 0 0 0 .567.062c.68-.291 1.337-.63 2.065-.98M100.255 70.935a12.6 12.6 0 0 1-1.565 3.413 1.43 1.43 0 0 1-1.692.574 1.57 1.57 0 0 1-.975-1.6c0-.19.02-.38.032-.633l-.858.08c-.43.039-.861.065-1.289.119a2.9 2.9 0 0 0-1.726.625c.184-.407.355-.822.565-1.215.04-.077.235-.089.361-.1.946-.106 1.891-.222 2.84-.3.446-.036.624-.264.667-.742-.7-.288-1.4-.6-2.12-.866a.624.624 0 0 0-.783.266.8.8 0 0 1-.181.156l-.112-.065.971-2.237c.1.061.142.078.141.092-.042.739.014.854.716 1.171 1.234.556 2.481 1.085 3.714 1.643a.898.898 0 0 0 1.293-.376m-3.866 1.829a1.43 1.43 0 0 0 .788 1.326 1.24 1.24 0 0 0 1.447-.236c.237-.242.433-.52.581-.825a.57.57 0 0 0-.3-.849c-.385-.192-.78-.365-1.173-.542-.924-.416-1.086-.325-1.271.707-.026.146-.047.293-.067.418M36.094 93.33c-.823-.366-1.1.2-1.4.722-.535.929-1.075 1.855-1.59 2.794-.326.6-.844 1.2-.055 1.841-.076.039-.11.07-.123.062-.919-.518-1.881-.976-2.744-1.575a2.86 2.86 0 0 1-.926-3.833 2.96 2.96 0 0 1 3.7-1.771q1.635.666 3.174 1.529zm-6.5 1.701a2.325 2.325 0 0 0 1.416 2.423c.469.237.694.191.982-.247.269-.409.5-.842.742-1.271.484-.871.971-1.74 1.436-2.621.169-.321.29-.7-.057-.98a2.17 2.17 0 0 0-1.775-.546 4.09 4.09 0 0 0-2.743 3.241M11.332 44.64l-.4 1.901h-.11a.5.5 0 0 1-.06-.185.693.693 0 0 0-.636-.78c-1.073-.24-2.147-.47-3.222-.699-.363-.078-.732-.13-1.094-.213-.451-.1-.8-.024-.962.459a.33.33 0 0 1-.1.177 1.48 1.48 0 0 1 .6-1.7l4.378-1.91c.18-.078.354-.178.53-.268l-.02-.111c-1.232-.245-2.464-.494-3.7-.734a.725.725 0 0 0-.93.632l-.156-.09.377-1.887c.093.039.14.046.143.06.125.734.21.822.963.98l4.667.983a.8.8 0 0 1 .38.19c-1.974 1.022-4.028 1.836-6.045 2.767.046.067.065.125.094.132 1.307.284 2.61.587 3.923.836.725.137.777.076 1.219-.56l.152.027M97.17 51.327l5.001-4.372-.049-.106c-.361.029-.722.05-1.081.089q-1.508.164-3.015.339c-.715.085-.806.169-1.1.862l-.22-1.927.196-.134q.04.124.065.252c.08.554.5.644.93.607 1.423-.121 2.843-.272 4.264-.42.517-.053.83-.337.818-1.008a1.527 1.527 0 0 1-.2 2.014q-1.748 1.5-3.5 3c-.168.13-.302.3-.391.493l1.2-.1c.756-.068 1.512-.131 2.267-.207.546-.055 1.07-.155 1.034-.935l.15.049.178 1.92c-.118-.02-.165-.016-.17-.03-.288-.669-.312-.72-1.059-.663-1.484.11-2.964.266-4.445.4-.261.024-.524.035-.786.052l-.092-.17M14.841 23.1a3.94 3.94 0 0 1 3.673 2.858 2.728 2.728 0 0 1-2.66 3.257 3.96 3.96 0 0 1-3.586-2.683 2.652 2.652 0 0 1 2.574-3.431m-.826.573q-.168.015-.333.054a1.57 1.57 0 0 0-.874 2.41 4.88 4.88 0 0 0 3.636 2.468 1.545 1.545 0 0 0 1.669-1.988 5 5 0 0 0-4.1-2.944M35.15 8.718l.93 2.184c-.946-.811-1.138-.834-2.359-.2.332.752.652 1.515 1.005 2.262a.524.524 0 0 0 .69.251 2.54 2.54 0 0 0 2.043-1.948 3 3 0 0 1 .2-.51l.16.015c0 .55.006 1.1-.009 1.65 0 .056-.117.128-.193.159a793 793 0 0 1-4.047 1.657c-.033.014-.08-.005-.119-.009 0-.041-.019-.084-.007-.095.552-.495.585-.589.3-1.3q-.638-1.594-1.31-3.174c-.265-.619-.392-1.416-1.446-1.178l.039-.122c.122-.063.241-.135.368-.187 1.154-.479 2.313-.946 3.462-1.437a.516.516 0 0 1 .7.142c.247.295.531.559.8.836l-.109.132c-.2-.108-.4-.213-.6-.326a2.38 2.38 0 0 0-2.637.282.63.63 0 0 0-.2.564c.209.649.475 1.28.747 1.906.031.07.252.12.355.086.881-.284 1.136-.653 1.236-1.639M78.054 91.592c1.015.572 1.3.538 2.344-.378-.5-.666-1-1.349-1.523-2.007-.21-.263-.508-.2-.777-.052a2.59 2.59 0 0 0-1.5 2.4c0 .157-.021.314-.033.47l-.131.025c-.137-.529-.28-1.056-.4-1.588-.012-.051.089-.146.157-.195q1.74-1.257 3.485-2.506a.8.8 0 0 1 .168-.066c.016.066.047.121.03.143-.42.6-.442.681-.01 1.288.8 1.116 1.625 2.209 2.434 3.316a.82.82 0 0 0 1.288.248l.009.171c-.1.091-.2.191-.306.27-1.037.753-2.081 1.5-3.112 2.259a.43.43 0 0 1-.589.02c-.333-.237-.69-.44-1.037-.657l.044-.123c.2.038.414.06.613.118a2.47 2.47 0 0 0 2.556-.88.72.72 0 0 0 .015-.675c-.356-.6-.778-1.159-1.17-1.724-.956.287-1.261.871-1.13 2.037l-1.427-1.92M45.406 10.22l-2.381.669-.06-.145q.198-.091.394-.187c.291-.144.4-.362.22-.654a17 17 0 0 0-.76-1.155.43.43 0 0 0-.362-.128c-.593.14-1.179.309-1.763.482-.1.029-.244.123-.252.2q-.086.709-.081 1.422c.008.309.252.456.555.474.14.008.282 0 .422 0l.029.168-2.063.56-.05-.1q.081-.081.148-.174c.185-.306.483-.6.523-.927.121-.973.139-1.958.2-2.938.046-.773.127-1.545.129-2.317a.84.84 0 0 1 .73-.884c.08.1.174.215.256.334l3 4.392c.287.424.592.806 1.243.726l-.072.18M42.53 8.182l-1.799-2.546-.153.062V8.72l1.947-.54M9.181 47.926c.488.224.978.442 1.46.679.053.026.079.156.076.235q-.09 2.187-.195 4.374c0 .03-.051.058-.108.119-.04-.084-.091-.142-.091-.2a.6.6 0 0 0-.616-.638 127 127 0 0 0-4.777-.178c-.191 0-.395.28-.576.45a1 1 0 0 0-.147.28l-.124-.022c-.008-.15-.028-.3-.021-.446.055-1.2.13-2.41.165-3.615a.616.616 0 0 1 .525-.692c.345-.083.677-.222 1.015-.337l.072.136c-.179.138-.353.28-.537.412a2.47 2.47 0 0 0-.892 2.387.573.573 0 0 0 .617.573c.565.033 1.132.046 1.7.094.343.029.432-.115.443-.433.029-.784-.116-1.437-1.126-1.561l.109-.125 2.328.11c-.338.247-.771.417-.951.732-.138.415-.203.85-.192 1.287.909.028 1.751.069 2.594.074.326 0 .436-.26.479-.55a2.6 2.6 0 0 0-1-2.73 4 4 0 0 0-.382-.211l.156-.2M29.406 89.327c-.813-.415-1.16.177-1.547.666q-1.012 1.28-2.02 2.565c-.654.839-.652.841-.244 1.811a4 4 0 0 1-.382-.221c-1.025-.794-2.044-1.6-3.076-2.383a.42.42 0 0 1-.185-.524c.122-.391.223-.79.333-1.184h.113c.04.32.085.639.119.96.1.97.823 1.442 1.559 1.874a.64.64 0 0 0 .58-.162c.477-.528.9-1.1 1.34-1.644-.66-.833-1.187-.928-2.28-.492l1.459-1.846c-.065.394-.054.796.032 1.186.162.36.573.61.939.97.555-.734 1.068-1.384 1.547-2.058.206-.29.072-.564-.172-.791a2.63 2.63 0 0 0-2.691-.773 4 4 0 0 1-.5.08l-.046-.118c.437-.264.869-.537 1.315-.784a.37.37 0 0 1 .313.068q1.684 1.3 3.353 2.61.081.085.137.189M96.527 67.543c-.507-.383-.932-.7-1.343-1.026a.32.32 0 0 1-.074-.271q.582-2.1 1.186-4.2c.014-.05.063-.09.148-.2q.03.15.029.3a.616.616 0 0 0 .449.729c.417.156.846.28 1.275.4.959.27 1.921.527 2.88.794.531.148 1.011.175 1.265-.451.008-.021.075-.018.175-.039-.023.136-.032.242-.06.342-.35 1.26-.712 2.516-1.046 3.779a.477.477 0 0 1-.489.414c-.379.026-.756.066-1.134.1l-.042-.123q.21-.12.432-.214a2.48 2.48 0 0 0 1.56-2.342.67.67 0 0 0-.37-.52 17 17 0 0 0-1.883-.543c-.088-.021-.289.127-.324.234-.251.757-.307 1.474.65 1.88l-.1.084-2.331-.642c.059-.074.076-.114.093-.113a1.282 1.282 0 0 0 1.505-1.383c0-.084-.127-.224-.221-.252-.669-.2-1.345-.375-2.017-.568-.438-.126-.678.07-.825.46a2.56 2.56 0 0 0 .332 2.769q.137.176.25.368.029.114.032.233M18.919 78.952l1.262 1.758-.085.14c-.843-.738-1.668-.265-2.484-.024-1.239.366-2.478.74-3.7 1.17a.926.926 0 0 1-1.245-.372c.077-.112.164-.245.258-.374.926-1.278 1.861-2.55 2.775-3.835.387-.544.892-1.059.61-1.853l.143-.04 1.448 2.036-.116.11-.3-.299a.427.427 0 0 0-.722.027q-.427.545-.8 1.126a.4.4 0 0 0 .005.353q.518.781 1.084 1.53a.43.43 0 0 0 .362.113 8 8 0 0 0 1.022-.313c.562-.207.636-.4.416-.945a2 2 0 0 1-.056-.232l.125-.074m-5.167 2.535.081.12 3-.922-1.243-1.742-1.836 2.543M58.945 103.154l-2.234.294c.088-.148.11-.238.158-.256a1.47 1.47 0 0 0 .872-1.255c.346-1.61.679-3.223 1.027-4.833.023-.171.1-.33.22-.455.427-.325.594-.268.824.218.617 1.3 1.212 2.617 1.858 3.906.346.691.509 1.553 1.479 1.756l-.034.131-2.458.3-.042-.133c.121-.043.24-.1.364-.128.351-.094.522-.287.364-.654-.182-.422-.362-.847-.575-1.254a.43.43 0 0 0-.349-.179c-.606.061-1.209.151-1.81.246-.1.016-.247.093-.266.169q-.178.667-.27 1.35c-.04.348.169.553.527.586.111.01.221.027.331.041l.013.155m1.588-2.894-1.316-2.84-.13.02-.669 3.086zM96.543 45.309l-.651-2.4.117-.057q.096.135.172.282c.216.5.381.556.845.265.088-.055.17-.12.256-.18.965-.674.965-.674.634-1.851-.3-1.065-.3-1.065-1.357-1.122-.822-.045-.96.084-.973.9 0 .036-.038.071-.128.23l-.595-2.2.128-.083c.466.834 1.255.79 2.028.825 1.5.068 3 .177 4.507.232.425.016.528.31.618.584.031.1-.19.321-.34.423-1.366.932-2.745 1.844-4.112 2.774-.489.332-1.019.648-.989 1.386l-.16-.01m4.6-4.671-.058-.134-3.126-.182.568 2.091zM20.848 85.962a19 19 0 0 0 1.576-1.666c.163-.217.026-.66.026-1l-.179.1 1.844 1.615c-.054.036-.087.072-.1.065-.716-.352-.794-.34-1.377.224q-1.365 1.32-2.725 2.64c-.634.62-.64.677-.243 1.557a3 3 0 0 1-.339-.24c-.64-.643-1.3-1.27-1.9-1.946a3 3 0 0 1-.644-1.1 1.46 1.46 0 0 1 .6-1.65 1.4 1.4 0 0 1 1.631-.134q.692.445 1.305.99.277.255.524.536m-.143.113a10 10 0 0 0-1.2-.967 1.56 1.56 0 0 0-.964-.176 1.435 1.435 0 0 0-1.178 1.092 1.6 1.6 0 0 0 .7 1.624.6.6 0 0 0 .882.027c.565-.5 1.118-1.016 1.758-1.6M43.673 95.999l2.353.506c-.036.091-.043.138-.057.14-.782.12-.825.152-1 .932-.225 1-.466 2-.647 3-.076.409-.069.829.02 1.235.173.736.807.941 1.463 1.038a1.235 1.235 0 0 0 1.421-.69q.363-.884.572-1.817c.172-.675.3-1.362.429-2.047.1-.521.187-1.059-.533-1.291l.073-.13 1.94.389c-.109.1-.143.161-.185.167-.706.107-.8.194-.943.878-.208.987-.415 1.975-.631 2.961q-.073.35-.208.68a1.936 1.936 0 0 1-2.445 1.111 2.01 2.01 0 0 1-1.838-1.686 2 2 0 0 1 .057-.888c.228-.967.4-1.947.6-2.92.121-.582.3-1.174-.57-1.432l.131-.14M21.129 17.335a4 4 0 0 1-.564-.029 2.5 2.5 0 0 0-2.407 1.065.606.606 0 0 0 .048.885c.459.506.939.993 1.4 1.479.923-.533 1.1-1.083.812-1.894l1.574 1.43a3 3 0 0 0-1.146-.138 4 4 0 0 0-1.095.782c.619.625 1.172 1.2 1.747 1.755a.594.594 0 0 0 .784.032c.113-.072.232-.135.348-.2l.1.131-1.892 1.8c-.055-.106-.087-.147-.08-.156.476-.609.112-1.026-.306-1.457-.8-.824-1.577-1.669-2.368-2.5-.717-.753-.72-.75-1.685-.5q.068-.142.164-.267c.98-.938 1.958-1.878 2.955-2.8a.58.58 0 0 1 .494-.089c.4.144.777.349 1.163.53l-.047.142M94.642 24.636l1.191 1.6c-.165 0-.232.02-.267 0-.565-.39-.652-.413-1.22-.018-.795.552-1.556 1.153-2.35 1.706q-.508.364-1.092.589a1.76 1.76 0 0 1-.876.066c-.993-.177-2.2-1.882-1.858-2.9.161-.483.474-.9.892-1.19.82-.594 1.646-1.181 2.463-1.78.452-.331.92-.667.518-1.372l.168-.052 1.39 1.922-.054.17c-.717-.8-1.229-.217-1.761.15-.625.43-1.24.878-1.851 1.329q-.402.285-.754.628a1.493 1.493 0 0 0-.144 2.129 1.386 1.386 0 0 0 2.027.476c1.135-.706 2.2-1.528 3.287-2.306.406-.29.295-.686.15-1.083l.142-.055M51.347 103.419l-.553-1.407.1-.087q.156.1.3.215c.379.332.727.7 1.135 1 .214.152.462.249.722.282.261.032.526-.001.77-.096a1.24 1.24 0 0 0 .263-2.228 6 6 0 0 0-.934-.413c-.388-.149-.8-.251-1.175-.418a1.62 1.62 0 0 1-.921-.866 1.6 1.6 0 0 1-.009-1.265 1.764 1.764 0 0 1 2.006-1.108c.424.082.85.153 1.41.253l.492 1.255-.127.083a3 3 0 0 0-.327-.356 6.4 6.4 0 0 0-1.3-.961 1.19 1.19 0 0 0-1.6.714c-.236.628.022 1.166.768 1.478.63.263 1.3.439 1.922.708a1.56 1.56 0 0 1 1.011 1.54 1.63 1.63 0 0 1-1 1.648 4.2 4.2 0 0 1-1.47.172 14 14 0 0 1-1.476-.14M73.754 91.76l1.251 1.137-.069.127a4 4 0 0 0-.468-.13 8.7 8.7 0 0 0-1.87-.245 1.327 1.327 0 0 0-1.2 1.586 1.38 1.38 0 0 0 1.624.993c.575-.076 1.147-.2 1.723-.224a1.583 1.583 0 0 1 1.829 1.424 1.815 1.815 0 0 1-1.348 1.955c-.4.12-.8.244-1.3.4l-.912-.791a2 2 0 0 1-.168-.262c.261.081.4.132.537.164q.74.226 1.508.317a1.256 1.256 0 0 0 1.28-1.272 1.1 1.1 0 0 0-1.306-1.083q-.823.064-1.633.22a1.792 1.792 0 0 1-2.28-1.445 1.92 1.92 0 0 1 1.48-2.174c.965-.283.965-.283 1.313-.692M13.021 37.953c-.017-.038-.053-.077-.05-.113.072-.781.033-.876-.664-1.175a365 365 0 0 0-4.03-1.693c-.433-.179-.667-.067-.825.381a2.24 2.24 0 0 0 .316 1.953c.077.132.161.259.242.388l-.1.089c-.38-.358-.767-.709-1.131-1.083-.052-.054-.02-.228.021-.327a451 451 0 0 1 1.727-4.158.46.46 0 0 1 .3-.254c.483-.027.968-.012 1.453-.012l.014.165c-.2.055-.409.1-.607.167a2.43 2.43 0 0 0-1.432 1.135.49.49 0 0 0 .246.771q2.2.927 4.408 1.827a.675.675 0 0 0 .925-.293q.084-.114.191-.205l.1.057-.984 2.414-.119-.036M102.905 60.523l-1.336.3-.06-.153c.139-.087.277-.177.418-.261a2.28 2.28 0 0 0 1.227-1.454 1.2 1.2 0 0 0-.6-1.36 1.1 1.1 0 0 0-1.466.357q-.33.503-.589 1.046c-.12.222-.226.452-.343.677a1.7 1.7 0 0 1-2.4.861 1.855 1.855 0 0 1-.922-2.383c.336-1.028.336-1.028.232-1.529l1.649-.379.065.176q-.259.151-.486.347c-.463.386-.87.835-1.208 1.335a1.265 1.265 0 0 0 1.3 1.914 1.5 1.5 0 0 0 .81-.48q.349-.465.59-.992c.2-.35.361-.722.587-1.051a1.53 1.53 0 0 1 1.812-.6 1.49 1.49 0 0 1 1.173 1.4c-.009.396-.064.79-.165 1.173-.066.327-.175.646-.286 1.045M53.548 9.351c.027-.114.027-.139.034-.142.889-.3.927-.37.953-1.361.035-1.339.091-2.677.139-4.016.017-.483-.181-.687-.667-.669a2.27 2.27 0 0 0-1.732.972c-.087.11-.167.226-.25.339l-.148-.074c.217-.482.426-.968.659-1.441.028-.057.187-.071.284-.068q2.3.08 4.6.178a.36.36 0 0 1 .273.159c.176.451.325.912.482 1.37l-.1.058c-.069-.093-.144-.182-.207-.278a2.6 2.6 0 0 0-1.583-1.158c-.528-.13-.8.091-.823.628l-.159 3.882c0 .1-.01.208-.012.313-.018.834.049.934.913 1.31zM8.592 70.868c-.456 0-.913.021-1.367-.014a.5.5 0 0 1-.316-.3q-.711-2.135-1.383-4.281a.42.42 0 0 1 .051-.359c.367-.337.76-.646 1.143-.965l.1.082c-.079.125-.15.255-.239.373a2.42 2.42 0 0 0-.512 1.8c.069.564.327.756.848.591 1.36-.429 2.719-.863 4.07-1.32.814-.275.887-.416.875-1.235.38.801.655 1.648.818 2.52a.7.7 0 0 1-.162-.14c-.308-.5-.5-.615-1.064-.443-1.464.445-2.92.915-4.373 1.394-.425.14-.506.381-.337.807a2.28 2.28 0 0 0 1.423 1.257c.149.058.3.106.453.158zM97.184 77.453l-1.457 2.157-.13-.067q.039-.154.1-.3c.163-.328.066-.568-.271-.663-1.411-.4-2.827-.782-4.248-1.172-.014.087-.031.123-.02.138.838 1.121 1.665 2.25 2.526 3.353.291.373.487.342.858.014q.106-.08.225-.141l.1.092-1.206 1.8c-.069-.1-.12-.152-.111-.171.325-.682-.034-1.2-.409-1.712l-2.878-3.931a3 3 0 0 1-.221-.432l.086-.1q.74.195 1.48.394c1.363.37 2.728.734 4.086 1.119a.96.96 0 0 0 1.22-.338c.037-.056.13-.075.2-.111l.077.075M85.819 90.753l-1.273-.618.034-.132c.155 0 .31.01.464 0q.691-.007 1.37-.133a1.656 1.656 0 0 0 1.214-2.074 4.33 4.33 0 0 0-3-2.857 1.977 1.977 0 0 0-2.376 2.427q.049.216.023.437a2.2 2.2 0 0 1-.226-1.526 2.7 2.7 0 0 1 3.856-1.938 3.99 3.99 0 0 1 2.127 4.122 2.06 2.06 0 0 1-1.143 1.508 8 8 0 0 0-1.067.787M46.39 9.868c.772-.128.782-.66.7-1.2q-.3-1.96-.653-3.91c-.137-.752-.238-.818-1-.921l-.024-.125 2.389-.418.043.112c-.048.043-.089.109-.145.125-.484.137-.556.509-.493.917.219 1.423.447 2.845.695 4.263.1.6.317.754.928.7a2.25 2.25 0 0 0 2.051-1.342c.068-.153.155-.3.233-.447l.147.04c-.1.52-.2 1.04-.315 1.555-.013.058-.136.119-.215.132a555 555 0 0 1-4 .64 1 1 0 0 1-.251-.015zM92.603 83.884 90.89 85.9c-.031-.159-.072-.233-.052-.281.243-.58.233-.724-.246-1.144-.783-.686-1.588-1.348-2.383-2.02l-.478-.4c-.488-.414-.957-.927-1.659-.218l-.07-.166 1.56-1.837c.059.045.1.07.1.078-.257.73-.257.8.352 1.326 1.015.873 2.045 1.729 3.079 2.58.527.433.6.422 1.2.072.046-.027.122 0 .31 0M67.387 97.415a.586.586 0 0 1-.673.6.61.61 0 0 1-.636-.607.668.668 0 0 1 .933-.614.64.64 0 0 1 .375.62M39.531 97.407a.61.61 0 0 1-.677.609.59.59 0 0 1-.612-.624.64.64 0 0 1 .645-.657.675.675 0 0 1 .643.672M16.919 91.098a9 9 0 0 1-.877-.011.35.35 0 0 1-.238-.234c-.031-.288-.011-.581-.011-.992l1.18 1.1-.055.135M.123 48.98l.946-.855-.108 1.734zM101.049 31.662l-.793-1.553 1.209.378zM9.327 81.732l-1.233-.255.208-1.089.1-.035.92 1.379M27.86 99.033l1.57.79-1.168.425-.4-1.215M21.063 11.85l-1.345 1.157.114-1.27 1.231.112M15.273 17.145c-.015-.191-.023-.263-.026-.335-.034-1.01.045-1.075 1.133-.9a2 2 0 0 1-.128.182c-.3.328-.6.652-.98 1.057M105.534 49.298l-.193-1.773.993.789zM1.167 59.022l-1-.772.8-.979zM100.294 78.234l-1.182.379.791-1.58zM3.534 33.95l1.149-.53-.6 1.67-.552-1.14M89.757 15.425h.971l.1 1.186-1.067-1.186M103.336 68.573l.6 1.116-1.114.607zM.848 51.287v1.635l-.786-.915zM55.357.85h-1.549l.853-.762.7.762M48.95.999l-1.621.2.788-.987.867.669-.034.116M105.654 55.305v-1.637l.828.86zM51.954 106.323l-.743-.745h1.594zM104.13 65.637l.657 1.086-1.039.677zM84.21 95.542l-.136 1.076-1.249-.173 1.285-.957zM24.205 96.776l-1.229.239-.255-1.225zM76.442 100.139l-.393 1.178-1.208-.373 1.6-.8M78.346 6.242l.394 1.183-1.56-.787 1.166-.4M22.119 11.118l.19-1.255 1.212.206-1.4 1.049M51.193.001l.917.83-1.728.129zM35.554 3.827l.477-1 1.139.534-1.546.555-.07-.087M105.04 61.45l.214-1.785.767.973zM104.777 62.682l.734 1.037-1.026.707zM20.461 95.2l-.146-1.239L21.7 95.01zM95.528 22.283l1.227.207-.166 1.245zM9.816 84.043l.18-1.232 1.056 1.4-1.236-.17M2.847 67.9l-.98-.541.595-1.1.477 1.574-.092.065M95.058 84.744l.166 1.238-1.224.206 1.057-1.444M58.536 1.072 56.768.961l.945-.813zM92.056 88.404l1.064-1.235c.019.136.031.2.037.267.1 1.055.099 1.055-1.101.968M45.048.607l1.012.688-1.607.31-.069-.082.663-.916M63.829.996l.733 1.02-1.722-.279zM7.701 79.085c-.186-.029-.3-.037-.414-.067-.24-.066-.477-.143-.768-.231l.306-1.2.875 1.5M86.24 12.48l-1.313-.977.215-.045c1.067-.238 1.123-.19 1.1 1.022M87.73 92.677l1.183-1.125q.018.12.023.241c-.045 1.116.257 1.054-1.208.884M97.583 81.153l.8-1.36c.532.96.347 1.294-.8 1.36M79.849 8.117q.472-.169.96-.284c.086-.016.257.11.3.208q.15.453.252.92l-1.507-.844M2.5 36.878l1.1-.6-.5 1.684-.607-1.089M36.804 103.853l-.6-1.11 1.683.512-1.085.6M69.18 103.098l1.641-.594-.526 1.13zM33.383 101.676l1.633.6-1.148.53-.485-1.132M73.663 101.386l-.476 1.174-1.133-.472 1.609-.7M77.6 99.612l1.523-.894-.31 1.2-1.213-.3M5.235 32.267l-.479-1.17 1.137-.448zM101.68 75.442l-1.171.476.694-1.615zM81.72 97.143l-.232 1.206-1.236-.249zM25.253 97.495l1.512.887-1.186.326zM105.244 46.272l-.32-1.738 1.02.71-.7 1.027M40.823 104.043l-1.044.658-.669-1.041zM64.321 105.279l-1.042-.651 1.7-.428-.662 1.079M61.287 105.816l-1.015-.68 1.738-.331zM105.41 42.209l-.664 1.046-.419-1.692zM58.213 106.219l-1-.761 1.714-.222-.716.983M55.122 106.387l-.944-.806 1.774-.117zM106.391 57.563l-.95.83.1-1.665.849.834M6.115 28.34l1.186-.41-.769 1.577zM7.662 25.633l1.207-.327-.88 1.525-.326-1.2M97.258 24.803l1.231.253-.243 1.209zM11.32 21.632l-.137-1.08 1.046-.16.078.088-.879 1.207zM93.67 19.888l1.23.135-.086 1.07-.106.057zM12.908 86.618l-1.223-.1.1-1.242 1.127 1.345M5.014 73.671l-1.15-.44.437-1.171zM24.62 9.357c.035-.178.047-.246.062-.314.229-1.006.23-1.006 1.353-.594l-1.416.908M72.74 3.655l.54 1.1-1.687-.608 1.147-.493M38.445 2.995q.03-.102.07-.2c.493-.96.514-.965 1.493-.271L38.445 3M43.06 1.82l-1.713.4.658-1.038 1.054.636M.851 54.403v1.535L0 55.187l.735-.856.116.069M2.238 40.775l-.586-.926.912-.567.113.045-.327 1.439zM104.657 39.175l-.576 1.1-.513-1.68 1.089.577M86.635 93.682l-.1 1.1-1.2-.112 1.2-1.033.1.047M27.241 7.771l.311-1.181 1.209.3-1.52.88M29.922 6.359l.384-1.172 1.185.377-1.57.8M74.414 5.308l1.193-.434.437 1.125zM98.993 27.464l1.049.272-.326 1.2-.8-1.376.073-.1M32.187 101.119l-1.13.472-.489-1.134zM3.297 69.191l.6 1.645-1.111-.5.509-1.14M87.413 13.338c.3 0 .6-.016.9.011.076.007.185.14.2.228.046.268.053.543.087.956l-1.225-1.05.034-.145M43.837 104.694l-1.055.684-.7-1.006zM45.858 105.926l-.783-.971 1.737.213zM65.807 2.377l1.035-.656.664 1.04zM1.268 60.317l.32 1.7-1.012-.691.692-1.011M83.643 9.475l.253 1.2-1.473-.937 1.22-.259M.464 45.94c.123-.113.207-.2.3-.272.181-.152.365-.3.644-.528l-.188 1.722-.753-.922M14.938 88.865c-1.447.013-1.259.182-1.208-1.08l.115-.114zM91.038 89.456q.035.098.056.2c.075 1.07.022 1.116-1.15.948zM102.244 34.484l-.686-1.6a10 10 0 0 1 .917.352.34.34 0 0 1 .115.312c-.078.283-.2.553-.345.932M10.544 22.786 9.6 24.243l-.268-1.182 1.211-.276M66.25 103.96l1.663-.5-.579 1.075-1.084-.578M18.108 92.07l1.235 1.049h-1.229l-.124-1 .118-.053M106.515 51.395l-.828.92-.07-1.573.1-.075.8.728M70.423 3.69l-1.687-.506 1.066-.573.621 1.078M101.776 73.065l.544-1.48c.707.778.59 1.124-.544 1.48M103.251 37.358l-.609-1.646 1.111.527-.5 1.119M96.816 82.291l.25 1.182-1.2.3.955-1.487M49.852 105.427l-.916.82-.817-.9zM59.942 1.164l.853-.656.748.932-1.6-.158zM1.599 43.743l-.621-.883.852-.6.115.03-.227 1.437-.119.019M14.287 18.126l-.98 1.188c-.373-1.077-.172-1.33.98-1.188M1.138 64.362l.646-1.043.382 1.662zM5.502 74.883l.78 1.542-1.164-.366zM33.132 3.936l1.136.449-1.414.622-.09-.082zM18.696 13.822l-1.139 1.062c-.376-.91-.121-1.164 1.139-1.062M91.709 17.634c.419 0 .709-.012 1 .01a.28.28 0 0 1 .171.2c.019.3.008.607.008 1.042l-1.176-1.253"/>
    </g>
</svg>