<svg xmlns="http://www.w3.org/2000/svg" width="112" height="112" fill="none" viewBox="0 0 112 112">
    <g clip-path="url(#a)">
        <rect width="112" height="112" fill="#4B4B5E" rx="56"/>
        <g fill="#fff" clip-path="url(#b)">
            <path d="M81.105 52.922c-1.696-9.402-7.157-.797-19.665 3.783.186.279.354.557.559.816.447.445.466.946.298 1.447.187.074.373.13.597.204 1.51-2.522 4.194-4.154 7.139-4.358h.186c.28.056.448.315.392.593a.496.496 0 0 1-.597.39 7.92 7.92 0 0 0-6.076 3.672c.578.092 1.155.148 1.733.148a30.4 30.4 0 0 0 6.599-.723.53.53 0 0 1 .634.333v.038a.474.474 0 0 1-.355.574 9 9 0 0 0-1.994 0c-1.063.204-2.983.76-3.728.89a7 7 0 0 1-1.417.149h-.503a9 9 0 0 1-2.442-.223 10 10 0 0 1-1.062-.39 9 9 0 0 1-.653.594c.187.223.373.445.597.65a7.83 7.83 0 0 1 2.926 6.898c.037.927.093 1.966.243 3.264a.5.5 0 0 1-.467.537.547.547 0 0 1-.577-.445c-.224-1.316-.224-2.373-.224-3.319 0-.723-.075-1.446-.168-2.151l-.373-1.317a6.1 6.1 0 0 0-1.137-1.761 10.25 10.25 0 0 1-2.46 5.915.545.545 0 0 1-.727 0 .43.43 0 0 1-.187-.408q0-.167.112-.278a9.04 9.04 0 0 0 2.293-6.305 4.6 4.6 0 0 1-.82-.76c-.578.185-1.156.26-1.752.148a7.4 7.4 0 0 0-2.07 3.19l-.447 2.095a19 19 0 0 0 0 2.077c-.093 2.856.13 5.712.653 8.512.074.297-.112.593-.43.668a.53.53 0 0 1-.614-.371v-.316a35 35 0 0 1-1.007-6.212c-.223.315-.466.612-.708.927s-.448.668-.634.965c-.503.834-.634 3.208-1.957 3.393-.298 0-.839 0-.876-.315s.466-.612.67-.835c.541-.556.746-2.002 1.231-2.818l.112-.167a6.54 6.54 0 0 0-3.467.556c-.261.13-.597 0-.727-.24a.58.58 0 0 1 .26-.761 7.8 7.8 0 0 1 4.157-.65h.485c.54-.704 1.044-1.39 1.398-1.854v-1.335q0-1.335.392-2.615.558-1.53 1.398-2.948c-.82.463-1.585 1.02-2.274 1.669-1.995 2.095-4.903 3.078-7.773 2.652h-3.729a.55.55 0 0 1-.559-.557c0-.315.243-.556.56-.556a42 42 0 0 1 3.727 0c.895 0 3.225-.278 3.225-.278a9.8 9.8 0 0 0 2.74-1.206 11.56 11.56 0 0 1-6.393-3.022.594.594 0 0 1 0-.798.577.577 0 0 1 .783 0 10.22 10.22 0 0 0 6.915 2.837c1.026-.945 2.218-1.687 3.449-2.299-.112-.074-.261-.13-.354-.241-.112-.185 0-.983-.261-2.318l.149-.093s-.093.019-.13.037c-6.339 1.335-7.494.074-18.865-7.047-6.729-4.21-7.158 8.011-4.66 14.447C35.175 72.69 37.711 76.826 45 78.68c5.35 1.299 14.67 4.822 20.262 2.615 4.903-1.91 7.661-4.654 12.116-8.808 5.462-5.118 5.164-11.628 3.728-19.565"/>
            <path d="M80.788 37.011a9.5 9.5 0 0 1-.82-4.488 2.8 2.8 0 0 0-.857-2.077 8.73 8.73 0 0 0-5.742-1.39c-.708 0-1.286.575-1.286 1.28v.036c0 .705.597 1.243 1.305 1.224h.075a6.5 6.5 0 0 1 3.728.668v.167c-.112 1.91.242 3.82 1.006 5.563.299.575.448 1.205.466 1.854-.037 1.632-2.721 2.634-4.417 2.634-.877 0-1.343-.76-2.219-2.392a16 16 0 0 0-1.137-1.966c-1.286-1.373-3.262-1.855-5.051-1.261-2.591.538-5.425 2.3-5.91 5.025-.186.983-.503 1.076-.614 1.113a5.3 5.3 0 0 1-1.864-.111 9 9 0 0 0-2.33-.26c-.224 0-.243 0-.317-.148a4.5 4.5 0 0 1 .316-3.227c1.585-1.02 1.25-2.225 1.1-2.56-.801-1.965-4.977-2.465-7.586-2.076a9.3 9.3 0 0 0-5.853 3.709q-.504.584-1.063 1.112a4.42 4.42 0 0 0-1.23 5.972c.559 1.372.913 2.819 1.062 4.284a3.2 3.2 0 0 0 1.305 2.447c1.603 1.169 4.008.742 5.928.408.484-.092.969-.148 1.454-.185.82 0 .857.093 1.193.927a3.55 3.55 0 0 0 2.852 2.8 3.94 3.94 0 0 1 3.094 4.08c.112.65 1.36.427 2.069.278s1.864-1.075 1.864-1.724c0-.149-.578-2.986-5.704-4.84h-.28c-.95-.242-1.08-.687-1.379-1.447-.466-1.613-2.032-2.67-3.71-2.54-.67.018-1.341.11-1.994.24-1.193.205-3.169.557-3.84 0 0 0-.223-.148-.26-.63a17.3 17.3 0 0 0-1.231-4.914c-.652-1.743-.839-2.114.56-3.227.447-.426.875-.871 1.285-1.354a6.9 6.9 0 0 1 4.232-2.874 10.05 10.05 0 0 1 4.268.315 6.6 6.6 0 0 0-.913 5.73c.429 1.336 1.77 2.17 3.169 1.985.522 0 1.044.037 1.547.148a6.9 6.9 0 0 0 3.132 0 3.55 3.55 0 0 0 2.386-3.078c.26-1.484 2.125-2.596 3.84-2.949 1.267-.26 2.106 0 2.274.186.354.537.69 1.094.969 1.669.857 1.632 1.864 3.708 4.436 3.82 3.3.204 7.121-1.855 7.345-4.952a6.7 6.7 0 0 0-.653-3.004"/>
        </g>
    </g>
    <defs>
        <clipPath id="a">
            <path fill="#fff" d="M0 0h112v112H0z"/>
        </clipPath>
        <clipPath id="b">
            <path fill="#fff" d="M31 29h51v53H31z"/>
        </clipPath>
    </defs>
</svg>