<svg xmlns="http://www.w3.org/2000/svg" width="112" height="112" fill="none" viewBox="0 0 112 112">
    <g clip-path="url(#a)">
        <rect width="112" height="112" fill="#4B4B5E" rx="56"/>
        <g fill="#fff" clip-path="url(#b)">
            <path d="M56.879 78.083c-2.896 0-5.393-1.15-6.772-2.822-.679.826-1.098 1.794-1.098 2.822 0 3.124 3.515 5.664 7.85 5.664s7.85-2.54 7.85-5.664c0-1.028-.42-1.996-1.099-2.822-1.358 1.693-3.855 2.822-6.771 2.822z"/>
            <path d="M62.312 84.956v.04c0 .464-2.357 1.492-6.252 1.492-3.176 0-5.074-.766-5.074-1.592-.06-.625-.16-1.572-.22-2.64-.659-.525-1.198-1.11-1.578-1.775.06 2.198.26 4.133.3 4.516 0 1.874 2.457 3.003 6.572 3.003 2.676 0 7.73-.625 7.75-2.983.06-1.391.1-2.6.12-3.669-.42.504-.939.948-1.538 1.33 0 .767-.04 1.532-.08 2.299zM53.343 49.178c1.02.564 2.617.423 2.617.423s1.598.141 2.617-.423c1.538-.846 3.995-4.273 4.334-6.853.26-1.915-.679-4.536-2.197-6.249-1.498-1.713-3.036-2.056-4.474-2.056s-3.656.423-5.074 2.056c-1.498 1.713-2.437 4.354-2.197 6.249.34 2.58 2.796 6.006 4.334 6.853z"/>
            <path d="M71.78 49.36c-.16-.988-.34-2.218-.2-2.843.32-1.37.72-4.515-.1-5.523-.439-.544-1.058-.786-1.597-.584-.4.141-.68.484-.68.887 0 .161 0 .463.02.826.04.625.08 1.552 0 1.935-.2.726-.38 1.875-.519 2.802-.02.181-.06.343-.08.504-1.458-1.33-3.436-2.298-5.853-1.592-1.038 1.955-2.556 3.769-3.735 4.414-1.158.645-2.856.544-3.076.524h-.46c-.619 0-1.757-.08-2.596-.544-1.179-.645-2.697-2.44-3.736-4.415-2.357-.705-4.314.222-5.772 1.512-.04-.242-.08-.524-.14-.826-.14-.927-.32-2.076-.52-2.802-.06-.202 0-.665.06-1.048.08-.706.18-1.452-.1-1.935-.28-.464-.619-.706-.998-.746-.44-.04-.82.202-1.199.685-.799.988-.48 3.91-.1 5.523.18.786.12 1.895.06 3.044-.04.625-.06 1.25-.06 1.854v.504h.02v.08c-.28 2.641 2.477 11.007 3.616 12.68 1.039 1.511 2.237.806 3.296.201.28-.161.599-.343.919-.504.06-.1.08-.181.14-.302 1.018-2.258 4.454-.222 4.853-.04l.92.443s-.12.1-.18.161l-.14.06s.02 0 .04.02c-.54.525-1.359 1.533-2.178 3.428a4.1 4.1 0 0 1-.32-2.016c.08-1.008 1.639-1.653 1.639-1.653s-3.396-1.653-4.195-.181-.46 1.914-1.179 2.217c-.719.302-2.197.826-2.197 1.653 0 .826.839 4.978 2.916 5.805.48.201.98.161 1.519.181 0 .04 0 .08-.02.121-.18.383-.32.867-.42 1.411.1-.141.18-.282.28-.403l.38-.464.379.464c.14.161.32.282.46.423.08-.342.159-.625.279-.846q.06-.09.06-.182v-.06c.939.625.899 1.39 4.654 1.39 3.935 0 3.675-.826 4.774-1.47.3-.182.58-.263.859-.323.16.322.32.645.52.987.08.141.14.524.18.988.339-.282.678-.544.938-.887l.34-.423c-.1-.343-.2-.524-.28-.625-.04-.08-.06-.141-.1-.222.12-.02.24-.04.38-.08 2.057-.827 2.916-4.98 2.916-5.805 0-.827-1.458-1.33-2.197-1.653s-.4-.746-1.179-2.218-4.195.182-4.195.182 1.538.625 1.638 1.653c.04.383.06.987-.16 1.653-.639-1.391-1.338-2.54-2.377-3.427l.68-.343c.4-.181 3.715-2.056 4.694-.201.06.1.24.423.28.524.339.16.678.342.978.524 1.059.625 2.237 1.31 3.276-.202.879-1.27 2.677-6.43 3.356-9.977.24-.464.44-1.25.659-2.661l.04-.181c.08-.484-.04-1.25-.18-2.117zM59.416 68.952c-.68.665-1.738 1.25-3.436 1.612h-.04c-1.518-.322-2.497-.826-3.176-1.41.919-2.359 1.818-3.387 2.257-3.79.22.242.46.363.66.383h.16c.399 0 .798-.222 1.178-.625 1.038.887 1.698 2.157 2.397 3.83"/>
        </g>
    </g>
    <defs>
        <clipPath id="a">
            <path fill="#fff" d="M0 0h112v112H0z"/>
        </clipPath>
        <clipPath id="b">
            <path fill="#fff" d="M40 34h32v54H40z"/>
        </clipPath>
    </defs>
</svg>