<svg xmlns="http://www.w3.org/2000/svg" width="112" height="112" fill="none" viewBox="0 0 112 112">
    <g clip-path="url(#a)">
        <rect width="112" height="112" fill="#4B4B5E" rx="56"/>
        <g fill="#fff" clip-path="url(#b)">
            <path d="M52.667 50.647c.387 1.903-3.41 2.898-2.523 4.778 1.205 1.88 3.751 2.477 5.706 1.305.319-.2.592-.42.842-.686 2.273-2.035-.41-3.804.432-5.264.59-1.017.818-.907 1.569-1.305a3.57 3.57 0 0 1 2.273-.509c1.705 0 2.501 3.053 5.457 1.99 2.956-1.06 2.683-3.76 1.114-5.772-1.296-1.659-3.956 1.15-5.525 0-.887-.708 1.341-3.694-.978-3.274s-2.273 1.637-1.955 4.27c-.227.796-.819 1.437-1.592 1.769a4.28 4.28 0 0 1-2.546.62c-2.274-1.505-3.342-2.102-4.797-.31-1.456 1.791 2.273 1.282 2.523 2.388"/>
            <path d="M87.795 40.03c-1.819-.442-5.866.642-6.366.266s-.841-1.35-2.433-2.212a4.68 4.68 0 0 0-4.093-.376c-1.25.464-.431-.84-4.547-.686a11.35 11.35 0 0 0-5.32 1.128h-.091c-3.524-.553-7.526.089-11.209 1.836-3.501 1.637-6.23 4.07-7.958 6.724l.069-.221a11.9 11.9 0 0 0-6.026 5.53c-2.273 3.826-.636 3.782-1.75 4.689a4.92 4.92 0 0 0-1.82 4.114 12 12 0 0 0 .797 3.472c0 .531-3.388 4.557-4.548 6.791-.364.376-.59.907-.5 1.46.114.752.728 1.327 1.478 1.438.068 0 .136-.045.227-.067.25 0 .478-.044.705-.155.273-.177.614-.73.955-1.46.455-.663.819-1.349.819-1.769.773-1.681 1.682-3.495 2.773-4.092.75-.863 2.479-.376 4.775.066v1.372l.046-.376s0 5.64 7.889 7.122c5.32.995 13.119.243 13.119-4.048 4.752 1.925 8.844-6.591 8.844-9.688v-5.02c-1.114 1.061-2.842 1.238-4.115.287-.023 0-.046-.044-.091-.066 1.205.442 2.615.243 3.433 0 .046 0 .068-.045.114-.045 1.614-.53 3.888-3.428 5.047-5.419 1.978-3.251 2.683-7.609 4.252-7.94 1.796-.952 4.98.53 5.934 0 .387-.2.66-.553.728-.974.159-.774-.364-1.504-1.16-1.659zm-33.059 1.925c2.524-1.195 5.162-1.814 7.663-1.814.75 0 1.477.066 2.205.177 2.933.464 5.116 1.858 6.139 3.915s.796 4.578-.66 7.1c-1.068 1.88-2.728 3.561-4.751 4.955a48 48 0 0 0-4.616-4.69l-.045.045-.182.132c.75 1.549 1.478 3.008 2.273 4.424.16.443.364.863.614 1.239-.25.132-.477.287-.727.398-6.64 3.119-13.801 2.101-15.984-2.278-2.183-4.38 1.432-10.485 8.071-13.603M39.571 63.543a9.72 9.72 0 0 0 .864-7.211c-.295-2.876 1.296-5.618 3.956-6.88-.409 1.151-.613 2.28-.613 3.407h-.023v10.794c2.592.022 5.23-.044 7.412-1.35.045-.021.114-.043.159-.088.25-.199.455-.42.591-.707 0 0 0-.023.023-.045h.045c-.75 2.013-4.365 2.588-6.275 2.699-.25 0-.568.022-.864.022h-.114c-.318 0-.659 0-1-.022-3.183-.133-7.162-.774-4.184-.686zm35.514-14.311c-.659.575-1.068.884-1.432.995v-3.804h-.046a8.1 8.1 0 0 0-.84-3.163c-1.024-2.057-2.843-3.584-5.275-4.468 1.977-.863 4.32-.708 6.161.53 1.637 1.57 3.82 2.456 6.116 2.522-1.137 2.698-2.728 5.176-4.684 7.388"/>
        </g>
    </g>
    <defs>
        <clipPath id="a">
            <path fill="#fff" d="M0 0h112v112H0z"/>
        </clipPath>
        <clipPath id="b">
            <path fill="#fff" d="M32 37h57v38H32z"/>
        </clipPath>
    </defs>
</svg>