<svg xmlns="http://www.w3.org/2000/svg" width="112" height="112" fill="none" viewBox="0 0 112 112">
    <g clip-path="url(#a)">
        <rect width="112" height="112" fill="#4B4B5E" rx="56"/>
        <g clip-path="url(#b)">
            <path fill="#fff" d="M85.485 65.975a7.64 7.64 0 0 1-5.018-4.152C79.33 58.91 70.05 48.817 61.529 43.686 54.404 39.51 49.622 32.233 48.557 24H42l.758 55.863c.047 2.816 9.255 6.252 9.255 6.252a56 56 0 0 0 7.362 1.718c9.871.954 16.05-2.052 20.784-11.311.544-1.527 2.249-3.913 3.716-4.2a3.47 3.47 0 0 0 2.533-1.503 3.51 3.51 0 0 0-.923-4.844m-21.352-13.53c.19-.24.45-.335.758-.335h.094c1.018.048 2.415 1.146 3.456 2.72.474.717 1.184 1.29 1.87 1.838.71.573 1.397 1.122 1.563 1.67.213.86 0 1.814-.521 2.506-.734.86-2.604.024-5.397-2.386a8.1 8.1 0 0 1-1.752-3.34v-.073a2.75 2.75 0 0 1-.07-2.6m-13.185 6.108c.047-.238.237-.43.544-.596.427-.215 1.066-.358 1.87-.358 1.066 0 2.391.238 3.788.811.994.406 2.178.573 3.29.716 1.137.167 2.225.31 2.817.692a2.89 2.89 0 0 1 1.279 2.506c-.119.668-1.208 1.622-7.433.668a11 11 0 0 1-4.238-2.148l-.284-.167c-1.23-.716-1.87-1.121-1.633-2.148zm13.848 7.04c.615 0 1.325.143 2.06.406.78.286 1.585.214 2.296.143.662-.072 1.254-.12 1.585.119.616.549.971 1.336.995 2.172a.92.92 0 0 1-.284.691c-.616.621-2.202.883-4.616.788a5.8 5.8 0 0 1-2.936-1.456l-.07-.047c-.616-.287-.947-.979-.806-1.67 0-.359.166-.621.45-.812.332-.215.781-.334 1.35-.334zm-14.345 5.87c0-1.36 1.752-2.1 3.361-2.1h.024c.426 0 .876.048 1.302.143h.473c1.326.31 2.154.501 4.12 1.026a4.4 4.4 0 0 1 2.721 2.673c.142.549 0 1.145-.378 1.575a4.86 4.86 0 0 1-3.74 1.408 7.7 7.7 0 0 1-1.658-.191 20.4 20.4 0 0 1-3.503-1.24l-.497-.216a2.81 2.81 0 0 1-2.225-3.078m10.936 8.328c-.095.334-1.089 1.241-2.793 1.862-1.231.453-3.575 1.002-5.468-.31-.947-.669-1.941-1.456-2.06-2.41-.047-.621.166-1.146.616-1.528.52-.454 1.325-.668 2.249-.668.497 0 1.041.071 1.586.215.875.238 1.846.095 2.698-.048.829-.12 1.61-.239 2.036 0a2.88 2.88 0 0 1 1.089 2.911zM73.27 81.63c-.544.74-1.373 1.002-2.083.715-1.278-.5-2.651.024-3.74.478-1.184.477-1.68.62-1.917.143-.45-.883-.568-1.599-.403-2.148.26-.74 1.042-1.121 1.752-1.455q.32-.144.568-.287c2.06-1.193 3.22-1.646 4-1.646.782 0 1.208.5 1.752 1.217.853 1.097.569 2.29.071 2.983m10.771-12.624v.501h-.024v.692h-.662c-1.231.072-2.462.263-3.693.502-.426.405-.829 1.55-1.208 2.744-.757 2.338-1.704 5.226-4.19 6.347-.047-.358-.189-.74-.402-1.121 1.965-.907 2.77-3.389 3.48-5.584.213-.62.402-1.193.615-1.695-.284.24-.568.573-.875.907-1.113 1.217-2.486 2.72-5.256 2.72h-.047c-3.527.573-6.936 2.124-9.8 4.391.024-.453 0-.906-.166-1.336 2.912-2.171 6.297-3.675 9.871-4.247 2.344 0 3.433-1.194 4.498-2.363.663-.716 1.278-1.384 2.13-1.67-.189 0-.402 0-.568.024-.213.167-.426.358-.662.572-1.397 1.217-3.125 2.72-5.871 2.72h-.047c-.97.215-1.87.43-2.699.621-1.846.43-3.243.764-4.853.764-.236 0-.473 0-.71-.048.142-.358.19-.764.142-1.193 1.728.095 3.125-.215 5.137-.692.829-.191 1.752-.406 2.84-.645 2.084 0 3.457-.93 4.617-1.909-.947 0-2.036-.31-3.457-1.288 0-.12.072-.215.072-.334 0-.31-.072-.62-.166-.907l.118-.167c2.225 1.742 3.314 1.575 4.687 1.384.095 0 .213-.024.332-.048.118-.095.26-.19.378-.286-.97-.454-1.846-1.074-2.414-1.98-.97-1.504-1.373-1.695-5.445-2.315-1.68-.144-3.314-.692-4.805-1.575 0-.072.07-.12.095-.191 0-.43-.071-.86-.213-1.265a10.87 10.87 0 0 0 5.089 1.838c4.024.62 4.995.835 6.297 2.84.662 1.025 1.846 1.646 3.1 2.004.095 0 .214 0 .308-.024-.047 0-.07-.024-.118-.048-1.018-.62-1.207-1.074-1.397-1.79-.165-.549-.378-1.312-1.68-2.744a20.2 20.2 0 0 0-4.593-2.147q.356-.502.498-1.074c1.68.548 3.29 1.288 4.781 2.243l.119.095c1.538 1.694 1.799 2.649 1.988 3.293.142.501.19.668.852 1.074 1.16.597 2.51.93 3.859.93h.07l-.07.597v.787z"/>
        </g>
    </g>
    <defs>
        <clipPath id="a">
            <path fill="#fff" d="M0 0h112v112H0z"/>
        </clipPath>
        <clipPath id="b">
            <path fill="#fff" d="M42 24h45v64H42z"/>
        </clipPath>
    </defs>
</svg>