<svg xmlns="http://www.w3.org/2000/svg" width="112" height="112" fill="none" viewBox="0 0 112 112">
    <g clip-path="url(#a)">
        <rect width="112" height="112" fill="#4B4B5E" rx="56"/>
        <g fill="#fff" clip-path="url(#b)">
            <path d="M43.525 42.987s-1.91.718-2.08 2.637.531 5.992 1.104 7.3.657 1.709.318 2.173c-.34.464-.955 1.54-1.146 3.249s-.063 2.827.743 4.198 3.225 3.44 4.137 4.03 1.125.907 2.08 1.076c.954.169 6.258 1.076 6.258 1.308s-.148 2.89 0 3.101c.149.211.488-.063.276.865s-1.315 1.835-2.63 1.983c-1.316.148-1.062 1.52-2.992 2.258-1.931.738-4.392 2.447-6.471 1.582-2.08-.865-2.016-1.709-2.25-2.426s.234-2.743-.763-4.093-2.376-3.06-2.228-3.882c.149-.823.17-1.224 1.04-.59.87.632 4.54 1.708 4.54 1.708s-1.124 3.713 1.146 4.705c2.27.991 4.816.126 5.452-.443.637-.57 1.783-1.477 1.464-2.173-.318-.697-.212-1.35-2.567-1.878s-5.113-.232-7.595-1.413c-2.483-1.182-5.071-2.553-5.644-4.051s-.764-3.86-1.167-5.211c-.403-1.35-1.952-3.903-2.864-4.198s-3.65-.401-4.286-1.54-1.718-3.988-1.294-6.983c.424-2.996.912-5.781 2.8-6.71 1.889-.928 5.432-.569 8.169-.084 2.737.486 3.755 1.16 4.54 1.73s1.952 1.33 1.91 1.772M68.475 42.987s1.91.718 2.08 2.637-.531 5.992-1.104 7.3-.657 1.709-.318 2.173c.34.464.955 1.54 1.146 3.249s.063 2.827-.743 4.198-3.225 3.44-4.137 4.03-1.125.907-2.08 1.076c-.954.169-6.258 1.076-6.258 1.308s.148 2.89 0 3.101c-.149.211-.488-.063-.276.865s1.315 1.835 2.63 1.983c1.316.148 1.062 1.52 2.992 2.258 1.931.738 4.392 2.447 6.471 1.582 2.08-.865 2.016-1.709 2.25-2.426s-.234-2.743.763-4.093 2.376-3.06 2.228-3.882c-.149-.823-.17-1.224-1.04-.59-.87.632-4.54 1.708-4.54 1.708s1.124 3.713-1.146 4.705c-2.27.991-4.816.126-5.452-.443-.637-.57-1.783-1.477-1.464-2.173.318-.697.212-1.35 2.567-1.878s5.113-.232 7.595-1.413c2.483-1.182 5.071-2.553 5.644-4.051s.764-3.86 1.167-5.211c.403-1.35 1.952-3.903 2.864-4.198s3.65-.401 4.286-1.54 1.697-4.009 1.273-7.026-.913-5.78-2.822-6.687c-1.91-.908-5.431-.591-8.168-.085s-3.756 1.16-4.54 1.73c-.786.57-1.953 1.33-1.91 1.772z"/>
            <path d="M45.031 43.156s-.615-.148-.997.76c-.382.907-1.358 2.721-1.188 4.852.17 2.13 1.082 3.776.89 5.021-.19 1.245-.402 1.878-.636 2.025s-.615.612.467.865 1.719-.21 2.185-.485c.467-.274 1.55-.105 2.334 1.224.785 1.329 2.143 4.662 3.31 4.979 1.167.316 2.928.21 3.076 1.055.149.843-.509 1.16-.594 1.202s-1.358.422-1.209.886 1.337.696 1.591 1.435c.255.738.722 1.139 1.04 1.519s-.064 2.974.233 3.08 1.082.253 1.21-.211-.319-2.743 0-2.827c.318-.085.89-.633 1.082-1.14.19-.506.636-1.075 1.485-1.392.848-.316-.043-.865-.976-1.392-.934-.528-.828-1.371-.234-1.604.594-.232 2.631-.126 3.459-1.287.827-1.16 1.994-4.156 2.822-4.978.827-.823 1.697-1.034 2.44-.317s2.142.253 2.163 0c.022-.253-1.4-2.68-1.23-3.565.17-.886 1.103-3.713 1.04-4.895-.064-1.181-.467-4.093-1.083-4.62s-1.506.823-2.567 1.582c-1.06.76-1.76 1.52-3.988.844-2.228-.675-3.777-.4-5.56-.464-1.781-.063-5.133.633-5.918.59-.785-.042-2.716-1.033-3.353-1.624-.636-.59-.764-.907-1.273-1.118z"/>
        </g>
    </g>
    <defs>
        <clipPath id="a">
            <path fill="#fff" d="M0 0h112v112H0z"/>
        </clipPath>
        <clipPath id="b">
            <path fill="#fff" d="M26 39h60v40H26z"/>
        </clipPath>
    </defs>
</svg>