<svg xmlns="http://www.w3.org/2000/svg" width="112" height="112" fill="none" viewBox="0 0 112 112">
    <g clip-path="url(#a)">
        <rect width="112" height="112" fill="#4B4B5E" rx="56"/>
        <path fill="#fff" d="M47.002 39.258a2.905 2.905 0 0 0-3.014-3.19 4.18 4.18 0 0 0-2.508.902q-.866.645-1.606 1.43a43.4 43.4 0 0 0-5.412 6.6 71 71 0 0 0-5.148 9.24 43 43 0 0 0-3.608 12.386C24.694 73.93 25.2 78.11 27.4 79.188c2.706 1.408 13.2.462 18.216-2.816a2.97 2.97 0 0 0 1.188-1.584c.138-.503.22-1.02.242-1.54V54.966c0-7.942-.044-15.4-.044-15.708M65.02 39.258a3.8 3.8 0 0 1 .55-1.826 2.68 2.68 0 0 1 2.464-1.364 4.18 4.18 0 0 1 2.508.902q.869.666 1.606 1.474a43.4 43.4 0 0 1 5.412 6.6 71 71 0 0 1 5.148 9.196 43.8 43.8 0 0 1 3.608 12.386c1.012 7.304.44 11.484-1.65 12.562-2.706 1.408-13.31.462-18.216-2.816a2.97 2.97 0 0 1-1.188-1.584 7 7 0 0 1-.242-1.54zM62.6 45.968a6.42 6.42 0 0 1-4.4-6.05V29.754h-4.4v10.164a6.42 6.42 0 0 1-4.4 6.072v3.652h13.2z"/>
    </g>
    <defs>
        <clipPath id="a">
            <path fill="#fff" d="M0 0h112v112H0z"/>
        </clipPath>
    </defs>
</svg>