<svg xmlns="http://www.w3.org/2000/svg" width="112" height="112" fill="none" viewBox="0 0 112 112">
    <g clip-path="url(#a)">
        <rect width="112" height="112" fill="#4B4B5E" rx="56"/>
        <g fill="#fff" clip-path="url(#b)">
            <path d="M72.28 55.773s-.025 0-.05-.025c-.049-.537-.812-8.723-2.61-12.609a.38.38 0 0 0-.149-.195c-1.552-1.296-2.71-.758-3.35-.465-.099.05-.247.098-.197.123-.986-.294-1.848-.05-2.34.66-.494.66-.518 1.66-.149 2.516-.887.562-1.06 1.295-1.084 1.71a2.2 2.2 0 0 0 .518 1.491 1.76 1.76 0 0 0-.567 1.296c0 .635.345 1.441 1.33 1.906-.147.17-.27.415-.221.684.024.22.148.39.345.562.049.39.221.88.64 1.295q1.072.99 3.4.66c.468.708 1.503 1.759 2.414 2.052.198.074.395.098.592.098.616 0 1.182-.318 1.626-.953a.547.547 0 0 0-.148-.758zM57.325 58.387c-.074.171-.123.66-.148.807-.024.073-.936 2.174.074 9.334.05.293-.172.538-.443.587h-.074c-.246 0-.493-.196-.517-.44-1.06-7.649 0-9.58.024-9.897 0-.097.074-.244.148-.39 0 0 .025-.05 0-.099-.025-.048-2.71-.097-2.71-.097-.616 0-1.355 0-2.291-.05-5.74-.317-7.933 2.224-8.55 3.178-.295.146-.295.61-.295 1.686 0 1.881.197 6.744 2.07 11.118 2.242 5.23 6.184 8.015 11.407 8.015 5.888 0 13.18-3.372 14.461-19.378 0-.269.025-.488.05-.61.073-.147.098-.318.024-.465 0-.049-.05-.098-.098-.147-.887-1.637-5.223-3.64-8.968-3.64-1.528 0-2.833.244-3.77.44 0 0-.345-.025-.394.048"/>
            <path d="M55.552 86c-16.95 0-17.96-24.632-17.96-24.876 0-.318.246-.61.566-.61.37 0 .616.243.616.586 0 .244.96 23.727 16.777 23.727s17.517-15.908 18.355-23.556l.05-.367c.024-.318.295-.586.664-.513.32.024.567.318.518.66l-.05.366c-.812 7.355-2.685 24.607-19.536 24.607zM75.088 58.192a.945.945 0 0 1-.911-.782c-2.07-14.515-5.125-21.577-9.338-21.577s-4.483 1.784-4.631 4.032c-.148 1.808-.32 4.3-3.77 4.3-3.005 0-3.3-2.297-3.523-3.983-.32-2.346-.59-4.35-5.494-4.35-3.473 0-6.38 7.087-8.573 21.065a.89.89 0 0 1-1.06.757.92.92 0 0 1-.763-1.05C39.488 40.963 42.69 34 47.446 34c6.529 0 6.997 3.568 7.317 5.938.271 1.93.444 2.395 1.7 2.395 1.65 0 1.774-.636 1.922-2.59.172-2.297.419-5.743 6.48-5.743 5.444 0 8.868 7.135 11.135 23.141.074.513-.271.977-.788 1.026h-.124z"/>
        </g>
    </g>
    <defs>
        <clipPath id="a">
            <path fill="#fff" d="M0 0h112v112H0z"/>
        </clipPath>
        <clipPath id="b">
            <path fill="#fff" d="M37 34h39v52H37z"/>
        </clipPath>
    </defs>
</svg>