<svg xmlns="http://www.w3.org/2000/svg" width="112" height="112" fill="none" viewBox="0 0 112 112">
    <g clip-path="url(#a)">
        <rect width="112" height="112" fill="#4B4B5E" rx="56"/>
        <g fill="#fff" clip-path="url(#b)">
            <path d="m40.345 59.749-.125.911c-.2 1.57.475 3.268 1.775 4.458l.2.203c1.274 1.038 2.923 1.469 4.373 1.114l.9-.228s1.824-1.494 2.798-2.507c-.325.05-.674.1-1 .1-1.849 0-3.848-.734-5.472-2.203a9 9 0 0 1-2.474-3.773c-.375.658-.975 1.9-.975 1.9z"/>
            <path d="M41.62 65.7c-1.525-1.393-2.2-3.317-1.975-5.014-.824.202-1.574.608-2.149 1.266-1.75 1.976-1.324 5.268.95 7.345s5.548 2.153 7.297.177c.575-.658.9-1.469 1.025-2.305-1.65.406-3.624-.05-5.148-1.443zM35.797 73.425c-1.25-1.443-1.6-3.368-1.1-5.014-.824.151-1.649.48-2.299 1.088-2.024 1.799-2.149 5.04-.275 7.194 1.875 2.178 5.049 2.456 7.073.658a4.8 4.8 0 0 0 1.374-2.178c-1.674.304-3.523-.304-4.773-1.748M69.384 57.393c-2.05 1.773-4.523 2.507-6.498 2.153 0 1.013.3 1.925.9 2.66 1.85 2.203 5.848 1.823 8.947-.837 3.073-2.659 4.073-6.61 2.224-8.814-.625-.734-1.475-1.14-2.45-1.317.026 2.027-1.074 4.357-3.123 6.155"/>
            <path d="M73.183 62.61c-2.05 1.773-4.274 2.533-6.273 2.153.025 1.013.05 1.925.7 2.685 1.9 2.254 5.948 1.925 9.021-.734 3.074-2.66 4.049-6.662 2.15-8.916-.625-.76-1.5-1.19-2.5-1.367.05 2.051-1.024 4.407-3.098 6.205zM78.43 69.145c-2.124 2.229-4.523 3.597-6.347 3.85-.075.912.1 1.697.6 2.203 1.55 1.52 5.373.026 8.546-3.318 3.174-3.343 4.474-7.269 2.924-8.788-.524-.507-1.3-.659-2.199-.532-.15 1.874-1.424 4.356-3.523 6.585M88.052 69.145c-.575 1.418-1.575 2.431-2.6 2.786.226.481.576.861 1.026 1.064 1.374.582 3.298-.963 4.148-3.065s.35-4.002-1.025-4.584c-.45-.203-.95-.177-1.45 0 .476.962.476 2.406-.1 3.824zM81.555 78.44c-2.1 1.09-4.224 1.444-5.673 1.039-.25.709-.3 1.367 0 1.924.85 1.672 4.098 1.697 7.247.051s4.998-4.33 4.148-6.028c-.275-.557-.85-.912-1.574-1.114-.525 1.418-2.024 2.988-4.124 4.078v.05zM53.14 41.817c1.225 1.342 2.75 3.115 4.374 3.85 1.724.76 3.623.075 3.623.075 1.85-.81 3.599-2.659 4.973-4.103.5-.532.925-.988 1.35-1.367l-.2-9.245c-.05-2.355-2.074-4.204-4.398-4.002-1.85.152-6.273.051-6.473.051h-.25c-2.349-.177-4.348 1.748-4.323 4.154l.125 9.346c.375.354.75.785 1.2 1.24M53.465 59.597c-1.674.151-3.873-.558-4.973-1.242-.3-.177-1.05-.911-1.05-.911-1.749-1.596-2.773-3.698-2.848-5.8-.6.253-1.1.608-1.5 1.038-.775.861-1.15 2.026-1.074 3.318.1 1.748 1 3.495 2.449 4.787 2.599 2.355 6.247 2.533 8.122.43.4-.43.674-.987.85-1.62zM35.697 79.555h-.375c-1.55-.102-2.974-.836-4.023-2.052-1.025-1.19-1.575-2.76-1.475-4.306.05-.658.2-1.266.45-1.849-.375.203-.75.406-1.1.507-.35.127-.624.38-.75.71-.05.126-1.324 3.317.95 6.483 2.225 3.09 5.998 3.115 6.148 3.115.425 0 .825-.228 1.05-.582.474-.76 1.124-1.722 1.824-2.76-.8.48-1.724.734-2.7.734M35.947 67.093l-.3.988c-.45 1.495-.075 3.191.975 4.407 1.05 1.241 2.674 1.824 4.198 1.545l1.025-.177s1.25-1.47 1.949-2.406c-.4.126-.8.202-1.224.228h-.3c-1.55 0-3.15-.633-4.399-1.773-1.124-1.039-1.899-2.812-1.899-2.812z"/>
            <path d="m62.262 58.507.724.127c1.875.33 4.149-.43 5.973-2 1.85-1.622 2.924-3.75 2.899-5.674v-.76s-.975-5.876-.975-8.485c0-.506-.3-.962-.75-1.165-.474-.202-.999-.101-1.349.254l-3.948 3.875c-1.725 1.671-3.249 2.608-4.024 2.76-.2.051-2.049.279-2.599.076-2.024-.734-3.199-1.57-4.448-3.318l-2.824-3.925a1.25 1.25 0 0 0-1.2-.507c-.474.076-.85.405-1 .861-.774 2.432-2.773 9.169-2.773 9.169l-.1.886c-.2 1.824.55 3.774 2 5.268l.4.355c1.699 1.545 3.923 2.203 5.822 1.747l.874-.202s2.675.076 3.899.05h.075c1.025 0 3.324.634 3.324.634zM71.233 72.184l.5-.076c1.774-.253 4.074-1.646 5.973-3.672 1.924-2.052 3.199-4.407 3.349-6.205l.05-.507s-.25-.33-.475-.481c0 .532-.05 1.064-.175 1.646-.425 1.824-1.55 3.571-3.149 4.939-1.574 1.368-3.474 2.203-5.298 2.355h-.575c-.5 0-.974-.076-1.424-.177.425.71.825 1.418 1.224 2.153zM92.8 68.31a3.16 3.16 0 0 0-.775-1.217c.275.988.2 2.179-.3 3.42-.574 1.393-1.549 2.532-2.623 3.14.45.127.974.203 1.549 0 .725-.253 1.3-.836 1.724-1.722.65-1.342.8-2.558.45-3.596zM87.952 78.035s-.1-.177-.175-.279c-.5 1.647-2.124 3.445-4.498 4.66-1.6.836-3.274 1.292-4.723 1.292h-.05c-.45 0-.875-.076-1.25-.152.1.228.225.456.3.684.2.456.625.76 1.1.76h.25c.85 0 3.798-.101 5.797-1.266 2.374-1.393 3.474-4.28 3.524-4.407.175-.456.05-.988-.275-1.317zM74.707 78.212l.55.152c1.274.355 3.199 0 5.048-.912v-.05l.2-.102c1.874-.962 3.324-2.406 3.823-3.748l.2-.532s-.275-.912-.425-1.266l-.3-.633.65-.228c.9-.304 1.75-1.241 2.224-2.432l.125-.278c.375-1.115.375-2.23 0-2.99l-.325-.632s-.25-.583-.724-.76c-.2-.076-.125.152-.325.076.8 2.102-.55 5.623-3.499 8.738-2.374 2.482-5.423 3.774-7.522 3.799h-.075a1 1 0 0 0-.525.152c.375.71.85 1.62.85 1.62z"/>
        </g>
    </g>
    <defs>
        <clipPath id="a">
            <path fill="#fff" d="M0 0h112v112H0z"/>
        </clipPath>
        <clipPath id="b">
            <path fill="#fff" d="M28 27h65v58H28z"/>
        </clipPath>
    </defs>
</svg>