<svg xmlns="http://www.w3.org/2000/svg" width="112" height="112" fill="none" viewBox="0 0 112 112">
    <g clip-path="url(#a)">
        <rect width="112" height="112" fill="#4B4B5E" rx="56"/>
        <path fill="#fff" d="M74.5 64.267a5.7 5.7 0 0 0-1.033-3.576 6.3 6.3 0 0 0 .682-2.914c0-2.48-1.22-4.484-2.728-4.505v-.496a4.55 4.55 0 0 0-2.17-4.402q.127-.582.124-1.178c0-2.294-1.034-4.133-2.377-4.443q.033-.496 0-.992a4.82 4.82 0 0 0-1.84-4.134c.042-2.459-1.26-4.36-2.727-4.36-1.468 0-2.728 2.066-2.728 4.484q.003.614.103 1.22h-.227c-1.53 0-2.749 2.066-2.749 4.505v.31a4.5 4.5 0 0 0-.806 1.426 1.6 1.6 0 0 0-.33-.31 7.2 7.2 0 0 0 .185-1.53c0-2.48-1.24-4.484-2.748-4.484v-.372c0-2.48-1.26-3.43-2.79-3.43s-2.687.95-2.687 3.43a4 4 0 0 0 0 .537 5.35 5.35 0 0 0-1.405 3.927 6.8 6.8 0 0 0 .496 2.687 4.88 4.88 0 0 0-1.819 4.133q-.015.279 0 .558a5.3 5.3 0 0 0-1.467 3.947 6.2 6.2 0 0 0 .888 3.286 6.3 6.3 0 0 0-.702 2.976 6.5 6.5 0 0 0 .62 2.832 7.7 7.7 0 0 0-.248 1.88c0 2.46 1.198 4.444 2.707 4.485q-.015.165 0 .33c0 2.274 1.013 4.134 2.356 4.444a3.62 3.62 0 0 0 2.935 1.736 3.87 3.87 0 0 0 3.368-2.5c.315.203.68.317 1.054.33 1.2 0 2.232-1.302 2.584-3.08a2.44 2.44 0 0 0 2.066 1.406h-.02a4.34 4.34 0 0 0 2.066 3.7 3.97 3.97 0 0 0 3.41 2.603c2.067 0 3.72-2.066 3.948-4.732a5.13 5.13 0 0 0 1.612-4.134 7.6 7.6 0 0 0-.124-1.198c1.488-.124 2.521-2.026 2.521-4.402"/>
    </g>
    <defs>
        <clipPath id="a">
            <path fill="#fff" d="M0 0h112v112H0z"/>
        </clipPath>
    </defs>
</svg>