<svg xmlns="http://www.w3.org/2000/svg" width="112" height="112" fill="none" viewBox="0 0 112 112">
    <g clip-path="url(#a)">
        <rect width="112" height="112" fill="#4B4B5E" rx="56"/>
        <path fill="#fff" d="M58.46 36.214a4.5 4.5 0 0 1 .65-2.158 3.17 3.17 0 0 1 2.912-1.612 4.94 4.94 0 0 1 2.964 1.066 14.5 14.5 0 0 1 1.898 1.742 51.3 51.3 0 0 1 6.396 7.8 84 84 0 0 1 6.084 10.868 51.7 51.7 0 0 1 4.264 14.638c1.196 8.632.52 13.572-1.95 14.846-3.198 1.664-15.73.546-21.528-3.328a3.5 3.5 0 0 1-1.404-1.872 8.2 8.2 0 0 1-.286-1.82zM55.6 44.144a7.59 7.59 0 0 1-5.2-7.15V24.982h-5.2v12.012A7.59 7.59 0 0 1 40 44.17v4.316h15.6z"/>
    </g>
    <defs>
        <clipPath id="a">
            <path fill="#fff" d="M0 0h112v112H0z"/>
        </clipPath>
    </defs>
</svg>