<svg xmlns="http://www.w3.org/2000/svg" width="112" height="112" fill="none" viewBox="0 0 112 112">
    <g clip-path="url(#a)">
        <rect width="112" height="112" fill="#4B4B5E" rx="56"/>
        <path fill="#fff" d="M34 35.612c6.927-1.187 7.753 5.613 11.397 5.846a7 7 0 0 0 4.639-1.335l1.694 5.042s-2.118 1.928-2.118 3.283c0 1.356 1.123 6.059-.784 9.639-1.906 3.58-4.639 5.994-5.402 8.621s0 3.58-1.419 9.638a21.7 21.7 0 0 1-4.13 9.13H34z"/>
        <path fill="#fff" d="M75.2 55.99c-2.35 2.118-4.363 2.118-6.587 3.092a6.65 6.65 0 0 1 5.38 1.991c1.377 1.166 3.813.932 4.534 2.246-.106-3.135 3.791-5.847 5.232-7.944 9.638-14.256-3.686-23.725-19.15-20.865a46.9 46.9 0 0 0-16.268 6.524l1.546 6.355a34.85 34.85 0 0 1 14.447-7.075c10.634-2.542 22.242 5.592 10.867 15.676"/>
        <path fill="#fff" d="M69.227 58.786c-.127 0-10.083 2.118-10.083 2.118-4.935 1.885-2.118 3.41 3.644 2.648 4.49-.614 8.24-2.118 8.155-1.165-.084.953-7.35 4.83-6.524 6.249s8.918-4.364 9.66-2.987a9.2 9.2 0 0 1 1.016 2.118c1.229 2.733 2.415 6.016 3.474 4.237a5.55 5.55 0 0 0 0-5.19 5.76 5.76 0 0 1 0-3.453l-1.25-3.135z"/>
    </g>
    <defs>
        <clipPath id="a">
            <path fill="#fff" d="M0 0h112v112H0z"/>
        </clipPath>
    </defs>
</svg>