<svg xmlns="http://www.w3.org/2000/svg" width="112" height="112" fill="none" viewBox="0 0 112 112">
    <g clip-path="url(#a)">
        <rect width="112" height="112" fill="currentColor" rx="56"/>
        <path fill="#fff" d="M73.432 87.198c1.25-1.25 1.587-2.938.754-3.77-.833-.834-2.521-.496-3.771.753s-1.587 2.939-.754 3.772 2.521.495 3.771-.755"/>
        <path fill="#fff" d="M84.523 69.88a2.134 2.134 0 0 0-2.987.363 14 14 0 0 1-2.965 2.645c-.402.218-.846.35-1.302.384q.614-.77 1.11-1.621a28.86 28.86 0 0 0 2.688-16.043 2.152 2.152 0 1 0-4.267.576c.495 4.31-.13 8.674-1.813 12.672a18 18 0 0 1-2.134-3.392 20.3 20.3 0 0 1-.554-6.08 2.134 2.134 0 0 0-4.267-.107c-.147 2.632.14 5.27.853 7.808a25.6 25.6 0 0 0 3.371 5.398c-1.11 1.088-2.347 2.133-3.456 3.05a15 15 0 0 0-.448-1.728 41 41 0 0 0-.768-5.696c-.74-2.456-2-4.726-3.69-6.656a21.7 21.7 0 0 1-2.667-4.117 17.1 17.1 0 0 0 6.208-3.733 29 29 0 0 0 4.992-9.536 2.136 2.136 0 0 0-4.075-1.28 25.4 25.4 0 0 1-3.819 7.68 11 11 0 0 1-3.669 2.325 85.3 85.3 0 0 1 4.544-16.832 3.198 3.198 0 0 0-3.061-4.462 3.2 3.2 0 0 0-2.912 2.18c-.235.64-1.216 3.263-2.262 6.634a29 29 0 0 0-2.688-3.477 17.84 17.84 0 0 0-7.722-4.48 2.136 2.136 0 1 0-1.067 4.138 13.36 13.36 0 0 1 5.61 3.179l.897 1.067c-1.607.573-3.289.91-4.992 1.002a18.3 18.3 0 0 1-6.4-2.325 2.134 2.134 0 0 0-2.923.768 2.133 2.133 0 0 0 .768 2.901 20.6 20.6 0 0 0 8.533 2.923 23.8 23.8 0 0 0 7.232-1.557h.128q.495.944.875 1.941a35.2 35.2 0 0 0-1.195 8.747 58.4 58.4 0 0 0-8.704-3.328 38.7 38.7 0 0 0-13.973-1.43 2.15 2.15 0 1 0 .533 4.267 33.9 33.9 0 0 1 12.267 1.301c.747.214 1.45.427 2.133.662a22.14 22.14 0 0 0-10.282 3.05 2.133 2.133 0 0 0 2.389 3.52 20.78 20.78 0 0 1 12.8-2.24 12.65 12.65 0 0 1 7.957 5.035 11.3 11.3 0 0 1 2.134 3.563c.326 1.66.533 3.343.618 5.034a18.3 18.3 0 0 0 1.472 7.062 19.6 19.6 0 0 0 4.587 5.098 4.67 4.67 0 0 1 1.493-3.328 4.97 4.97 0 0 1 2.731-1.472 22.5 22.5 0 0 1-2.133-2.133 53 53 0 0 0 2.944-2.368q1.306.184 2.624.192a9.7 9.7 0 0 0 5.184-1.216 18.6 18.6 0 0 0 3.989-3.584 2.133 2.133 0 0 0-.47-2.944"/>
    </g>
    <defs>
        <clipPath id="a">
            <path fill="#fff" d="M0 0h112v112H0z"/>
        </clipPath>
    </defs>
</svg>