<svg xmlns="http://www.w3.org/2000/svg" width="112" height="112" fill="none" viewBox="0 0 112 112">
    <g clip-path="url(#a)">
        <rect width="112" height="112" fill="#4B4B5E" rx="56"/>
        <path fill="#fff" d="M79.616 43.392c-4.992 0-8.832 1.056-13.176.936S60.104 41.04 56 41.688c-4.104-.648-6.192 2.4-10.44 2.64s-8.184-.936-13.176-.936c-6.528 0-9.6 4.8-9.6 7.464s.888 7.2 8.112 8.952l1.056.192a3.07 3.07 0 0 1-1.224-2.4 2.98 2.98 0 0 1 .864-2.064 4.27 4.27 0 0 1-3.6-3.936c-.168-2.952 3.144-3.984 4.56-4.008 3.594.071 7.165.587 10.632 1.536 2.784 1.08 8.76 12.36 8.832 17.28s.24 14.952.24 14.952h7.488s.144-10.032.24-14.952 6.048-16.2 8.832-17.28a43.6 43.6 0 0 1 10.632-1.536c1.416 0 4.8 1.056 4.56 4.008a4.296 4.296 0 0 1-3.456 3.936 3 3 0 0 1 .888 2.064 3.12 3.12 0 0 1-1.248 2.4l1.032-.192c7.2-1.728 8.112-6.432 8.112-8.952s-3.192-7.464-9.72-7.464"/>
        <path fill="#fff" d="M44 55.416q-1.004.305-2.04.456c-.768 0-1.008-.216-1.008-.216A5.35 5.35 0 0 0 36.8 54c-2.64 0-4.8 1.608-4.8 3.6s2.16 3.6 4.8 3.6a4.416 4.416 0 0 0 4.8-3.312s0-.48.696-.84a9.3 9.3 0 0 1 1.896-.576zM68.264 55.416q1.014.308 2.064.456c.768 0 .984-.216.984-.216a5.26 5.26 0 0 1 4.056-1.68c2.64 0 4.8 1.608 4.8 3.6s-2.16 3.6-4.8 3.6a4.464 4.464 0 0 1-4.8-3.312s0-.48-.72-.84a8.8 8.8 0 0 0-1.872-.576z"/>
    </g>
    <defs>
        <clipPath id="a">
            <path fill="#fff" d="M0 0h112v112H0z"/>
        </clipPath>
    </defs>
</svg>