<svg xmlns="http://www.w3.org/2000/svg" width="112" height="112" fill="none" viewBox="0 0 112 112">
    <g clip-path="url(#a)">
        <rect width="112" height="112" fill="currentColor" rx="56"/>
        <path fill="#fff" d="M46.914 53.026a10.7 10.7 0 0 0-.132-4.73s3.52 0 4.554-4.906c1.254-5.676-2.2-10.23-8.316-11.572-10.868-2.332-16.148 11.198-17.336 16.632s-.88 20.174 8.8 22.286c5.676 1.21 10.868 0 12.144-5.984a6.73 6.73 0 0 0-2.992-7.7 7.28 7.28 0 0 0 3.278-4.026M65.086 53.026a10.7 10.7 0 0 1 .132-4.73s-3.52 0-4.554-4.906c-1.254-5.676 2.2-10.23 8.316-11.572 10.868-2.332 16.148 11.198 17.336 16.632s.88 20.174-8.8 22.286c-5.676 1.21-10.868 0-12.144-5.984a6.73 6.73 0 0 1 2.992-7.7 7.28 7.28 0 0 1-3.278-4.026"/>
        <path fill="#fff" d="M51.424 59.12v29.128h2.2V59.12a8.8 8.8 0 0 0-4.4-7.524 7.3 7.3 0 0 1-.176 1.342 3.7 3.7 0 0 1-.33.946 6.6 6.6 0 0 1 2.706 5.236M60.598 59.12v29.128h-2.2V59.12a8.8 8.8 0 0 1 4.4-7.524c0 .44 0 .88.176 1.342q.13.486.33.946a6.6 6.6 0 0 0-2.706 5.236"/>
    </g>
    <defs>
        <clipPath id="a">
            <path fill="#fff" d="M0 0h112v112H0z"/>
        </clipPath>
    </defs>
</svg>