<svg xmlns="http://www.w3.org/2000/svg" width="112" height="112" fill="none" viewBox="0 0 112 112">
    <g clip-path="url(#a)">
        <rect width="112" height="112" fill="#4B4B5E" rx="56"/>
        <path fill="#fff" d="M85.27 39.725a1.84 1.84 0 0 0-.43-1.858c.232-.29.36-.65.363-1.02a1.836 1.836 0 0 0-3.536-.794 1.86 1.86 0 0 0-2.448 1.111 2.1 2.1 0 0 0-.68-.136 1.836 1.836 0 0 0-1.814 1.632h-.294a1.88 1.88 0 0 0-1.882 1.859q.021.268.114.521a2 2 0 0 0-.816-.204 1.86 1.86 0 0 0-1.836 1.632 1.8 1.8 0 0 0-1.088-.385 1.86 1.86 0 0 0-1.836 1.677 1.81 1.81 0 0 0-1.428-.725 1.88 1.88 0 0 0-1.746 1.201 1.77 1.77 0 0 0-1.133-.408 1.9 1.9 0 0 0-1.45.725 1.79 1.79 0 0 0-1.52-.861 1.81 1.81 0 0 0-1.45.725 1.84 1.84 0 0 0-1.632-.997 1.86 1.86 0 0 0-1.745 1.27 1.95 1.95 0 0 0-.816-.182 1.79 1.79 0 0 0-1.406.703 1.86 1.86 0 0 0-3.014.544 1.84 1.84 0 0 0-1.723-1.179 1.86 1.86 0 0 0-1.836 1.655q-.241-.093-.499-.114a1.86 1.86 0 0 0-1.858 1.859 1.7 1.7 0 0 0 0 .59 1.8 1.8 0 0 0-.68-.137 1.86 1.86 0 0 0-1.859 1.859c.005.367.124.724.34 1.02a1.88 1.88 0 0 0-1.881 1.859c.008.232.053.462.136.68a1.836 1.836 0 0 0-.544 3.581 4.8 4.8 0 0 0-.884 2.765c0 .735.179 1.458.521 2.108a46 46 0 0 1 4.42-4.918 6.3 6.3 0 0 1 .77-2.471 6 6 0 0 1 0-1.813 2.4 2.4 0 0 1 .5-1.134c.254-.256.46-.555.611-.884a8.5 8.5 0 0 0 .318-1.518 9 9 0 0 1-.114 1.654 2.3 2.3 0 0 1-.498.839 1.86 1.86 0 0 0-.476 1.11 7.5 7.5 0 0 0 0 1.089 4 4 0 0 1 1.496-1.383 5.3 5.3 0 0 0 1.496-1.065c.702-1.066 1.813-2.902 1.813-2.902a22.4 22.4 0 0 1-1.383 3.31 4.3 4.3 0 0 1-1.405 1.201 3.04 3.04 0 0 0-1.519 1.723 7.3 7.3 0 0 0-.476 1.405 29.3 29.3 0 0 1 4.08-3.037 16.1 16.1 0 0 1 6.8-2.267h.703q.225-.572.521-1.11c.255-.485.65-.88 1.134-1.134l.929-.612a7 7 0 0 0 1.156-1.836 8.5 8.5 0 0 1-.703 1.859 3.45 3.45 0 0 1-1.065.861 2.04 2.04 0 0 0-1.02 1.11c0 .295-.181.545-.25.794H59a39 39 0 0 0 6.007-.657 14.2 14.2 0 0 0 3.785-1.519 18 18 0 0 1 1.632-2.267 6.5 6.5 0 0 1 1.927-1.065 7 7 0 0 0-1.474 1.043 5.3 5.3 0 0 0-.884 1.79 38.2 38.2 0 0 0 7.14-4.374s-7.729 7.91-17.272 8.182h-.884q.483.323.998.59a3.26 3.26 0 0 0 2.266.158c.386-.136 1.088-.566 1.632-.408a4.8 4.8 0 0 0 2.766-.476s-1.723 1.247-2.811.907c-.408-.113-1.247.453-1.61.544a4.03 4.03 0 0 1-2.47 0 9 9 0 0 1-1.972-1.179 12.6 12.6 0 0 0-6.8 2.607c-1.337 1.02-2.493 1.904-3.513 2.788.622.177 1.26.298 1.904.363a3.58 3.58 0 0 0 2.402-.658c.295-.272.703-.929 1.247-.997 1.133-.113 2.267-1.61 2.267-1.61s-.975 1.86-2.108 1.973c-.431 0-.998 1.042-1.292 1.269a3.63 3.63 0 0 1-2.154.635 9.3 9.3 0 0 1-2.924-.408 22.9 22.9 0 0 0-4.669 5.168 4.78 4.78 0 0 0 2.924 1.201 3.013 3.013 0 0 0 3.037 3.015 2.99 2.99 0 0 0 2.494-1.383c.393.172.817.265 1.246.272a3.04 3.04 0 0 0 2.811-1.904c.319.124.656.193.997.204a3.06 3.06 0 0 0 3.06-3.06 3.2 3.2 0 0 0-.317-1.315 2.09 2.09 0 0 0 1.156-1.858q.015-.159 0-.318.17.017.34 0a2.063 2.063 0 0 0 2.085-1.972c.353.269.781.42 1.224.431a2.085 2.085 0 0 0 2.018-1.632 1.81 1.81 0 0 0 1.586.93 1.86 1.86 0 0 0 1.836-1.678q.273.033.544 0a1.84 1.84 0 0 0 1.587-.952c.32.261.72.405 1.133.408a1.836 1.836 0 0 0 1.768-1.405c.215.093.447.139.68.136a1.86 1.86 0 0 0 1.859-1.859 2.3 2.3 0 0 0 0-.567q.294.053.59 0a1.86 1.86 0 0 0 1.858-1.745q.215.02.43 0a1.86 1.86 0 0 0 1.86-1.859 1.86 1.86 0 0 0 1.563-1.813v-.204a1.81 1.81 0 0 0 1.428-1.768q.113-.234.204-.476c.21-.2.366-.45.454-.725a1.86 1.86 0 0 0 0-.862v-.272c.302-.199.538-.483.68-.816"/>
        <path fill="#fff" d="M75.343 58.992a11.34 11.34 0 0 0-4.783-2.81 2.54 2.54 0 0 1-1.859 2.266 2.27 2.27 0 0 1-1.677-.567c-.113 1.474-2.04 1.723-3.128 1.36h-.476q.02.216 0 .431a2.81 2.81 0 0 1-1.61 2.47c.283.54.43 1.138.431 1.746a4.124 4.124 0 0 1-4.216 4.035 4.2 4.2 0 0 1-1.405-.272 4.17 4.17 0 0 1-3.899 2.538A4.3 4.3 0 0 1 51 69.827a4.24 4.24 0 0 1-3.468 1.858 4.126 4.126 0 0 1-4.216-4.034 6.347 6.347 0 0 1-6.256-6.234 6.1 6.1 0 0 1 1.224-3.649 2.267 2.267 0 0 1-.658-4.239v-.544a4.53 4.53 0 0 1 1.632-3.785c.242-.211.518-.38.816-.499-.974 0-2.266-1.133-2.901-2.81a3.67 3.67 0 0 1 0-3.922 8.3 8.3 0 0 0-3.423 1.927 12.87 12.87 0 0 0-3.241 9.316 25.4 25.4 0 0 0 7.23 18.428 12.65 12.65 0 0 0 8.387 3.717h.318c8.454.182 12.217-4.533 14.937-8.137 2.267-3.015 3.355-4.103 5.576-4.103 5.44 0 5.485 9.815 5.485 10.314a3.49 3.49 0 0 0 3.876 3.082c3.287 0 3.922-2.266 3.922-2.969s.226-9.475-4.896-14.552"/>
        <path fill="#fff" d="M41.26 48.015c.936-.391 1.106-2.113.381-3.845s-2.07-2.82-3.006-2.428-1.106 2.113-.381 3.846c.725 1.732 2.07 2.819 3.006 2.427"/>
    </g>
    <defs>
        <clipPath id="a">
            <path fill="#fff" d="M0 0h112v112H0z"/>
        </clipPath>
    </defs>
</svg>