<svg xmlns="http://www.w3.org/2000/svg" width="112" height="112" fill="none" viewBox="0 0 112 112">
    <g clip-path="url(#a)">
        <rect width="112" height="112" fill="currentColor" rx="56"/>
        <path fill="#fff" d="m79.639 66.48 3.529-3.55-.86-.883-1.986-1.985-3.507 3.507a4.8 4.8 0 0 1-3.706 1.324 20.27 20.27 0 0 0-18.815 0 4.9 4.9 0 0 1-3.287-1.17l-1.015-.992-1.036-1.037a24 24 0 0 1-1.39-1.566 23.4 23.4 0 0 1-4.147-11.03 19.41 19.41 0 0 0-10.323-14.91 2.205 2.205 0 0 0-2.228 3.771 12.13 12.13 0 0 1 5.602 5.625 26.5 26.5 0 0 1 3.11 9.574 23.4 23.4 0 0 0 4.787 10.124 40.6 40.6 0 0 0 4.412 4.412 5.1 5.1 0 0 1 .485 1.897 9.4 9.4 0 0 0-1.412 4.897c0 5.382 4.831 9.948 11.449 11.382a6.77 6.77 0 0 1 2.426 5.03h4.037a6.75 6.75 0 0 1 2.493-5.184 20 20 0 0 0 2.029-.552c5.514-1.853 9.353-5.978 9.353-10.786A10.8 10.8 0 0 0 78.38 69.7a4.8 4.8 0 0 1 1.258-3.22"/>
    </g>
    <defs>
        <clipPath id="a">
            <path fill="#fff" d="M0 0h112v112H0z"/>
        </clipPath>
    </defs>
</svg>