<svg xmlns="http://www.w3.org/2000/svg" width="112" height="112" fill="none" viewBox="0 0 112 112">
    <g clip-path="url(#a)">
        <rect width="112" height="112" fill="currentColor" rx="56"/>
        <path fill="#fff" d="M75.81 57.937s-2.333-9.684-8.47-12.344c-1.797-.583-7 .934-3.85 8.61-.77-.91-3.663-6.556-1.237-10.196a9.33 9.33 0 0 1 7.187-3.64 3.268 3.268 0 0 0 3.173-4.154c-.513-3.546-5.156-3.056-5.156-3.056s-12.017-.234-14.887 7.7c0-9.637 12.32-9.684 12.32-9.684 0-2.986-10.337-4.83-16.94.28-8.89 6.86-8.82 18.667-1.703 27.627a15.85 15.85 0 0 1-7-12.25c-1.167 1.493-4.667 7-3.64 17.033 1.47 15.167 33.693 27.3 38.99 19.624 5.296-7.677 1.213-25.55 1.213-25.55M41.3 34.393c-.793-1.563-7-1.446-7 .35v13.16a16.3 16.3 0 0 1 4.48-5.296c.092-2.914.962-5.75 2.52-8.214"/>
    </g>
    <defs>
        <clipPath id="a">
            <path fill="#fff" d="M0 0h112v112H0z"/>
        </clipPath>
    </defs>
</svg>