<svg xmlns="http://www.w3.org/2000/svg" width="112" height="112" fill="none" viewBox="0 0 112 112">
    <g clip-path="url(#a)">
        <rect width="112" height="112" fill="#4B4B5E" rx="56"/>
        <path fill="#fff" d="M52.84 55.867a11.25 11.25 0 0 1-1.167-4.9s-3.64.84-6.02-3.757C42.807 41.727 45 36.127 50.997 33c10.476-5.32 19.67 7 22.33 12.343 2.66 5.344 6.44 20.324-2.964 25.247-5.46 2.8-11.13 2.94-14-2.777a7.186 7.186 0 0 1 .957-8.726 7.68 7.68 0 0 1-4.48-3.22"/>
        <path fill="#fff" d="M50.297 54.327a8.9 8.9 0 0 0 .676 2.193 6.35 6.35 0 0 0-2.753 5.133V90.61h-2.333V61.653a8.59 8.59 0 0 1 4.41-7.326"/>
    </g>
    <defs>
        <clipPath id="a">
            <path fill="#fff" d="M0 0h112v112H0z"/>
        </clipPath>
    </defs>
</svg>