<svg xmlns="http://www.w3.org/2000/svg" width="112" height="112" fill="none" viewBox="0 0 112 112">
    <g clip-path="url(#a)">
        <rect width="112" height="112" fill="currentColor" rx="56"/>
        <g fill="#fff" clip-path="url(#b)">
            <path d="M75.96 44.644c-3.608.385-10.287 1.45-9.704 8.628a16.97 16.97 0 0 1-2.533 10.033c-1.568 2.4-3.787 3.283-4.482 4.687s-.246 7.7 1.031 9.06c1.278 1.358.762 7.948.762 7.948h2.465a62 62 0 0 0 .381-8.628c.112-7.95 9.66-26.134 14.12-27.856a13.76 13.76 0 0 1 7.731-1.087v-1.132a32 32 0 0 0-9.771-1.653M74.212 38.416c-6.724-.928-10.13-5.3-16.674-4.235-6.544-1.064-9.973 3.17-16.674 4.235A47.3 47.3 0 0 1 28 39.39l.18 3.827c5.96-2.083 24.898-3.102 29.515-3.102 4.616 0 22.254 1.019 28.126 3.034L86 39.616c-3.967 0-7.911-.407-11.788-1.2M37.077 48.449c4.482 1.72 13.984 19.906 14.119 27.855-.09 2.876.022 5.775.38 8.628h2.42s-.313-6.794.74-7.949c1.054-1.155 1.749-7.587 1.054-9.059s-2.914-2.264-4.482-4.687c-1.905-2.967-2.802-6.5-2.578-10.033.56-7.11-6.095-8.175-9.659-8.56a39.8 39.8 0 0 0-10.802 1.63v.748c3.003-.227 6.029.249 8.808 1.427"/>
        </g>
    </g>
    <defs>
        <clipPath id="a">
            <path fill="#fff" d="M0 0h112v112H0z"/>
        </clipPath>
        <clipPath id="b">
            <path fill="#fff" d="M28 34h58v51H28z"/>
        </clipPath>
    </defs>
</svg>