<svg xmlns="http://www.w3.org/2000/svg" width="112" height="112" fill="none" viewBox="0 0 112 112">
    <g clip-path="url(#a)">
        <rect width="112" height="112" fill="currentColor" rx="56"/>
        <g fill="#fff" clip-path="url(#b)">
            <path d="M61.475 84h-7.207V65.287c-.023-1.527-.866-2.96-2.2-3.77-8.586-1.897-14.576-7.934-14.576-14.688 0-2.152.609-4.257 1.708-6.107a4.6 4.6 0 0 0-1.263-2.66L33 32.996 38.007 28l5.1 5.066a4.67 4.67 0 0 0 3.066 1.249c3.603-1.85 7.674-2.776 11.722-2.73 4.024-.07 8.048.902 11.652 2.753 1.263.07 2.503-.347 3.416-1.203l5.007-4.973 5.03 5.02-5.077 4.95a4.5 4.5 0 0 0-1.264 2.752c.936 1.827 1.498 3.863 1.568 5.898 0 6.084-4.61 11.45-12.05 14.04-.795.278-1.614.51-2.41.695a4.56 4.56 0 0 0-2.27 3.863V84zm-4.867-2.313h2.527v-16.33c.047-2.499 1.45-4.742 3.626-5.945l.304-.116a19 19 0 0 0 2.317-.648c6.48-2.243 10.505-6.777 10.505-11.82-.07-1.757-.585-3.562-1.45-5.135l-.14-.277v-.3a6.86 6.86 0 0 1 1.941-4.627l3.44-3.354-1.708-1.688-3.393 3.354c-1.52 1.387-3.51 2.035-5.522 1.804l-.42-.14c-3.3-1.734-7.067-2.682-10.764-2.59-3.86 0-7.557.833-10.88 2.59l-.233.117h-.281c-1.872.092-3.697-.625-5.03-1.92l-3.44-3.424-1.731 1.735 3.345 3.447a6.85 6.85 0 0 1 1.942 4.51v.347l-.187.3a9.7 9.7 0 0 0-1.544 5.229c0 5.713 5.311 10.825 12.939 12.467l.327.116c2.106 1.203 3.463 3.423 3.51 5.829v16.469"/>
            <path d="M67.909 62.442c-1.006-.347-1.779-.44-2.434-.324-.14.046-.28.093-.42.116a4.56 4.56 0 0 0-2.27 3.863v15.636s.093.07.14.093c1.919.67 6.832-2.637 8.774-8.096s.679-9.715-3.767-11.288zM52.911 66.004c-.023-1.526-.866-2.96-2.2-3.77-.163-.047-.35-.093-.514-.139-.608-.046-1.31 0-2.223.347-4.445 1.573-5.662 5.829-3.743 11.288 1.895 5.366 6.785 8.628 8.657 8.096V66.004z"/>
        </g>
    </g>
    <defs>
        <clipPath id="a">
            <path fill="#fff" d="M0 0h112v112H0z"/>
        </clipPath>
        <clipPath id="b">
            <path fill="#fff" d="M33 28h50v56H33z"/>
        </clipPath>
    </defs>
</svg>