<svg xmlns="http://www.w3.org/2000/svg" width="112" height="112" fill="none" viewBox="0 0 112 112">
    <g clip-path="url(#a)">
        <rect width="112" height="112" fill="#4B4B5E" rx="56"/>
        <path fill="#fff" d="M81.833 55.02a2.9 2.9 0 0 0-1.033-2.233 2.83 2.83 0 0 0 .91-2.066 2.9 2.9 0 0 0-1.365-2.418 2.85 2.85 0 0 0 1.364-2.418 2.92 2.92 0 0 0-.888-2.067l.268-.64a5.954 5.954 0 0 0-3.534-7.854 6.61 6.61 0 0 0-6.572 1.116 3.4 3.4 0 0 0-1.818-.579 2.914 2.914 0 0 0-3.245 2.522v.454a3.2 3.2 0 0 0-2.604-1.384 3.12 3.12 0 0 0-2.976 1.756 3.2 3.2 0 0 0-2.583-1.302 3.12 3.12 0 0 0-2.956 1.674 2.83 2.83 0 0 0-2.934-2.748 3.8 3.8 0 0 0-.992.124 3.78 3.78 0 0 0-3.762-2.894 4.24 4.24 0 0 0-3.513 1.53l-.64-.765a5.04 5.04 0 0 0-6.2-.91 3.51 3.51 0 0 0-1.799 3.555 4.13 4.13 0 0 0-3.947 2.811 3.06 3.06 0 0 0 .806 2.852 3.27 3.27 0 0 0-1.385 1.86 3.35 3.35 0 0 0 1.84 3.968 2.315 2.315 0 0 0-1.922 2.211 2.42 2.42 0 0 0 1.736 2.625 2.52 2.52 0 0 0-1.509 2.273v.558a2.58 2.58 0 0 0 2.067 2.46 5.27 5.27 0 0 0-2.48 4.402v1.178a5.457 5.457 0 0 0 5.538 5.311v2.211a1.116 1.116 0 0 0 2.232 0v-2.211a5.476 5.476 0 0 0 5.415-5.311v-1.178a5.27 5.27 0 0 0-2.521-4.423 2.604 2.604 0 0 0 2.066-2.46v-.557a2.48 2.48 0 0 0-1.054-2.067c.461-.44.741-1.038.786-1.674a2.75 2.75 0 0 0-.455-1.695 3.25 3.25 0 0 0 1.26-1.756 3.37 3.37 0 0 0-1.053-3.514c.426-.08.838-.226 1.22-.434a4.13 4.13 0 0 0 3.037 1.364 4.3 4.3 0 0 0 1.798-.33v.434a2.85 2.85 0 0 0 2.914 2.666 3.14 3.14 0 0 0 2.976-1.674 2.87 2.87 0 0 0 2.997 2.686 3.1 3.1 0 0 0 2.976-1.777 3.16 3.16 0 0 0 2.562 1.323 2.914 2.914 0 0 0 3.183-2.501v-.393a3.27 3.27 0 0 0 2.625 1.385c.285-.002.57-.037.847-.103q.175.18.393.31a2.96 2.96 0 0 0-1.364 2.418 2.87 2.87 0 0 0 1.116 2.211 2.91 2.91 0 0 0-.91 2.067 2.87 2.87 0 0 0 .951 2.066A4.13 4.13 0 0 0 68.503 60c.002.732.21 1.448.6 2.067a4.55 4.55 0 0 0-1.654 2.686v.393a2.4 2.4 0 0 0-.537.496c-.295.398-.473.87-.517 1.364a3.45 3.45 0 0 0-1.57 1.26 3.89 3.89 0 0 0-4.134-.578 6.57 6.57 0 0 0-4.69-1.943h-.414a6.323 6.323 0 0 0-6.448 6.2v.393a5.9 5.9 0 0 0 1.86 4.299c-.348.37-.546.856-.558 1.364a2.07 2.07 0 0 0 1.756 2.066v.207a2.07 2.07 0 0 0 1.24 1.86V84.8a2.232 2.232 0 0 0 4.444 0v-2.935a2.07 2.07 0 0 0 .971-1.694v-.124h.537a2.85 2.85 0 0 0 2.522-2.501c0-.785-.104-.827-.104-.827a3.06 3.06 0 0 0 2.542 1.075 2.71 2.71 0 0 0 2.501-2.067 4.13 4.13 0 0 0 4.34 1.137 3.43 3.43 0 0 0 2.067-1.943 2.48 2.48 0 0 0 3.41-.599 3.12 3.12 0 0 0 .434-2.687 4.28 4.28 0 0 0 2.583-3.182 5.1 5.1 0 0 0-1.157-4.506 4.13 4.13 0 0 0 3.1-3.947 4.13 4.13 0 0 0-1.013-2.645 2.83 2.83 0 0 0 1.22-2.336"/>
    </g>
    <defs>
        <clipPath id="a">
            <path fill="#fff" d="M0 0h112v112H0z"/>
        </clipPath>
    </defs>
</svg>