<svg xmlns="http://www.w3.org/2000/svg" width="112" height="112" fill="none" viewBox="0 0 112 112">
    <g clip-path="url(#a)">
        <rect width="112" height="112" fill="currentColor" rx="56"/>
        <path fill="#fff" d="M45.263 29.675c0 2.18 1.31 8.95 5.67 11.335 3.403 1.873 11.367 1.693 14.39 2.565a10.25 10.25 0 0 1 3.509 2.633 10.5 10.5 0 0 1 2.112 3.881c.201 1.18 1.89-.846 4.385-.462 2.495.385 4.234 4.976 3.503 8.207a8.63 8.63 0 0 1-3.338 4.4 8.38 8.38 0 0 1-5.281 1.422 9.55 9.55 0 0 1-5.923-3.59c-2.142-3.899-.68-6.002-3.2-4.848s.857 4.796 1.89 7.694c.385.814.502 1.732.334 2.619a4.23 4.23 0 0 1-1.267 2.305 4.452 4.452 0 0 1-5.771.564 16.3 16.3 0 0 0-3.629-1.744c-3.226-1.026-7.006-1-7.258-4s2.37-3.232 2.37-3.668-6.478-1.077-6.1-4.437c.303-2.564 5.04-2.974 5.04-2.974s4.512 0 4.512-.54c0-.538-10.08-1.743-10.736 3.13-.454 3.539 4.082 3.923 4.334 7.694.253 3.77-2.52 5.334-.428 6.308 2.772 1.257 5.393-1 8.19-.718 2.798.282 5.52 3.078 7.158 3.027 2.344 0 3.553-4.745 8.014-5.437a6.28 6.28 0 0 1 3.964.503 6.43 6.43 0 0 1 2.89 2.805 7.6 7.6 0 0 1 .041 5.068 7.46 7.46 0 0 1-3.14 3.934 16.77 16.77 0 0 1-8.513 3.008 16.7 16.7 0 0 1-8.826-1.854c.756 3.667-1.89 4.437-2.948 4.488-3.05.205-4.436-4.001-6.578-5.13a15.46 15.46 0 0 0-9.148-1.615c-2.722.615-3.63-3.385-.554-4.13 3.58-.532 7.235.02 10.509 1.59 1.483.693 2.8 1.709 3.855 2.976a3.74 3.74 0 0 1 .731-2.308c.431-.62.93-1.188 1.487-1.693l3.68-.975 4.536 3.488 2.52.206s-3.856 0 .227-.129a9.98 9.98 0 0 0 6.956-2.564 1.612 1.612 0 0 0 .252-2.077c-.379-.462-.882-.642-1.89 0-1.588.974-3.655 4.616-5.494 4.693-1.16 0-9.728-2.847-11.09-2.565-2.721.667-5.544 1.82-8.467.436a6.8 6.8 0 0 1-2.872-2.074 6.96 6.96 0 0 1-1.463-3.26c-.15-2.129 1.336-3.95 1.235-5.13s-5.292-4-4.007-9.976c1.285-5.975 9.325-7.694 12.6-7.334 3.277.359 8.015 1.666 8.141 5.129s-3.075 4.795-3.175 5.129c-.101.333.957.923 1.31 2.564a6.45 6.45 0 0 1-.756 3.565c.728.088 1.446.252 2.142.488.933.384 1.74 1.154 1.84 1.102a30.7 30.7 0 0 1-2.369-6.796c-.15-1.395.186-2.8.951-3.967a5.88 5.88 0 0 1 3.233-2.419c3.225-.974 6.955.693 7.56 2.565s.53 3.616 2.218 5.129a2.874 2.874 0 0 0 3.295.332c.344-.193.646-.454.888-.768.53-.795.857-3.41-.176-2.872a5.6 5.6 0 0 1-4.032.487c-2.873-.77-3.352-5.59-5.04-6.489-1.69-.897-7.965-.564-9.325-.871-1.361-.308-9.375-2.411-11.996-8.104a21.4 21.4 0 0 1-2.52-10.105c-.328-2.103 4.813-2 4.838.154"/>
    </g>
    <defs>
        <clipPath id="a">
            <path fill="#fff" d="M0 0h112v112H0z"/>
        </clipPath>
    </defs>
</svg>