<svg xmlns="http://www.w3.org/2000/svg" width="112" height="112" fill="none" viewBox="0 0 112 112">
    <g clip-path="url(#a)">
        <rect width="112" height="112" fill="currentColor" rx="56"/>
        <path fill="#fff" d="M83.914 27.187a19.4 19.4 0 0 0-7.012 6.226 19.45 19.45 0 0 0-3.278 8.8 23.44 23.44 0 0 1-4.134 11.031c-.44.551-.902 1.059-1.386 1.566l-1.033 1.037-1.011.993a4.87 4.87 0 0 1-3.277 1.17 19.3 19.3 0 0 0-9.411-2.34 19.5 19.5 0 0 0-9.345 2.207 4.78 4.78 0 0 1-3.694-1.324l-3.496-3.53-1.98 1.986-.857.883 3.518 3.552a4.82 4.82 0 0 1 1.254 3.265 10.8 10.8 0 0 0-1.342 4.766c0 4.81 3.826 8.935 9.323 10.789q.997.33 2.023.551A6.75 6.75 0 0 1 51.261 84h4.024a6.8 6.8 0 0 1 2.419-5.097c6.596-1.434 11.412-6 11.412-11.384a9.44 9.44 0 0 0-1.407-4.898 5.2 5.2 0 0 1 .483-1.898 40.5 40.5 0 0 0 4.398-4.412 23.4 23.4 0 0 0 4.772-10.127 26.5 26.5 0 0 1 3.188-9.598 12.1 12.1 0 0 1 5.585-5.626 2.207 2.207 0 0 0 .56-2.876 2.192 2.192 0 0 0-2.78-.897"/>
    </g>
    <defs>
        <clipPath id="a">
            <path fill="#fff" d="M0 0h112v112H0z"/>
        </clipPath>
    </defs>
</svg>