<svg xmlns="http://www.w3.org/2000/svg" width="112" height="112" fill="none" viewBox="0 0 112 112">
    <g clip-path="url(#a)">
        <rect width="112" height="112" fill="currentColor" rx="56"/>
        <path fill="#fff" d="M40.139 52.459c2.405 2.166 4.463 2.166 6.737 3.185a6.8 6.8 0 0 0-5.502 2.014c-1.409 1.214-3.9.954-4.636 2.319.108-3.228-3.878-6.001-5.33-8.146-9.987-14.58 3.64-24.156 19.368-21.34a50.1 50.1 0 0 1 17.158 6.911l-2.166 6.045a35 35 0 0 0-14.667-7.02C40.269 33.85 28.397 42.17 40.139 52.46"/>
        <path fill="#fff" d="M46.14 55.319c.13 0 10.312 2.166 10.312 2.166 5.048 1.95 2.166 3.51-3.726 2.708-4.593-.606-8.428-2.166-8.341-1.17.087.997 7.518 4.94 6.673 6.5s-9.121-4.507-9.858-3.098a9 9 0 0 0-1.061 2.166c-1.257 2.795-2.47 6.153-3.553 4.333a5.74 5.74 0 0 1 0-5.308 5.87 5.87 0 0 0 0-3.531l1.061-3.163zM82.167 31.64c-7.062-1.213-7.929 5.72-11.633 6.022a7.2 7.2 0 0 1-4.766-1.538l-1.734 5.178s2.167 1.95 2.167 3.336c0 1.387-1.148 6.218.801 9.858 1.95 3.64 4.68 6.239 5.373 8.947s.13 3.64 1.538 9.857c.66 3.4 2.107 6.597 4.225 9.337h3.964z"/>
    </g>
    <defs>
        <clipPath id="a">
            <path fill="#fff" d="M0 0h112v112H0z"/>
        </clipPath>
    </defs>
</svg>