<svg xmlns="http://www.w3.org/2000/svg" width="112" height="112" fill="none" viewBox="0 0 112 112">
    <g clip-path="url(#a)">
        <rect width="112" height="112" fill="currentColor" rx="56"/>
        <path fill="#fff" d="M69.515 38.304c-7.84 0-5.507 3.827-9.987 3.864-4.07 0-3.192-7.747-3.192-7.747h-4.667s-.541 7.467 2.24 11.051c4.499 5.824 5.152 17.267-3.733 17.117-3.733 0-3.733-3.621-8.997-3.621A9.22 9.22 0 0 0 33.6 62.44l3.49 2.24a3.58 3.58 0 0 1 3.155-1.979 3.733 3.733 0 0 1 3.622 3.827c0 2.277-2.8 4.405-.934 8.139 1.867 3.733 7.28 5.04 15.998 4.256 7.69-.523 14.69-9.352 17.77-19.19 4.032-13.066.579-21.429-7.186-21.429"/>
    </g>
    <defs>
        <clipPath id="a">
            <path fill="#fff" d="M0 0h112v112H0z"/>
        </clipPath>
    </defs>
</svg>