<svg xmlns="http://www.w3.org/2000/svg" width="112" height="112" fill="none" viewBox="0 0 112 112">
    <g clip-path="url(#a)">
        <rect width="112" height="112" fill="currentColor" rx="56"/>
        <g fill="#fff" clip-path="url(#b)">
            <path d="M59.077 62.36c1.4-.48 2.962-1.12 3.49-2.24.253-.504.253-1.075.023-1.647-.597-1.555-2.687-.778-4.89.023-1.333.48-2.71 1.006-3.698 1.006h-.23c-2.502 0-3.65-.435-4.707-1.715l-.413-.503-.413.503c-.735.869-1.125 1.875-1.125 2.904 0 3.133 3.49 5.671 7.76 5.671 1.93 0 6.591-.16 7.923-1.76.321-.366.436-.8.367-1.258-.252-1.418-2.273-1.235-4.087-.984"/>
            <path d="m61.488 49.829-.413-.458-.414.458C59.491 51.155 57.263 52 54.875 52s-4.593-.823-5.787-2.172l-.413-.458-.413.458c-.758.846-1.125 1.76-1.125 2.698 0 2.881 3.467 5.237 7.738 5.237 4.27 0 7.738-2.356 7.738-5.237 0-.937-.39-1.852-1.125-2.698M60.983 26.435 60.615 26l-.367.434c-1.08 1.235-3.146 1.99-5.35 1.99-2.205 0-4.225-.777-5.35-2.012L49.18 26l-.367.434c-.689.778-1.034 1.647-1.034 2.493 0 2.676 3.192 4.848 7.142 4.848s7.141-2.172 7.141-4.848c0-.869-.367-1.715-1.033-2.492z"/>
            <path d="m60.845 42.51-.39-.502-.39.503c-1.103 1.395-3.147 2.24-5.305 2.24h-.046c-2.181 0-4.225-.868-5.304-2.24l-.39-.503-.39.48c-.667.823-1.034 1.784-1.034 2.744 0 3.179 2.939 5.374 7.141 5.374s7.141-2.218 7.141-5.374c0-.937-.344-1.875-1.01-2.744zM63.83 66.34c-.46-.32-.964-.458-1.447-.366l-.183.068c-.574.32-1.217.984-2.02 1.807-1.493 1.555-3.56 3.682-5.604 3.682-1.745 0-3.674-2.059-5.074-3.568-1.31-1.395-2.182-2.31-3.031-1.99-.804.32-1.837 1.076-2.136 2.928-.23 1.349.896 2.012 2.067 2.721 1.102.663 2.48 1.464 3.33 3.087l.665 1.327c1.263 2.584 2.687 5.51 5.052 5.534h.023c2.296 0 3.26-2.15 4.386-4.642.321-.71.666-1.487 1.056-2.242 1.01-1.943 2.066-2.88 2.824-3.544.804-.709 1.493-1.326 1.332-2.538-.115-.938-.597-1.83-1.263-2.31z"/>
            <path d="m61.029 34.164-.39-.457-.391.457c-.964 1.166-2.02 1.578-4.294 1.6h-.23c-.918 0-2.18-.48-3.398-.937-2.02-.755-3.926-1.44-4.477-.023-.207.55-.207 1.052.023 1.532.55 1.167 2.25 1.738 3.627 2.196.07 0 .115.046.184.068-.138-.045-.275-.068-.413-.114-1.263-.366-2.595-.732-3.376-.183-.23.16-.505.458-.574 1.006-.045.412.092.824.414 1.167 1.286 1.417 5.465 1.555 7.187 1.555 5.878 0 7.095-2.836 7.095-5.214 0-.938-.344-1.853-1.033-2.653zM39.421 85c1.24-.755 6.476-3.819 11.596-5.214-.872-1.784-2.181-4.528-2.893-5.763-.505-.869-1.63-1.555-2.71-2.08-2.709 2.904-6.2 4.87-9.047 5.853-.206.526-.711 2.081 0 4.002.69 1.898 2.412 2.905 3.077 3.202zM63.233 69.22l-.023-.045.046.046zM75.84 78.14c-3.583-1.258-7.83-3.545-10.77-6.632-.941.937-2.962 3.041-3.513 4.368-.46 1.12-1.263 2.72-1.768 3.727 5.465 1.166 11.435 3.956 12.72 4.574.552-.229 1.998-.915 2.618-1.875a5.44 5.44 0 0 0 .735-4.14zM49.525 66.27c-.322.138 3.03 3.706 4.57 3.98 1.538.274 3.398-1.44 3.971-1.99.575-.548 1.264-.96.942-1.097-.643-.275-2.71.754-4.914.434s-3.835-1.646-4.57-1.303z"/>
        </g>
    </g>
    <defs>
        <clipPath id="a">
            <path fill="#fff" d="M0 0h112v112H0z"/>
        </clipPath>
        <clipPath id="b">
            <path fill="#fff" d="M36 26h40v59H36z"/>
        </clipPath>
    </defs>
</svg>