<svg xmlns="http://www.w3.org/2000/svg" width="112" height="112" fill="none" viewBox="0 0 112 112">
    <g clip-path="url(#a)">
        <rect width="112" height="112" fill="currentColor" rx="56"/>
        <path fill="#fff" d="M54.566 36.214a3.432 3.432 0 0 0-3.562-3.77 4.94 4.94 0 0 0-2.964 1.066 14.5 14.5 0 0 0-1.898 1.69 51.3 51.3 0 0 0-6.396 7.8 84 84 0 0 0-6.084 10.92 50.9 50.9 0 0 0-4.264 14.638c-1.196 8.632-.52 13.572 1.95 14.846 3.198 1.664 15.6.546 21.528-3.328a3.5 3.5 0 0 0 1.404-1.872 8.2 8.2 0 0 0 .286-1.82v-40.17M73 44.144a7.59 7.59 0 0 1-5.2-7.15V24.982h-5.2v12.012a7.59 7.59 0 0 1-5.2 7.176v4.316H73z"/>
    </g>
    <defs>
        <clipPath id="a">
            <path fill="#fff" d="M0 0h112v112H0z"/>
        </clipPath>
    </defs>
</svg>