<svg xmlns="http://www.w3.org/2000/svg" width="112" height="112" fill="none" viewBox="0 0 112 112">
    <g clip-path="url(#a)">
        <rect width="112" height="112" fill="#4B4B5E" rx="56"/>
        <path fill="#fff" d="M78.04 42.78c-1.624-2.481-11.605-7.31-22.832-11.422C46.316 28.185 44.626 27.068 34 27v11.175s21.786 3.554 24.21 4.09c2.423.537 5.824-1.005 8.114.403s2.934 2.704 2 7.063c-.933 4.358-3.801 6.37-6.09 5.788-4.225-1.028-3.469-6.839-4.892-7.353C54.386 47.116 34 43.696 34 43.696v17.411c13.85-3.397 20.008-1.766 20.008-1.766s-5.18 11.176-5.602 17.68c-.241 2.671-.061 5.364.533 7.979h9.804s2.912-15.198 2.557-18.797c-.356-3.598-4.18-8.516-3.913-9.857s1.956 1.721 6.358 1.721c3.446 0 4.713-3.084 6.002-2.48 1.29.603-1.467 6.146-1.934 9.454S64.745 85 64.745 85h7.225a141 141 0 0 0 4.113-23.379c.534-3.8 4.78-14.751 1.956-18.841m-4.892 9.476c-1.689.201-1-3.397-1.333-5.386-.334-1.99-1.912-4.247-.445-4.47a4.43 4.43 0 0 1 2.955 1.265 4.48 4.48 0 0 1 1.336 2.937c.022 2.771-.823 5.43-2.513 5.654"/>
    </g>
    <defs>
        <clipPath id="a">
            <path fill="#fff" d="M0 0h112v112H0z"/>
        </clipPath>
    </defs>
</svg>