<svg xmlns="http://www.w3.org/2000/svg" width="112" height="112" fill="none" viewBox="0 0 112 112">
    <g clip-path="url(#a)">
        <rect width="112" height="112" fill="currentColor" rx="56"/>
        <path fill="#fff" d="M44.78 73.317a1.133 1.133 0 1 0 0-2.266 1.133 1.133 0 0 0 0 2.266M33.832 73.317a1.133 1.133 0 1 0 0-2.266 1.133 1.133 0 0 0 0 2.266M66.653 73.317a1.133 1.133 0 1 0 0-2.266 1.133 1.133 0 0 0 0 2.266M77.601 73.317a1.133 1.133 0 1 0 0-2.266 1.133 1.133 0 0 0 0 2.266M55.728 73.317a1.133 1.133 0 1 0 0-2.266 1.133 1.133 0 0 0 0 2.266M44.78 80.117a1.133 1.133 0 1 0 0-2.266 1.133 1.133 0 0 0 0 2.266M33.832 80.117a1.133 1.133 0 1 0 0-2.266 1.133 1.133 0 0 0 0 2.266M66.653 80.117a1.133 1.133 0 1 0 0-2.266 1.133 1.133 0 0 0 0 2.266M77.601 80.117a1.133 1.133 0 1 0 0-2.266 1.133 1.133 0 0 0 0 2.266M55.728 80.117a1.133 1.133 0 1 0 0-2.266 1.133 1.133 0 0 0 0 2.266M82.95 65.203a6.8 6.8 0 0 0-4.827-2.403 6.8 6.8 0 0 0-3.31 1.02 5.17 5.17 0 0 1-2.516.816 4.7 4.7 0 0 1-2.402-.816 6.8 6.8 0 0 0-3.423-1.02c-1.383 0-4.193 1.859-5.055 1.859a4.53 4.53 0 0 1-2.266-.794l-.295-.158a5.76 5.76 0 0 0-2.97-.907 6.8 6.8 0 0 0-3.309 1.02 5.26 5.26 0 0 1-2.538.816 4.83 4.83 0 0 1-2.403-.816 6.8 6.8 0 0 0-3.468-1.02c-1.383 0-4.216 1.859-5.077 1.859a4.54 4.54 0 0 1-2.267-.794 6.26 6.26 0 0 0-3.219-1.065 6.3 6.3 0 0 0-4.533 2.493 1.224 1.224 0 0 0 .272 1.7c.202.152.45.232.703.227a1.25 1.25 0 0 0 1.02-.521 3.76 3.76 0 0 1 2.606-1.519c.71.064 1.39.315 1.972.725a6.8 6.8 0 0 0 3.514 1.111 14.4 14.4 0 0 0 4.284-1.587c.29-.113.596-.181.906-.204.34-.017.68.037.998.159l.34.159.748.385a7 7 0 0 0 3.604 1.11 6.5 6.5 0 0 0 1.541-.203l3.468-1.451q.41-.132.839-.159c1.609 0 3.604 1.791 5.598 1.791a14.6 14.6 0 0 0 4.284-1.587c.29-.115.596-.184.907-.204.34-.013.679.04.997.159l.318.159.748.385a7.07 7.07 0 0 0 3.626 1.11 7.5 7.5 0 0 0 3.695-1.087 4.53 4.53 0 0 1 2.13-.726 4.13 4.13 0 0 1 2.834 1.519 1.25 1.25 0 0 0 .997.476c.28 0 .553-.096.771-.272a1.246 1.246 0 0 0 .159-1.745M49.2 46.208a6 6 0 0 1 0-1.133H28.8v2.266h20.4a6 6 0 0 1 0-1.133M62.664 45.075a9 9 0 0 1 0 1.133 9 9 0 0 1 0 1.133h20.4v-2.266z"/>
        <path fill="#fff" d="M60.352 45.075q.148.557.159 1.133a4.533 4.533 0 1 1-9.067 0q.01-.576.158-1.133H49.2a6 6 0 0 0 0 1.133 6.8 6.8 0 0 0 13.6 0 9 9 0 0 0 0-1.133zM83.177 56.612h-54.4v2.267h54.4z"/>
        <path fill="#fff" d="M62.664 28.052c-.725 0-4.035 4.375-6.347 9.565a22.1 22.1 0 0 0-2.584 9.067 2.267 2.267 0 1 0 4.534 0 20.4 20.4 0 0 1-.227-8.296 34.5 34.5 0 0 1 4.624-10.336"/>
    </g>
    <defs>
        <clipPath id="a">
            <path fill="#fff" d="M0 0h112v112H0z"/>
        </clipPath>
    </defs>
</svg>