<svg xmlns="http://www.w3.org/2000/svg" width="112" height="112" fill="none" viewBox="0 0 112 112">
    <g clip-path="url(#a)">
        <rect width="112" height="112" fill="#4B4B5E" rx="56"/>
        <path fill="#fff" stroke="#fff" stroke-miterlimit="10" d="M62.868 59.291 51.462 48.073l-.486 2.262s8.975 5.217 11.537 10.47c.841-2.505.355-1.514.355-1.514Z"/>
        <path fill="#fff" d="M38.037 35.49c6.6-1.123 7.48 5.328 10.845 5.608a6.66 6.66 0 0 0 4.413-1.383l1.645 4.805s-1.963 1.87-2.094 3.123c-.13 1.252 1.066 5.759-.748 9.161-1.814 3.404-4.356 5.816-4.992 8.321s-.131 3.403-1.44 9.162A20.8 20.8 0 0 1 41.74 83H38zM72.064 67.033c2.08-4.476 1.086-9.35-2.22-10.886s-7.672.848-9.752 5.324c-2.08 4.477-1.085 9.35 2.22 10.887 3.306 1.535 7.672-.848 9.752-5.325"/>
        <path fill="#fff" d="M73.189 49.643a85 85 0 0 0-4.095 3.74 5.07 5.07 0 0 1 4.132 1.533 8.55 8.55 0 0 1 2.15 2.824 40 40 0 0 0 5.367-7.293c7.479-10.975-2.73-18.193-14.584-16.08a41.6 41.6 0 0 0-13.481 5.61l1.72 4.936a28.8 28.8 0 0 1 11.48-6.077c8.19-1.888 16.174 3.048 7.311 10.807"/>
    </g>
    <defs>
        <clipPath id="a">
            <path fill="#fff" d="M0 0h112v112H0z"/>
        </clipPath>
    </defs>
</svg>