<svg xmlns="http://www.w3.org/2000/svg" width="112" height="112" fill="none" viewBox="0 0 112 112">
    <g clip-path="url(#a)">
        <rect width="112" height="112" fill="currentColor" rx="56"/>
        <path fill="#fff" d="M77.657 55.137c.222-.543-5.106-3.33-7.548-1.998S64.535 56 62.857 56.715l.691-2.466a3.63 3.63 0 0 0 2.467-3.306c.271-1.924-.494-3.626-1.752-3.946l-.148-2.812a13.8 13.8 0 0 1 3.355-2.59c1.135-.642 2.763-.962 4.07-1.579a9.57 9.57 0 0 0 4.588-6.093c-.395-.123-1.998 3.799-5.106 5.156-1.307.592-2.96.888-4.095 1.529a13.8 13.8 0 0 0-2.91 2.17v-1.257a3.92 3.92 0 0 0 2.072-3.182 5.1 5.1 0 0 0 0-1.628c.276-1.892.68-3.763 1.208-5.6a39 39 0 0 0 2.072-6.462 14.8 14.8 0 0 0-3.182 6.092 28.5 28.5 0 0 0-.986 4.095 1.83 1.83 0 0 0-1.012-.518 2.05 2.05 0 0 0-1.282.32c-.198-3.305-.814-11.519-1.431-11.519s-.123 6.537.148 10.336c-1.751-3.33-4.933-9.152-5.402-8.93s4.711 10.163 5.377 11.569a4.8 4.8 0 0 0-.468 1.554 3.85 3.85 0 0 0 1.208 3.7l.37 6.043q-.228.179-.419.395c-1.135-1.875-3.577-6.043-5.673-10.335-1.628-3.281-9.028-6.118-9.176-5.575s6.808 2.935 8.263 6.24c.271.617.543 1.234.839 1.85a18.5 18.5 0 0 0-3.75-1.726 15.3 15.3 0 0 0-7.104-.814c-.148.37 3.626.814 6.759 1.924a23.4 23.4 0 0 1 5.106 2.615 85 85 0 0 0 3.996 6.906c-.21.463-.35.953-.42 1.456a4.32 4.32 0 0 0 .765 3.33l-1.307 4.538a3.38 3.38 0 0 0-2.023 1.727l-3.009-1.455c0-1.209-1.209-2.862-3.28-4.021a7.15 7.15 0 0 0-4.095-1.011 27 27 0 0 0-2.64-6.759 8.66 8.66 0 0 0-4.341-3.897c-.32.148 1.85 1.726 3.28 4.292q.739 1.337 1.283 2.762a7 7 0 0 0-.74-.715 10.9 10.9 0 0 0-5.747-2.467c-.37.173 2.812 1.258 4.933 3.207a10.9 10.9 0 0 1 2.664 4.169l-.123.148a1.75 1.75 0 0 0 0 1.529 35 35 0 0 1-5.155.296c-4.144 0-8.535-.962-8.584-.567a20.9 20.9 0 0 0 8.559 1.751c1.99.06 3.98-.071 5.945-.395a8.1 8.1 0 0 0 2.466 1.949q.688.37 1.431.617l-4.366 3.552h-.641a15.3 15.3 0 0 0-3.725-1.012 10.4 10.4 0 0 0-5.476.444c0 .42 2.812.346 5.377.74q1.153.179 2.27.518a1.1 1.1 0 0 0-.247.222q-1.671.573-3.404.913c-2.91.469-6.216.493-6.117.913 2.02.587 4.154.671 6.216.246a18 18 0 0 0 3.576-.863 3.7 3.7 0 0 0 2.072.345c1.357-.148 2.467-.838 2.319-1.504s-.345-.592-.79-.765l4.07-3.404a4.4 4.4 0 0 0 1.801 0l3.626 1.8a3.95 3.95 0 0 0 .494 3.06l-2.048 4.365a3.85 3.85 0 0 0-3.231 2.171 4.1 4.1 0 0 0-.42 3.626l-1.06 1.455h-6.882a3.3 3.3 0 0 0-1.85-.789h-.469a14.6 14.6 0 0 0-3.774-.74 9.87 9.87 0 0 0-5.426 1.085c0 .395 2.812 0 5.402.198l1.677.197v.173a.8.8 0 0 0 0 .394q-1.168.33-2.27.839a13.1 13.1 0 0 0-5.105 3.577c.148.394 2.96-1.357 5.673-2.467q1.382-.596 2.837-.987.516.197 1.06.296a3.33 3.33 0 0 0 2.122-.32l5.895.172-1.16 1.554c-1.208-.246-2.663.814-3.379 2.467a5.1 5.1 0 0 0-.37 1.751q-.746.339-1.43.79c-2.146 1.233-4.12 3.379-3.947 3.7.173.32 2.467-1.53 4.588-2.886l.937-.518a1.97 1.97 0 0 0 1.061 1.356c.179.038.364.038.543 0q.005.087 0 .173c-.37 1.554-1.258 3.182-.839 3.231.42.05 1.505-1.356 1.998-2.836a3.6 3.6 0 0 0 0-.716 4.6 4.6 0 0 0 1.924-2.269c.42-.92.516-1.954.271-2.935l3.552-4.934h.444a24.1 24.1 0 0 1 1.505 6.66c0 2.072.173 3.651.444 3.676.271.024.469-1.628.592-3.774a19.3 19.3 0 0 0-1.505-7.03 4.66 4.66 0 0 0 1.554-1.678 3.95 3.95 0 0 0 .42-3.626l1.085-2.294 2.195 2.96a2.59 2.59 0 0 0 1.036 2.023 7.7 7.7 0 0 0 1.752 4.243 11.52 11.52 0 0 0 6.339 3.502c.345-.246-3.478-1.924-5.525-4.366a7.4 7.4 0 0 1-1.357-2.466c.69.296 1.307.345 1.603 0a.8.8 0 0 0 .148-.42c.666.321 1.406.691 2.146 1.135 2.467 1.53 5.082 3.65 5.279 3.28s-2.121-2.663-4.563-4.242a20 20 0 0 0-3.503-1.702 4.3 4.3 0 0 0-.567-.592 3.58 3.58 0 0 0-1.826-.888l-2.639-3.478.567-1.233a3.68 3.68 0 0 0 2.812-2.862 3.95 3.95 0 0 0-.493-3.774l.148-.542a51 51 0 0 0 4.933-2.27c1.391.264 2.726.764 3.947 1.48 2.195 1.258 4.415 3.478 4.514 3.108a11.8 11.8 0 0 0-4.144-4.168 11 11 0 0 0-2.837-1.234c.444-.271.888-.518 1.332-.814 2.467-1.578 7.178 1.505 7.474.79"/>
    </g>
    <defs>
        <clipPath id="a">
            <path fill="#fff" d="M0 0h112v112H0z"/>
        </clipPath>
    </defs>
</svg>