<svg xmlns="http://www.w3.org/2000/svg" width="112" height="112" fill="none" viewBox="0 0 112 112">
    <g clip-path="url(#a)">
        <rect width="112" height="112" fill="currentColor" rx="56"/>
        <path fill="#fff" d="M59.622 33.173c-16.126-3.029-29.64 4.822-29.64 15.7 0 9.973 5.12 12.363 10.364 12.363 0-6.696 11.586-7.644 16.975-5.625-5.016-.638-15.048-.453-15.048 6.738 0 .453 0 5.09 6.446 5.77 2.618.306 5.268.209 7.856-.29-.07.69.096 1.384.473 1.967.376.584.94 1.023 1.6 1.248q.812.272 1.658.412a34.8 34.8 0 0 0 6.218 7.026 2.54 2.54 0 0 0 1.513-.618c.348-.282.572-.69.622-1.133a9.04 9.04 0 0 1-2.384-4.842h1.617s8.996-.536 8.291-5.13c0-.124 0-.248-.104-.372a9.2 9.2 0 0 0 3.67 0c2.777-.824 3.937-3.873 4.145-7.87.31-6.903-8.167-22.315-24.272-25.344"/>
    </g>
    <defs>
        <clipPath id="a">
            <path fill="#fff" d="M0 0h112v112H0z"/>
        </clipPath>
    </defs>
</svg>