<svg xmlns="http://www.w3.org/2000/svg" width="112" height="112" fill="none" viewBox="0 0 112 112">
    <g clip-path="url(#a)">
        <rect width="112" height="112" fill="#4B4B5E" rx="56"/>
        <path stroke="#fff" stroke-linecap="round" stroke-miterlimit="10" stroke-width=".75" d="m79.328 83.631-1.64 2.81M52.518 48.237c13.933 4.157 12.966 6.742 15.73 9.708 3.619 3.888 3.394 6.382 5.754 12.495 1.213 3.146 1.73 14.382 9.91 15.101M83.845 79.99l-6.158 1.574"/>
        <path stroke="#fff" stroke-dasharray="2 2 2 2 2 2" stroke-linecap="round" stroke-linejoin="round" stroke-width="2" d="M61.215 51.518c6.899 4.652 9.146 5.034 15.438 28.473"/>
        <path stroke="#fff" stroke-linecap="round" stroke-miterlimit="10" stroke-width=".75" d="M37.034 54.147a8.25 8.25 0 0 0-3.663 3.663c-.607 1.573-.899 3.304-4.068 4.023M33.438 59.54l2.293 1.461M35.73 43.338c-3.46.629-5.82-2.764-7.28-4.832M31.528 43.023 28 44.393M46.495 37.382a17.4 17.4 0 0 0 1.393-6.472c-.18-2.809-.45-5.91-.45-5.91M48.046 31.922l4.472-4.09M47.843 29.225l-4.112-1.82M53.889 40.956c2.471-1.012 3.528-1.191 6.36-2.45 2.83-1.258 5.37-2.247 5.37-2.247M61.979 37.382l-.315-3.663M48.046 56.552s4.337 3.73 4.337 6.09a8.4 8.4 0 0 0 1.977 4.494M52.068 63.945l-5.416 2.292"/>
        <path fill="#fff" fill-rule="evenodd" d="M50.293 58.821c-3.573-3.415-10.675-4.202-15.371-3.123a13.1 13.1 0 0 0-1.82-12.855c6.318-.735 9.787-3.672 12.56-6.018a51 51 0 0 1 1.53-1.263c1.438 4.526 3.529 4.419 6.196 4.282 1-.05 2.083-.106 3.242.078-1.303 1.326-4.854 4.944-2.247 8.81-1.865.763-2.742 1.482-3.303 3.01a13.5 13.5 0 0 0-.787 7.08m-4.32-13.328a3.8 3.8 0 0 0-1.905-1.75 3.73 3.73 0 0 0-4.292 2.291c-.54 1.82.022 3.686 1.37 4.068s4.495-.09 5.17-2.045a3.8 3.8 0 0 0-.343-2.565" clip-rule="evenodd"/>
        <path stroke="#fff" stroke-linecap="round" stroke-miterlimit="10" stroke-width=".75" d="M49.619 64.979a5.12 5.12 0 0 1-1.281 5.506"/>
    </g>
    <defs>
        <clipPath id="a">
            <path fill="#fff" d="M0 0h112v112H0z"/>
        </clipPath>
    </defs>
</svg>