<svg xmlns="http://www.w3.org/2000/svg" width="112" height="112" fill="none" viewBox="0 0 112 112">
    <g clip-path="url(#a)">
        <rect width="112" height="112" fill="currentColor" rx="56"/>
        <path fill="#fff" d="M88.927 47.404c-3.174.414-5.773.598-8.073.736-6.762.46-10.856.736-16.905 6.9a25.8 25.8 0 0 1-4.6 3.749 31.8 31.8 0 0 0 2.484-6.187c.421-1.753.538-3.566.345-5.359V44.69c.69-1.104 1.656-2.599 2.691-4.117h1.104a19 19 0 0 0 9.2-2.093 1.104 1.104 0 0 0 .414-1.564 1.29 1.29 0 0 0-1.679-.368 16.35 16.35 0 0 1-7.567 1.748q.105-.165.184-.345c.943-1.771.736-5.198 2.415-5.543a1.15 1.15 0 0 0 .92-1.357 1.22 1.22 0 0 0-1.748-.851c-2.898.575-3.128 4.968-4.071 6.739a19 19 0 0 1-1.219 2.07c-.46.667-.92 1.357-1.334 2.001A68.4 68.4 0 0 0 57.9 28.567l-.138-.667a1.22 1.22 0 0 0-1.518-.759 1.13 1.13 0 0 0-.805 1.426 73.6 73.6 0 0 1 3.22 17.089 25 25 0 0 1-.161 3.818 16.97 16.97 0 0 1-9.2-12.903 1.196 1.196 0 0 0-1.265-1.081 1.173 1.173 0 0 0-1.173 1.173c-.046.437.506 9.637 11.04 15.203a21.94 21.94 0 0 1-4.807 8.648A11.7 11.7 0 0 0 51 63.619a25.3 25.3 0 0 0-1.702 7.452 41 41 0 0 1-.598 4.117 5.7 5.7 0 0 1-.69 1.748 108 108 0 0 1-3.174-12.834 31 31 0 0 1 0-3.404 12.95 12.95 0 0 0 6.9-5.543 1.08 1.08 0 0 0-.483-1.541 1.265 1.265 0 0 0-1.656.437 10.3 10.3 0 0 1-4.761 4.163c.23-3.818.713-7.613.713-7.659a1.15 1.15 0 0 0-1.058-1.265 1.22 1.22 0 0 0-1.357.989 81.3 81.3 0 0 0-.713 14.053 33 33 0 0 0 .759 3.956 11.5 11.5 0 0 1-5.727-5.451 1.29 1.29 0 0 0-1.633-.437 1.103 1.103 0 0 0-.575 1.518 14.08 14.08 0 0 0 8.579 7.176c.851 3.289 1.84 6.578 2.3 8.05-.48.342-.997.627-1.541.851a2.14 2.14 0 0 1 1.84.207c.92.483 1.863 1.725 1.495 2.3 0 .115-.161.161-.23.23a9.96 9.96 0 0 0 5.842-7.038c.322-1.633.483-2.967.621-4.232a22.6 22.6 0 0 1 1.541-6.9 7.3 7.3 0 0 1 .805-1.426 34.5 34.5 0 0 0 9.039-6.233 24.63 24.63 0 0 1 15.939 4.416c.215.151.473.232.736.23a1.22 1.22 0 0 0 .966-.46 1.058 1.058 0 0 0-.253-1.587 27.6 27.6 0 0 0-14.881-4.945 15.2 15.2 0 0 1 4.278-2.645 21.16 21.16 0 0 0 9.936 2.07 39 39 0 0 0 5.152-.368 1.15 1.15 0 0 0 1.035-1.288 1.24 1.24 0 0 0-1.38-.966 30.9 30.9 0 0 1-11.224-.46c1.518-.253 3.174-.368 5.175-.506s4.991-.345 8.257-.759a1.15 1.15 0 0 0 1.035-1.288 1.196 1.196 0 0 0-1.38-.943"/>
        <path fill="#fff" d="M47.32 82.249c-.299.391-1.38.23-2.047-.23s-.943-1.15-.644-1.564 1.127-.345 1.794 0 1.219 1.403.897 1.794"/>
    </g>
    <defs>
        <clipPath id="a">
            <path fill="#fff" d="M0 0h112v112H0z"/>
        </clipPath>
    </defs>
</svg>