<svg xmlns="http://www.w3.org/2000/svg" width="112" height="112" fill="none" viewBox="0 0 112 112">
    <g clip-path="url(#a)">
        <rect width="112" height="112" fill="currentColor" rx="56"/>
        <path fill="#fff" d="M76.805 47.608a6.82 6.82 0 0 1 1.862-4.463l5.01-5.01-1.232-1.205-2.737-2.738-5.011 4.764a6.65 6.65 0 0 1-5.23 1.862 28.59 28.59 0 0 0-26.613 0 6.7 6.7 0 0 1-4.9-1.862L32.942 34l-1.205 1.232L29 37.97l4.846 5.175a6.65 6.65 0 0 1 1.89 4.435 13.4 13.4 0 0 0-2 6.9c0 7.64 6.846 14.073 16.182 16.1a6.82 6.82 0 0 1 3.45 5.75v7.09h5.695v-7.145a6.84 6.84 0 0 1 3.532-5.75 23 23 0 0 0 2.738-.794c7.803-2.738 13.197-8.488 13.225-15.278a15.5 15.5 0 0 0-1.753-6.845"/>
    </g>
    <defs>
        <clipPath id="a">
            <path fill="#fff" d="M0 0h112v112H0z"/>
        </clipPath>
    </defs>
</svg>