<svg xmlns="http://www.w3.org/2000/svg" width="112" height="112" fill="none" viewBox="0 0 112 112">
    <g clip-path="url(#a)">
        <rect width="112" height="112" fill="currentColor" rx="56"/>
        <path fill="#fff" stroke="#fff" stroke-miterlimit="10" d="M52.996 59.118 64.502 47.8l.49 2.302s-9.054 5.262-11.638 10.562c-.811-2.546-.358-1.546-.358-1.546Z"/>
        <path fill="#fff" d="M78.667 35.39c-6.64-1.133-7.432 5.375-10.921 5.658-1.6.06-3.17-.448-4.433-1.434l-1.64 4.848s1.98 1.886 2.112 3.15-1.075 5.81.735 9.242 4.452 5.866 5.018 8.394c.566 2.527.132 3.433 1.452 9.242a20.96 20.96 0 0 0 3.961 8.79h3.773zM53.536 72.29c3.335-1.55 4.338-6.466 2.24-10.982s-6.503-6.92-9.837-5.371c-3.335 1.549-4.338 6.466-2.24 10.982s6.503 6.92 9.837 5.37"/>
        <path fill="#fff" d="M43.225 49.743c1.886 1.622 2.962 2.66 4.13 3.773a5.15 5.15 0 0 0-4.186 1.546 8.5 8.5 0 0 0-2.15 2.849 40.6 40.6 0 0 1-5.433-7.319c-7.583-11.072 2.773-18.353 14.731-16.221a45.4 45.4 0 0 1 14.166 5.979l-2.226 4.829a29.2 29.2 0 0 0-11.676-6.225c-8.242-2.018-16.278 2.961-7.356 10.79"/>
    </g>
    <defs>
        <clipPath id="a">
            <path fill="#fff" d="M0 0h112v112H0z"/>
        </clipPath>
    </defs>
</svg>