<svg xmlns="http://www.w3.org/2000/svg" width="112" height="112" fill="none" viewBox="0 0 112 112">
    <g clip-path="url(#a)">
        <rect width="112" height="112" fill="currentColor" rx="56"/>
        <path stroke="#fff" stroke-miterlimit="10" d="M42.966 64.641c1.571 0 2.845-3.821 2.845-8.535s-1.274-8.536-2.845-8.536-2.845 3.821-2.845 8.536 1.274 8.535 2.845 8.535Z"/>
        <path fill="#fff" d="M82.202 54.57a8.5 8.5 0 0 1-3.272-.94 24.1 24.1 0 0 0-44.358-10.385c-.62.91-1.305 1.776-2.048 2.59A14.57 14.57 0 0 0 28 56.104a14.48 14.48 0 0 0 4.552 10.329q1.128 1.238 2.077 2.617a24.099 24.099 0 0 0 43.362-5.89c1.466.526 2.998.842 4.552.94a17.1 17.1 0 0 0 6.516-1.565v-10.3a8.88 8.88 0 0 1-6.857 2.333M54.944 77.53h-.74a9.16 9.16 0 0 1-4.609-2.418c-1.536-2.106-1.963-8.11-4.609-7.967-1.935 0-.626 1.537-2.361 1.622-4.07.17-3.898-8.536-6.46-8.536-1.564 0-1.28 2.845-.682 5.491l-.91-1.08a11.86 11.86 0 0 1-3.899-8.536 11.9 11.9 0 0 1 3.87-8.536l1.053-1.252c-.598 2.618-.882 5.434.683 5.491 2.56 0 2.361-8.535 6.458-8.535 1.707 0 .427 1.508 2.333 1.593 2.646.142 3.073-5.69 4.61-7.967a8.7 8.7 0 0 1 4.182-2.304h1.081a21.425 21.425 0 1 1 0 42.849z"/>
    </g>
    <defs>
        <clipPath id="a">
            <path fill="#fff" d="M0 0h112v112H0z"/>
        </clipPath>
    </defs>
</svg>