<svg xmlns="http://www.w3.org/2000/svg" width="112" height="112" fill="none" viewBox="0 0 112 112">
    <g clip-path="url(#a)">
        <rect width="112" height="112" fill="currentColor" rx="56"/>
        <path fill="#fff" d="M60.2 43.136a14.66 14.66 0 0 0-11.88 11.352c-1.392 5.376 0 7.2-1.392 13.152s-8.64 3.36-10.92 6.504-1.824 6.936-5.52 5.928-6.96-15.528-5.208-22.608 4.32-10.944 11.136-14.04 23.784-.288 23.784-.288"/>
        <path fill="#fff" d="M87.2 47c0-3.528-14.856-4.536-19.752-4.536s-13.872 1.296-16.8 10.392 1.056 16.416 4.512 15.792 4.944-5.088 8.352-5.328a27.3 27.3 0 0 0 12-5.184C79.208 55.568 87.2 50.576 87.2 47"/>
    </g>
    <defs>
        <clipPath id="a">
            <path fill="#fff" d="M0 0h112v112H0z"/>
        </clipPath>
    </defs>
</svg>