<svg xmlns="http://www.w3.org/2000/svg" width="112" height="112" fill="none" viewBox="0 0 112 112">
    <g clip-path="url(#a)">
        <rect width="112" height="112" fill="currentColor" rx="56"/>
        <path fill="#fff" d="M60.36 56.1a11.2 11.2 0 0 0 1.167-4.9s3.663.863 6.043-3.757c2.823-5.483.607-11.083-5.343-14.14-10.5-5.39-19.624 7-22.354 12.274s-6.44 20.416 2.964 25.27c5.46 2.8 11.13 2.916 14-2.8a7.19 7.19 0 0 0-.957-8.727 7.56 7.56 0 0 0 4.48-3.22"/>
        <path fill="#fff" d="M62.903 54.56a8.5 8.5 0 0 1-.653 2.193 6.46 6.46 0 0 1 2.73 5.157v28.933h2.333V61.91a8.56 8.56 0 0 0-4.41-7.35"/>
    </g>
    <defs>
        <clipPath id="a">
            <path fill="#fff" d="M0 0h112v112H0z"/>
        </clipPath>
    </defs>
</svg>