<svg xmlns="http://www.w3.org/2000/svg" width="112" height="112" fill="none" viewBox="0 0 112 112">
    <g clip-path="url(#a)">
        <rect width="112" height="112" fill="currentColor" rx="56"/>
        <path fill="#fff" d="M71.364 46.574C63.454 30.409 49.83 31.79 45.58 35.167s-6.303 7.137-5.002 12.403c.813 3.233 4.534 4.92 7.645 7.178a7.14 7.14 0 0 0-1.403 3.782 13.1 13.1 0 0 1-3.741 2.643 50 50 0 0 1-5.876 1.769l1.362 3.01a39 39 0 0 0 5.53-1.77 17.7 17.7 0 0 0 4.067-2.806 7.24 7.24 0 0 0 5.043 1.525c.712 3.925.427 8.134 1.606 11.021 1.627 4.067 6.344 4.209 9.882 3.579 7.361-1.302 14.58-14.762 6.67-30.927M58.35 58.489c-.549.305-1.362.732-2.236 1.118a14 14 0 0 0-1.627-3.619 21 21 0 0 0-1.525-2.033q1.449-.724 2.969-1.281c.474.638.89 1.319 1.24 2.033a14 14 0 0 1 1.18 3.782m-4.066-7.422c-.793.305-1.891.753-2.928 1.261a13.3 13.3 0 0 0-3.6-2.318 7.5 7.5 0 0 1 6.507 1.057zm-5.185 8.134a4.07 4.07 0 0 1 .996-2.867 9.7 9.7 0 0 1 1.728 2.236c.315.615.58 1.255.793 1.912-1.992.04-3.314-.692-3.538-1.261zm7.543 2.582 1.891-.956a9.3 9.3 0 0 1-1.748 5.307c.13-1.444.076-2.9-.163-4.33z"/>
    </g>
    <defs>
        <clipPath id="a">
            <path fill="#fff" d="M0 0h112v112H0z"/>
        </clipPath>
    </defs>
</svg>