<svg xmlns="http://www.w3.org/2000/svg" width="112" height="112" fill="none" viewBox="0 0 112 112">
    <g clip-path="url(#a)">
        <rect width="112" height="112" fill="#4B4B5E" rx="56"/>
        <path stroke="#fff" stroke-linecap="round" stroke-miterlimit="10" stroke-width=".75" d="m79.427 80.89-1.452 2.487M55.7 49.565c12.33 3.68 11.475 5.967 13.921 8.592 3.203 3.441 3.004 5.649 5.092 11.059C75.787 72 76.245 81.945 83.484 82.58M83.425 77.669l-5.45 1.392"/>
        <path stroke="#fff" stroke-dasharray="2 2 2 2 2 2" stroke-linecap="round" stroke-linejoin="round" stroke-width="2" d="M63.396 52.47c6.106 4.116 8.095 4.454 13.664 25.199"/>
        <path stroke="#fff" stroke-linecap="round" stroke-miterlimit="10" stroke-width=".75" d="M41.995 54.796a7.3 7.3 0 0 0-3.241 3.242c-.537 1.392-.796 2.924-3.6 3.56M38.813 59.57l2.029 1.292M40.842 45.23c-3.063.556-5.151-2.447-6.444-4.277M37.123 44.951 34 46.164M50.369 39.959a15.4 15.4 0 0 0 1.233-5.728c-.16-2.486-.398-5.231-.398-5.231M51.741 35.126l3.958-3.62M51.562 32.74l-3.64-1.612M56.912 43.121c2.188-.895 3.123-1.054 5.629-2.168 2.506-1.113 4.753-1.989 4.753-1.989M64.072 39.959l-.278-3.242M51.741 56.924s3.839 3.302 3.839 5.39a7.4 7.4 0 0 0 1.75 3.978M55.301 63.468l-4.793 2.028"/>
        <path fill="#fff" fill-rule="evenodd" d="M53.73 58.933c-3.162-3.023-9.447-3.72-13.604-2.764a11.6 11.6 0 0 0-1.611-11.377c5.592-.651 8.663-3.25 11.116-5.327.47-.397.917-.775 1.354-1.117 1.273 4.005 3.124 3.91 5.484 3.79.886-.045 1.844-.094 2.87.068-1.154 1.174-4.296 4.376-1.99 7.797-1.65.676-2.426 1.313-2.923 2.665a11.93 11.93 0 0 0-.696 6.265m-3.823-11.796a3.36 3.36 0 0 0-1.686-1.55 3.3 3.3 0 0 0-3.8 2.03c-.477 1.61.02 3.261 1.214 3.6 1.193.337 3.978-.08 4.575-1.81a3.36 3.36 0 0 0-.303-2.27" clip-rule="evenodd"/>
        <path stroke="#fff" stroke-linecap="round" stroke-miterlimit="10" stroke-width=".75" d="M53.133 64.383A4.54 4.54 0 0 1 52 69.256"/>
    </g>
    <defs>
        <clipPath id="a">
            <path fill="#fff" d="M0 0h112v112H0z"/>
        </clipPath>
    </defs>
</svg>