<svg xmlns="http://www.w3.org/2000/svg" width="112" height="112" fill="none" viewBox="0 0 112 112">
    <g clip-path="url(#a)">
        <rect width="112" height="112" fill="#4B4B5E" rx="56"/>
        <g clip-path="url(#b)">
            <path fill="#fff" d="M77.454 31.036a10 10 0 0 0-1.514-1.498A11.5 11.5 0 0 0 68.853 27a11.29 11.29 0 0 0-8.336 3.77c-.289.338-.553.677-.817 1.04a5.2 5.2 0 0 1-3.58 1.884 5.21 5.21 0 0 1-3.772-1.885 6.8 6.8 0 0 0-.816-1.039A11.22 11.22 0 0 0 43.147 27C37.045 27 32.072 31.93 32 38.068v1.33c.456 5.461 3.556 9.884 7.207 14.935a24.85 24.85 0 0 1 3.748 10.73V85h26.066V65.063a24.85 24.85 0 0 1 3.748-10.73c3.651-5.051 6.75-9.474 7.207-14.935v-1.33c0-2.561-.913-5.075-2.547-7.032zm-11.436 3.238c1.562 0 3.075.532 4.3 1.523.337.266.649.58.913.918.144.12.265.242.36.387a28.5 28.5 0 0 0-6.462-2.828zm6.222 6.066c-1.177-.097-2.354.097-3.46.507l-.215.145a6.9 6.9 0 0 0-1.01-4.06c1.202.653 3.1 1.596 3.34 1.813.528.46.985.99 1.345 1.595m-7.615-3.77c.504.314.912.7 1.249 1.184.72.991 1.057 2.2.913 3.408a6.8 6.8 0 0 1-1.418 2.078l-.408.773-.24.484v.12a10.3 10.3 0 0 1-1.442-.773 4 4 0 0 1-.528-.338l-.216-.194c-.145-.145-.289-.29-.409-.459v-.265l.072.072a5.8 5.8 0 0 0 1.322-1.643 10.9 10.9 0 0 0 1.105-4.447M57.49 53.124a8.6 8.6 0 0 0-1.49.943l-1.225.821a1.5 1.5 0 0 0-.144-.459 4.74 4.74 0 0 0 1.85-2.416c.264-.991-.097-2.224.696-3.045.192-.194.409-.363.625-.508a6.9 6.9 0 0 0 2.138 2.417 13.5 13.5 0 0 0 3.363 1.74h.24c.457.628.793 1.329.938 2.102-1.442-.41-2.763-1.232-4.205-1.595a4.97 4.97 0 0 0-2.787 0m2.498 2.006c-.264.677-.577 1.305-.889 1.957a5.76 5.76 0 0 0-2.81-.821l.384-.242c.408-.338.84-.652 1.321-.894a3.13 3.13 0 0 1 1.994 0m-7.952-4.495c.072-.604.216-1.184.48-1.716.481-1.208 1.25-2.296 2.283-3.093a22.8 22.8 0 0 1 3.94-2.078 1.6 1.6 0 0 0 .48 0c.457 0 .913-.097 1.346-.266.216.386.48.725.792 1.039l-2.402 1.16a12.3 12.3 0 0 0-2.979 1.74c-.865.822-1.345 1.982-1.273 3.166 0 .507-.096.99-.313 1.45q-.288.435-.72.797l-.505-.652c-.456-.508-1.129-.798-1.129-1.547m.961 6.453a7.2 7.2 0 0 0-1.85 1.764l-1.057-.943c.84-1.28 1.441-2.73 1.778-4.229a5.04 5.04 0 0 1 1.129 3.407m11.027-7.516-.288.386-.144.194c-.12.12-.217.241-.313.386l-.6-.265c-.577-.29-1.13-.605-1.658-.967a7 7 0 0 1-1.297-1.088 3 3 0 0 1-.409-.556l.505-.241 3.219-1.523 1.514.75s.216.024.336 0c.048.41.192.797.384 1.16l-.096.048c-.36.58-.745 1.16-1.153 1.716M60.3 37.222c.144-.217.313-.434.48-.628a9.3 9.3 0 0 1 1.418-1.16h.505c0 1.305-.217 2.634-.649 3.867l-.264-.145-.264-.194-.433-.362a9 9 0 0 1-.793-.846h-.168l-.144-.169zM53.694 38.6a5.1 5.1 0 0 0 2.57.797c.841-.048 1.682-.29 2.403-.749a8.3 8.3 0 0 0 2.402 2.272h.144a4 4 0 0 1-1.057.75 1.45 1.45 0 0 1-1.585 0c-.36-.388-.745-.726-1.154-1.064a5.4 5.4 0 0 0-2.786-.798 3.86 3.86 0 0 0-1.826-.773zm2.666 3.553c.217.12.385.265.553.434-1.057.266-2.09.629-3.075 1.088a9 9 0 0 0-2.138 2.127l-.12-.145-.193-.314a4 4 0 0 1-.48-.822v-.145c-.12-.17-.12-.363-.12-.508v-.676c1.441-1.523 3.7-1.958 5.573-1.04m-9.994-7.758c1.946 0 3.796.822 5.093 2.272.193.217.36.459.529.7h.12c-.552.242-1.105.46-1.682.605a7.36 7.36 0 0 1-5.26-1.184c-.818-.484-1.586-1.015-2.403-1.45a6.7 6.7 0 0 1 3.603-.943m-5.165 2.296.36.169h.025l-1.466 1.523a6 6 0 0 1 1.081-1.692m-1.465 4.93v-.17l.336-.338c1.802 2.562 2.835 5.583 3.027 8.724a17.1 17.1 0 0 1-3.363-8.216m3.507.99v.218a16 16 0 0 0-2.018-3.045l1.898-1.957a15.4 15.4 0 0 0 2.403 1.305c-.505.241-.961.604-1.322 1.063-.408.773-.72 1.57-.96 2.417m2.042.363.409-1.087q.144-.472.36-.87a.5.5 0 0 1 .12-.194l.288-.29h.145c.12-.072.264-.145.408-.217h.168l.385-.145.648-.145c.264.217.553.41.865.556.649.12 1.321.193 1.994.169a7.6 7.6 0 0 0-2.258 1.837c-.529.845-.961 1.74-1.25 2.682a4.74 4.74 0 0 1-2.69 1.522c-.12-.58-.264-1.135-.409-1.691.265-.701.529-1.426.817-2.127m-.48 6.139a10 10 0 0 0 3.267-1.668 4.7 4.7 0 0 0 1.25-2.006c.023.121.071.242.12.339.168.314.36.604.552.894.216.386.529.725.889.99h.144c-.36.677-.6 1.426-.745 2.175v.315c-.144-.121-.288-.242-.456-.315a3.24 3.24 0 0 0-2.138 0c-.649.194-1.202.58-1.874.919-.264.12-.553.193-.841.266-.024-.629-.168-1.281-.168-1.91m.408 3.649c.288-.049.553-.097.817-.194.6-.241 1.201-.507 1.778-.821.36-.218.793-.315 1.201-.29.144.048.288.12.408.217l.553.58s.12.17.192.218c-.216.821-.432 1.619-.697 2.416-.048.194-.12.387-.192.58v.17l-.144.314c-.096.169-.192.338-.312.507 0 .048-.048.097-.072.145l-2.715-2.416a17 17 0 0 0-.817-1.426m2.811 8.313a29 29 0 0 0-.673-3.214l2.86 2.489c-.697.314-1.442.556-2.187.725m13.55 5.317v16.916l-10.86-.169V66.223c-.288-3.36 2.115-6.332 5.43-6.719h.048c3.364.411 5.766 3.48 5.382 6.888m2.858-5.655c-.192-.17-.384-.363-.576-.508-1.01-.773-2.09-1.426-3.267-1.909.432-.87.792-1.764 1.129-2.658.985.459 2.018.797 3.075 1.015.096.29.216.58.336.87a20.4 20.4 0 0 0-.697 3.19m3.1-8.483a13.2 13.2 0 0 0-1.346 2.417 7.44 7.44 0 0 0-1.25-3.214c.53-.701 1.058-1.426 1.538-2.175.409.362.841.676 1.298.966.264.194.552.363.84.508-.336.483-.696.99-1.08 1.498m2.114-2.996c-.505-.315-1.01-.605-1.514-.967-1.129-.773-1.85-1.788-1.129-3.19l.144-.242a2.4 2.4 0 0 1 .793-.967c.168-.145.336-.265.529-.386.84 1.063 1.705 2.32 2.546 3.48-.384.725-.84 1.474-1.37 2.272m2.234-4.133c-.649-.894-1.273-1.812-1.922-2.73a7 7 0 0 1 .96-.17 7 7 0 0 1 1.73 0 11 11 0 0 1-.768 2.9"/>
        </g>
    </g>
    <defs>
        <clipPath id="a">
            <path fill="#fff" d="M0 0h112v112H0z"/>
        </clipPath>
        <clipPath id="b">
            <path fill="#fff" d="M32 27h48v58H32z"/>
        </clipPath>
    </defs>
</svg>