<svg width="112" height="112" viewBox="0 0 112 112" fill="none"
    xmlns="http://www.w3.org/2000/svg">
    <rect width="112" height="112" rx="56" fill="#4B4B5E"/>
    <g clip-path="url(#clip0_1799_540)">
        <path fill-rule="evenodd" clip-rule="evenodd" d="M84.0973 54.3435C83.9678 50.9306 83.2176 47.5691 81.8681 44.4233C78.9793 37.5861 73.5315 32.1383 66.6943 29.2495C63.1757 27.7401 59.3872 26.9804 55.5588 27.0004C51.7304 26.9804 47.9419 27.7401 44.4233 29.2495C37.5761 32.1383 32.1383 37.5861 29.2495 44.4233C27.7401 47.9419 26.9804 51.7303 27.0004 55.5588C26.9804 59.3872 27.7401 63.1757 29.2495 66.6943C32.1383 73.5315 37.5761 78.9693 44.4133 81.8581C47.654 83.2483 51.1237 84.0025 54.6427 84.0974H56.4649C59.9839 84.0025 63.4535 83.2483 66.6943 81.8581C73.5415 78.9793 78.9793 73.5315 81.8681 66.6943C83.2176 63.5485 83.9678 60.187 84.0973 56.774V54.3435ZM60.9166 61.4164L42.3442 70.0829C42.0743 70.2128 41.7644 70.2128 41.4945 70.0829C40.9947 69.843 40.7748 69.2432 41.0147 68.7434L49.6812 50.171C49.7811 49.9511 49.9611 49.7811 50.171 49.6812L68.7434 41.0147C69.0133 40.8847 69.3232 40.8847 69.5931 41.0147C70.0929 41.2546 70.3128 41.8544 70.0729 42.3541L61.4064 60.9266C61.3064 61.1465 61.1265 61.3165 60.9166 61.4164ZM52.7799 55.5488C52.7499 57.1082 53.9894 58.3776 55.5388 58.4076H55.5488C56.3085 58.4276 57.0382 58.1277 57.578 57.588C58.0878 57.0682 58.3876 56.3785 58.3976 55.6488C58.4276 54.0894 57.1881 52.8199 55.6388 52.7899C54.0794 52.7599 52.8099 53.9994 52.7799 55.5488Z" fill="white"/>
    </g>
    <defs>
        <clipPath id="clip0_1799_540">
            <rect width="58" height="58" fill="white" transform="translate(27 27)"/>
        </clipPath>
    </defs>
</svg>
