<svg width="112" height="112" viewBox="0 0 112 112" fill="none"
    xmlns="http://www.w3.org/2000/svg">
    <rect width="112" height="112" rx="56" fill="currentColor"/>
    <g clip-path="url(#clip0_1799_560)">
        <path d="M76.06 40.04V44.39C76.06 48.39 66.98 51.63 55.78 51.63C44.58 51.63 35.5 48.39 35.5 44.39V40.04C35.5 36.04 44.58 32.8 55.78 32.8C66.98 32.8 76.06 36.04 76.06 40.04ZM71.1 52.24C72.88 51.65 74.56 50.77 76.06 49.65V58.88C76.06 62.88 66.98 66.12 55.78 66.12C44.58 66.12 35.5 62.88 35.5 58.88V49.65C37 50.77 38.68 51.65 40.46 52.24C45.41 53.84 50.58 54.62 55.78 54.53C60.98 54.61 66.15 53.84 71.1 52.24ZM35.5 64.14C37 65.26 38.68 66.14 40.46 66.73C45.41 68.33 50.58 69.11 55.78 69.02C60.98 69.1 66.15 68.33 71.1 66.73C72.88 66.14 74.56 65.26 76.06 64.14V71.92C76.06 75.92 66.98 79.16 55.78 79.16C44.58 79.16 35.5 75.92 35.5 71.92V64.14Z" fill="white"/>
    </g>
    <defs>
        <clipPath id="clip0_1799_560">
            <rect width="41" height="48" fill="white" transform="translate(35.5 32)"/>
        </clipPath>
    </defs>
</svg>
