<svg width="49" height="52" viewBox="0 0 49 52" fill="none"
    xmlns="http://www.w3.org/2000/svg">
    <g clip-path="url(#clip0_1775_43)">
        <path d="M13.6058 11.7433C13.1811 10.9958 12.4298 10.4866 11.5696 10.3783C10.3064 10.1941 9.21757 9.43578 8.61868 8.31995C7.54068 6.12078 9.06512 3.16328 12.016 1.73328C14.9669 0.303284 18.2444 0.931618 19.3224 3.13078C19.8342 4.28995 19.7689 5.62245 19.1373 6.71662C18.7018 7.45328 18.6365 8.35245 18.9631 9.14328C19.4858 10.205 20.7816 10.6491 21.8487 10.1291L26.5962 7.83245C28.8175 6.75995 31.4853 7.66995 32.5633 9.87995L34.8827 14.6033C35.4053 15.665 36.7011 16.1091 37.7682 15.5891C38.5196 15.1666 39.0205 14.4191 39.1402 13.5633C39.3253 12.3066 40.0876 11.2233 41.2091 10.6275C43.4196 9.55495 46.3922 11.0716 47.8295 14.0075C49.2669 16.9433 48.6353 20.2041 46.4249 21.2766C45.2598 21.7858 43.9204 21.7208 42.8207 21.0925C42.0802 20.6591 41.1764 20.5941 40.3815 20.9191C39.3144 21.4391 38.868 22.7283 39.3907 23.79L44.3125 33.8433C45.3905 36.0533 44.4758 38.7075 42.2544 39.78L37.5069 42.0875C36.4398 42.6075 35.144 42.1633 34.6213 41.1016C34.2947 40.3108 34.36 39.4008 34.7955 38.6641C35.4271 37.57 35.5033 36.2375 34.9807 35.0783C33.9027 32.8791 30.6251 32.2508 27.6742 33.6808C24.7233 35.1108 23.1989 38.0683 24.2769 40.2675C24.8758 41.3833 25.9756 42.1525 27.2278 42.3258C28.088 42.4341 28.8393 42.9433 29.264 43.6908C29.7867 44.7525 29.3402 46.0416 28.2731 46.5616L18.1682 51.4583C15.9469 52.5308 13.2791 51.6208 12.2011 49.4108L7.27933 39.3575C6.75667 38.2958 7.20312 37.0066 8.27023 36.4866C9.06512 36.1616 9.96888 36.2266 10.7093 36.66C11.8091 37.2883 13.1484 37.3641 14.3135 36.8441C16.524 35.7716 17.1556 32.5108 15.7182 29.575C14.2809 26.6391 11.3082 25.1225 9.09779 26.195C7.97624 26.7908 7.2031 27.885 7.02888 29.1308C6.91999 29.9758 6.40823 30.7341 5.6569 31.1566C4.58979 31.6766 3.29398 31.2325 2.77132 30.1708L0.452012 25.4475C-0.625988 23.2375 0.288662 20.5833 2.51 19.5108L12.6149 14.6141C13.682 14.0941 14.1284 12.805 13.6058 11.7433Z" fill="currentColor"/>
    </g>
    <defs>
        <clipPath id="clip0_1775_43">
            <rect width="49" height="52" fill="currentColor"/>
        </clipPath>
    </defs>
</svg>
