<svg width="41" height="48" viewBox="0 0 41 48" fill="none"
    xmlns="http://www.w3.org/2000/svg">
    <g clip-path="url(#clip0_1775_61)">
        <path d="M40.56 8.03999V12.39C40.56 16.39 31.48 19.63 20.28 19.63C9.08 19.63 0 16.39 0 12.39V8.03999C0 4.03999 9.08 0.799988 20.28 0.799988C31.48 0.799988 40.56 4.03999 40.56 8.03999ZM35.6 20.24C37.38 19.65 39.06 18.77 40.56 17.65V26.88C40.56 30.88 31.48 34.12 20.28 34.12C9.08 34.12 0 30.88 0 26.88V17.65C1.5 18.77 3.17999 19.65 4.95999 20.24C9.90999 21.84 15.08 22.62 20.28 22.53C25.48 22.61 30.65 21.84 35.6 20.24ZM0 32.14C1.5 33.26 3.17999 34.14 4.95999 34.73C9.90999 36.33 15.08 37.11 20.28 37.02C25.48 37.1 30.65 36.33 35.6 34.73C37.38 34.14 39.06 33.26 40.56 32.14V39.92C40.56 43.92 31.48 47.16 20.28 47.16C9.08 47.16 0 43.92 0 39.92V32.14Z" fill="currentColor"/>
    </g>
    <defs>
        <clipPath id="clip0_1775_61">
            <rect width="41" height="48" fill="currentColor"/>
        </clipPath>
    </defs>
</svg>
