<svg width="55" height="45" viewBox="0 0 55 45" fill="none"
    xmlns="http://www.w3.org/2000/svg">
    <g clip-path="url(#clip0_1775_79)">
        <path fill-rule="evenodd" clip-rule="evenodd" d="M47.78 33.57L43.5 1.94998C43.38 1.07998 42.27 0.539978 41.03 0.739978L35.57 1.62998C34.38 1.81998 33.52 2.63998 33.63 3.47998L37.92 35.17L47.77 33.56L47.78 33.57ZM18.03 34.79V2.28999C18.03 1.42999 17.33 0.73999 16.48 0.73999H9.17C8.31 0.73999 7.62 1.43999 7.62 2.28999V34.79H18.03ZM53.51 44.91H1C0.45 44.91 0 44.46 0 43.91C0 43.36 0.45 42.91 1 42.91H53.51C54.06 42.91 54.51 43.36 54.51 43.91C54.51 44.46 54.06 44.91 53.51 44.91ZM7.62 38.02V36.58H18.03V38.02C18.03 38.87 17.34 39.57 16.48 39.57H9.17C8.31999 39.57 7.62 38.88 7.62 38.02ZM30.99 6.94999V2.28999C30.99 1.42999 30.29 0.73999 29.44 0.73999H22.13C21.27 0.73999 20.58 1.43999 20.58 2.28999V6.94999H30.99ZM20.58 38.02V8.74997H30.99V38.02C30.99 38.87 30.3 39.57 29.44 39.57H22.13C21.28 39.57 20.58 38.88 20.58 38.02ZM38.41 38.84L38.14 36.81L47.99 35.2L48.28 37.31C48.39 38.15 47.53 38.97 46.34 39.16L40.88 40.05C39.64 40.25 38.53 39.71 38.41 38.84Z" fill="currentColor"/>
    </g>
    <defs>
        <clipPath id="clip0_1775_79">
            <rect width="55" height="45" fill="currentColor"/>
        </clipPath>
    </defs>
</svg>
