<svg xmlns="http://www.w3.org/2000/svg" width="198" height="80" fill="none" viewBox="0 0 198 80">
    <mask id="a" width="198" height="80" x="0" y="0" maskUnits="userSpaceOnUse" style="mask-type:luminance">
        <path fill="currentColor" d="M198 0H0v80h198z"/>
    </mask>
    <g fill="currentColor" mask="url(#a)">
        <path d="M36.29 0c.9.891 1.857 1.737 2.699 2.683a28.3 28.3 0 0 1 6.777 13.07c.107.498.232.992.326 1.492.095.5.16 1.007.214 1.352q.685-.51 1.31-1.095a37.06 37.06 0 0 1 15.688-9.596 1.04 1.04 0 0 1 1.078.21 48 48 0 0 1 4.176 3.715c.104.105.288.2.25.357-.044.175-.251.125-.394.151a30.97 30.97 0 0 0-15.04 7.288 30.7 30.7 0 0 0-7.644 10.13c-.052.112-.07.267-.237.291-.16-.118-.027-.24 0-.354a30.1 30.1 0 0 0 .923-10.086.82.82 0 0 0-.17-.583c-.127.133-.238.236-.338.35a37.6 37.6 0 0 0-5 7.723c-.195.508-.441.995-.735 1.453.208-1.094.476-2.181.613-3.284.296-2.079.298-4.189.005-6.268a25.8 25.8 0 0 0-1.307-5.204 23.5 23.5 0 0 0-3.573-6.255 23.9 23.9 0 0 0-7.072-5.988c-.01-.006-.011-.03-.033-.096A31 31 0 0 1 32.387.58a27 27 0 0 1 3.204-.468c.094-.007.19-.01.244-.113zM177.774 30.414v3.824c0 5.883-.009 11.766.014 17.648 0 .573-.163.689-.696.676a72 72 0 0 0-3.934 0c-.449.01-.572-.112-.569-.563.016-4.817.01-9.634.01-14.45 0-4.418.008-8.834-.012-13.251 0-.495.106-.642.622-.632 1.882.034 3.764.026 5.647 0a.87.87 0 0 1 .862.47q6.333 10.254 12.689 20.495c.113.187.24.368.45.692v-.752q0-10.14-.01-20.281c0-.478.076-.653.607-.635 1.368.045 2.738.028 4.106.007.359-.006.44.104.44.45q-.013 13.994 0 27.987c0 .338-.065.46-.433.451q-2.851-.03-5.703 0c-.357 0-.49-.18-.646-.435q-6.371-10.398-12.751-20.79-.294-.476-.59-.95l-.099.034M146.922 38.104c0-4.608.009-9.216-.013-13.823 0-.514.138-.622.633-.62q8.927.027 17.855 0c.48 0 .662.079.638.613a46 46 0 0 0 0 3.369c.012.44-.097.576-.562.573-4.259-.019-8.518 0-12.777-.026-.527 0-.613.156-.606.634a244 244 0 0 1 0 6.169c0 .43.112.537.536.535 4.031-.017 8.063 0 12.093-.021.471 0 .612.112.595.595a48 48 0 0 0 0 3.197c.012.443-.104.575-.562.573-4.012-.02-8.025 0-12.036-.023-.488 0-.634.096-.626.612q.05 3.456 0 6.912c-.008.527.154.614.636.611 4.487-.019 8.975-.005 13.462-.02.423 0 .588.073.573.547a69 69 0 0 0 0 3.597c.006.357-.104.443-.449.443q-9.469-.015-18.939 0c-.495 0-.44-.261-.439-.572v-13.88M93.276 52.545c-.8 0-1.598-.027-2.395.012a.617.617 0 0 1-.703-.478c-.755-1.905-1.543-3.797-2.296-5.703a.594.594 0 0 0-.656-.45q-5.76.021-11.52 0a.575.575 0 0 0-.639.457c-.734 1.916-1.507 3.81-2.241 5.725a.585.585 0 0 1-.659.444c-1.559-.02-3.118-.008-4.677-.009-.618 0-.621 0-.372-.576l9.14-21.04c.976-2.244 1.963-4.483 2.923-6.735a.713.713 0 0 1 .787-.534c1.124.037 2.248.032 3.364 0a.673.673 0 0 1 .747.493q5.472 12.763 10.968 25.514c.346.803.68 1.608 1.041 2.404.158.347.161.499-.299.48-.835-.03-1.672-.008-2.509-.008M77.02 41.499h8.47c.337 0 .374-.093.257-.395-.562-1.449-1.097-2.907-1.646-4.36-.848-2.244-1.699-4.485-2.605-6.873l-4.474 11.627M101.39 38.067c0-4.587.011-9.176-.013-13.763 0-.543.163-.657.666-.643 1.292.035 2.586.04 3.878 0 .514-.017.623.136.622.63q-.025 11.337-.011 22.672c0 1.014 0 1.014 1.011 1.014 3.555 0 7.11.007 10.665-.008.426 0 .592.077.576.55a70 70 0 0 0 0 3.54c0 .35-.055.5-.457.499a3353 3353 0 0 0-16.481 0c-.472 0-.459-.225-.459-.556q.009-6.966 0-13.933M124.158 38.05c0-4.608.006-9.214-.01-13.821 0-.436.091-.582.554-.57q1.995.051 3.992 0c.487-.012.634.094.633.615q-.031 11.45-.014 22.901c0 .798 0 .798.77.798 3.63 0 7.262.009 10.893-.011.449 0 .571.112.562.563a66 66 0 0 0 0 3.483c.009.409-.073.55-.523.548q-8.184-.026-16.368 0c-.413 0-.493-.128-.492-.512q.019-6.996.008-13.992M22.023 50.536a20.2 20.2 0 0 0-4.296 1.776 16.6 16.6 0 0 0-5.754 5.38 16.64 16.64 0 0 0-2.63 7.435c-.014.107.022.233-.126.338a2.5 2.5 0 0 1-.617-.698 41.6 41.6 0 0 1-3.33-4.902.98.98 0 0 1-.065-.95 22.3 22.3 0 0 1 5.762-8.45c.112-.1.213-.203.374-.356-1.212-.338-2.36-.649-3.472-1.058A29 29 0 0 1 .9 45.34a1.52 1.52 0 0 1-.704-1.196 47 47 0 0 1-.15-6.612q.014-.132.042-.263c.293.185.548.426.75.707a22.95 22.95 0 0 0 12.665 6.956c1.947.338 3.927.454 5.9.345.298-.047.602-.044.899.01-1.112.42-2.257.742-3.345 1.239a23.6 23.6 0 0 0-5.103 3.178c-.112.092-.281.225-.278.337.008.203.235.113.371.153 1.15.299 2.33.473 3.517.52q1.582.136 3.169.086c1.124-.09 2.248-.202 3.383-.248M23.425 44.689c1.21-.424 2.451-.759 3.627-1.288A23.4 23.4 0 0 0 38.59 32.46c.083-.163.103-.373.299-.467q.035.106.028.218a36.2 36.2 0 0 0-1.529 8.082c-.064.893-.01 1.794-.01 2.745.318-.283.618-.514.877-.789a29.7 29.7 0 0 0 5.437-7.747c.067-.141.08-.35.303-.371-.208 1.231-.58 2.426-.787 3.662a31.2 31.2 0 0 0 1.714 16.74c.102.162.155.35.152.541-.265-.12-.337-.398-.48-.612a22.2 22.2 0 0 0-6.566-6.399c-.123-.078-.245-.248-.4-.145-.153.102-.027.274-.007.417a34.8 34.8 0 0 0 2.321 8.602c.057.14.142.274.048.43-.237-.052-.288-.285-.408-.442a16.7 16.7 0 0 0-5.557-4.834 16.7 16.7 0 0 0-7.09-1.972c-.877-.061-1.739.094-2.608.012q.162-.111.346-.18a27.3 27.3 0 0 0 6.761-2.613 18.6 18.6 0 0 0 2.24-1.367 3 3 0 0 0-.267-.135 23.7 23.7 0 0 0-7.025-1.26c-.99-.034-1.966.15-2.954.113m10.353 1.256a26.7 26.7 0 0 1 3.792 1.82 33 33 0 0 1-.269-4.606 33.5 33.5 0 0 1-3.523 2.786M47.003 58.977c.146 0 .178.123.232.213a30.98 30.98 0 0 0 15.661 13.105c.102.04.2.093.297.139-.021.21-.182.259-.297.338a44 44 0 0 1-4.833 2.906 1.05 1.05 0 0 1-1.103-.014 36.6 36.6 0 0 1-8.136-5.814c-.151-.142-.304-.281-.512-.474-.17.901-.308 1.743-.494 2.578a22 22 0 0 1-3.206 7.436.83.83 0 0 1-.683.402c-2.33.246-4.678.267-7.012.064.779-.797 1.539-1.477 2.178-2.273a16.8 16.8 0 0 0 3.723-9.211 17.1 17.1 0 0 0-.752-6.637.78.78 0 0 1-.075-.44c.138.019.164.15.216.24a36.2 36.2 0 0 0 4.29 5.951c.533.6 1.169 1.108 1.766 1.664a22.4 22.4 0 0 0-.29-6.556c-.224-1.24-.667-2.41-.972-3.622"/>
        <path d="M44 34.136c-.224.022-.235.226-.303.371a29.7 29.7 0 0 1-5.437 7.748c-.258.27-.562.502-.876.788 0-.95-.054-1.85.01-2.744.2-2.744.71-5.456 1.524-8.084a.6.6 0 0 0-.028-.217l.06-.12c.113-.04.113-.112.072-.208l1.07-2.873a.13.13 0 0 0 .097-.146.13.13 0 0 0-.022-.058l.018-.035q.441-.689.734-1.454a37.5 37.5 0 0 1 5-7.721c.096-.113.206-.219.338-.352.129.165.19.374.17.582.264 3.39-.048 6.8-.922 10.086-.03.113-.163.237 0 .355l-.084.226c-.137.042-.129.14-.094.247L44.15 33.7c-.074.034-.097.085-.052.158l-.09.284M47.003 58.978c.306 1.212.75 2.384.973 3.621.418 2.16.515 4.37.289 6.557-.597-.556-1.236-1.065-1.766-1.664a36.2 36.2 0 0 1-4.29-5.952c-.05-.089-.077-.225-.215-.239a.15.15 0 0 1-.054-.074c.06-.085.028-.137-.06-.169a41 41 0 0 0-1.63-3.243c.027-.083.035-.156-.085-.164a.2.2 0 0 1-.055-.071c0-.045.006-.091.008-.138l-.084.014-.044-.03.006-.053c.093-.157.009-.291-.049-.43a34.9 34.9 0 0 1-2.32-8.603c-.02-.143-.151-.31.007-.417.159-.105.278.068.4.146A22.2 22.2 0 0 1 44.6 54.47c.143.213.215.491.48.612l1.923 3.898M23.425 44.688c.986.042 1.963-.143 2.953-.112a23.7 23.7 0 0 1 7.025 1.26q.137.06.267.135-1.072.761-2.24 1.365a27.3 27.3 0 0 1-6.76 2.614 1.6 1.6 0 0 0-.346.178l-2.301.404c-1.13.046-2.258.159-3.383.248a27 27 0 0 1-3.169-.087 16.5 16.5 0 0 1-3.517-.52c-.135-.035-.362.051-.371-.152 0-.112.163-.242.278-.338a23.5 23.5 0 0 1 5.104-3.177c1.087-.493 2.233-.815 3.345-1.24l3.116-.59M116.835 70.193c0-3.043.01-6.03-.01-9.014 0-.459.088-.625.581-.607 1.046.039 1.047.01 1.047 1.037 0 3.446-.008 6.892.01 10.338 0 .422-.112.486-.523.544a2.25 2.25 0 0 1-2.449-1.29c-1.713-2.693-3.552-5.305-5.345-7.947-.079-.112-.112-.283-.347-.347v.556c0 2.837-.008 5.674.009 8.51 0 .398-.094.512-.499.505-1.145-.02-1.146 0-1.146-1.162 0-3.39.006-6.778-.009-10.167 0-.423.092-.53.545-.592a2.281 2.281 0 0 1 2.492 1.31c1.679 2.69 3.501 5.295 5.27 7.927.09.133.136.313.373.4M190.021 66.506c0-1.81.012-3.618-.01-5.428 0-.403.112-.509.509-.506q3.337.03 6.675 0c.382 0 .527.078.523.495-.014 1.076.008 1.076-1.075 1.076-1.502 0-3.004.01-4.507-.007-.354 0-.501.07-.487.463.031.857.026 1.714 0 2.57-.01.352.094.451.45.451 1.54-.019 3.081 0 4.621-.017.425-.006.599.073.582.553-.036 1.013-.007 1.013-1.018 1.013-1.369 0-2.739.02-4.109-.012-.449-.01-.538.13-.524.544.03.932.023 1.866 0 2.8-.008.356.112.45.458.45 1.806-.015 3.614 0 5.42-.016.377 0 .473.103.469.473-.013 1.06 0 1.06-1.071 1.06-2.136 0-4.26-.013-6.39.012-.44 0-.534-.126-.529-.544.024-1.809.01-3.618.01-5.428M164.463 64.74c0-1.24.013-2.48-.008-3.72-.005-.355.104-.45.45-.45 1.196-.008 1.196-.023 1.196 1.18v5.885c-.01.438.037.875.139 1.3a2.78 2.78 0 0 0 3.016 2.296 2.846 2.846 0 0 0 2.712-2.735c.146-1.594.038-3.196.059-4.794.011-.894.016-1.79 0-2.685-.009-.352.102-.45.449-.45 1.195 0 1.195-.02 1.195 1.183 0 2.152.01 4.304 0 6.455a4.441 4.441 0 0 1-2.975 4.302 4.73 4.73 0 0 1-5.226-1.383 4.6 4.6 0 0 1-.999-2.91c-.015-1.162 0-2.323 0-3.485M126.195 72.789a4.93 4.93 0 0 1-3.39-1.252c-.275-.265-.389-.472.01-.74.314-.21.547-.614.878-.703.381-.104.545.42.849.62a2.995 2.995 0 0 0 3.372 0 1.6 1.6 0 0 0 .744-1.48 1.61 1.61 0 0 0-.961-1.35 15 15 0 0 0-1.867-.684c-.356-.13-.712-.264-1.057-.418a3.32 3.32 0 0 1 .259-6.157 4.92 4.92 0 0 1 4.768.543c.562.417.547.451.038.91-.254.225-.471.563-.768.663-.337.113-.484-.356-.765-.512a2.92 2.92 0 0 0-2.734-.134 1.61 1.61 0 0 0-1.001 1.477 1.59 1.59 0 0 0 .835 1.515c.534.287 1.1.509 1.686.662.379.12.754.251 1.124.384a2.98 2.98 0 0 1 2.194 2.87 3.54 3.54 0 0 1-2.012 3.32 5.1 5.1 0 0 1-2.209.47M137.414 67.297c0-1.56-.01-3.122.008-4.683 0-.361-.079-.491-.465-.48-.988.028-1.977 0-2.965.016-.296 0-.382-.079-.391-.379-.037-1.19-.048-1.19 1.114-1.19 2.547 0 5.094.01 7.643-.012.439 0 .538.12.528.54-.026 1.034 0 1.034-1.047 1.034-.723 0-1.447.032-2.166-.011-.485-.028-.637.089-.632.612.03 3.042 0 6.091.026 9.137 0 .466-.095.616-.584.6-1.066-.04-1.067-.011-1.067-1.072zM157.138 67.317c0 1.56-.012 3.122.009 4.683 0 .367-.088.479-.467.475-1.159-.01-1.159.008-1.159-1.147 0-2.893-.007-5.787.009-8.676 0-.388-.084-.528-.496-.515-.969.03-1.939 0-2.908.017-.344.008-.45-.083-.457-.444 0-1.126-.021-1.126 1.078-1.126 2.547 0 5.094.008 7.644-.008.417 0 .602.062.586.545-.032 1.024 0 1.025-1.011 1.025-.798 0-1.597.02-2.395-.009-.356-.012-.45.093-.441.443.02 1.578.009 3.155.009 4.74M182.603 67.304c0 1.541-.013 3.084.009 4.62.006.398-.056.563-.513.55-1.111-.031-1.112 0-1.112-1.136 0-2.894-.01-5.787.011-8.676 0-.428-.1-.546-.529-.53-.968.035-1.939 0-2.908.016-.284 0-.393-.066-.407-.376-.054-1.193-.066-1.193 1.124-1.193 2.547 0 5.094.011 7.643-.01.43 0 .548.113.538.539-.025 1.034 0 1.034-1.058 1.034-.779 0-1.56.023-2.338-.009-.392-.016-.47.128-.465.487.018 1.56.007 3.12.007 4.683M148.122 66.569c0 1.803-.013 3.606.01 5.416 0 .405-.112.498-.503.492-1.165-.018-1.165 0-1.165-1.142 0-3.401.009-6.803-.011-10.205 0-.458.13-.571.572-.563 1.096.027 1.097.005 1.097 1.095zM103.258 66.552c0 1.824-.009 3.65.008 5.474 0 .346-.078.45-.436.45-1.211 0-1.21.022-1.21-1.208 0-3.365.009-6.728-.012-10.093 0-.46.094-.623.584-.607 1.065.035 1.066.008 1.066 1.08z"/>
        <path d="M40.166 28.588a.133.133 0 0 1-.075.204c-.031-.089-.039-.168.075-.204M45.319 30.524c-.035-.113-.043-.205.094-.248.025.104.022.197-.094.248M39.021 31.667c.042.092.038.17-.073.208-.038-.091-.035-.168.073-.209M40.032 57.456l.084-.015c0 .046 0 .091-.008.138-.084 0-.1-.052-.075-.123M40.164 57.648c.12.007.113.082.086.165-.095-.02-.113-.079-.086-.165M41.88 61.056c.088.031.121.084.06.169-.09-.032-.083-.098-.06-.17M44.09 33.852c-.046-.073-.023-.124.051-.157a.113.113 0 0 1-.052.157"/>
    </g>
</svg>