<svg width="198" height="80" viewBox="0 0 198 80" fill="none"
    xmlns="http://www.w3.org/2000/svg">
    <mask id="mask0_1749_785" style="mask-type:luminance" maskUnits="userSpaceOnUse" x="0" y="0" width="198" height="80">
        <path d="M198 0H0V80H198V0Z" fill="white"/>
    </mask>
    <g mask="url(#mask0_1749_785)">
        <path d="M36.2909 0C37.1902 0.891268 38.1467 1.73746 38.9886 2.68282C42.359 6.36358 44.6975 10.8731 45.7663 15.7532C45.8731 16.2513 45.9979 16.7448 46.0923 17.2451C46.1867 17.7454 46.2519 18.2524 46.3059 18.5972C46.7623 18.2563 47.1998 17.8907 47.6165 17.502C51.9596 13.0344 57.3546 9.73456 63.3043 7.90648C63.4856 7.83749 63.6826 7.82056 63.873 7.85758C64.0634 7.8946 64.2397 7.98411 64.3822 8.11606C65.8452 9.27171 67.2394 10.5121 68.5579 11.831C68.6624 11.9358 68.8456 12.0304 68.8074 12.1882C68.7636 12.3628 68.5568 12.3132 68.414 12.3392C62.8297 13.343 57.6274 15.8638 53.3737 19.627C50.149 22.4322 47.5454 25.8826 45.7304 29.7566C45.6776 29.8693 45.6607 30.0237 45.4932 30.0485C45.3325 29.9301 45.4662 29.8085 45.4932 29.6935C46.3676 26.4082 46.6796 22.9979 46.416 19.6079C46.4356 19.3989 46.3745 19.1904 46.2452 19.0254C46.1193 19.1583 46.008 19.2608 45.908 19.3758C43.9314 21.7343 42.2518 24.3277 40.9073 27.0975C40.7128 27.6059 40.4669 28.0929 40.1733 28.551C40.3812 27.4569 40.6487 26.3696 40.7859 25.2665C41.0818 23.1881 41.0837 21.0783 40.7915 18.9994C40.538 17.2236 40.0999 15.4793 39.4842 13.7949C38.6212 11.5382 37.4159 9.42852 35.911 7.54028C33.9654 5.10112 31.563 3.06673 28.8388 1.55155C28.8286 1.54592 28.8275 1.52225 28.8062 1.45577C29.9815 1.09355 31.1773 0.801581 32.3873 0.581408C33.4447 0.361017 34.5145 0.204492 35.5907 0.112676C35.6851 0.105916 35.7806 0.103662 35.8346 0H36.2909Z" fill="white"/>
        <path d="M177.774 30.4136V34.2378C177.774 40.1207 177.765 46.0035 177.788 51.8863C177.788 52.4587 177.625 52.5747 177.092 52.5623C175.782 52.5229 174.469 52.5297 173.158 52.5623C172.709 52.5725 172.586 52.4497 172.589 51.999C172.605 47.1821 172.599 42.3652 172.599 37.5483C172.599 33.1314 172.607 28.7145 172.587 24.2976C172.587 23.8029 172.693 23.6564 173.209 23.6655C175.091 23.7004 176.973 23.6925 178.856 23.6655C179.03 23.6477 179.206 23.6831 179.36 23.7672C179.514 23.8512 179.639 23.9799 179.718 24.1364C183.94 30.9721 188.17 37.8037 192.407 44.6311C192.52 44.8181 192.647 44.9995 192.857 45.3229V44.5714C192.857 37.8108 192.853 31.0502 192.847 24.2897C192.847 23.8119 192.923 23.6373 193.454 23.6553C194.822 23.7004 196.192 23.6835 197.56 23.6621C197.919 23.6564 198 23.7657 198 24.1128C197.991 33.4416 197.991 42.7704 198 52.0993C198 52.4373 197.935 52.559 197.567 52.55C195.666 52.5304 193.765 52.5304 191.864 52.55C191.507 52.55 191.374 52.3697 191.218 52.115C186.971 45.1832 182.72 38.2532 178.467 31.3252C178.272 31.0074 178.074 30.6908 177.877 30.3742L177.778 30.4091" fill="white"/>
        <path d="M146.922 38.1038C146.922 33.4964 146.931 28.888 146.909 24.2806C146.909 23.7668 147.047 23.6587 147.542 23.6609C153.493 23.679 159.445 23.679 165.397 23.6609C165.877 23.6609 166.059 23.7398 166.035 24.2739C165.987 25.4006 166 26.5206 166.035 27.6429C166.047 28.0835 165.938 28.2187 165.473 28.2164C161.214 28.1973 156.955 28.2164 152.696 28.1905C152.169 28.1905 152.083 28.346 152.09 28.8237C152.116 30.8797 152.116 32.936 152.09 34.9928C152.09 35.4221 152.202 35.5302 152.626 35.528C156.657 35.5111 160.689 35.528 164.719 35.5066C165.19 35.5066 165.331 35.6192 165.314 36.1015C165.276 37.1663 165.281 38.2344 165.314 39.2992C165.326 39.742 165.21 39.8739 164.752 39.8716C160.74 39.8525 156.727 39.8716 152.716 39.8491C152.228 39.8491 152.082 39.9449 152.09 40.4609C152.123 42.7648 152.123 45.0686 152.09 47.3725C152.082 47.8998 152.244 47.9866 152.726 47.9843C157.213 47.9652 161.701 47.9787 166.188 47.964C166.611 47.964 166.776 48.0373 166.761 48.5105C166.723 49.7094 166.736 50.9094 166.761 52.1083C166.767 52.4654 166.657 52.5511 166.312 52.5511C159.999 52.5405 153.687 52.5405 147.373 52.5511C146.878 52.5511 146.933 52.2897 146.934 51.9787C146.934 47.3514 146.934 42.7246 146.934 38.0981" fill="white"/>
        <path d="M93.2759 52.5454C92.4767 52.5454 91.6776 52.5184 90.8807 52.5567C90.7249 52.582 90.5653 52.5466 90.4347 52.4578C90.3041 52.369 90.2123 52.2334 90.1782 52.079C89.4228 50.1736 88.6349 48.2818 87.8819 46.3764C87.8478 46.2332 87.7619 46.1078 87.6408 46.0246C87.5197 45.9413 87.3721 45.9061 87.2265 45.9257C83.3862 45.94 79.5458 45.94 75.7054 45.9257C75.5611 45.9071 75.415 45.9439 75.2966 46.0288C75.1782 46.1136 75.0962 46.2402 75.067 46.3832C74.333 48.2987 73.5597 50.1939 72.8257 52.1083C72.7921 52.2519 72.7054 52.3775 72.5833 52.4598C72.4611 52.5422 72.3125 52.5752 72.167 52.5522C70.608 52.5319 69.049 52.5443 67.49 52.5432C66.8718 52.5432 66.8685 52.5432 67.118 51.9674C70.1641 44.9537 73.2109 37.9404 76.2585 30.9274C77.2341 28.6829 78.221 26.444 79.1809 24.1916C79.2233 24.0211 79.3271 23.8722 79.4723 23.7736C79.6175 23.6751 79.7939 23.6337 79.9677 23.6576C81.0917 23.6947 82.2157 23.6902 83.3318 23.6576C83.4951 23.634 83.6613 23.6712 83.799 23.7621C83.9367 23.853 84.0365 23.9914 84.0793 24.1511C87.7271 32.6596 91.3831 41.1644 95.0474 49.6654C95.3925 50.4677 95.7274 51.2733 96.0882 52.0688C96.2456 52.4159 96.249 52.568 95.7892 52.5499C94.9541 52.5184 94.1167 52.5409 93.2804 52.5409M77.0205 41.4987C79.9092 41.4987 82.7001 41.4987 85.4899 41.4987C85.8271 41.4987 85.8642 41.4063 85.7473 41.1043C85.1853 39.6553 84.6503 38.1973 84.1007 36.7437C83.2532 34.5004 82.4023 32.2592 81.4963 29.8705L77.0216 41.4975" fill="white"/>
        <path d="M101.39 38.0665C101.39 33.4795 101.401 28.8913 101.377 24.3043C101.377 23.7612 101.54 23.6474 102.043 23.6609C103.335 23.6958 104.629 23.7003 105.921 23.6609C106.435 23.644 106.544 23.7973 106.543 24.2919C106.526 31.8487 106.523 39.4059 106.532 46.9634C106.532 47.9775 106.532 47.9775 107.543 47.9775C111.098 47.9775 114.653 47.9843 118.208 47.9685C118.634 47.9685 118.8 48.0463 118.784 48.5195C118.747 49.6981 118.761 50.8801 118.784 52.0598C118.784 52.4091 118.729 52.5589 118.327 52.5578C112.833 52.5443 107.339 52.5443 101.846 52.5578C101.374 52.5578 101.387 52.3325 101.387 52.0023C101.393 47.3578 101.393 42.7133 101.387 38.0688" fill="white"/>
        <path d="M124.158 38.0495C124.158 33.4422 124.164 28.836 124.148 24.2286C124.148 23.7926 124.239 23.6472 124.702 23.6596C126.032 23.6934 127.363 23.6934 128.694 23.6596C129.181 23.6472 129.328 23.7531 129.327 24.2737C129.306 31.9071 129.302 39.541 129.313 47.1751C129.313 47.9729 129.313 47.9729 130.083 47.9729C133.713 47.9729 137.345 47.9819 140.976 47.9616C141.425 47.9616 141.547 48.0743 141.538 48.525C141.505 49.6856 141.51 50.8472 141.538 52.0078C141.547 52.4168 141.465 52.5577 141.015 52.5565C135.559 52.5393 130.103 52.5393 124.647 52.5565C124.234 52.5565 124.154 52.4281 124.155 52.0439C124.168 47.3798 124.17 42.7158 124.163 38.0518" fill="white"/>
        <path d="M22.0229 50.5363C20.5276 50.9609 19.0861 51.5567 17.7269 52.3121C15.4057 53.6164 13.432 55.4618 11.9727 57.6923C10.5134 59.9229 9.61136 62.4729 9.3429 65.1267C9.32941 65.2338 9.36538 65.36 9.21701 65.4648C8.9702 65.2724 8.761 65.0359 8.59993 64.7673C7.37473 63.2147 6.26175 61.5764 5.26949 59.8648C5.17909 59.725 5.12575 59.5644 5.11454 59.3982C5.10333 59.232 5.13461 59.0656 5.20542 58.9149C6.44668 55.6884 8.41915 52.7954 10.9671 50.4642C11.0795 50.365 11.1795 50.2625 11.3414 50.1093C10.1286 49.7712 8.98097 49.4603 7.86933 49.0512C5.38877 48.1371 3.0442 46.888 0.900462 45.3386C0.696829 45.2096 0.526719 45.0339 0.404178 44.8261C0.281636 44.6182 0.21018 44.3841 0.195708 44.1431C-0.00834583 41.9453 -0.0582996 39.736 0.0462148 37.5312C0.0554388 37.4427 0.0693209 37.3547 0.0878031 37.2676C0.380673 37.4535 0.635503 37.6936 0.838642 37.9752C4.20399 41.5986 8.64511 44.0378 13.5029 44.9307C15.4501 45.2691 17.4295 45.3848 19.4028 45.2755C19.701 45.229 20.0049 45.2324 20.302 45.2856C19.1904 45.7059 18.045 46.0281 16.9569 46.525C15.1276 47.3615 13.4127 48.4293 11.8539 49.7025C11.7415 49.7949 11.5729 49.9279 11.5763 50.0405C11.5842 50.2434 11.8112 50.1532 11.9472 50.1927C13.0976 50.4918 14.2767 50.666 15.4643 50.7121C16.5178 50.8038 17.5759 50.8328 18.6328 50.7988C19.7569 50.7098 20.8809 50.5972 22.0161 50.551" fill="white"/>
        <path d="M23.4246 44.6885C24.6351 44.2648 25.876 43.9301 27.0517 43.4006C32.0542 41.2163 36.1365 37.3461 38.5908 32.4609C38.674 32.2975 38.6942 32.0879 38.8898 31.9944C38.9133 32.0643 38.9228 32.1382 38.9179 32.2118C38.1033 34.8389 37.5904 37.5505 37.3893 40.2941C37.3252 41.1865 37.3792 42.0879 37.3792 43.0389C37.6973 42.7561 37.9974 42.5251 38.2559 42.2501C40.47 39.9759 42.3057 37.3601 43.6927 34.5026C43.7602 34.3617 43.7725 34.1533 43.9962 34.1319C43.7883 35.3634 43.4151 36.5578 43.2094 37.7938C42.2358 43.4258 42.8289 49.2178 44.9235 54.5341C45.0249 54.696 45.0776 54.8838 45.0753 55.075C44.81 54.9544 44.738 54.6772 44.5942 54.4631C42.8744 51.8949 40.6381 49.7153 38.0288 48.0642C37.9063 47.9865 37.7838 47.8164 37.6298 47.9189C37.4758 48.0214 37.6017 48.1927 37.6219 48.3358C38.0244 51.2909 38.8045 54.1819 39.943 56.9375C40.0003 57.0783 40.0846 57.2124 39.9913 57.3679C39.7542 57.3161 39.7025 57.0828 39.5833 56.9262C38.1122 54.9209 36.2137 53.2695 34.026 52.092C31.8382 50.9146 29.4162 50.2407 26.936 50.1195C26.0592 50.0586 25.1971 50.2141 24.3283 50.1318C24.4358 50.0579 24.5521 49.9977 24.6745 49.9527C27.0338 49.386 29.3075 48.5069 31.4354 47.3386C32.2128 46.9364 32.9611 46.4796 33.6744 45.9718C33.5881 45.922 33.4992 45.8768 33.408 45.8366C31.1429 45.0647 28.7745 44.64 26.383 44.5769C25.3927 44.5431 24.4171 44.7279 23.4291 44.6896M33.7823 45.9459C35.0919 46.452 36.3596 47.0608 37.5736 47.7668C37.3763 46.2392 37.2866 44.6996 37.305 43.1595C36.1942 44.1661 35.0173 45.097 33.7823 45.9459Z" fill="white"/>
        <path d="M47.0027 58.9769C47.1488 58.9769 47.1814 59.0997 47.2354 59.1899C50.829 65.2063 56.349 69.8256 62.8962 72.2952C62.9985 72.3346 63.0963 72.3876 63.193 72.4338C63.1716 72.6434 63.0109 72.693 62.8962 72.7718C61.3485 73.8427 59.7342 74.8133 58.063 75.6778C57.896 75.7781 57.7045 75.83 57.5098 75.8276C57.3151 75.8252 57.1248 75.7687 56.9603 75.6642C53.996 74.1078 51.2583 72.1515 48.8236 69.8501C48.673 69.7082 48.5201 69.5685 48.3122 69.3758C48.1414 70.2772 48.0042 71.1189 47.8176 71.9538C47.2187 74.6106 46.1316 77.1324 44.612 79.3904C44.5407 79.5093 44.4407 79.6083 44.3213 79.6784C44.2019 79.7485 44.0669 79.7874 43.9286 79.7916C41.5988 80.0378 39.2509 80.0593 36.917 79.8558C37.6959 79.0592 38.4557 78.3786 39.0953 77.5831C41.2346 74.9594 42.5323 71.7484 42.818 68.3718C43.0071 66.1315 42.7515 63.8759 42.0661 61.7352C41.9985 61.5993 41.9723 61.4465 41.9908 61.2958C42.129 61.3138 42.1549 61.4456 42.2066 61.5347C43.4319 63.659 44.8694 65.6531 46.4969 67.4862C47.0297 68.0857 47.6659 68.5938 48.2627 69.1504C48.4887 66.9625 48.3914 64.7532 47.9739 62.5938C47.7491 61.3544 47.3062 60.1848 47.0005 58.9724" fill="white"/>
        <path d="M44.0006 34.1363C43.7758 34.1578 43.7646 34.3617 43.6971 34.5071C42.3102 37.3647 40.4745 39.9805 38.2603 42.2547C38.0017 42.5251 37.6983 42.7572 37.3835 43.0434C37.3835 42.0924 37.3296 41.1921 37.3937 40.2986C37.5932 37.5548 38.1046 34.8428 38.9178 32.2152C38.9227 32.1416 38.9132 32.0677 38.8897 31.9978L38.9504 31.8783C39.0628 31.8389 39.0628 31.7656 39.0224 31.6699L40.0924 28.7966C40.1129 28.791 40.1317 28.7806 40.1473 28.7662C40.1629 28.7518 40.1749 28.7339 40.1821 28.7139C40.1894 28.6939 40.1918 28.6725 40.1891 28.6514C40.1864 28.6303 40.1787 28.6102 40.1666 28.5927L40.1846 28.5578C40.4782 28.0997 40.7242 27.6126 40.9186 27.1042C42.2631 24.3344 43.9426 21.741 45.9193 19.3826C46.0148 19.2699 46.125 19.164 46.2565 19.031C46.3857 19.1961 46.4468 19.4046 46.4273 19.6135C46.6909 23.0035 46.3789 26.4138 45.5045 29.6992C45.4753 29.8119 45.3415 29.9358 45.5045 30.0541L45.4213 30.2795C45.2842 30.3223 45.2921 30.4192 45.3269 30.5273L44.1501 33.6992C44.0759 33.733 44.0534 33.7837 44.0984 33.8569L44.0085 34.1409" fill="white"/>
        <path d="M47.0027 58.9781C47.3085 60.1905 47.7524 61.3623 47.9761 62.5995C48.3937 64.7589 48.491 66.9683 48.265 69.1561C47.6681 68.5995 47.0286 68.0914 46.4992 67.4919C44.8721 65.6588 43.4349 63.6647 42.2099 61.5404C42.1582 61.4513 42.1324 61.315 41.9942 61.3015C41.9691 61.2828 41.9502 61.2568 41.9402 61.2271C42.0009 61.1415 41.9683 61.0897 41.8795 61.0581C41.3782 59.9562 40.8465 58.8688 40.2508 57.8153C40.2766 57.7319 40.2845 57.6587 40.1654 57.6508C40.1421 57.6314 40.1233 57.6072 40.1103 57.5798C40.1103 57.5347 40.1159 57.4885 40.1182 57.4423L40.0339 57.4559L39.99 57.4255L39.9956 57.3725C40.0889 57.2159 40.0046 57.0818 39.9473 56.9421C38.8089 54.1864 38.0288 51.2955 37.6262 48.3404C37.6071 48.1973 37.4756 48.0294 37.6341 47.9235C37.7926 47.8176 37.9117 47.9911 38.0331 48.0688C40.6432 49.7208 42.8799 51.9015 44.5996 54.4711C44.7435 54.684 44.8154 54.9623 45.0807 55.0829L47.0027 58.9815" fill="white"/>
        <path d="M23.4245 44.6883C24.4113 44.73 25.3881 44.5452 26.3784 44.5757C28.77 44.6387 31.1383 45.0634 33.4034 45.8354C33.4946 45.8756 33.5835 45.9208 33.6698 45.9706C32.9565 46.4781 32.2083 46.9344 31.4308 47.3362C29.3029 48.5046 27.0293 49.3836 24.6699 49.9503C24.5475 49.995 24.4312 50.0548 24.3237 50.1284L22.0228 50.5317C20.8921 50.5779 19.7647 50.6906 18.6395 50.7796C17.5826 50.8136 16.5245 50.7846 15.471 50.6929C14.2834 50.6467 13.1043 50.4725 11.9539 50.1734C11.8191 50.1385 11.592 50.2241 11.583 50.0213C11.583 49.9086 11.746 49.779 11.8606 49.6833C13.4197 48.41 15.135 47.3422 16.9648 46.5058C18.0517 46.0134 19.1982 45.6912 20.3098 45.2664L23.4256 44.6759" fill="white"/>
        <path d="M116.835 70.1928C116.835 67.1505 116.845 64.1635 116.825 61.1787C116.825 60.7201 116.913 60.5545 117.406 60.5725C118.452 60.6108 118.453 60.5815 118.453 61.6091C118.453 65.0548 118.445 68.5015 118.463 71.9471C118.463 72.3686 118.351 72.4328 117.94 72.4914C117.447 72.5793 116.939 72.5002 116.495 72.2666C116.052 72.0331 115.699 71.6583 115.491 71.2012C113.778 68.5083 111.939 65.8964 110.146 63.2542C110.067 63.1415 110.034 62.9714 109.799 62.9071V63.4626C109.799 66.2998 109.791 69.137 109.808 71.9731C109.808 72.3708 109.714 72.4846 109.309 72.4779C108.164 72.4587 108.163 72.4779 108.163 71.3162C108.163 67.9269 108.169 64.5376 108.154 61.1494C108.154 60.7257 108.246 60.6198 108.699 60.5567C109.2 60.4636 109.719 60.5421 110.17 60.7795C110.622 61.0169 110.982 61.3995 111.191 61.866C112.87 64.5579 114.692 67.1618 116.461 69.7939C116.551 69.9269 116.597 70.1071 116.834 70.1939" fill="white"/>
        <path d="M190.021 66.5059C190.021 64.6963 190.033 62.8878 190.011 61.0783C190.011 60.6749 190.123 60.569 190.52 60.5723C192.745 60.5911 194.97 60.5911 197.195 60.5723C197.577 60.5723 197.722 60.6501 197.718 61.067C197.704 62.143 197.726 62.1431 196.643 62.1431C195.141 62.1431 193.639 62.1532 192.136 62.1363C191.782 62.1363 191.635 62.2062 191.649 62.5994C191.68 63.4557 191.675 64.3132 191.649 65.1695C191.639 65.5211 191.743 65.6202 192.099 65.6202C193.639 65.6011 195.18 65.6202 196.72 65.6033C197.145 65.5966 197.319 65.6755 197.302 66.1555C197.266 67.1695 197.295 67.1695 196.284 67.1695C194.915 67.1695 193.545 67.1898 192.175 67.1571C191.726 67.147 191.637 67.2878 191.651 67.7014C191.681 68.6332 191.674 69.5673 191.651 70.5002C191.643 70.8574 191.763 70.9509 192.109 70.9509C193.915 70.9363 195.723 70.951 197.529 70.9352C197.906 70.9352 198.002 71.0377 197.998 71.4084C197.985 72.4687 197.998 72.4687 196.927 72.4687C194.791 72.4687 192.667 72.4552 190.537 72.48C190.097 72.48 190.003 72.3538 190.008 71.9357C190.032 70.1273 190.018 68.3177 190.018 66.5081" fill="white"/>
        <path d="M164.463 64.7391C164.463 63.4996 164.476 62.2602 164.455 61.0208C164.45 60.6647 164.559 60.5701 164.905 60.5701C166.101 60.5622 166.101 60.5475 166.101 61.7509C166.101 63.7122 166.101 65.6735 166.101 67.6348C166.091 68.0725 166.138 68.5096 166.24 68.9351C166.361 69.6287 166.739 70.2509 167.298 70.6768C167.858 71.1027 168.557 71.3008 169.256 71.2315C169.968 71.1998 170.642 70.901 171.144 70.3945C171.647 69.8879 171.941 69.2106 171.968 68.4968C172.114 66.9024 172.006 65.3002 172.027 63.7025C172.038 62.8078 172.043 61.912 172.027 61.0174C172.018 60.6647 172.129 60.5667 172.476 60.5667C173.671 60.5667 173.671 60.5475 173.671 61.7498C173.671 63.9019 173.681 66.054 173.671 68.205C173.692 69.1453 173.416 70.0682 172.882 70.8411C172.347 71.6141 171.582 72.1973 170.696 72.507C169.788 72.838 168.801 72.883 167.867 72.6359C166.933 72.3888 166.097 71.8614 165.47 71.1244C164.813 70.2985 164.46 69.2705 164.471 68.214C164.456 67.0523 164.471 65.8906 164.471 64.7289" fill="white"/>
        <path d="M126.195 72.7887C124.948 72.8159 123.737 72.3686 122.805 71.5369C122.53 71.2721 122.416 71.0647 122.815 70.7966C123.129 70.587 123.362 70.1825 123.693 70.0935C124.074 69.9898 124.238 70.5138 124.542 70.7143C125.039 71.0526 125.626 71.2335 126.228 71.2335C126.829 71.2335 127.416 71.0526 127.914 70.7143C128.161 70.5589 128.361 70.3389 128.492 70.0779C128.623 69.8169 128.68 69.5248 128.658 69.2334C128.636 68.942 128.534 68.6622 128.365 68.4244C128.195 68.1865 127.964 67.9996 127.697 67.8839C127.09 67.6147 126.466 67.3862 125.83 67.2C125.474 67.0704 125.118 66.9363 124.773 66.7819C124.17 66.51 123.661 66.063 123.314 65.4986C122.966 64.9343 122.795 64.2785 122.823 63.6159C122.851 62.9532 123.076 62.3142 123.47 61.7811C123.864 61.248 124.408 60.8455 125.032 60.6253C125.807 60.301 126.652 60.1807 127.486 60.2757C128.321 60.3708 129.117 60.6781 129.8 61.1684C130.362 61.5853 130.347 61.6191 129.838 62.0777C129.584 62.3031 129.367 62.6411 129.07 62.7414C128.733 62.854 128.586 62.3853 128.305 62.2287C127.895 61.9844 127.431 61.8444 126.955 61.821C126.478 61.7977 126.003 61.8916 125.571 62.0946C125.278 62.2145 125.026 62.4187 124.848 62.6815C124.67 62.9443 124.573 63.254 124.57 63.5718C124.548 63.8782 124.616 64.1842 124.764 64.4531C124.912 64.7219 125.135 64.9422 125.405 65.0873C125.939 65.3736 126.505 65.5956 127.091 65.7487C127.47 65.8693 127.845 66 128.215 66.1329C128.844 66.3043 129.399 66.6781 129.796 67.1968C130.192 67.7156 130.408 68.3504 130.409 69.0039C130.433 69.6935 130.256 70.3753 129.898 70.965C129.541 71.5546 129.019 72.0265 128.397 72.3222C127.705 72.6432 126.95 72.8042 126.188 72.7932" fill="white"/>
        <path d="M137.414 67.297C137.414 65.7364 137.404 64.1747 137.422 62.6142C137.422 62.2525 137.343 62.1229 136.957 62.1341C135.969 62.1623 134.98 62.1341 133.992 62.1499C133.696 62.1499 133.61 62.071 133.601 61.7713C133.564 60.5803 133.553 60.5803 134.715 60.5803C137.262 60.5803 139.809 60.5916 142.358 60.5691C142.797 60.5691 142.896 60.6885 142.886 61.1088C142.86 62.1432 142.886 62.1432 141.839 62.1432C141.116 62.1432 140.392 62.1747 139.673 62.1319C139.188 62.1037 139.036 62.2209 139.041 62.7437C139.071 65.786 139.041 68.835 139.067 71.8806C139.067 72.3471 138.972 72.497 138.483 72.4801C137.417 72.4417 137.416 72.4699 137.416 71.4085L137.414 67.297Z" fill="white"/>
        <path d="M157.138 67.3171C157.138 68.8777 157.126 70.4393 157.147 71.9999C157.147 72.3672 157.059 72.4788 156.68 72.4754C155.521 72.4653 155.521 72.4833 155.521 71.3284C155.521 68.4348 155.514 65.5413 155.53 62.6523C155.53 62.2636 155.446 62.1238 155.034 62.1374C154.065 62.1678 153.095 62.1374 152.126 62.1543C151.782 62.1622 151.676 62.0709 151.669 61.7103C151.669 60.5836 151.648 60.5836 152.747 60.5836C155.294 60.5836 157.841 60.5915 160.391 60.5757C160.808 60.5757 160.993 60.6376 160.977 61.121C160.945 62.1452 160.977 62.1464 159.966 62.1464C159.168 62.1464 158.369 62.1655 157.571 62.1374C157.215 62.125 157.121 62.2298 157.13 62.5802C157.15 64.1576 157.139 65.7351 157.139 67.3193" fill="white"/>
        <path d="M182.603 67.3038C182.603 68.8452 182.59 70.3877 182.612 71.9235C182.618 72.3223 182.556 72.4868 182.099 72.4733C180.988 72.4429 180.987 72.4733 180.987 71.3375C180.987 68.444 180.977 65.5505 180.998 62.6615C180.998 62.2344 180.898 62.1162 180.469 62.1319C179.501 62.1669 178.53 62.1319 177.561 62.1477C177.277 62.1477 177.168 62.0824 177.154 61.7725C177.1 60.5793 177.088 60.5792 178.278 60.5792C180.825 60.5792 183.372 60.5905 185.921 60.5691C186.351 60.5691 186.469 60.6818 186.459 61.1077C186.434 62.142 186.459 62.142 185.401 62.142C184.622 62.142 183.841 62.1646 183.063 62.133C182.671 62.1173 182.593 62.2615 182.598 62.6198C182.616 64.1804 182.605 65.7409 182.605 67.3026" fill="white"/>
        <path d="M148.122 66.569C148.122 68.3719 148.109 70.1747 148.132 71.9854C148.132 72.3899 148.02 72.4834 147.629 72.4767C146.464 72.4586 146.464 72.4767 146.464 71.3352C146.464 67.9336 146.473 64.5319 146.453 61.1302C146.453 60.6716 146.583 60.5589 147.025 60.5668C148.121 60.5938 148.122 60.5724 148.122 61.662V66.569Z" fill="white"/>
        <path d="M103.258 66.5522C103.258 68.3764 103.249 70.2017 103.266 72.026C103.266 72.3719 103.188 72.4767 102.83 72.4767C101.619 72.4767 101.62 72.4981 101.62 71.2676C101.62 67.9031 101.629 64.5398 101.608 61.1753C101.608 60.7155 101.702 60.5522 102.192 60.5679C103.257 60.6029 103.258 60.5758 103.258 61.6485V66.5522Z" fill="white"/>
        <path d="M40.1655 28.5881C40.1776 28.6056 40.1853 28.6258 40.188 28.6468C40.1907 28.6679 40.1883 28.6894 40.1811 28.7094C40.1738 28.7293 40.1619 28.7473 40.1463 28.7617C40.1306 28.7761 40.1118 28.7865 40.0913 28.7921C40.0599 28.7031 40.052 28.6242 40.1655 28.5881Z" fill="white"/>
        <path d="M45.319 30.524C45.2842 30.4113 45.2763 30.3189 45.4134 30.2761C45.4381 30.3798 45.4348 30.4733 45.319 30.524Z" fill="white"/>
        <path d="M39.0212 31.6665C39.0628 31.7589 39.0595 31.8366 38.9482 31.875C38.91 31.7837 38.9133 31.7071 39.0212 31.6665Z" fill="white"/>
        <path d="M40.0317 57.4558L40.116 57.4412C40.116 57.4874 40.116 57.5324 40.1082 57.5786C40.0239 57.5786 40.0081 57.5268 40.0329 57.4558" fill="white"/>
        <path d="M40.1642 57.6484C40.2834 57.6552 40.2767 57.7296 40.2497 57.8129C40.1553 57.7927 40.1373 57.7341 40.1642 57.6484Z" fill="white"/>
        <path d="M41.8796 61.0557C41.9684 61.0872 42.001 61.1402 41.9403 61.2247C41.8504 61.1931 41.8571 61.1266 41.8796 61.0557Z" fill="white"/>
        <path d="M44.0893 33.8523C44.0443 33.7791 44.0668 33.7284 44.141 33.6946C44.1486 33.7082 44.1533 33.7233 44.1548 33.7388C44.1563 33.7543 44.1546 33.77 44.1497 33.7849C44.1448 33.7997 44.137 33.8134 44.1266 33.825C44.1161 33.8366 44.1035 33.8459 44.0893 33.8523Z" fill="white"/>
    </g>
</svg>
