<svg xmlns="http://www.w3.org/2000/svg" width="197" height="71" fill="none" viewBox="0 0 197 71">
    <g clip-path="url(#a)">
        <mask id="b" width="197" height="71" x="0" y="0" maskUnits="userSpaceOnUse" style="mask-type:luminance">
            <path fill="#fff" d="M197 0H0v71h197z"/>
        </mask>
        <g fill="currentColor" mask="url(#b)">
            <path d="M197 49.872h-.587c-3.342 0-6.685-.008-10.028.01a.79.79 0 0 1-.812-.483q-4.447-8.1-8.912-16.189a.8.8 0 0 0-.82-.477c-2.625.017-5.25.022-7.875-.002-.52-.005-.683.12-.681.665.022 5.239.014 10.478.014 15.717v.728c-.206.012-.374.029-.544.03-3.115 0-6.23-.009-9.345.01-.457.004-.589-.111-.589-.58q.019-23.839.011-47.678v-.515c.225-.014.41-.036.594-.036 7.208 0 14.42-.017 21.631.003 6.903.02 13.057 4.251 15.241 10.484 2.511 7.168.162 15.485-7.398 19.633-.106.058-.206.127-.36.222L197 49.87m-29.703-33.011c0 1.902-.003 3.804 0 5.706 0 .875-.123.828.804.828 2.833 0 5.664.006 8.499-.002a33 33 0 0 0 2.408-.075 6.33 6.33 0 0 0 4.507-2.463 6.3 6.3 0 0 0 1.185-4.993c-.642-3.323-3.135-5.404-6.584-5.431-3.428-.028-6.856 0-10.283-.016-.458-.002-.549.17-.546.582.018 1.954.008 3.91.008 5.864M154.042 49.871h-.594c-3.325 0-6.649-.01-9.974.012a.696.696 0 0 1-.776-.564c-1.25-3.48-2.528-6.95-3.78-10.428a.66.66 0 0 0-.737-.535q-8.923.029-17.848.003a.64.64 0 0 0-.713.502c-1.259 3.497-2.539 6.986-3.795 10.484a.664.664 0 0 1-.74.538c-3.325-.02-6.65-.011-9.975-.011h-.614c.334-.865.634-1.655.943-2.441l10.32-26.225a23367 23367 0 0 0 7.719-19.646.66.66 0 0 1 .725-.498q5.04.024 10.079 0a.72.72 0 0 1 .794.545q6.432 16.389 12.887 32.767 2.95 7.497 5.894 14.994c.051.13.096.26.185.503m-24.708-36.496-.133.004-5.876 15.875h11.886zM47.152 41.16a24.6 24.6 0 0 1-5.47 5.064 25.3 25.3 0 0 1-11.833 4.485c-8.232.87-15.578-1.25-21.74-6.871a24.27 24.27 0 0 1-7.943-15.56c-.562-5.069.43-10.19 2.844-14.683A25.2 25.2 0 0 1 13.69 3.112 27.16 27.16 0 0 1 28.387.073c7.321.52 13.376 3.603 18.088 9.252.1.119.188.25.248.33l-6.618 6.589a17.2 17.2 0 0 0-4.553-4.21 15.87 15.87 0 0 0-8.293-2.607c-6.386-.147-11.426 2.356-14.658 7.912-4.663 8.013-1.749 19.443 8.043 23.088 5.97 2.222 11.603 1.166 16.726-2.523 1.291-.93 2.395-2.118 3.629-3.227zM84.342 49.831H73.977V1.072h.63q17.297 0 34.595-.01c.507 0 .691.1.684.654-.031 2.672-.013 5.343-.014 8.015 0 .688 0 .69-.676.69H85.1c-.757 0-.758 0-.758.777 0 3.842.01 7.683-.01 11.525-.003.518.121.684.667.682 6.178-.02 12.353-.013 18.53-.013.725 0 .725 0 .725.746 0 2.672-.012 5.344.011 8.015.005.495-.122.65-.636.648q-9.291-.025-18.583-.01c-.702 0-.703 0-.703.719V49.83M64.37 25.447v23.735c0 .688 0 .69-.678.69-3.028 0-6.056-.01-9.083.01-.484.003-.664-.099-.663-.626q.02-23.787.002-47.574c0-.47.123-.624.614-.62q4.62.032 9.24 0c.48-.004.577.153.576.598q-.018 11.894-.009 23.787M196.859 60.663h-40.001V71h40.001z"/>
        </g>
    </g>
    <defs>
        <clipPath id="a">
            <path fill="currentColor" d="M0 0h197v71H0z"/>
        </clipPath>
    </defs>
</svg>