<svg xmlns="http://www.w3.org/2000/svg" width="336" height="38" fill="none" viewBox="0 0 336 38">
    <g clip-path="url(#a)">
        <mask id="b" width="336" height="38" x="0" y="0" maskUnits="userSpaceOnUse" style="mask-type:luminance">
            <path fill="#fff" d="M336 0H0v38h336z"/>
        </mask>
        <g fill="currentColor" mask="url(#b)">
            <path d="M37.745 10.46c0 8.525-.026 16.868.022 25.21.009 1.63-.759 2.016-2.206 2.01q-11.682-.051-23.362 0c-1.498.007-2.161-.501-2.152-2.077.046-7.853-.025-15.707.096-23.558.011-.723 1.08-2.044 1.671-2.052 8.282-.11 16.567-.04 24.85.005.271 0 .54.224 1.08.463m-6.175 5.535c-4.731 0-9.29-.056-13.843.071a2.27 2.27 0 0 0-1.581 1.547c-.134 4.167-.12 8.341-.006 12.508a2.03 2.03 0 0 0 1.407 1.402c4.65.109 9.303.064 14.023.064zM90.47 16.821H79.31v-6.357H99.82c.345 3.32.792 6.415-2.108 9.242-3.262 3.179-6.028 6.863-9.393 10.772h12.062v6.417H78.815c-.583-3.346-.696-6.404 2.126-9.202 3.228-3.202 6.027-6.832 9.53-10.872M71.135 28.134l3.917 4.274c-5.317 6.675-15.56 7.325-21.71 1.58-6.496-6.068-6.341-14.958.366-20.907 6.1-5.413 16.24-4.583 21.157 1.88l-4.044 4.216c-5.828-3.899-10.106-4.02-13.138-.458a8.05 8.05 0 0 0 .365 10.39c3.09 3.193 7.895 2.876 13.087-.976M288.372 10.14c.992.717 2.215 1.256 2.938 2.178 4.851 6.184 9.596 12.448 15.081 18.619v-2.663c0-5.172.069-10.345-.031-15.515-.041-2.136.822-2.573 2.79-2.039V38c-1.654-1.2-2.97-1.788-3.758-2.788-4.189-5.317-8.24-10.741-12.35-16.12-.637-.834-1.332-1.624-2.564-3.118V36.96h-2.739v-26.02l.631-.802M319.753 13.157v8.722h11.878c.72 1.896.472 2.771-1.474 2.729-3.379-.073-6.76-.02-10.355-.02v9.898c4.503 0 8.868-.07 13.227.06.824.024 1.623.843 2.433 1.294-.814.429-1.618 1.211-2.443 1.229-5.275.112-10.551.06-16.029.06v-26.63c5.687 0 11.238-.06 16.783.086.571.015 1.111 1.237 2.227 2.57zM254.848 17.094c-2.938-3.16-6.484-4.913-10.921-4.104a10.76 10.76 0 0 0-5.844 3.103 10.73 10.73 0 0 0-2.916 5.933 11.2 11.2 0 0 0 .843 6.41 11.24 11.24 0 0 0 4.242 4.884c3.758 2.294 9.387 2.181 12.565-.904 1.28-1.243 1.352-3.72 2.042-5.844-2.714-.39-4.623-.624-6.498-1.017-.133-.029-.018-1.23-.018-1.996h8.398c1.635 7.347-.17 11.114-6.246 13.141-6.857 2.29-14.301-.816-17.13-7.145a13.86 13.86 0 0 1-.718-9.187 13.88 13.88 0 0 1 5.202-7.612 13.77 13.77 0 0 1 17.365 1.077c1.386 1.257 1.902 2.304-.366 3.263M266.781 24.623v9.864c4.485 0 8.927.045 13.366-.022 1.818-.027 2.683.479 1.915 2.528H263.96V10.505c5.566 0 11.216-.052 16.862.093.48.012.929 1.342 1.756 2.624h-15.745v8.728c3.36 0 6.621-.038 9.881.014 2.077.033 2.077.094 1.748 2.659zM142.991 13.245v8.543h12.047v2.824h-11.942v9.874c4.45 0 8.897.037 13.343-.018 1.715-.02 2.818.3 2.029 2.5H140.2V10.483h12.747c1.099 0 2.252-.204 3.28.066.869.229 1.592 1.007 2.379 1.543l-.48 1.153zM.053 23.609c0-3.77.107-7.545-.037-11.31-.093-2.42 1.3-2.467 3.049-2.43 1.646.034 3.17-.187 3.136 2.325a824 824 0 0 0 .006 22.92c.04 2.544-1.336 2.532-3.212 2.604-2.133.081-3.09-.466-2.987-2.8.167-3.762.045-7.539.045-11.31M134.918 32.176c-6.089 6.552-14.84 7.03-20.563 1.313-5.606-5.6-5.312-14.42.665-19.917 5.642-5.19 14.28-4.395 19.669 1.883-.752 1.715-1.559 1.766-3.013.465-4.775-4.274-11.05-4.164-15.304.11a11.226 11.226 0 0 0-.232 15.4c4.028 4.312 10.605 4.585 15.413.64 1.83-1.502 1.83-1.502 3.365.106M10.066.323c.928-.096 1.77-.255 2.613-.257C20.143.046 27.61.144 35.07 0c2.346-.045 2.862.821 2.81 2.941-.052 2.053-.21 3.275-2.869 3.203-7.061-.191-14.136-.212-21.196.005-2.97.092-4.338-.628-3.767-3.735q.09-1.047.016-2.094M179.905 34.38c.724 1.91.516 2.792-1.442 2.766-4.771-.063-9.543-.02-14.786-.02v-4.819c0-6.447.041-12.894-.026-19.34-.018-1.851.341-2.965 2.818-2.21V34.38zM184.781 10.734c2.278-.74 2.638.402 2.621 2.237-.057 5.967-.021 11.934-.021 17.9v3.615c3.974 0 7.636-.082 11.288.065.798.032 1.563.885 2.343 1.36-.735.406-1.461 1.144-2.205 1.162-4.587.108-9.177.055-14.026.055zM217.58 24.057l6.451 5.19-2.05 2.27-5.122-6.042c-2.577 2.155-4.616 3.902-6.746 5.54-.148.114-.933-.592-2.027-1.317l6.842-5.37-6.271-5.375c1.784-2.317 1.814-2.348 4.033-.204 1.131 1.092 2.131 2.317 3.325 3.631l6.302-5.935 1.896 1.887z"/>
        </g>
    </g>
    <defs>
        <clipPath id="a">
            <path fill="currentColor" d="M0 0h336v38H0z"/>
        </clipPath>
    </defs>
</svg>