<svg xmlns="http://www.w3.org/2000/svg" width="159" height="33" fill="none" viewBox="0 0 159 33">
    <g clip-path="url(#a)">
        <mask id="b" width="274" height="33" x="0" y="0" maskUnits="userSpaceOnUse" style="mask-type:luminance">
            <path fill="currentColor" d="M274 0H0v33h274z"/>
        </mask>
        <g fill="currentColor" mask="url(#b)">
            <path d="M84.445 10.97c-2.897.229-5.599.893-5.215-3.228.136-1.462-1.053-2.17-2.67-2.115-2.524.13-5.055.124-7.579-.02-2.695-.203-3.427 1.114-3.537 3.413-.247 5.163-.114 10.317.096 15.476.095 2.31 1 3.591 3.647 3.346 1.96-.182 3.954-.031 5.931-.037 3.48-.012 5.931-3.718 4.18-6.61-.93-1.538-2.814-.425-4.245-.656-1.289-.207-2.978.524-2.926-1.873.036-1.703.073-2.966 2.394-2.698 1.535.1 3.075.11 4.612.034 5.816 0 5.829 0 5.733 5.82a35 35 0 0 1-.264 4.181c-.642 4.608-2.676 6.317-7.42 6.329-3.296 0-6.594.014-9.89 0-4.222-.022-6.302-1.6-6.92-5.72a63.7 63.7 0 0 1 .161-19.589c.678-4.24 2.575-5.601 6.99-5.653 3.405-.04 6.815-.06 10.215.01 4.53.095 6.295 1.957 6.21 6.394a6.4 6.4 0 0 0 .497 3.204M113.039 16.968c0-4.404.055-8.807-.028-13.209-.032-1.678.305-2.493 2.313-2.44 5.704.129 11.413.112 17.118 0 1.83-.036 2.116.706 2.194 2.265.091 1.85-.755 2.118-2.339 2.087-3.949-.076-7.905.081-11.85-.067-2.081-.078-2.549.655-2.525 2.578.072 5.893-.01 5.894 6.134 5.894 1.647 0 3.298.083 4.937-.023 1.76-.112 2.772.037 2.775 2.298 0 2.383-1.266 2.248-2.897 2.222-2.962-.048-5.926.044-8.887-.037-1.441-.04-1.804.478-1.886 1.855-.446 7.414-.49 7.412 7.042 7.412 2.415 0 4.835.103 7.241-.033 1.84-.104 2.439.457 2.462 2.322.016 1.901-.669 2.304-2.454 2.273a500 500 0 0 0-17.447 0c-1.797.035-2.213-.566-2.176-2.198.097-4.402.033-8.805.033-13.208h.235M158.68 8.686c-2.389 3.474-4.556 6.84-6.969 10.026-.944 1.246-1.102 1.777.012 3.13 2.592 3.153 4.786 6.622 7.166 10.01-5.031 1.09-5.303.988-8.046-2.929-1.163-1.66-2.322-3.323-3.416-4.891-3.875 2.823-3.824 10.143-11.452 8.016 2.192-3.204 4.25-6.419 6.544-9.467 1.341-1.784 1.593-3.119.041-4.997-2.255-2.728-4.132-5.753-6.198-8.696 4.792-1.293 6.109-.763 9.27 5.115 1.517 2.821 2.369 2.91 3.874.232.471-.84 1.267-1.525 1.668-2.381 1.435-3.084 3.725-4.282 7.5-3.176M100.472 19.203c0 3.662-.171 7.323.06 10.971.152 2.495-1.337 2.1-2.873 2.185-1.657.093-2.574-.078-2.526-2.157.166-7.313.02-14.633.187-21.946.05-2.152-.596-2.853-2.736-2.641-1.633.161-3.3-.046-4.944.053-1.587.096-2.383-.213-2.37-2.063.012-1.88.704-2.308 2.497-2.288q10.063.135 20.126 0c1.799-.026 2.465.403 2.474 2.288.01 1.831-.745 2.065-2.338 2.09-2.484.036-5.869-1.142-7.203.535-1.235 1.553-.375 4.713-.407 7.17-.026 1.937 0 3.874 0 5.81zM46.474 1.518c4.144 1.048 5.612 2.64 5.69 6.56.119 6.012.235 12.036-.026 18.04-.245 5.632-4.447 6.665-8.996 6.667-1.81 0-1.254-.98-.623-1.868 1.856-2.254 3.018-4.999 3.343-7.901a15 15 0 0 0-2.619-9.765 2.518 2.518 0 0 1 .378-3.885 8.82 8.82 0 0 0 2.853-7.848"/>
            <path d="M25.316 23.743c4.922-6.592 11.4-3.881 17.12-4.359 1.542-.128 1.474 1.398 1.61 2.356a1.573 1.573 0 0 1-1.588 1.984c-5.53.035-11.059.015-17.142.015M41.694 25.72c-1.388 2.648-2.702 4.204-5.687 4.001-3.935-.268-7.901-.1-11.853-.152-.935-.014-2.287.286-2.426-1.007-.152-1.42 1.023-1.847 2.331-2.136 5.724-1.258 11.478-.373 17.635-.702M32.814 1.303c3.592 0 6.768-.041 9.94.03.73.017 2.029-.567 2.064.763a2.58 2.58 0 0 1-1.595 2.278c-2.758 1.265-8.233-.206-10.409-3.079M41.746 17.189a23.9 23.9 0 0 1-7.123-.207c3.483-4.135 4.083-4.138 7.123.207M26.255 32.407c3.005-1.096 6.078-.641 9.159-.295-2.976 1.192-6.078.667-9.159.295"/>
            <path d="M34.844 9.685c-3.149-2.584-4.855-6.629-8.865-8.318l-13.384-.041c-1.841 0-3.68-.026-5.52-.015C1.92 1.34-.078 3.459.236 8.535l.183 1.4.037 1.47a1.33 1.33 0 0 0-.208 1.373l-.051 4.03a3.4 3.4 0 0 0 .234 2.384c-.059.05-.176.125-.167.153q.1.188.22.36a28.4 28.4 0 0 0-.18 9.405 3.3 3.3 0 0 0 1.79 1.948c3.125 2.818 6.96 1.533 10.533 1.75 6.168.491 6.17.491 5.988-5.426-.01-.314-.044-.628-.067-.944s-.055-.61-.083-.915a3.93 3.93 0 0 0 1.148-2.364l5.064-4.984c3.136-2.152 6.282-4.29 9.4-6.468.683-.478 1.76-1.2.762-2.015m-15.817.651c-1.067 0-2.142-.053-3.21-.029 1.068-.023 2.135.029 3.21.029m4.318-.012"/>
        </g>
    </g>
    <defs>
        <clipPath id="a">
            <path fill="currentColor" d="M0 0h159v33H0z"/>
        </clipPath>
    </defs>
</svg>