<svg xmlns="http://www.w3.org/2000/svg" width="110" height="47" fill="none" viewBox="0 0 110 47">
    <g clip-path="url(#a)">
        <mask id="b" width="111" height="48" x="0" y="-1" maskUnits="userSpaceOnUse" style="mask-type:luminance">
            <path fill="currentColor" d="M110.03-.058H.03v47h110z"/>
        </mask>
        <g mask="url(#b)">
            <path fill="currentColor" fill-rule="evenodd" d="M34.844 3.71c.4 0 .6.5.6 1.6v17.6l6-17.7q.45-1.5.9-1.5h2.6c.2 0 .4.2.4.5s-.1.6-.2 1l-6.1 17.4c-.1.5-.1.7-.1.8 0 .2 0 .4.1.6l6.5 17.2c.2.4.2.7.3 1.1 0 .3-.1.5-.3.5h-2.5c-.2 0-.4-.1-.5-.3-.2-.4-.4-.7-.5-1.2l-6.7-17.3v17.3q0 1.5-.6 1.5h-2.4c-.4 0-.5-.5-.5-1.6V5.31c0-1.1.2-1.6.5-1.6zm20.3 0h1.4c.4 0 .9.1 1.3.2s.9.2 1.3.4.8.4 1.1.7c.4.3.8.7 1 1.1.3.5.6 1 .8 1.6.3.7.5 1.4.7 2.2.2.9.3 1.9.4 2.8.1 1.1.2 2.3.2 3.5 0 1.4-.1 2.8-.2 4.2q-.15 1.8-.6 3.3c-.2.8-.5 1.5-.9 2.2q-.45.75-1.2 1.5c-.4.4-.9.7-1.4.8-.5.2-1 .3-1.5.4-.6.1-1.1.1-1.7.1h-3.4c-.1 0-.2.2-.2.5v12.3c0 .9-.2 1.3-.6 1.3h-2.5c-.4 0-.5-.4-.5-1.3V5.01c0-.3 0-.7.1-1 .2-.2.4-.3.5-.3zm16.2 0c.5 0 .8.5.9 1.4l4.2 27.5c0 .1.1.1.1.1s.1 0 .1-.1l4.2-27.4q.3-1.5.9-1.5h2.8c.3 0 .5.5.5 1.6l1 35.9v.2c0 .9-.2 1.4-.5 1.4h-1.8c-.4 0-.5-.5-.6-1.6l-.7-29.8c0-.1-.1-.1-.1-.1l-4.4 30c-.1 1-.4 1.4-.8 1.4h-1.2c-.4 0-.6-.5-.8-1.5l-4.3-29.6c0-.1 0-.1-.1 0v.1l-.7 29.5c0 1.1-.2 1.6-.5 1.6h-1.9c-.3 0-.5-.5-.5-1.4v-.2l1-35.9c0-1.1.2-1.6.5-1.6zm26 0h1.4c.4 0 .9.1 1.3.2s.9.2 1.3.4.8.4 1.1.7c.4.3.8.7 1 1.1.3.5.6 1 .8 1.6.3.7.5 1.4.7 2.2.2.9.3 1.9.4 2.8.1 1.1.2 2.3.2 3.5 0 1.4-.1 2.8-.2 4.2-.1 1.1-.3 2.1-.6 3.2-.2.8-.5 1.5-.9 2.2q-.45.75-1.2 1.5c-.4.4-.9.7-1.4.8-.5.2-1 .3-1.5.4-.6.2-1.2.2-1.7.2h-3.4c-.1 0-.2.2-.2.5v12.3c0 .9-.2 1.3-.6 1.3h-2.5c-.4 0-.5-.4-.5-1.3V5.01c0-.3 0-.7.1-1 .2-.2.3-.3.5-.3zm-42.3 3.5h-2.5c-.1 0-.2.2-.2.5v17.1c0 .3.1.4.2.4h3c.6 0 1.1 0 1.7-.2.4-.1.9-.4 1.2-.7.4-.4.7-.9.8-1.5.2-.8.4-1.7.5-2.6.1-1.3.2-2.6.2-3.9 0-1.4-.1-2.9-.3-4.3q-.15-1.35-.6-2.7c-.2-.6-.6-1.1-1.1-1.4-.4-.3-.8-.5-1.3-.6-.6-.1-1.1-.1-1.6-.1m42.1 0h-2.5c-.1 0-.2.2-.2.5v17.1c0 .3.1.4.2.4h3c.6 0 1.1 0 1.7-.2.4-.1.9-.4 1.2-.7.4-.4.7-.9.8-1.5.2-.8.4-1.7.5-2.6.1-1.3.2-2.6.2-3.9 0-1.4-.1-2.9-.3-4.3q-.15-1.35-.6-2.7c-.2-.6-.6-1.1-1.1-1.4-.4-.3-.8-.5-1.3-.6s-1-.1-1.6-.1" clip-rule="evenodd"/>
            <path stroke="currentColor" stroke-width="2" d="M2.811 24.975c0-4.4 1.1-12.2 5.5-17.1 1.8-2 7.2-6.1 12.5-3.4 8.5 4.3 6.1 11.7 2.5 15.6-2.1 2.3-3.4 5.2-1.2 8.4s5.2 9.1-1.2 12.7c-5.2 2.9-10.3.7-12.1-1.3-3.7-4.1-5.9-9.4-6-14.9Z"/>
            <path stroke="currentColor" stroke-width="2" d="M21.011 25.375c-1.3-.2-4.5-.4-9.1-1.2-3.1-.6-6.1-1.4-9.1-2.3m19 6.2c-1 .8-2.3 1.4-3.5 1.8-6.1 2.2-12.1 1.3-14.8 0m1.4-16.4c3.2 0 6.4.8 9.4 2.2 4.3 2.1 6.5 4.3 7.5 6.4m-11.2-16.1c3.2.5 6.2 1.9 8.7 4.1 3.3 3.1 5 5.5 5.6 8m-.9 14.1c-.9 1.4-2.2 2.6-3.7 3.4-5.3 2.9-10.7 2.6-13.8 1.3m15.8 3.3c-4.5-5.1-5.4-10.7-5.2-16 .2-5.4 4.3-10.9 8.4-15.7m-7.7 33.9c-4.4-6.1-6.2-12.5-6.2-17.8.1-4.9 3.7-13.1 10.2-19.4m-4.2-1.6c-8.1 5.9-11.6 14.3-11.6 21.4 0 5.1 2.5 11.2 6.9 17.3"/>
        </g>
    </g>
    <defs>
        <clipPath id="a">
            <path fill="currentColor" d="M0 0h110v47H0z"/>
        </clipPath>
    </defs>
</svg>