<svg xmlns="http://www.w3.org/2000/svg" width="88" height="53" fill="none" viewBox="0 0 88 53">
    <g fill="currentColor" clip-path="url(#a)">
        <path d="M35.8 46.3H16.3c-2.6 0-4.1-1.4-4.1-4V10.7c0-2.5 1.5-4 4-4h39.3c.7 0 1.1.2 1.5.8 3.3 6.1 6.7 12.1 10.1 18.2.3.6.3 1 0 1.6L56.9 45.6c-.3.6-.6.8-1.3.8-6.5-.1-13.1-.1-19.8-.1M21.6 22.9c.1 0 .1-.1.2-.1.2.3.3.5.5.8 2.1 3.3 4.2 6.6 6.1 9.9.9 1.5 1.8 2.2 3.6 2 .9-.1 1.2-.3 1.2-1.2V19.5c0-2.3.3-1.9-2-2-.9 0-1.2.3-1.2 1.2v11.5c-.4-.3-.6-.5-.8-.8C27 26 25 22.7 23 19.5c-1.2-2-1.2-1.9-3.5-1.9-.8 0-1 .3-1 1v15.9c0 .3 0 .6.1 1h1.1c2 0 2 0 2-1.9-.1-3.6-.1-7.1-.1-10.7m20.7 12.6h2.2c.8.1 1-.2 1-1v-6.1c0-.7.2-.9.9-.9h6.2c.6 0 .8.2.8.8v4.9c0 2.3 0 2.3 2.3 2.3.9 0 1.1-.3 1-1.1v-15c0-2.1.4-1.9-1.9-1.9-1.4 0-1.4 0-1.4 1.4v5.7h-6.9c-.8 0-1.1-.2-1-1 .1-1.8 0-3.5 0-5.3 0-.3-.3-.8-.5-.8-.9-.1-1.7 0-2.7 0zm-3-9v-6.8c0-2.5.3-2.1-2.1-2.2-1.2 0-1.2 0-1.2 1.3v14.3c0 2.4 0 2.4 2.4 2.4.8 0 1-.3 1-1-.1-2.7-.1-5.3-.1-8"/>
        <path d="M59.5 46.3c1.1-1.9 2.1-3.7 3-5.5 2.5-4.6 5.1-9.1 7.6-13.6.3-.6.2-1-.1-1.5-3.3-5.9-6.6-11.9-9.9-17.9-.2-.3-.3-.7-.5-1 3.1-.6 5.5.3 6.9 2.9 2.9 5.4 5.9 10.7 8.9 16 .3.5.3.9 0 1.4-3.1 5.5-6.2 11.1-9.3 16.6-.9 1.7-2.5 2.5-4.3 2.5-.6.1-1.4.1-2.3.1"/>
    </g>
    <defs>
        <clipPath id="a">
            <path fill="currentColor" d="M0 0h88v53H0z"/>
        </clipPath>
    </defs>
</svg>