<svg width="215" height="73" viewBox="0 0 215 73" fill="none"
    xmlns="http://www.w3.org/2000/svg">
    <g clip-path="url(#clip0_1749_822)">
        <path d="M95.851 31.061C95.83 30.739 95.7337 30.4264 95.5697 30.1485C95.4057 29.8706 95.1787 29.6351 94.907 29.461C94.3942 29.0535 93.756 28.8361 93.101 28.846C91.952 28.846 90.639 29.093 90.639 30.488C90.639 31.103 91.131 31.388 91.583 31.596C92.937 32.17 96.015 32.335 98.724 33.238C101.433 34.1 103.813 35.7 103.813 39.189C103.813 45.099 98.149 46.699 92.978 46.699C87.971 46.699 82.472 44.688 82.349 39.189H90.106C90.1284 39.5552 90.2278 39.9126 90.3975 40.2379C90.5672 40.5632 90.8035 40.8491 91.091 41.077C91.723 41.5274 92.4917 41.7448 93.266 41.692C94.333 41.692 96.015 41.282 96.015 40.05C96.015 38.818 95.315 38.45 91.542 37.793C85.342 36.726 82.842 34.756 82.842 31.103C82.842 25.727 88.628 24.332 92.897 24.332C97.497 24.332 103.034 25.604 103.239 31.062H95.852L95.851 31.061Z" fill="white"/>
        <path d="M125.477 41.4031C125.341 43.0518 125.683 44.7047 126.462 46.1641H118.172C117.956 45.5164 117.859 44.8352 117.885 44.1531H117.803C116.08 46.1231 113.576 46.6971 110.95 46.6971C106.85 46.6971 103.44 44.7281 103.44 40.2541C103.44 33.5231 111.32 33.7701 115.464 32.9901C116.572 32.7901 117.68 32.4571 117.68 31.1021C117.68 29.6661 116.326 29.1321 115.012 29.1321C112.512 29.1321 112.012 30.4041 111.975 31.3071H104.424C104.67 25.3151 110.334 24.3301 115.382 24.3301C125.56 24.3301 125.482 28.5571 125.482 32.6611V41.4031H125.477ZM117.677 36.6031C116.656 37.0732 115.581 37.4177 114.477 37.6291C112.672 38.0391 111.727 38.4911 111.727 39.9291C111.819 40.5205 112.134 41.0543 112.607 41.4207C113.08 41.7871 113.676 41.9583 114.271 41.8991C114.718 41.9244 115.165 41.8565 115.585 41.6995C116.004 41.5425 116.386 41.3 116.706 40.9873C117.027 40.6746 117.278 40.2987 117.446 39.8834C117.613 39.4681 117.692 39.0225 117.677 38.5751V36.6051V36.6031Z" fill="white"/>
        <path d="M127.317 24.8641H135.156V27.5731H135.238C136.756 25.4391 138.931 24.3311 142.174 24.3311C145.991 24.3311 149.474 26.6701 149.474 31.5541V46.1641H141.348V35.0011C141.348 32.5391 141.061 30.8151 138.68 30.8151C137.28 30.8151 135.438 31.5151 135.438 34.9151V46.16H127.312V24.8601L127.317 24.8641Z" fill="white"/>
        <path d="M173.19 43.4131C173.19 47.6401 172.082 53.5911 162.109 53.5911C157.061 53.5911 151.726 52.2361 150.987 46.4911H159.031C159.161 46.7497 159.312 46.9969 159.483 47.2301C159.729 47.6592 160.072 48.0242 160.486 48.2951C160.9 48.5661 161.371 48.7353 161.863 48.7891C164.49 48.7891 165.063 45.6711 165.063 43.9061V41.9361H164.981C164.354 42.8664 163.504 43.6245 162.508 44.1408C161.512 44.6571 160.402 44.9151 159.281 44.8911C153.002 44.8911 150.17 40.2131 150.17 34.5081C150.17 28.9681 153.33 24.3301 159.404 24.3301C161.784 24.3301 164.041 25.2741 164.985 27.4491H165.067V24.8631H173.193L173.19 43.4131ZM161.945 39.6781C164.945 39.6781 165.269 36.8061 165.269 34.4251C165.269 32.0861 164.12 30.2391 161.74 30.2391C159.44 30.2391 158.293 32.2091 158.293 34.4661C158.293 36.8881 159.031 39.6781 161.945 39.6781Z" fill="white"/>
        <path d="M181.69 37.3411C181.895 39.7621 183.29 41.4861 185.835 41.4861C186.483 41.5228 187.13 41.4041 187.722 41.1401C188.315 40.876 188.835 40.4742 189.241 39.9681H196.833C195.191 44.5681 190.718 46.6991 185.876 46.6991C179.063 46.6991 173.933 42.6771 173.933 35.5771C173.89 34.0887 174.152 32.6072 174.701 31.2235C175.251 29.8397 176.078 28.5829 177.131 27.53C178.184 26.4771 179.441 25.6504 180.824 25.1005C182.208 24.5506 183.69 24.2891 185.178 24.3321C193.632 24.3321 197.285 29.0521 197.285 37.3411H181.69ZM189.49 33.1141C189.5 32.6426 189.414 32.1741 189.238 31.7367C189.062 31.2993 188.799 30.9019 188.466 30.5685C188.132 30.2351 187.735 29.9724 187.297 29.7964C186.86 29.6204 186.391 29.5345 185.92 29.5441C185.41 29.4986 184.896 29.5553 184.408 29.7108C183.919 29.8664 183.467 30.1178 183.077 30.4502C182.688 30.7826 182.368 31.1894 182.137 31.6468C181.907 32.1042 181.77 32.603 181.734 33.1141H189.49Z" fill="white"/>
        <path d="M198.102 24.8641H205.902V28.2701H205.984C207.297 25.7261 209.021 24.3311 211.976 24.3311C212.78 24.3366 213.58 24.4469 214.356 24.659V31.841C213.335 31.4525 212.247 31.2714 211.156 31.3081C207.956 31.3081 206.231 33.1961 206.231 37.7511V46.1641H198.105L198.102 24.8641Z" fill="white"/>
        <path d="M87.123 52.8971H84.172V50.8251H87.123V52.8971ZM84.172 53.7311H87.123V61.4661H84.172V53.7311Z" fill="white"/>
        <path d="M87.84 53.731H90.687V54.715H90.7169C91.0003 54.3189 91.381 54.0024 91.8222 53.7961C92.2634 53.5898 92.7503 53.5005 93.236 53.537C93.5879 53.5134 93.9408 53.5648 94.2714 53.6878C94.602 53.8109 94.9026 54.0028 95.1535 54.2508C95.4043 54.4987 95.5996 54.7972 95.7264 55.1264C95.8532 55.4555 95.9086 55.8078 95.8889 56.16V61.466H92.938V57.412C92.938 56.518 92.838 55.892 91.969 55.892C91.462 55.892 90.791 56.145 90.791 57.383V61.466H87.84V53.731Z" fill="white"/>
        <path d="M101.064 55.9821C101.057 55.8651 101.022 55.7515 100.962 55.6506C100.902 55.5497 100.82 55.4642 100.721 55.4011C100.535 55.2525 100.303 55.1733 100.065 55.1771C99.647 55.1771 99.1711 55.2671 99.1711 55.7771C99.1711 56.0011 99.35 56.1051 99.514 56.1771C100.006 56.3861 101.124 56.4451 102.107 56.7771C102.619 56.8654 103.083 57.1297 103.421 57.5243C103.758 57.9189 103.947 58.419 103.955 58.9381C103.955 61.0841 101.898 61.6661 100.02 61.6661C98.2021 61.6661 96.205 60.9351 96.16 58.9381H98.9771C98.9852 59.071 99.0213 59.2007 99.083 59.3188C99.1447 59.4368 99.2306 59.5405 99.3351 59.6231C99.5644 59.7871 99.8437 59.8663 100.125 59.8471C100.513 59.8471 101.125 59.6981 101.125 59.2471C101.125 58.7961 100.872 58.6651 99.5 58.4271C97.25 58.0401 96.341 57.3271 96.341 55.9981C96.341 54.0451 98.441 53.5381 99.992 53.5381C101.661 53.5381 103.673 54.0001 103.748 55.9821H101.064Z" fill="white"/>
        <path d="M107.852 53.731H109.432V55.549H107.852V58.249C107.852 58.965 108.016 59.278 108.761 59.278C108.985 59.278 109.21 59.263 109.432 59.233V61.467C108.832 61.467 108.165 61.556 107.539 61.556C106.287 61.556 104.901 61.362 104.901 59.246V55.546H103.589V53.728H104.901V51.373H107.852V53.731Z" fill="white"/>
        <path d="M112.859 52.8971H109.908V50.8251H112.859V52.8971ZM109.908 53.7311H112.859V61.4661H109.908V53.7311Z" fill="white"/>
        <path d="M117.568 53.731H119.148V55.549H117.568V58.249C117.568 58.965 117.732 59.278 118.477 59.278C118.701 59.278 118.926 59.263 119.148 59.233V61.467C118.548 61.467 117.881 61.556 117.255 61.556C116.003 61.556 114.617 61.362 114.617 59.246V55.546H113.309V53.728H114.621V51.373H117.572L117.568 53.731Z" fill="white"/>
        <path d="M127.612 61.4661H124.765V60.4821H124.735C124.452 60.8782 124.071 61.1947 123.63 61.401C123.189 61.6073 122.702 61.6966 122.216 61.6601C121.864 61.6836 121.511 61.632 121.181 61.5089C120.85 61.3858 120.55 61.194 120.299 60.946C120.048 60.698 119.853 60.3996 119.726 60.0706C119.599 59.7415 119.544 59.3892 119.563 59.0371V53.7311H122.514V57.7851C122.514 58.6791 122.614 59.3051 123.483 59.3051C123.99 59.3051 124.66 59.0521 124.66 57.8141V53.7311H127.611L127.612 61.4661Z" fill="white"/>
        <path d="M131.893 53.731H133.473V55.549H131.893V58.249C131.893 58.965 132.057 59.278 132.802 59.278C133.026 59.278 133.251 59.263 133.473 59.233V61.467C132.873 61.467 132.206 61.556 131.58 61.556C130.328 61.556 128.942 61.362 128.942 59.246V55.546H127.63V53.728H128.943V51.373H131.894L131.893 53.731Z" fill="white"/>
        <path d="M136.379 58.262C136.389 58.5763 136.494 58.8802 136.68 59.1335C136.867 59.3869 137.125 59.5778 137.422 59.6811C137.719 59.7844 138.04 59.7953 138.344 59.7123C138.647 59.6293 138.918 59.4562 139.121 59.2161H141.878C141.559 59.9925 141.002 60.6477 140.287 61.087C139.572 61.5262 138.736 61.7269 137.899 61.6601C135.425 61.6601 133.562 60.1991 133.562 57.6211C133.546 57.0805 133.641 56.5424 133.841 56.0399C134.041 55.5373 134.341 55.0809 134.723 54.6985C135.106 54.3161 135.562 54.0158 136.065 53.8161C136.567 53.6164 137.105 53.5214 137.646 53.5371C140.716 53.5371 142.046 55.252 142.046 58.262H136.379ZM139.211 56.7271C139.215 56.5552 139.184 56.3843 139.12 56.2247C139.056 56.0652 138.961 55.9202 138.839 55.7987C138.718 55.6771 138.573 55.5815 138.413 55.5176C138.254 55.4538 138.083 55.4229 137.911 55.4271C137.725 55.4107 137.538 55.4315 137.361 55.4882C137.184 55.545 137.019 55.6366 136.878 55.7577C136.736 55.8788 136.62 56.0268 136.537 56.1933C136.453 56.3597 136.404 56.5412 136.391 56.7271H139.211Z" fill="white"/>
        <path d="M103.05 13.2561C102.521 11.4841 101.213 10.5061 98.981 10.5061C98.2231 10.4807 97.4735 10.6702 96.8188 11.0528C96.1641 11.4353 95.631 11.9953 95.281 12.6681L95.89 10.7061H92.83L91.739 15.6631H91.679L90.628 10.7061H87.872L86.881 15.6631H86.835L85.667 10.7061H82.61L85.037 18.6761H88.05L89.218 13.7451H89.264L90.406 18.6761H93.421L94.852 14.0701C94.8208 14.2837 94.8044 14.4992 94.803 14.7151C94.7746 15.2825 94.868 15.8494 95.0771 16.3776C95.2862 16.9059 95.606 17.3832 96.0151 17.7775C96.4241 18.1717 96.9129 18.4738 97.4485 18.6633C97.984 18.8528 98.554 18.9253 99.12 18.8761C99.9231 18.9358 100.726 18.7555 101.426 18.3581C102.127 17.9607 102.693 17.3641 103.054 16.6441V18.6761H105.976V7.71106H103.054L103.05 13.2561ZM99.117 12.4091C99.3047 12.4012 99.4919 12.4325 99.6669 12.5009C99.8418 12.5694 100.001 12.6734 100.133 12.8065C100.266 12.9395 100.369 13.0987 100.437 13.2739C100.505 13.449 100.535 13.6364 100.527 13.8241H97.606C97.6119 13.6319 97.6557 13.4428 97.7349 13.2676C97.8141 13.0924 97.927 12.9346 98.0673 12.8031C98.2076 12.6717 98.3724 12.5692 98.5524 12.5016C98.7323 12.434 98.9239 12.4025 99.116 12.4091H99.117ZM103.051 16.4011H100.42C100.209 16.6553 99.9236 16.8377 99.6042 16.9233C99.2849 17.009 98.9468 16.9936 98.6366 16.8792C98.3263 16.7649 98.0591 16.5572 97.8717 16.2848C97.6843 16.0124 97.5859 15.6887 97.59 15.3581H103.051V16.4011Z" fill="white"/>
        <path d="M143.018 16.97C142.808 16.9736 142.599 16.9339 142.405 16.8534C142.21 16.7729 142.035 16.6533 141.889 16.502C141.742 16.3507 141.629 16.171 141.555 15.9741C141.482 15.7771 141.449 15.5671 141.46 15.357H147.198C147.185 12.271 145.85 10.506 142.852 10.506C141.936 10.4736 141.036 10.7565 140.302 11.3076C139.569 11.8587 139.048 12.6446 138.824 13.534V13.194C138.856 12.836 138.81 12.4752 138.688 12.1369C138.566 11.7985 138.373 11.4907 138.12 11.2349C137.867 10.9791 137.562 10.7814 137.225 10.6555C136.889 10.5296 136.529 10.4786 136.17 10.506C135.758 10.4837 135.345 10.5441 134.956 10.6835C134.567 10.823 134.21 11.0387 133.906 11.318C133.864 11.3615 133.825 11.4076 133.789 11.456C133.638 11.612 133.561 11.719 133.503 11.781C133.309 11.3924 133.008 11.0665 132.637 10.8409C132.265 10.6154 131.838 10.4993 131.403 10.506C130.901 10.4692 130.398 10.5682 129.948 10.7925C129.497 11.0168 129.115 11.3583 128.842 11.781H128.795V10.706H125.962V18.676H128.886V14.359C128.886 13.516 129.141 12.887 129.921 12.887C130.865 12.887 130.921 13.607 130.921 14.359V18.676H133.861V14.359C133.861 13.516 134.114 12.887 134.892 12.887C135.823 12.887 135.897 13.607 135.897 14.359V18.676H138.821V15.947C139.122 16.7676 139.656 17.482 140.358 18.0021C141.06 18.5221 141.899 18.825 142.772 18.8732C143.644 18.9214 144.512 18.7128 145.267 18.2733C146.022 17.8337 146.632 17.1825 147.021 16.4H144.288C144.136 16.5886 143.942 16.7386 143.721 16.8376C143.501 16.9367 143.26 16.9821 143.018 16.97ZM142.988 12.408C143.175 12.4012 143.361 12.4332 143.535 12.5021C143.709 12.571 143.867 12.6752 143.999 12.8082C144.13 12.9412 144.233 13.1001 144.3 13.2748C144.367 13.4495 144.397 13.6362 144.388 13.823H141.469C141.475 13.6303 141.52 13.4407 141.6 13.2651C141.679 13.0895 141.793 12.9315 141.934 12.8001C142.076 12.6687 142.241 12.5665 142.422 12.4994C142.603 12.4323 142.795 12.4006 142.988 12.408Z" fill="white"/>
        <path d="M121.724 10.5061C120.869 10.4326 120.013 10.6457 119.292 11.1116C118.571 11.5776 118.025 12.27 117.74 13.0801C117.509 12.2756 117.003 11.5776 116.31 11.1073C115.618 10.6371 114.782 10.4243 113.949 10.5061C112.968 10.4499 112 10.7545 111.228 11.3623C110.456 11.9701 109.933 12.8393 109.757 13.8061V7.70605H106.833V18.6761H109.757V15.6701C109.904 16.6258 110.41 17.4895 111.172 18.0852C111.934 18.6808 112.894 18.9637 113.857 18.8761C114.696 18.9297 115.529 18.7085 116.231 18.246C116.933 17.7836 117.465 17.105 117.747 16.3131C118.034 17.1189 118.58 17.8071 119.299 18.2707C120.017 18.7342 120.87 18.9471 121.722 18.8761C122.286 18.9206 122.853 18.843 123.385 18.6487C123.917 18.4543 124.4 18.1477 124.802 17.7498C125.205 17.3518 125.517 16.8718 125.717 16.3424C125.917 15.813 126.001 15.2467 125.963 14.6821C126.001 14.1185 125.916 13.5535 125.715 13.0256C125.515 12.4976 125.203 12.0192 124.8 11.6228C124.398 11.2264 123.915 10.9215 123.384 10.7288C122.853 10.5361 122.287 10.4601 121.724 10.5061ZM115.134 15.5251C115.125 15.8465 114.989 16.1513 114.756 16.373C114.523 16.5948 114.212 16.7155 113.89 16.7091C112.946 16.7091 112.6 15.9731 112.6 14.6971C112.6 13.7291 112.839 12.6721 113.95 12.6721C114.64 12.6721 115.056 13.1331 115.056 13.9321H117.536C117.458 14.4606 117.463 14.9979 117.549 15.5251H115.134ZM121.724 16.7101C120.571 16.7101 120.404 15.5421 120.404 14.6831C120.404 13.8241 120.571 12.6721 121.724 12.6721C122.877 12.6721 123.041 13.8231 123.041 14.6831C123.041 15.5431 122.876 16.7101 121.724 16.7101Z" fill="white"/>
        <path d="M4.5929 16.441H1.6059C1.38551 16.441 1.17414 16.3535 1.0183 16.1976C0.862454 16.0418 0.774902 15.8304 0.774902 15.61V12.621C0.774902 12.5119 0.796397 12.4038 0.838159 12.303C0.87992 12.2022 0.941131 12.1106 1.0183 12.0334C1.09546 11.9563 1.18707 11.8951 1.28789 11.8533C1.38871 11.8115 1.49677 11.79 1.6059 11.79H4.5919C4.70103 11.79 4.80909 11.8115 4.90991 11.8533C5.01073 11.8951 5.10234 11.9563 5.17951 12.0334C5.25667 12.1106 5.31788 12.2022 5.35965 12.303C5.40141 12.4038 5.4229 12.5119 5.4229 12.621V15.607C5.4233 15.7163 5.40213 15.8246 5.3606 15.9257C5.31908 16.0268 5.25802 16.1188 5.18092 16.1962C5.10383 16.2737 5.0122 16.3352 4.9113 16.3772C4.8104 16.4192 4.7022 16.4409 4.5929 16.441Z" fill="white"/>
        <path d="M38.807 18.245H33.498C33.1063 18.245 32.7306 18.0893 32.4536 17.8124C32.1766 17.5354 32.021 17.1597 32.021 16.768V11.458C32.021 11.0662 32.1766 10.6906 32.4536 10.4136C32.7306 10.1366 33.1063 9.98096 33.498 9.98096H38.807C39.1987 9.98096 39.5744 10.1366 39.8514 10.4136C40.1284 10.6906 40.284 11.0662 40.284 11.458V16.767C40.2841 16.961 40.246 17.1532 40.1719 17.3325C40.0977 17.5118 39.9889 17.6747 39.8517 17.812C39.7146 17.9493 39.5517 18.0581 39.3725 18.1324C39.1932 18.2067 39.0011 18.245 38.807 18.245Z" fill="white"/>
        <path d="M49.1559 6.198H45.1739C44.8801 6.198 44.5982 6.08126 44.3904 5.87347C44.1827 5.66568 44.0659 5.38386 44.0659 5.09V1.108C44.0659 0.962495 44.0946 0.818415 44.1503 0.683987C44.206 0.549558 44.2876 0.427413 44.3904 0.324526C44.4933 0.221639 44.6155 0.140024 44.7499 0.0843415C44.8843 0.0286593 45.0284 0 45.1739 0H49.1559C49.3014 0 49.4455 0.0286593 49.5799 0.0843415C49.7144 0.140024 49.8365 0.221639 49.9394 0.324526C50.0423 0.427413 50.1239 0.549558 50.1796 0.683987C50.2353 0.818415 50.2639 0.962495 50.2639 1.108V5.09C50.2639 5.38386 50.1472 5.66568 49.9394 5.87347C49.7316 6.08126 49.4498 6.198 49.1559 6.198Z" fill="white"/>
        <path d="M49.827 18.245H44.518C44.1263 18.245 43.7506 18.0893 43.4736 17.8124C43.1966 17.5354 43.041 17.1597 43.041 16.768V11.458C43.041 11.0662 43.1966 10.6906 43.4736 10.4136C43.7506 10.1366 44.1263 9.98096 44.518 9.98096H49.827C50.2187 9.98096 50.5944 10.1366 50.8714 10.4136C51.1484 10.6906 51.304 11.0662 51.304 11.458V16.767C51.3041 16.961 51.266 17.1532 51.1919 17.3325C51.1177 17.5118 51.0089 17.6747 50.8718 17.812C50.7346 17.9493 50.5717 18.0581 50.3925 18.1324C50.2132 18.2067 50.0211 18.245 49.827 18.245Z" fill="white"/>
        <path d="M59.681 5.42302H56.695C56.4746 5.42302 56.2632 5.33547 56.1074 5.17963C55.9516 5.02379 55.864 4.81242 55.864 4.59202V1.60602C55.864 1.38563 55.9516 1.17426 56.1074 1.01842C56.2632 0.862576 56.4746 0.775024 56.695 0.775024H59.681C59.9014 0.775024 60.1128 0.862576 60.2686 1.01842C60.4245 1.17426 60.512 1.38563 60.512 1.60602V4.59202C60.512 4.81242 60.4245 5.02379 60.2686 5.17963C60.1128 5.33547 59.9014 5.42302 59.681 5.42302Z" fill="white"/>
        <path d="M71.1969 17.2159H67.2149C66.9211 17.2159 66.6392 17.0992 66.4315 16.8914C66.2237 16.6836 66.1069 16.4018 66.1069 16.1079V12.1259C66.1069 11.8321 66.2237 11.5503 66.4315 11.3425C66.6392 11.1347 66.9211 11.0179 67.2149 11.0179H71.1969C71.3424 11.0179 71.4865 11.0466 71.6209 11.1023C71.7554 11.158 71.8775 11.2396 71.9804 11.3425C72.0833 11.4454 72.1649 11.5675 72.2206 11.7019C72.2763 11.8364 72.3049 11.9804 72.3049 12.1259V16.1079C72.3049 16.2534 72.2763 16.3975 72.2206 16.532C72.1649 16.6664 72.0833 16.7885 71.9804 16.8914C71.8775 16.9943 71.7554 17.0759 71.6209 17.1316C71.4865 17.1873 71.3424 17.2159 71.1969 17.2159Z" fill="white"/>
        <path d="M5.09 39.251H1.108C0.81414 39.251 0.532316 39.1342 0.324526 38.9265C0.116736 38.7187 0 38.4368 0 38.143V34.161C0 33.8671 0.116736 33.5853 0.324526 33.3775C0.532316 33.1697 0.81414 33.053 1.108 33.053H5.09C5.2355 33.053 5.37958 33.0816 5.51401 33.1373C5.64844 33.193 5.77059 33.2746 5.87347 33.3775C5.97636 33.4804 6.05798 33.6025 6.11366 33.737C6.16934 33.8714 6.198 34.0155 6.198 34.161V38.143C6.198 38.2885 6.16934 38.4326 6.11366 38.567C6.05798 38.7014 5.97636 38.8236 5.87347 38.9265C5.77059 39.0293 5.64844 39.1109 5.51401 39.1666C5.37958 39.2223 5.2355 39.251 5.09 39.251Z" fill="white"/>
        <path d="M16.7711 29.2661H11.4621C11.0704 29.2661 10.6947 29.1104 10.4177 28.8335C10.1407 28.5565 9.98511 28.1808 9.98511 27.7891V22.48C9.98511 22.0883 10.1407 21.7126 10.4177 21.4357C10.6947 21.1587 11.0704 21.0031 11.4621 21.0031H16.7711C17.1628 21.0031 17.5385 21.1587 17.8155 21.4357C18.0925 21.7126 18.2481 22.0883 18.2481 22.48V27.7891C18.2481 28.1808 18.0925 28.5565 17.8155 28.8335C17.5385 29.1104 17.1628 29.2661 16.7711 29.2661Z" fill="white"/>
        <path d="M16.7711 40.284H11.4621C11.0704 40.284 10.6947 40.1284 10.4177 39.8514C10.1407 39.5744 9.98511 39.1987 9.98511 38.807V33.498C9.98511 33.1063 10.1407 32.7306 10.4177 32.4536C10.6947 32.1766 11.0704 32.021 11.4621 32.021H16.7711C17.1628 32.021 17.5385 32.1766 17.8155 32.4536C18.0925 32.7306 18.2481 33.1063 18.2481 33.498V38.807C18.2481 39.1987 18.0925 39.5744 17.8155 39.8514C17.5385 40.1284 17.1628 40.284 16.7711 40.284Z" fill="white"/>
        <path d="M28.32 41.1099H21.948C21.4781 41.1099 21.0273 40.9233 20.695 40.5909C20.3627 40.2586 20.176 39.8079 20.176 39.3379V32.9669C20.176 32.497 20.3627 32.0463 20.695 31.7139C21.0273 31.3816 21.4781 31.1949 21.948 31.1949H28.319C28.789 31.1949 29.2397 31.3816 29.572 31.7139C29.9043 32.0463 30.091 32.497 30.091 32.9669V39.3379C30.091 39.8077 29.9045 40.2583 29.5724 40.5906C29.2403 40.9229 28.7898 41.1097 28.32 41.1099Z" fill="white"/>
        <path d="M39.3349 30.092H32.9639C32.4939 30.092 32.0432 29.9053 31.7109 29.573C31.3786 29.2407 31.1919 28.79 31.1919 28.32V21.948C31.1919 21.4781 31.3786 21.0273 31.7109 20.695C32.0432 20.3627 32.4939 20.176 32.9639 20.176H39.3349C39.8049 20.176 40.2556 20.3627 40.5879 20.695C40.9202 21.0273 41.1069 21.4781 41.1069 21.948V28.32C41.1069 28.79 40.9202 29.2407 40.5879 29.573C40.2556 29.9053 39.8049 30.092 39.3349 30.092Z" fill="white"/>
        <path d="M39.3349 41.1099H32.9639C32.4939 41.1099 32.0432 40.9233 31.7109 40.5909C31.3786 40.2586 31.1919 39.8079 31.1919 39.3379V32.9669C31.1919 32.497 31.3786 32.0463 31.7109 31.7139C32.0432 31.3816 32.4939 31.1949 32.9639 31.1949H39.3349C39.8049 31.1949 40.2556 31.3816 40.5879 31.7139C40.9202 32.0463 41.1069 32.497 41.1069 32.9669V39.3379C41.1069 39.8079 40.9202 40.2586 40.5879 40.5909C40.2556 40.9233 39.8049 41.1099 39.3349 41.1099Z" fill="white"/>
        <path d="M50.3559 30.092H43.9839C43.514 30.092 43.0632 29.9053 42.7309 29.573C42.3986 29.2407 42.2119 28.79 42.2119 28.32V21.948C42.2119 21.4781 42.3986 21.0273 42.7309 20.695C43.0632 20.3627 43.514 20.176 43.9839 20.176H50.3549C50.8249 20.176 51.2756 20.3627 51.6079 20.695C51.9402 21.0273 52.1269 21.4781 52.1269 21.948V28.32C52.1269 28.7898 51.9404 29.2404 51.6083 29.5727C51.2762 29.905 50.8257 30.0918 50.3559 30.092Z" fill="white"/>
        <path d="M60.8421 40.284H55.5361C55.1443 40.284 54.7687 40.1284 54.4917 39.8514C54.2147 39.5744 54.0591 39.1987 54.0591 38.807V33.498C54.0591 33.1063 54.2147 32.7306 54.4917 32.4536C54.7687 32.1766 55.1443 32.021 55.5361 32.021H60.8451C61.2368 32.021 61.6125 32.1766 61.8895 32.4536C62.1665 32.7306 62.3221 33.1063 62.3221 33.498V38.807C62.3221 39.0012 62.2838 39.1935 62.2094 39.3729C62.135 39.5523 62.0259 39.7153 61.8884 39.8525C61.7509 39.9897 61.5878 40.0984 61.4082 40.1724C61.2287 40.2465 61.0363 40.2844 60.8421 40.284Z" fill="white"/>
        <path d="M16.7711 62.319H11.4621C11.0704 62.319 10.6947 62.1634 10.4177 61.8864C10.1407 61.6094 9.98511 61.2338 9.98511 60.842V55.533C9.98511 55.1413 10.1407 54.7656 10.4177 54.4886C10.6947 54.2116 11.0704 54.056 11.4621 54.056H16.7711C17.1628 54.056 17.5385 54.2116 17.8155 54.4886C18.0925 54.7656 18.2481 55.1413 18.2481 55.533V60.842C18.2481 61.2338 18.0925 61.6094 17.8155 61.8864C17.5385 62.1634 17.1628 62.319 16.7711 62.319Z" fill="white"/>
        <path d="M28.32 52.1281H21.948C21.4781 52.1281 21.0273 51.9414 20.695 51.609C20.3627 51.2767 20.176 50.826 20.176 50.356V43.989C20.176 43.5191 20.3627 43.0684 20.695 42.7361C21.0273 42.4037 21.4781 42.217 21.948 42.217H28.319C28.5518 42.2169 28.7823 42.2626 28.9974 42.3516C29.2125 42.4406 29.408 42.5711 29.5727 42.7357C29.7373 42.9003 29.8679 43.0956 29.957 43.3107C30.0462 43.5258 30.092 43.7563 30.092 43.989V50.36C30.091 50.8293 29.9038 51.279 29.5716 51.6105C29.2394 51.9419 28.7893 52.1281 28.32 52.1281Z" fill="white"/>
        <path d="M38.807 62.319H33.498C33.1063 62.319 32.7306 62.1634 32.4536 61.8864C32.1766 61.6094 32.021 61.2338 32.021 60.842V55.533C32.021 55.1413 32.1766 54.7656 32.4536 54.4886C32.7306 54.2116 33.1063 54.056 33.498 54.056H38.807C39.1987 54.056 39.5744 54.2116 39.8514 54.4886C40.1284 54.7656 40.284 55.1413 40.284 55.533V60.842C40.284 61.2338 40.1284 61.6094 39.8514 61.8864C39.5744 62.1634 39.1987 62.319 38.807 62.319Z" fill="white"/>
        <path d="M50.3559 52.1281H43.9839C43.514 52.1281 43.0632 51.9414 42.7309 51.609C42.3986 51.2767 42.2119 50.826 42.2119 50.356V43.989C42.2119 43.5191 42.3986 43.0684 42.7309 42.7361C43.0632 42.4037 43.514 42.217 43.9839 42.217H50.3549C50.5877 42.2169 50.8182 42.2626 51.0333 42.3516C51.2484 42.4406 51.4439 42.5711 51.6086 42.7357C51.7732 42.9003 51.9038 43.0956 51.9929 43.3107C52.082 43.5258 52.1279 43.7563 52.1279 43.989V50.36C52.1269 50.8293 51.9397 51.279 51.6075 51.6105C51.2753 51.9419 50.8252 52.1281 50.3559 52.1281Z" fill="white"/>
        <path d="M49.827 62.319H44.518C44.1263 62.319 43.7506 62.1634 43.4736 61.8864C43.1966 61.6094 43.041 61.2338 43.041 60.842V55.533C43.041 55.1413 43.1966 54.7656 43.4736 54.4886C43.7506 54.2116 44.1263 54.056 44.518 54.056H49.827C50.2187 54.056 50.5944 54.2116 50.8714 54.4886C51.1484 54.7656 51.304 55.1413 51.304 55.533V60.842C51.304 61.2338 51.1484 61.6094 50.8714 61.8864C50.5944 62.1634 50.2187 62.319 49.827 62.319Z" fill="white"/>
        <path d="M60.8421 51.3009H55.5361C55.1443 51.3009 54.7687 51.1453 54.4917 50.8683C54.2147 50.5914 54.0591 50.2157 54.0591 49.824V44.515C54.0591 44.1232 54.2147 43.7476 54.4917 43.4706C54.7687 43.1936 55.1443 43.038 55.5361 43.038H60.8451C61.2368 43.038 61.6125 43.1936 61.8895 43.4706C62.1665 43.7476 62.3221 44.1232 62.3221 44.515V49.824C62.3221 50.0182 62.2838 50.2105 62.2094 50.3899C62.135 50.5693 62.0259 50.7322 61.8884 50.8694C61.7509 51.0066 61.5878 51.1153 61.4082 51.1894C61.2287 51.2634 61.0363 51.3013 60.8421 51.3009Z" fill="white"/>
        <path d="M70.699 60.512H67.713C67.4926 60.512 67.2812 60.4245 67.1254 60.2686C66.9695 60.1128 66.882 59.9014 66.882 59.681V56.695C66.882 56.4746 66.9695 56.2632 67.1254 56.1074C67.2812 55.9516 67.4926 55.864 67.713 55.864H70.699C70.9194 55.864 71.1307 55.9516 71.2866 56.1074C71.4424 56.2632 71.53 56.4746 71.53 56.695V59.681C71.53 59.9014 71.4424 60.1128 71.2866 60.2686C71.1307 60.4245 70.9194 60.512 70.699 60.512Z" fill="white"/>
        <path d="M4.5929 71.53H1.6059C1.49677 71.53 1.38871 71.5085 1.28789 71.4667C1.18707 71.4249 1.09546 71.3637 1.0183 71.2866C0.941131 71.2094 0.87992 71.1178 0.838159 71.017C0.796397 70.9161 0.774902 70.8081 0.774902 70.699V67.713C0.774902 67.4926 0.862454 67.2812 1.0183 67.1254C1.17414 66.9695 1.38551 66.882 1.6059 66.882H4.5919C4.8123 66.882 5.02366 66.9695 5.17951 67.1254C5.33535 67.2812 5.4229 67.4926 5.4229 67.713V70.699C5.4229 70.9192 5.33549 71.1304 5.17986 71.2862C5.02424 71.442 4.81312 71.5297 4.5929 71.53Z" fill="white"/>
        <path d="M60.1791 72.305H56.1971C56.0516 72.305 55.9075 72.2763 55.7731 72.2206C55.6387 72.165 55.5165 72.0833 55.4136 71.9804C55.3107 71.8776 55.2291 71.7554 55.1734 71.621C55.1178 71.4865 55.0891 71.3425 55.0891 71.197V67.219C55.0891 67.0735 55.1178 66.9294 55.1734 66.795C55.2291 66.6605 55.3107 66.5384 55.4136 66.4355C55.5165 66.3326 55.6387 66.251 55.7731 66.1953C55.9075 66.1396 56.0516 66.111 56.1971 66.111H60.1791C60.3246 66.111 60.4687 66.1396 60.6031 66.1953C60.7375 66.251 60.8597 66.3326 60.9626 66.4355C61.0655 66.5384 61.1471 66.6605 61.2028 66.795C61.2585 66.9294 61.2871 67.0735 61.2871 67.219V71.201C61.2861 71.4941 61.1689 71.7749 60.9612 71.9819C60.7535 72.1888 60.4723 72.305 60.1791 72.305Z" fill="white"/>
    </g>
    <defs>
        <clipPath id="clip0_1749_822">
            <rect width="214.353" height="72.304" fill="white"/>
        </clipPath>
    </defs>
</svg>
