<svg xmlns="http://www.w3.org/2000/svg" width="215" height="73" fill="none" viewBox="0 0 215 73">
    <g fill="currentColor" clip-path="url(#a)">
        <path d="M95.851 31.061a2.06 2.06 0 0 0-.944-1.6 2.83 2.83 0 0 0-1.806-.615c-1.149 0-2.462.247-2.462 1.642 0 .615.492.9.944 1.108 1.354.574 4.432.739 7.141 1.642 2.709.862 5.089 2.462 5.089 5.951 0 5.91-5.664 7.51-10.835 7.51-5.007 0-10.506-2.011-10.629-7.51h7.757a2.61 2.61 0 0 0 .985 1.888c.632.45 1.4.668 2.175.615 1.067 0 2.749-.41 2.749-1.642s-.7-1.6-4.473-2.257c-6.2-1.067-8.7-3.037-8.7-6.69 0-5.376 5.786-6.771 10.055-6.771 4.6 0 10.137 1.272 10.342 6.73h-7.387z"/>
        <path d="M125.477 41.403a8.6 8.6 0 0 0 .985 4.761h-8.29a5.7 5.7 0 0 1-.287-2.01h-.082c-1.723 1.97-4.227 2.543-6.853 2.543-4.1 0-7.51-1.969-7.51-6.443 0-6.73 7.88-6.484 12.024-7.264 1.108-.2 2.216-.533 2.216-1.888 0-1.436-1.354-1.97-2.668-1.97-2.5 0-3 1.272-3.037 2.175h-7.551c.246-5.992 5.91-6.977 10.958-6.977 10.178 0 10.1 4.227 10.1 8.331v8.742zm-7.8-4.8c-1.021.47-2.096.815-3.2 1.026-1.805.41-2.75.862-2.75 2.3a2.34 2.34 0 0 0 2.544 1.97 3.23 3.23 0 0 0 3.175-2.016c.167-.415.246-.86.231-1.308v-1.972M127.317 24.864h7.839v2.71h.082c1.518-2.135 3.693-3.243 6.936-3.243 3.817 0 7.3 2.34 7.3 7.223v14.61h-8.126V35.001c0-2.462-.287-4.186-2.668-4.186-1.4 0-3.242.7-3.242 4.1V46.16h-8.126v-21.3zM173.19 43.413c0 4.227-1.108 10.178-11.081 10.178-5.048 0-10.383-1.355-11.122-7.1h8.044q.195.389.452.74a3.14 3.14 0 0 0 2.38 1.558c2.627 0 3.2-3.118 3.2-4.883v-1.97h-.082a6.7 6.7 0 0 1-5.7 2.955c-6.279 0-9.111-4.678-9.111-10.383 0-5.54 3.16-10.178 9.234-10.178 2.38 0 4.637.944 5.581 3.12h.082v-2.587h8.126zm-11.245-3.735c3 0 3.324-2.872 3.324-5.253 0-2.339-1.149-4.186-3.529-4.186-2.3 0-3.447 1.97-3.447 4.227 0 2.422.738 5.212 3.652 5.212M181.69 37.341c.205 2.421 1.6 4.145 4.145 4.145a4.07 4.07 0 0 0 3.406-1.518h7.592c-1.642 4.6-6.115 6.731-10.957 6.731-6.813 0-11.943-4.022-11.943-11.122a10.935 10.935 0 0 1 11.245-11.245c8.454 0 12.107 4.72 12.107 13.01zm7.8-4.227a3.5 3.5 0 0 0-1.024-2.545 3.5 3.5 0 0 0-2.546-1.025 3.853 3.853 0 0 0-4.186 3.57zM198.102 24.864h7.8v3.406h.082c1.313-2.544 3.037-3.939 5.992-3.939a9.3 9.3 0 0 1 2.38.328v7.182a8.2 8.2 0 0 0-3.2-.533c-3.2 0-4.925 1.888-4.925 6.443v8.413h-8.126zM87.123 52.897h-2.951v-2.072h2.951zm-2.951.834h2.951v7.735h-2.951zM87.84 53.731h2.847v.984h.03a2.84 2.84 0 0 1 2.519-1.178 2.49 2.49 0 0 1 2.653 2.623v5.306h-2.951v-4.054c0-.894-.1-1.52-.969-1.52-.507 0-1.178.253-1.178 1.491v4.083H87.84zM101.064 55.982a.73.73 0 0 0-.343-.58 1.02 1.02 0 0 0-.656-.225c-.418 0-.894.09-.894.6 0 .224.179.328.343.4.492.21 1.61.268 2.593.6a2.23 2.23 0 0 1 1.848 2.161c0 2.146-2.057 2.728-3.935 2.728-1.818 0-3.815-.73-3.86-2.728h2.817a.95.95 0 0 0 .358.685c.23.164.509.243.79.224.388 0 1-.149 1-.6s-.253-.582-1.625-.82c-2.25-.387-3.159-1.1-3.159-2.429 0-1.953 2.1-2.46 3.651-2.46 1.669 0 3.681.462 3.756 2.444z"/>
        <path d="M107.852 53.731h1.58v1.818h-1.58v2.7c0 .716.164 1.029.909 1.029q.337 0 .671-.045v2.234c-.6 0-1.267.089-1.893.089-1.252 0-2.638-.194-2.638-2.31v-3.7h-1.312v-1.818h1.312v-2.355h2.951zM112.859 52.897h-2.951v-2.072h2.951zm-2.951.834h2.951v7.735h-2.951zM117.568 53.731h1.58v1.818h-1.58v2.7c0 .716.164 1.029.909 1.029q.337 0 .671-.045v2.234c-.6 0-1.267.089-1.893.089-1.252 0-2.638-.194-2.638-2.31v-3.7h-1.308v-1.818h1.312v-2.355h2.951zM127.612 61.466h-2.847v-.984h-.03a2.83 2.83 0 0 1-2.519 1.178 2.49 2.49 0 0 1-2.49-1.59 2.5 2.5 0 0 1-.163-1.033v-5.306h2.951v4.054c0 .894.1 1.52.969 1.52.507 0 1.177-.253 1.177-1.49V53.73h2.951zM131.893 53.731h1.58v1.818h-1.58v2.7c0 .716.164 1.029.909 1.029q.337 0 .671-.045v2.234c-.6 0-1.267.089-1.893.089-1.252 0-2.638-.194-2.638-2.31v-3.7h-1.312v-1.818h1.313v-2.355h2.951zM136.379 58.262a1.556 1.556 0 0 0 2.742.954h2.757a3.96 3.96 0 0 1-3.979 2.444c-2.474 0-4.337-1.46-4.337-4.039a3.96 3.96 0 0 1 1.161-2.922 3.98 3.98 0 0 1 2.923-1.162c3.07 0 4.4 1.715 4.4 4.725zm2.832-1.535a1.27 1.27 0 0 0-1.3-1.3 1.4 1.4 0 0 0-1.52 1.3zM103.05 13.256c-.529-1.772-1.837-2.75-4.069-2.75a4.02 4.02 0 0 0-3.7 2.162l.609-1.962h-3.06l-1.091 4.957h-.06l-1.051-4.957h-2.756l-.991 4.957h-.046l-1.168-4.957H82.61l2.427 7.97h3.013l1.168-4.93h.046l1.142 4.93h3.015l1.431-4.606q-.047.322-.049.645a3.977 3.977 0 0 0 4.317 4.161 4.06 4.06 0 0 0 3.934-2.232v2.032h2.922V7.711h-2.922zm-3.933-.847a1.354 1.354 0 0 1 1.41 1.415h-2.921a1.46 1.46 0 0 1 1.51-1.415zm3.934 3.992h-2.631a1.598 1.598 0 0 1-2.548-.116 1.6 1.6 0 0 1-.282-.927h5.461zM143.018 16.97a1.53 1.53 0 0 1-1.558-1.613h5.738c-.013-3.086-1.348-4.851-4.346-4.851a4.01 4.01 0 0 0-4.028 3.028v-.34a2.47 2.47 0 0 0-.704-1.96 2.48 2.48 0 0 0-1.95-.728 3.1 3.1 0 0 0-2.264.812 1.4 1.4 0 0 0-.117.138c-.151.156-.228.263-.286.325a2.31 2.31 0 0 0-2.1-1.275 2.8 2.8 0 0 0-2.561 1.275h-.047v-1.075h-2.833v7.97h2.924v-4.317c0-.843.255-1.472 1.035-1.472.944 0 1 .72 1 1.472v4.317h2.94v-4.317c0-.843.253-1.472 1.031-1.472.931 0 1.005.72 1.005 1.472v4.317h2.924v-2.729a4.47 4.47 0 0 0 3.951 2.926 4.47 4.47 0 0 0 4.249-2.473h-2.733a1.53 1.53 0 0 1-1.27.57m-.03-4.562a1.35 1.35 0 0 1 1.4 1.415h-2.919a1.46 1.46 0 0 1 .465-1.023 1.47 1.47 0 0 1 1.054-.392"/>
        <path d="M121.724 10.506a3.87 3.87 0 0 0-3.984 2.574 3.58 3.58 0 0 0-3.791-2.574 4.027 4.027 0 0 0-4.192 3.3v-6.1h-2.924v10.97h2.924V15.67a3.8 3.8 0 0 0 4.1 3.206 3.866 3.866 0 0 0 3.89-2.563 3.88 3.88 0 0 0 3.975 2.563 3.94 3.94 0 0 0 3.995-2.534c.2-.529.284-1.095.246-1.66a3.9 3.9 0 0 0-.248-1.656 3.922 3.922 0 0 0-3.991-2.52m-6.59 5.02a1.22 1.22 0 0 1-1.244 1.183c-.944 0-1.29-.736-1.29-2.012 0-.968.239-2.025 1.35-2.025.69 0 1.106.461 1.106 1.26h2.48a5.2 5.2 0 0 0 .013 1.593zm6.59 1.184c-1.153 0-1.32-1.168-1.32-2.027s.167-2.01 1.32-2.01 1.317 1.15 1.317 2.01-.165 2.027-1.317 2.027M4.593 16.441H1.606a.83.83 0 0 1-.831-.831v-2.989a.83.83 0 0 1 .83-.831h2.987a.83.83 0 0 1 .83.831v2.986a.83.83 0 0 1-.83.834M38.807 18.245h-5.309a1.477 1.477 0 0 1-1.477-1.477v-5.31a1.477 1.477 0 0 1 1.477-1.477h5.309a1.477 1.477 0 0 1 1.477 1.477v5.309a1.48 1.48 0 0 1-1.477 1.478M49.156 6.198h-3.982a1.11 1.11 0 0 1-1.108-1.108V1.108A1.11 1.11 0 0 1 45.174 0h3.982a1.11 1.11 0 0 1 1.108 1.108V5.09a1.11 1.11 0 0 1-1.108 1.108M49.827 18.245h-5.309a1.477 1.477 0 0 1-1.477-1.477v-5.31a1.477 1.477 0 0 1 1.477-1.477h5.309a1.477 1.477 0 0 1 1.477 1.477v5.309a1.48 1.48 0 0 1-1.477 1.478M59.681 5.423h-2.986a.83.83 0 0 1-.831-.831V1.606a.83.83 0 0 1 .831-.831h2.986a.83.83 0 0 1 .831.831v2.986a.83.83 0 0 1-.831.831M71.197 17.216h-3.982a1.11 1.11 0 0 1-1.108-1.108v-3.982a1.11 1.11 0 0 1 1.108-1.108h3.982a1.11 1.11 0 0 1 1.108 1.108v3.982a1.11 1.11 0 0 1-1.108 1.108M5.09 39.251H1.108A1.11 1.11 0 0 1 0 38.143v-3.982a1.11 1.11 0 0 1 1.108-1.108H5.09a1.11 1.11 0 0 1 1.108 1.108v3.982a1.11 1.11 0 0 1-1.108 1.108M16.771 29.266h-5.309a1.477 1.477 0 0 1-1.477-1.477V22.48a1.477 1.477 0 0 1 1.477-1.477h5.31a1.477 1.477 0 0 1 1.476 1.477v5.31a1.477 1.477 0 0 1-1.477 1.476M16.771 40.284h-5.309a1.477 1.477 0 0 1-1.477-1.477v-5.309a1.477 1.477 0 0 1 1.477-1.477h5.31a1.477 1.477 0 0 1 1.476 1.477v5.309a1.477 1.477 0 0 1-1.477 1.477M28.32 41.11h-6.372a1.77 1.77 0 0 1-1.772-1.772v-6.371a1.77 1.77 0 0 1 1.772-1.772h6.371a1.77 1.77 0 0 1 1.772 1.772v6.37a1.77 1.77 0 0 1-1.771 1.773M39.335 30.092h-6.371a1.77 1.77 0 0 1-1.772-1.772v-6.372a1.77 1.77 0 0 1 1.772-1.772h6.37a1.77 1.77 0 0 1 1.773 1.772v6.372a1.77 1.77 0 0 1-1.772 1.772M39.335 41.11h-6.371a1.77 1.77 0 0 1-1.772-1.772v-6.371a1.77 1.77 0 0 1 1.772-1.772h6.37a1.77 1.77 0 0 1 1.773 1.772v6.37a1.77 1.77 0 0 1-1.772 1.773M50.356 30.092h-6.372a1.77 1.77 0 0 1-1.772-1.772v-6.372a1.77 1.77 0 0 1 1.772-1.772h6.37a1.77 1.77 0 0 1 1.773 1.772v6.372a1.77 1.77 0 0 1-1.771 1.772M60.842 40.284h-5.306a1.477 1.477 0 0 1-1.477-1.477v-5.309a1.477 1.477 0 0 1 1.477-1.477h5.31a1.477 1.477 0 0 1 1.476 1.477v5.309a1.477 1.477 0 0 1-1.48 1.477M16.771 62.319h-5.309a1.477 1.477 0 0 1-1.477-1.477v-5.309a1.477 1.477 0 0 1 1.477-1.477h5.31a1.477 1.477 0 0 1 1.476 1.477v5.309a1.477 1.477 0 0 1-1.477 1.477M28.32 52.128h-6.372a1.77 1.77 0 0 1-1.772-1.772v-6.367a1.77 1.77 0 0 1 1.772-1.772h6.371a1.77 1.77 0 0 1 1.773 1.772v6.371a1.77 1.77 0 0 1-1.772 1.768M38.807 62.319h-5.309a1.477 1.477 0 0 1-1.477-1.477v-5.309a1.477 1.477 0 0 1 1.477-1.477h5.309a1.477 1.477 0 0 1 1.477 1.477v5.309a1.477 1.477 0 0 1-1.477 1.477M50.356 52.128h-6.372a1.77 1.77 0 0 1-1.772-1.772v-6.367a1.77 1.77 0 0 1 1.772-1.772h6.37a1.77 1.77 0 0 1 1.774 1.772v6.371a1.77 1.77 0 0 1-1.772 1.768M49.827 62.319h-5.309a1.477 1.477 0 0 1-1.477-1.477v-5.309a1.477 1.477 0 0 1 1.477-1.477h5.309a1.477 1.477 0 0 1 1.477 1.477v5.309a1.477 1.477 0 0 1-1.477 1.477M60.842 51.3h-5.306a1.477 1.477 0 0 1-1.477-1.476v-5.309a1.477 1.477 0 0 1 1.477-1.477h5.31a1.477 1.477 0 0 1 1.476 1.477v5.309a1.477 1.477 0 0 1-1.48 1.477M70.699 60.512h-2.986a.83.83 0 0 1-.831-.831v-2.986a.83.83 0 0 1 .831-.831h2.986a.83.83 0 0 1 .831.831v2.986a.83.83 0 0 1-.831.831M4.593 71.53H1.606a.83.83 0 0 1-.831-.831v-2.986a.83.83 0 0 1 .83-.831h2.987a.83.83 0 0 1 .83.831v2.986a.83.83 0 0 1-.83.831M60.18 72.305h-3.983a1.11 1.11 0 0 1-1.108-1.108v-3.978a1.11 1.11 0 0 1 1.108-1.108h3.982a1.107 1.107 0 0 1 1.108 1.108v3.982a1.11 1.11 0 0 1-1.108 1.104"/>
    </g>
    <defs>
        <clipPath id="a">
            <path fill="currentColor" d="M0 0h214.353v72.304H0z"/>
        </clipPath>
    </defs>
</svg>