<svg width="107" height="107" viewBox="0 0 107 107" fill="none"
    xmlns="http://www.w3.org/2000/svg">
    <g clip-path="url(#clip0_1749_820)">
        <mask id="mask0_1749_820" style="mask-type:luminance" maskUnits="userSpaceOnUse" x="0" y="0" width="107" height="107">
            <path d="M106.515 0H0V106.391H106.515V0Z" fill="white"/>
        </mask>
        <g mask="url(#mask0_1749_820)">
            <path d="M76.1989 22.481C76.5018 22.5328 76.7882 22.6549 77.0353 22.8374C77.2824 23.0199 77.4833 23.2578 77.6219 23.532C77.9952 24.2581 78.3057 25.0149 78.55 25.794C78.6031 26.1758 78.5601 26.5649 78.425 26.926C77.9997 28.4646 77.039 29.8008 75.716 30.694C74.89 31.305 74.0029 31.832 73.1709 32.435C72.2559 33.098 71.3359 33.762 70.4829 34.5C68.7447 35.9309 66.8743 37.1933 64.8969 38.27C62.7679 39.498 60.6249 40.703 58.5429 42.006C56.648 43.1526 55.0162 44.686 53.7539 46.506C53.0229 47.5953 52.4819 48.8007 52.154 50.071C52.1025 50.2854 52.0068 50.4867 51.873 50.662C51.4756 51.1014 51.2019 51.6384 51.08 52.2182C50.9581 52.798 50.9922 53.3997 51.179 53.962C51.253 54.203 51.3199 54.447 51.3969 54.688C51.505 54.9627 51.5433 55.26 51.5084 55.5531C51.4735 55.8463 51.3665 56.1263 51.197 56.368C50.65 57.18 50.2189 58.068 49.7449 58.931C49.5299 59.32 49.5869 59.531 49.9879 59.719C50.299 59.8617 50.619 59.9839 50.946 60.085C51.1071 60.1224 51.2482 60.2193 51.3409 60.3564C51.4337 60.4934 51.4712 60.6604 51.446 60.824C51.4181 61.0759 51.4181 61.3301 51.446 61.582C51.503 61.918 51.426 62.372 51.997 62.392C52.05 62.392 52.164 62.677 52.127 62.792C52.0621 62.9265 52.0452 63.0792 52.079 63.2247C52.1128 63.3703 52.1954 63.4998 52.313 63.592C52.5441 63.7817 52.7187 64.0312 52.818 64.3133C52.9173 64.5954 52.9373 64.8993 52.8759 65.192C52.8044 65.5095 52.8061 65.8392 52.8808 66.156C52.9555 66.4728 53.1014 66.7684 53.3073 67.0204C53.5132 67.2725 53.7738 67.4744 54.0693 67.6109C54.3649 67.7473 54.6875 67.8147 55.0129 67.808C56.2759 67.898 57.542 67.957 58.8 68.091C59.5391 68.1599 60.2689 68.307 60.977 68.53C61.3179 68.6209 61.6375 68.7781 61.9176 68.9926C62.1976 69.2072 62.4327 69.4749 62.6092 69.7804C62.7856 70.0859 62.9001 70.4232 62.9461 70.773C62.992 71.1228 62.9685 71.4783 62.8769 71.819C62.8469 72.2267 62.7056 72.6184 62.4685 72.9515C62.2313 73.2845 61.9074 73.5462 61.532 73.708C60.213 74.286 58.8689 74.808 57.5439 75.374C56.7561 75.682 55.988 76.0383 55.244 76.441C54.628 76.7889 54.1289 77.3114 53.8096 77.9427C53.4904 78.574 53.3652 79.2856 53.45 79.988C53.5543 80.8012 53.9258 81.5567 54.506 82.1359C55.0863 82.7151 55.8425 83.0852 56.6559 83.188C57.4189 83.3 58.1869 83.377 59.0479 83.482C58.9621 83.6001 58.8696 83.7133 58.7709 83.821C57.7658 84.8001 56.4957 85.463 55.1176 85.7276C53.7396 85.9923 52.3143 85.8471 51.0179 85.31C50.4212 85.1603 49.8787 84.8454 49.4528 84.4014C49.0269 83.9575 48.7348 83.4024 48.61 82.8C48.3922 81.9597 48.4007 81.0769 48.6346 80.241C48.8686 79.4051 49.3196 78.6461 49.942 78.041C50.824 77.2586 51.818 76.6125 52.891 76.124C53.684 75.713 54.4909 75.318 55.2549 74.863C55.8405 74.5617 56.3535 74.1368 56.7584 73.6175C57.1633 73.0983 57.4505 72.4972 57.5999 71.856C57.6535 71.5979 57.6362 71.3301 57.55 71.081C57.3 70.4268 56.8506 69.8678 56.2653 69.4831C55.6801 69.0985 54.9886 68.9078 54.2889 68.938C53.1609 68.88 52.0249 68.984 50.8889 68.977C50.3095 68.9812 49.731 68.9283 49.162 68.819C48.8181 68.763 48.5075 68.5808 48.2907 68.3081C48.074 68.0353 47.9668 67.6916 47.99 67.344C47.9554 67.0626 47.9672 66.7775 48.0249 66.5C48.1045 66.2492 48.0938 65.9785 47.9946 65.7348C47.8954 65.4911 47.714 65.2899 47.4819 65.166C46.8539 64.675 46.8669 64.683 47.0439 63.92C47.0487 63.8295 47.034 63.7391 47.0007 63.6549C46.9674 63.5707 46.9163 63.4947 46.851 63.432C46.458 63.061 46.226 62.675 46.515 62.137C46.538 62.0819 46.5522 62.0235 46.5569 61.964C46.7209 60.976 46.719 60.98 45.757 60.681C45.5005 60.6044 45.2517 60.5039 45.0139 60.381C44.3429 60.022 44.232 59.573 44.679 58.962C45.004 58.518 45.379 58.11 45.71 57.672C46.142 57.103 46.5899 56.542 46.9699 55.939C47.2423 55.5963 47.3856 55.1689 47.3748 54.7313C47.3641 54.2937 47.1999 53.8738 46.911 53.545C46.572 53.137 46.8159 52.645 46.8629 52.21C47.4279 46.979 50.0829 42.971 54.1809 39.81C56.9116 37.8138 59.7861 36.0222 62.781 34.45C65.8589 32.8724 68.7922 31.0273 71.547 28.936C72.869 27.857 74.041 26.594 75.282 25.416C75.5862 25.1074 75.7778 24.7056 75.826 24.275C75.926 23.675 76.0659 23.087 76.1919 22.475" fill="white"/>
            <path d="M22.146 57.416C21.8294 56.6642 21.7393 55.8363 21.887 55.034C21.9954 54.5737 22.221 54.1493 22.5421 53.8022C22.8631 53.455 23.2686 53.1969 23.719 53.053C24.8578 52.5956 26.0824 52.3909 27.3081 52.453C29.4331 52.537 31.553 52.743 33.674 52.917C34.8025 53.0577 35.948 52.8929 36.9911 52.44C37.5004 52.2034 37.9489 51.8534 38.3021 51.4168C38.6554 50.9802 38.904 50.4685 39.0291 49.921C39.4371 48.371 39.829 46.821 40.229 45.263C40.451 44.386 40.6711 43.508 40.8701 42.625C41.2029 41.2148 41.8573 39.9005 42.7821 38.785C44.4461 36.8062 46.4353 35.1255 48.664 33.815C52.592 31.36 56.564 28.982 60.531 26.582C64.8256 24.0643 68.969 21.2972 72.94 18.295C73.396 17.94 73.958 17.72 74.405 17.355C75.3186 16.6658 76.1753 15.9043 76.967 15.078C77.6381 14.3786 78.116 13.517 78.3543 12.5775C78.5925 11.6379 78.5828 10.6527 78.3261 9.71802C79.5025 10.2404 80.4235 11.2082 80.8871 12.409C81.0596 12.9733 81.1145 13.567 81.0485 14.1533C80.9824 14.7397 80.7968 15.3063 80.5031 15.818C79.6692 17.4439 78.4876 18.8663 77.0421 19.984C75.6822 21.0488 74.2668 22.0409 72.802 22.956C67.384 26.43 61.9271 29.845 56.5201 33.335C54.2051 34.829 51.976 36.456 49.707 38.021C48.0412 39.1584 46.6272 40.6262 45.5527 42.3333C44.4781 44.0404 43.7662 45.9502 43.461 47.944C43.1851 49.5081 42.7927 51.0494 42.2871 52.555C41.9312 53.4364 41.4381 54.2559 40.8261 54.983C40.2613 55.6602 39.5529 56.2032 38.7523 56.5727C37.9516 56.9421 37.0788 57.1288 36.1971 57.119C33.9051 57.176 31.6146 56.9567 29.3751 56.466C28.0021 56.232 26.599 56.154 25.206 56.056C24.7597 56.053 24.3147 56.1071 23.8821 56.217C23.522 56.2722 23.1792 56.4084 22.8794 56.6152C22.5796 56.822 22.3305 57.0941 22.1511 57.411" fill="white"/>
            <path d="M74.762 32.486C75.3959 32.9683 75.9224 33.5774 76.3077 34.2746C76.693 34.9718 76.9289 35.7416 77 36.535C77.0256 37.527 76.7182 38.499 76.127 39.296C75.469 40.261 74.6248 41.0848 73.644 41.719C71.455 43.131 69.229 44.488 67.006 45.849C65.2295 46.8567 63.5448 48.0181 61.971 49.32C60.7958 50.2283 59.926 51.4738 59.478 52.89C59.2901 53.5668 59.3033 54.2836 59.516 54.953C59.6073 55.2537 59.6292 55.5712 59.58 55.8816C59.5309 56.192 59.4119 56.4872 59.232 56.745C59.1014 56.9438 58.9605 57.1357 58.81 57.32C58.6765 57.4624 58.5838 57.6383 58.5419 57.8289C58.5 58.0196 58.5103 58.2181 58.5717 58.4034C58.6331 58.5887 58.7434 58.7541 58.891 58.8819C59.0385 59.0098 59.2178 59.0955 59.41 59.13C60.124 59.323 60.241 59.543 60.146 60.272C60.122 60.458 60.296 60.672 60.382 60.872C60.441 61.009 60.572 61.15 60.558 61.272C60.515 61.665 60.664 61.882 61.05 61.914C61.506 61.952 61.658 62.222 61.65 62.636C61.65 62.904 61.65 63.172 61.65 63.436C61.6374 63.5515 61.6479 63.6683 61.6808 63.7797C61.7137 63.8911 61.7684 63.9949 61.8416 64.085C61.9149 64.1752 62.0054 64.2499 62.1078 64.3048C62.2101 64.3597 62.3224 64.3937 62.438 64.405C63.1926 64.5005 63.9591 64.4194 64.677 64.168C65.977 63.849 67.265 63.492 68.577 63.245C70.2363 62.9941 71.9326 63.197 73.486 63.832C74.6934 64.2572 75.8621 64.7855 76.979 65.411C77.6595 65.7976 78.4094 66.0462 79.1861 66.1427C79.9627 66.2391 80.7507 66.1814 81.505 65.973C81.9093 65.8636 82.3239 65.7965 82.742 65.773C81.815 66.829 80.959 67.959 79.942 68.922C79.3738 69.4104 78.7079 69.772 77.9888 69.9826C77.2697 70.1932 76.5139 70.2478 75.772 70.143C74.5214 70.0452 73.3002 69.7135 72.172 69.165C71.4733 68.8609 70.8507 68.4056 70.349 67.832C69.6658 67.0902 68.7528 66.5998 67.757 66.44C66.9116 66.2041 66.0439 66.057 65.168 66.001C64.2503 66.0384 63.3378 66.1593 62.442 66.362C60.9449 66.7109 59.3903 66.7327 57.884 66.426C56.5 66.071 56.151 65.239 56.761 63.882C56.922 63.525 56.899 63.29 56.603 63.075C56.3499 62.8653 56.1419 62.6066 55.9914 62.3145C55.8408 62.0223 55.7509 61.7027 55.727 61.375C55.5361 60.7378 55.3858 60.0892 55.277 59.433C55.269 59.333 55.05 59.201 54.907 59.158C54.6251 59.0645 54.3317 59.0103 54.035 58.997C53.9001 59.01 53.7654 58.9696 53.6598 58.8846C53.5542 58.7996 53.4861 58.6766 53.47 58.542C53.4432 58.318 53.503 58.0924 53.637 57.911C54.01 57.468 54.437 57.066 54.845 56.656C55.0661 56.4738 55.224 56.2263 55.2958 55.9489C55.3677 55.6716 55.3499 55.3786 55.245 55.112C54.9531 54.0775 54.9947 52.9774 55.364 51.968C55.5067 51.316 55.666 50.6673 55.842 50.022C56.2427 48.7986 56.9951 47.7203 58.005 46.922C58.5208 46.5205 59.0638 46.1554 59.63 45.829C61.276 44.729 62.9 43.587 64.572 42.529C66.42 41.356 68.311 40.25 70.187 39.123C72.1039 38.1075 73.5795 36.4215 74.332 34.387C74.5089 33.7614 74.6541 33.1272 74.767 32.487" fill="white"/>
            <path d="M15.0949 61.7919C15.0174 61.0145 15.2362 60.2365 15.7077 59.6135C16.1793 58.9905 16.8686 58.5685 17.6379 58.4319C19.1575 58.0795 20.7427 58.1281 22.2379 58.5729C23.7302 59.0289 25.197 59.5646 26.6319 60.1779C31.9709 62.3169 37.0789 64.9559 42.2609 67.4349C44.3197 68.3508 46.2331 69.5638 47.9399 71.035C48.7187 71.7042 49.3985 72.4806 49.9589 73.3409C50.9869 75.0409 50.7849 75.6049 49.5719 76.8069C48.8401 77.4363 48.0582 78.0048 47.2339 78.507C46.5069 79.021 45.7399 79.487 45.0569 80.054C44.5027 80.4795 44.0847 81.0574 43.8538 81.7168C43.6229 82.3762 43.5892 83.0887 43.7569 83.767C43.8581 84.4422 43.9939 85.1117 44.1639 85.7729C44.438 86.5994 44.9464 87.3284 45.6273 87.8712C46.3081 88.4139 47.1321 88.747 47.9989 88.83C48.2869 88.885 48.5749 88.936 48.9489 89.004C48.2068 89.6199 47.3637 90.1027 46.4569 90.431C45.0597 90.975 43.5322 91.091 42.0689 90.764C40.8574 90.4664 39.8066 89.7147 39.1338 88.6642C38.461 87.6137 38.2175 86.3448 38.4539 85.1199C38.747 83.5047 39.6674 82.071 41.0139 81.132C41.9989 80.41 42.9679 79.667 43.9489 78.939C44.5325 78.4569 44.9278 77.7847 45.0655 77.0403C45.2032 76.296 45.0744 75.5269 44.7019 74.8679C44.2186 73.9658 43.5152 73.2004 42.6569 72.6429C41.3569 71.8039 40.0169 71.0279 38.6629 70.2819C35.5629 68.5719 32.4549 66.8699 29.3249 65.2139C26.747 63.7805 24.014 62.6458 21.1789 61.832C19.5134 61.2959 17.7405 61.1841 16.0209 61.507C15.7209 61.577 15.4279 61.6879 15.0929 61.7919" fill="white"/>
            <path d="M78.7039 20.668C83.1409 24.0305 86.8263 28.2831 89.5239 33.153C92.8397 39.0917 94.64 45.7563 94.7657 52.5568C94.8913 59.3573 93.3383 66.0839 90.2442 72.1411C87.1501 78.1982 82.6103 83.399 77.0267 87.2831C71.4431 91.1672 64.988 93.6147 58.2329 94.409C48.7662 95.5419 39.1988 93.3702 31.149 88.2613C23.0992 83.1523 17.0611 75.4198 14.056 66.3716C11.0509 57.3233 11.2633 47.5149 14.6573 38.6052C18.0512 29.6956 24.4184 22.2317 32.6819 17.476C40.1063 13.1592 48.7009 11.2882 57.2479 12.128C62.5713 12.587 67.7442 14.1314 72.4479 16.666C59.4309 10.479 46.4479 10.361 33.6479 17.159C25.3332 21.5223 18.8396 28.6982 15.3259 37.406C11.7059 46.0677 11.1513 55.7057 13.7538 64.7254C16.3564 73.7452 21.96 81.6062 29.6379 87.0081C37.3157 92.41 46.6076 95.029 55.9763 94.4318C65.345 93.8346 74.2291 90.057 81.1589 83.724C85.6703 79.7309 89.2172 74.7666 91.5327 69.2046C93.8482 63.6426 94.8719 57.6278 94.5269 51.613C94.0199 38.92 88.4529 28.703 78.7059 20.665" fill="white"/>
            <path d="M4.9609 57.335C5.1169 57.392 5.26989 57.463 5.42989 57.504C7.08389 57.9334 8.73856 58.36 10.3939 58.784C10.482 58.7984 10.5675 58.8253 10.6479 58.864C10.746 58.9334 10.839 59.01 10.9259 59.093C10.8592 59.1813 10.7796 59.2592 10.6899 59.324C9.7089 59.824 8.7219 60.314 7.7389 60.809C6.97156 61.1957 6.2049 61.584 5.4389 61.974L5.4609 62.096C5.8129 62.064 6.1609 62.036 6.5159 61.996C7.4779 61.896 8.44289 61.824 9.39989 61.696C10.0819 61.602 10.9549 61.752 10.9769 60.568L11.1329 60.668L11.3439 62.633C11.2907 62.6376 11.2371 62.6376 11.1839 62.633C11.0339 62.012 10.5989 61.879 10.0339 61.945C8.63389 62.109 7.2269 62.265 5.8229 62.427C5.2999 62.487 5.0759 62.834 5.0659 63.375L4.90289 63.324C4.85389 62.746 4.7869 62.168 4.7719 61.59C4.7719 61.495 4.98589 61.371 5.12189 61.301C6.4749 60.613 7.83189 59.933 9.18689 59.25C9.32789 59.179 9.4629 59.097 9.7099 58.96C8.7799 58.715 7.9679 58.5 7.1549 58.289C6.3209 58.073 5.48689 57.855 4.64989 57.651C4.36889 57.582 4.2219 57.466 4.2179 57.142C4.2129 56.742 4.12989 56.342 4.08789 55.942C4.08768 55.8176 4.09604 55.6933 4.1129 55.57C4.2319 55.71 4.3129 55.763 4.3279 55.83C4.4279 56.33 4.78589 56.43 5.20189 56.385C6.59289 56.246 7.98089 56.085 9.37189 55.942C9.93689 55.886 10.3499 55.695 10.3439 55.009L10.4929 55.039L10.7609 57.439L10.6409 57.466C10.5967 57.3983 10.5601 57.3258 10.5319 57.25C10.5178 57.1681 10.4874 57.09 10.4424 57.0201C10.3974 56.9503 10.3388 56.8903 10.2701 56.8436C10.2014 56.797 10.124 56.7646 10.0425 56.7485C9.96106 56.7324 9.87718 56.7329 9.79589 56.75C8.66989 56.8487 7.54456 56.9534 6.4199 57.064C5.9389 57.111 5.45889 57.174 4.97889 57.23L4.96289 57.33" fill="white"/>
            <path d="M99.02 34.11C98.178 34.164 97.336 34.215 96.494 34.272C95.394 34.345 94.294 34.427 93.194 34.491C93.0555 34.4758 92.9203 34.438 92.794 34.379C92.8526 34.2523 92.9258 34.1328 93.012 34.023C94.2687 32.7497 95.529 31.4797 96.793 30.213C96.903 30.102 97.0041 29.982 97.1091 29.866L97.0311 29.745C95.5231 30.468 94.01 31.181 92.51 31.921C92.11 32.121 92.192 32.51 92.31 32.878C91.8265 32.4034 91.5019 31.7906 91.381 31.124C91.407 31.117 91.449 31.096 91.459 31.106C92.014 31.679 92.071 31.695 92.802 31.365C93.887 30.874 94.973 30.386 96.049 29.876C96.626 29.602 97.349 29.403 96.996 28.437H97.1671C97.4051 28.978 97.656 29.515 97.867 30.067C97.896 30.143 97.733 30.313 97.633 30.414C96.5663 31.4974 95.4967 32.5783 94.424 33.657C94.314 33.769 94.213 33.89 94.01 34.116C94.881 34.057 95.616 34.009 96.35 33.956C97.331 33.886 98.3101 33.806 99.2921 33.748C99.3609 33.7433 99.43 33.7541 99.4942 33.7795C99.5584 33.8049 99.6161 33.8444 99.663 33.895C99.921 34.395 100.142 34.906 100.377 35.419C100.3 35.447 100.259 35.471 100.25 35.463C99.6741 34.917 99.569 34.899 98.814 35.244C97.663 35.771 96.5141 36.294 95.3651 36.83C94.6301 37.175 94.565 37.301 94.659 38.04C94.1344 37.3953 93.7679 36.6367 93.589 35.825C93.632 35.843 93.68 35.847 93.702 35.874C94.116 36.386 94.2211 36.44 94.8391 36.174C95.9581 35.687 97.061 35.163 98.17 34.653C98.465 34.518 98.757 34.377 99.05 34.239L99.022 34.11" fill="white"/>
            <path d="M85.709 15.083L87.586 16.708C87.456 16.772 87.409 16.816 87.386 16.808C86.706 16.545 86.604 16.56 86.118 17.08C85.733 17.491 85.362 17.915 84.951 18.371L87.105 20.299C87.612 19.685 88.116 19.108 88.571 18.499C88.659 18.38 88.571 18.114 88.531 17.923C88.4885 17.8142 88.4287 17.7129 88.354 17.623L88.477 17.516L90.377 19.208C90.187 19.208 90.091 19.238 90.046 19.208C89.646 18.896 89.32 19.049 89.029 19.364C88.604 19.823 88.19 20.292 87.773 20.758C87.306 21.279 86.832 21.795 86.373 22.324C85.973 22.786 85.473 23.243 86.205 23.914L86.005 23.986L84.186 22.353L84.233 22.164C84.962 22.784 85.343 22.256 85.748 21.814C86.118 21.414 86.486 21.002 86.898 20.547L84.737 18.618C84.211 19.242 83.71 19.825 83.222 20.418C82.922 20.782 83.144 21.104 83.383 21.423C82.643 21.0557 82 20.5192 81.506 19.857C81.517 19.847 81.535 19.827 81.539 19.829C82.246 20.259 82.656 19.795 83.067 19.329C83.853 18.429 84.647 17.545 85.428 16.645C86.005 15.98 86.009 15.896 85.628 15.179L85.709 15.097" fill="white"/>
            <path d="M28.7919 17.352L26.7109 18.579C26.6809 18.472 26.6569 18.431 26.6669 18.419C27.1379 17.867 27.1579 17.791 26.7789 17.136C26.1789 16.093 25.5569 15.058 24.9359 14.025C24.3879 13.113 24.3789 13.114 23.3999 13.051L25.4709 11.816C25.5119 11.916 25.5389 11.957 25.5309 11.964C25.0049 12.472 25.0929 12.645 25.4179 13.256C25.6819 13.756 25.9889 14.227 26.3179 14.773L28.7789 13.281C28.3409 12.616 27.9549 11.95 27.4789 11.358C27.3449 11.192 26.9409 11.245 26.6489 11.195C27.2454 10.6493 27.9535 10.2399 28.7239 9.995C28.6751 10.0726 28.6185 10.145 28.5549 10.211C28.4896 10.2557 28.4339 10.3128 28.3908 10.3792C28.3477 10.4455 28.3181 10.5197 28.3038 10.5975C28.2895 10.6753 28.2907 10.7551 28.3074 10.8324C28.324 10.9097 28.3558 10.983 28.4009 11.048C29.1856 12.3813 29.9806 13.7083 30.7859 15.029C31.0509 15.464 31.4569 15.51 31.9319 15.229L31.9589 15.414L29.8319 16.707C29.8319 16.576 29.8109 16.491 29.8319 16.475C30.3099 16.159 30.2389 15.76 29.9979 15.348C29.6979 14.834 29.3909 14.324 29.0639 13.827C29.0208 13.7813 28.9669 13.7472 28.9071 13.728C28.8473 13.7087 28.7835 13.705 28.7219 13.717C27.9879 14.136 27.2679 14.58 26.4699 15.062C26.9209 15.762 27.3239 16.433 27.7859 17.062C27.8929 17.207 28.1969 17.221 28.4169 17.262C28.5242 17.2598 28.6301 17.2371 28.7289 17.195L28.7949 17.344" fill="white"/>
            <path d="M62.425 10.2919C62.571 10.1919 62.618 10.1349 62.658 10.1399C63.258 10.2079 63.4341 9.80992 63.5341 9.33992C63.6521 8.78792 63.739 8.22992 63.869 7.68092C63.926 7.44192 63.8541 7.35292 63.6351 7.30992C62.9051 7.16892 62.176 7.02692 61.449 6.87192C61.194 6.81692 61.0941 6.92892 61.0491 7.15192C60.9301 7.77992 60.798 8.40492 60.692 9.03492C60.612 9.51492 60.914 9.76192 61.348 9.90992C60.5122 10.0078 59.6661 9.85759 58.915 9.47792C58.976 9.45392 59.029 9.41291 59.076 9.41891C59.605 9.48691 59.798 9.15192 59.889 8.72492C60.078 7.83892 60.2511 6.94992 60.4301 6.06192C60.5091 5.66892 60.586 5.27492 60.663 4.88192C60.778 4.29292 60.988 3.67292 60.063 3.43692L60.186 3.28992L62.538 3.76492L62.6 3.91692C61.608 3.82492 61.579 4.52691 61.452 5.14791C61.363 5.58191 61.2741 6.01592 61.1721 6.50992L63.9871 7.06192C64.1211 6.34592 64.256 5.69492 64.361 5.03792C64.434 4.57892 64.155 4.30692 63.709 4.15292L63.8021 4.01192L66.176 4.44392C66.118 4.54392 66.095 4.61292 66.076 4.61192C65.445 4.58092 65.2231 4.97192 65.1171 5.51192C64.8611 6.81192 64.5791 8.09992 64.3391 9.39892C64.2061 10.1179 64.263 10.1839 64.918 10.7869L62.4241 10.2929" fill="white"/>
            <path d="M73.343 13.315C73.6695 13.1794 73.9648 12.9786 74.211 12.725C74.4572 12.4714 74.6491 12.1703 74.775 11.84C74.825 11.69 74.696 11.462 74.606 11.292C74.551 11.192 74.4151 11.124 74.3161 11.043L74.38 10.928L76.313 11.869C76.265 11.935 76.24 11.98 76.232 11.978C75.646 11.778 75.258 12.096 74.856 12.461C74.4665 12.8072 74.0506 13.1225 73.612 13.404C73.5644 13.4224 73.5218 13.452 73.4879 13.4903C73.4541 13.5286 73.4298 13.5744 73.4173 13.6239C73.4048 13.6735 73.4043 13.7253 73.4159 13.7751C73.4275 13.8248 73.4509 13.8711 73.484 13.91C73.5828 14.1207 73.7414 14.2978 73.94 14.4192C74.1385 14.5407 74.3684 14.6011 74.601 14.593H75.069C74.8916 14.7149 74.6915 14.8 74.4806 14.8431C74.2697 14.8861 74.0522 14.8864 73.8412 14.8437C73.6302 14.8011 73.4299 14.7165 73.2522 14.5949C73.0746 14.4733 72.9232 14.3173 72.807 14.136C72.7545 14.0092 72.6633 13.9023 72.5464 13.8304C72.4295 13.7586 72.2928 13.7255 72.156 13.736C71.1695 13.6636 70.2265 13.3007 69.4461 12.693C69.3431 12.629 69.2556 12.5429 69.1898 12.4411C69.1241 12.3392 69.0817 12.2241 69.0657 12.1039C69.0498 11.9837 69.0606 11.8615 69.0975 11.746C69.1344 11.6306 69.1963 11.5247 69.279 11.436C69.554 11.0163 69.9221 10.6657 70.3547 10.4115C70.7872 10.1572 71.2726 10.0062 71.773 9.96999C72.119 9.94399 72.163 9.79199 72.22 9.51199C72.2705 9.07524 72.4035 8.65206 72.612 8.26499C72.7781 8.05436 72.9956 7.89007 73.2436 7.78796C73.4916 7.68585 73.7618 7.64937 74.028 7.68203C74.2942 7.71469 74.5475 7.8154 74.7635 7.97443C74.9795 8.13347 75.1508 8.34546 75.261 8.58999C75.3266 8.72145 75.3609 8.86627 75.3614 9.01317C75.3619 9.16008 75.3284 9.30511 75.2637 9.43699C75.199 9.56886 75.1047 9.68403 74.9882 9.77353C74.8717 9.86302 74.7362 9.92444 74.5921 9.95299C74.1705 10.0388 73.7421 10.0873 73.312 10.098C73.112 10.115 72.9001 10.113 72.9331 10.398C73.0344 11.2833 73.14 12.168 73.25 13.052C73.2725 13.1409 73.303 13.2276 73.341 13.311M70.416 11.722C70.3962 12.1956 70.5646 12.6578 70.8845 13.0076C71.2043 13.3574 71.6495 13.5664 72.123 13.589C72.413 13.604 72.558 13.523 72.508 13.178C72.377 12.27 72.264 11.359 72.177 10.446C72.147 10.129 72.016 10.077 71.746 10.121C71.3688 10.1832 71.0266 10.3791 70.782 10.6729C70.5374 10.9667 70.4068 11.3388 70.414 11.721M73.314 9.94699C74.138 9.94699 74.679 9.58799 74.809 8.97199C74.8519 8.77495 74.8265 8.56918 74.7369 8.38852C74.6473 8.20786 74.4989 8.06307 74.3161 7.97799C74.1314 7.89088 73.92 7.87924 73.7269 7.94553C73.5338 8.01183 73.3743 8.15083 73.2821 8.33299C73.1236 8.71245 73.0072 9.10815 72.935 9.51299C72.865 9.82799 73.006 9.99999 73.314 9.94699Z" fill="white"/>
            <path d="M14.8991 72.5119L15.9901 74.6539L15.8721 74.8309C15.4401 73.9669 14.8891 74.3199 14.3721 74.5779C13.2391 75.1419 12.1201 75.7329 10.9901 76.3019C10.4971 76.5499 10.1821 76.8649 10.4031 77.4659C10.4131 77.4919 10.3661 77.5379 10.3191 77.6229C10.2467 77.5549 10.1819 77.4791 10.1261 77.3969C9.72606 76.6139 9.32606 75.8349 8.95206 75.0389C8.80834 74.7134 8.7075 74.3705 8.65206 74.0189C8.60893 73.7723 8.63186 73.5186 8.71855 73.2837C8.80524 73.0488 8.95259 72.841 9.14561 72.6815C9.33863 72.522 9.57045 72.4165 9.81748 72.3756C10.0645 72.3348 10.318 72.3601 10.5521 72.4489C10.9486 72.65 11.3247 72.8891 11.6751 73.1629C11.743 73.0867 11.8067 73.007 11.8661 72.924C12.2391 72.367 12.6071 71.8069 12.9771 71.2479C13.3086 70.8098 13.4798 70.2711 13.4621 69.7219C13.6621 70.1219 13.8831 70.5059 14.0621 70.9139C14.0971 70.9949 13.9861 71.1539 13.9161 71.2609C13.3821 72.0859 12.8341 72.9019 12.3161 73.7349C12.2258 73.8919 12.1936 74.0756 12.2251 74.2539C12.2911 74.5689 12.4701 74.6899 12.8031 74.4939C13.2381 74.2379 13.7031 74.0359 14.1481 73.7939C14.8101 73.4279 14.8591 73.3149 14.7571 72.5989L14.9071 72.5139M12.2491 74.7959C12.1281 74.5439 12.0491 74.3579 11.9491 74.1769C11.8381 73.9162 11.6666 73.6857 11.4489 73.5043C11.2312 73.323 10.9735 73.196 10.6971 73.1339C10.4039 73.0703 10.0978 73.1087 9.82936 73.2427C9.56096 73.3767 9.34636 73.5983 9.22106 73.8709C9.105 74.1841 9.08099 74.524 9.15187 74.8504C9.22275 75.1768 9.38555 75.4761 9.62106 75.713C9.70564 75.7632 9.80002 75.7947 9.89783 75.8054C9.99564 75.8161 10.0946 75.8057 10.1881 75.7749C10.8671 75.4839 11.5251 75.1459 12.2531 74.7949" fill="white"/>
            <path d="M100.255 70.935C99.9066 72.1444 99.3791 73.2948 98.6901 74.348C98.5152 74.6217 98.2524 74.8277 97.9448 74.9321C97.6373 75.0364 97.3033 75.0328 96.998 74.922C96.6851 74.7955 96.4212 74.5716 96.2456 74.2834C96.07 73.9952 95.9919 73.6581 96.0229 73.322C96.0229 73.132 96.0421 72.942 96.0551 72.689L95.197 72.769C94.767 72.808 94.336 72.834 93.908 72.888C93.28 72.9031 92.6741 73.1225 92.182 73.513C92.366 73.106 92.5369 72.691 92.7469 72.298C92.7879 72.221 92.982 72.209 93.108 72.198C94.054 72.092 94.999 71.976 95.948 71.898C96.394 71.862 96.572 71.634 96.615 71.156C95.915 70.868 95.215 70.556 94.495 70.29C94.3545 70.2312 94.1973 70.2257 94.0531 70.2747C93.9089 70.3237 93.7876 70.4238 93.712 70.556C93.6594 70.6164 93.5984 70.6689 93.531 70.712L93.4189 70.647L94.39 68.41C94.49 68.471 94.532 68.488 94.531 68.502C94.489 69.241 94.5449 69.356 95.2469 69.673C96.4809 70.229 97.7281 70.758 98.9611 71.316C99.0687 71.3839 99.1895 71.4281 99.3156 71.4458C99.4416 71.4635 99.5698 71.4543 99.692 71.4188C99.8142 71.3832 99.9275 71.3221 100.024 71.2396C100.121 71.1571 100.2 71.055 100.254 70.94M96.3881 72.769C96.3788 73.0423 96.4481 73.3125 96.5878 73.5475C96.7274 73.7825 96.9316 73.9725 97.176 74.095C97.4111 74.2142 97.6779 74.2555 97.938 74.2131C98.1981 74.1707 98.438 74.0467 98.623 73.859C98.86 73.6172 99.0561 73.3386 99.204 73.034C99.2509 72.9609 99.2806 72.878 99.2906 72.7917C99.3007 72.7054 99.2908 72.618 99.2618 72.5361C99.2329 72.4542 99.1856 72.3799 99.1235 72.3191C99.0615 72.2582 98.9865 72.2124 98.9041 72.185C98.5191 71.993 98.124 71.82 97.731 71.643C96.807 71.227 96.645 71.318 96.46 72.35C96.434 72.496 96.4129 72.643 96.3929 72.768" fill="white"/>
            <path d="M36.094 93.3309C35.271 92.9639 34.994 93.5309 34.694 94.0519C34.159 94.9809 33.619 95.907 33.104 96.846C32.778 97.446 32.26 98.046 33.049 98.687C32.973 98.726 32.939 98.757 32.926 98.749C32.007 98.231 31.045 97.7729 30.182 97.1739C29.5657 96.7755 29.1259 96.1557 28.9536 95.4423C28.7812 94.729 28.8895 93.9767 29.256 93.341C29.5248 92.6252 30.06 92.041 30.7497 91.7109C31.4393 91.3808 32.2299 91.3303 32.956 91.57C34.0446 92.0135 35.1047 92.5241 36.13 93.0989L36.094 93.3309ZM29.594 95.031C29.5339 95.5339 29.6396 96.0428 29.8952 96.4802C30.1508 96.9175 30.5422 97.2595 31.01 97.4539C31.479 97.6909 31.704 97.645 31.992 97.207C32.261 96.798 32.492 96.365 32.734 95.936C33.218 95.065 33.705 94.196 34.17 93.3149C34.339 92.994 34.46 92.6149 34.113 92.3359C33.8761 92.1191 33.5939 91.9575 33.287 91.8629C32.98 91.7683 32.6559 91.7431 32.338 91.7889C31.6282 92.0268 30.9971 92.4546 30.5135 93.0261C30.0299 93.5975 29.7122 94.2906 29.595 95.03" fill="white"/>
            <path d="M11.3319 44.6409L10.9319 46.541H10.8229C10.7917 46.4835 10.7714 46.4208 10.7629 46.356C10.7748 46.2625 10.7676 46.1677 10.7416 46.0771C10.7157 45.9866 10.6716 45.9023 10.612 45.8294C10.5523 45.7565 10.4785 45.6965 10.3949 45.6531C10.3114 45.6097 10.2198 45.5838 10.1259 45.5769C9.05289 45.3369 7.97889 45.106 6.90389 44.877C6.54089 44.799 6.17188 44.7479 5.80988 44.6639C5.35888 44.5639 5.00989 44.64 4.84789 45.123C4.83376 45.1909 4.7988 45.2528 4.74788 45.3C4.64672 44.9901 4.65069 44.6554 4.75918 44.3481C4.86767 44.0407 5.07462 43.7777 5.34789 43.5999C6.80655 42.9626 8.26588 42.3263 9.72588 41.6909C9.90689 41.6119 10.0799 41.5119 10.2569 41.4219L10.2369 41.3109C9.00389 41.0659 7.77189 40.8169 6.53689 40.5769C6.43366 40.5457 6.32476 40.538 6.21815 40.5542C6.11154 40.5705 6.0099 40.6104 5.92067 40.6709C5.83145 40.7315 5.75688 40.8112 5.70241 40.9043C5.64795 40.9974 5.61497 41.1015 5.60589 41.209L5.44988 41.119L5.82689 39.2319C5.91989 39.2709 5.96688 39.2779 5.96988 39.2929C6.09488 40.0259 6.17989 40.1139 6.93289 40.2729C8.48889 40.6003 10.0446 40.9276 11.5999 41.2549C11.7411 41.2835 11.8723 41.3491 11.9799 41.4449C10.0059 42.4669 7.95188 43.2809 5.93488 44.2119C5.98088 44.2789 5.99989 44.3369 6.02889 44.3439C7.33589 44.6279 8.63889 44.9309 9.95189 45.1799C10.6769 45.3169 10.7289 45.2559 11.1709 44.6199L11.3229 44.6469" fill="white"/>
            <path d="M97.1709 51.3269L102.171 46.9549L102.122 46.8489C101.761 46.8779 101.4 46.8989 101.041 46.9379C100.036 47.0466 99.0307 47.1596 98.026 47.2769C97.311 47.3619 97.2199 47.4459 96.9259 48.1389L96.7069 46.2119L96.902 46.0779C96.9283 46.1606 96.95 46.2448 96.9669 46.3299C97.0479 46.8839 97.467 46.9739 97.897 46.9369C99.32 46.8159 100.74 46.6649 102.161 46.5179C102.678 46.4639 102.991 46.1799 102.979 45.5089C103.197 45.8112 103.297 46.1828 103.26 46.5538C103.224 46.9248 103.052 47.2695 102.779 47.5229C101.614 48.5229 100.447 49.5229 99.2789 50.5229C99.1112 50.6538 98.9772 50.8228 98.8879 51.0159C99.2879 50.9819 99.688 50.9489 100.088 50.9159C100.844 50.8479 101.6 50.7849 102.355 50.7089C102.901 50.6539 103.425 50.5539 103.389 49.7739L103.539 49.8229C103.598 50.4549 103.656 51.0859 103.717 51.7439C103.599 51.7229 103.552 51.727 103.547 51.713C103.259 51.044 103.235 50.9939 102.488 51.0499C101.004 51.1609 99.524 51.316 98.043 51.45C97.782 51.474 97.519 51.4849 97.257 51.5019L97.1649 51.3329" fill="white"/>
            <path d="M14.841 23.1C15.6775 23.1241 16.4845 23.4142 17.145 23.9282C17.8054 24.4421 18.285 25.1531 18.514 25.958C18.5919 26.3521 18.5818 26.7585 18.4844 27.1483C18.387 27.538 18.2047 27.9015 17.9506 28.2126C17.6965 28.5238 17.3768 28.7749 17.0144 28.9482C16.6519 29.1215 16.2557 29.2126 15.854 29.215C15.0553 29.1819 14.2853 28.908 13.6452 28.4291C13.0052 27.9502 12.525 27.2889 12.268 26.532C12.145 26.1322 12.1185 25.709 12.1903 25.297C12.2622 24.8849 12.4305 24.4958 12.6815 24.1612C12.9325 23.8266 13.2591 23.5562 13.6345 23.3719C14.01 23.1877 14.4238 23.0948 14.842 23.101M14.016 23.674C13.9038 23.6837 13.7925 23.7017 13.683 23.728C13.4409 23.7946 13.2183 23.9183 13.0339 24.0886C12.8495 24.259 12.7086 24.471 12.623 24.707C12.5374 24.943 12.5096 25.1962 12.542 25.4451C12.5743 25.6941 12.6659 25.9317 12.809 26.138C13.1801 26.8048 13.7023 27.3754 14.3337 27.804C14.9651 28.2326 15.6882 28.5073 16.445 28.606C16.701 28.6379 16.961 28.6052 17.2012 28.5108C17.4414 28.4165 17.6542 28.2635 17.8201 28.0659C17.9861 27.8682 18.0999 27.6322 18.1512 27.3793C18.2025 27.1264 18.1897 26.8647 18.114 26.618C17.7531 25.8077 17.1832 25.108 16.4627 24.5906C15.7422 24.0733 14.8971 23.7569 14.014 23.674" fill="white"/>
            <path d="M35.15 8.718L36.08 10.902C35.134 10.091 34.942 10.068 33.721 10.702C34.053 11.454 34.373 12.217 34.726 12.964C34.7852 13.0879 34.8907 13.1836 35.0197 13.2306C35.1488 13.2775 35.2911 13.2719 35.416 13.215C35.9112 13.1292 36.3697 12.8982 36.7335 12.5514C37.0972 12.2046 37.3497 11.7575 37.459 11.267C37.51 11.0913 37.5769 10.9205 37.659 10.757L37.819 10.772C37.819 11.322 37.825 11.872 37.81 12.422C37.81 12.478 37.693 12.55 37.617 12.581C36.2697 13.137 34.9207 13.6893 33.57 14.238C33.537 14.252 33.49 14.233 33.451 14.229C33.451 14.188 33.432 14.145 33.444 14.134C33.996 13.639 34.029 13.545 33.744 12.834C33.3187 11.7713 32.882 10.7133 32.434 9.66C32.169 9.041 32.042 8.244 30.988 8.482L31.027 8.35999C31.149 8.29699 31.268 8.225 31.395 8.173C32.549 7.694 33.708 7.227 34.857 6.736C34.9695 6.66482 35.1051 6.63985 35.2356 6.66631C35.366 6.69277 35.4812 6.76862 35.557 6.878C35.804 7.173 36.088 7.437 36.357 7.714L36.248 7.84599C36.048 7.73799 35.848 7.633 35.648 7.52C35.23 7.30033 34.7562 7.20986 34.2867 7.26007C33.8171 7.31028 33.3731 7.49891 33.011 7.802C32.9338 7.87222 32.8751 7.96046 32.8402 8.05887C32.8053 8.15727 32.7953 8.26279 32.811 8.366C33.02 9.015 33.286 9.646 33.558 10.272C33.589 10.342 33.81 10.392 33.913 10.358C34.794 10.074 35.049 9.705 35.149 8.719" fill="white"/>
            <path d="M78.054 91.592C79.069 92.164 79.354 92.1301 80.398 91.2141C79.898 90.5481 79.3979 89.865 78.8749 89.207C78.6649 88.944 78.367 89.007 78.098 89.155C77.6423 89.3667 77.2579 89.7063 76.9916 90.1323C76.7253 90.5584 76.5886 91.0527 76.598 91.5551C76.598 91.7121 76.5769 91.869 76.5649 92.025L76.434 92.05C76.297 91.521 76.1549 90.994 76.0339 90.462C76.0219 90.411 76.1229 90.316 76.1909 90.267C77.3503 89.429 78.512 88.5937 79.676 87.761C79.7293 87.7328 79.7856 87.7107 79.8439 87.6951C79.8599 87.7611 79.8909 87.816 79.8749 87.838C79.4549 88.438 79.4319 88.519 79.8649 89.126C80.6649 90.242 81.489 91.335 82.298 92.442C82.3537 92.5564 82.4354 92.6563 82.5364 92.7336C82.6374 92.811 82.755 92.8638 82.8799 92.8879C83.0049 92.9119 83.1338 92.9066 83.2563 92.8723C83.3788 92.8379 83.4917 92.7756 83.5859 92.6901L83.595 92.861C83.495 92.952 83.3949 93.052 83.2889 93.131C82.2519 93.884 81.2079 94.631 80.1769 95.39C80.0998 95.4678 79.9958 95.5131 79.8862 95.5167C79.7767 95.5202 79.67 95.4817 79.588 95.4091C79.255 95.1731 78.898 94.9701 78.551 94.7531L78.595 94.6301C78.795 94.6681 79.0089 94.69 79.2079 94.748C79.6734 94.8656 80.1631 94.845 80.617 94.6887C81.071 94.5324 81.4695 94.2473 81.7639 93.868C81.821 93.7652 81.8522 93.65 81.8548 93.5324C81.8574 93.4148 81.8314 93.2983 81.7789 93.1931C81.4229 92.5931 81.0009 92.0341 80.6099 91.4691C79.6529 91.7561 79.3479 92.34 79.4789 93.506L78.0519 91.5861" fill="white"/>
            <path d="M45.406 10.2199L43.025 10.8889L42.965 10.7439C43.096 10.6819 43.229 10.6219 43.359 10.5569C43.65 10.4129 43.759 10.1949 43.579 9.90294C43.338 9.50994 43.091 9.11894 42.819 8.74794C42.7728 8.69988 42.716 8.66329 42.6532 8.64107C42.5903 8.61884 42.5232 8.61161 42.457 8.61994C41.864 8.76094 41.278 8.92894 40.694 9.10194C40.594 9.13094 40.45 9.22494 40.442 9.30194C40.3846 9.77371 40.3575 10.2487 40.361 10.7239C40.369 11.0329 40.613 11.1799 40.916 11.1979C41.056 11.2059 41.198 11.1979 41.338 11.1979L41.367 11.3659L39.304 11.9259L39.254 11.8259C39.3081 11.7722 39.3576 11.714 39.402 11.6519C39.587 11.3459 39.885 11.0519 39.925 10.7249C40.046 9.75194 40.064 8.76694 40.125 7.78694C40.171 7.01394 40.252 6.24194 40.254 5.46994C40.2409 5.25747 40.3089 5.04795 40.4445 4.88381C40.58 4.71967 40.7729 4.61319 40.984 4.58594C41.064 4.68594 41.158 4.80094 41.24 4.91994C42.24 6.3826 43.24 7.84661 44.24 9.31194C44.527 9.73594 44.832 10.1179 45.483 10.0379L45.411 10.2189M42.53 8.18094L40.731 5.63494L40.578 5.69694V8.71994L42.525 8.18094" fill="white"/>
            <path d="M9.18101 47.9259C9.66901 48.1499 10.159 48.3679 10.641 48.6049C10.694 48.6309 10.72 48.7609 10.717 48.8399C10.657 50.2979 10.592 51.7559 10.522 53.2139C10.522 53.2439 10.471 53.2719 10.414 53.3329C10.374 53.2489 10.323 53.1909 10.323 53.1329C10.3283 53.0496 10.3162 52.9662 10.2874 52.8878C10.2587 52.8095 10.2138 52.738 10.1559 52.6779C10.0979 52.6179 10.028 52.5706 9.95074 52.5391C9.87345 52.5076 9.79044 52.4925 9.70701 52.4949C8.11601 52.4099 6.52301 52.3419 4.93001 52.3169C4.73901 52.3169 4.53501 52.5979 4.35401 52.7679C4.2901 52.8523 4.24044 52.9465 4.20701 53.0469L4.08301 53.0249C4.07501 52.8759 4.05501 52.7249 4.06201 52.5789C4.11701 51.3789 4.19201 50.1699 4.22701 48.9639C4.20535 48.8026 4.24841 48.6393 4.34678 48.5096C4.44515 48.38 4.59083 48.2945 4.75201 48.2719C5.09701 48.1889 5.42901 48.0499 5.76701 47.9349L5.83901 48.0709C5.66001 48.2089 5.48601 48.3519 5.30201 48.4829C4.95016 48.7619 4.68114 49.1317 4.52395 49.5523C4.36676 49.9729 4.32737 50.4286 4.41001 50.8699C4.40977 50.949 4.42592 51.0273 4.45743 51.0999C4.48894 51.1724 4.53512 51.2377 4.59308 51.2915C4.65104 51.3453 4.71951 51.3865 4.79419 51.4126C4.86887 51.4387 4.94814 51.449 5.02701 51.4429C5.59201 51.4759 6.15901 51.4889 6.72701 51.5369C7.07001 51.5659 7.15901 51.4219 7.17001 51.1039C7.19901 50.3199 7.05401 49.6669 6.04401 49.5429L6.15301 49.4179L8.48101 49.5289C8.14301 49.7749 7.71001 49.9449 7.53001 50.2599C7.39203 50.6746 7.32707 51.1101 7.33801 51.5469C8.24701 51.5749 9.08901 51.6159 9.93201 51.6209C10.258 51.6209 10.368 51.3609 10.411 51.0719C10.5355 50.5689 10.5068 50.0401 10.3286 49.5535C10.1504 49.0669 9.83087 48.6447 9.41101 48.3409C9.28816 48.2628 9.16058 48.1923 9.02901 48.1299L9.18501 47.9299" fill="white"/>
            <path d="M29.4059 89.3269C28.5929 88.9119 28.2459 89.5039 27.8589 89.9929C27.1836 90.8463 26.5106 91.7013 25.8399 92.5579C25.1849 93.3969 25.187 93.399 25.595 94.369C25.4635 94.3027 25.3359 94.2289 25.2129 94.1479C24.1879 93.3539 23.1689 92.548 22.1369 91.765C22.0471 91.7156 21.9786 91.6349 21.9444 91.5382C21.9103 91.4416 21.913 91.3357 21.9519 91.2409C22.0739 90.8499 22.175 90.4519 22.285 90.0569H22.3979C22.4379 90.3769 22.4829 90.6959 22.5169 91.0169C22.6169 91.9869 23.3399 92.4589 24.0759 92.8909C24.1787 92.9133 24.2853 92.9103 24.3865 92.882C24.4878 92.8538 24.5806 92.8012 24.6569 92.7289C25.1329 92.2009 25.5569 91.6289 25.9969 91.0849C25.3369 90.2519 24.809 90.157 23.716 90.593L25.175 88.7469C25.1098 89.1407 25.1206 89.5433 25.207 89.9329C25.369 90.2939 25.7799 90.5439 26.1459 90.9039C26.7009 90.1689 27.2139 89.5189 27.6929 88.8449C27.8989 88.5549 27.7649 88.281 27.5209 88.054C27.1905 87.6851 26.7627 87.4168 26.2867 87.2801C25.8107 87.1434 25.3058 87.1437 24.83 87.2809C24.6653 87.3189 24.4982 87.3456 24.33 87.3609L24.2839 87.2429C24.7209 86.9789 25.1529 86.7059 25.5989 86.4589C25.6529 86.4461 25.709 86.4455 25.7632 86.4573C25.8174 86.469 25.8682 86.4929 25.912 86.5269C27.0346 87.3936 28.1523 88.2636 29.2649 89.1369C29.3191 89.1933 29.3652 89.2569 29.4019 89.3259" fill="white"/>
            <path d="M96.527 67.543C96.02 67.16 95.595 66.843 95.184 66.517C95.1515 66.4806 95.128 66.4372 95.1151 66.3901C95.1023 66.3431 95.1005 66.2938 95.11 66.246C95.498 64.846 95.8934 63.446 96.296 62.046C96.31 61.996 96.359 61.9569 96.444 61.8459C96.4639 61.9447 96.4737 62.0452 96.473 62.1459C96.4388 62.3019 96.4664 62.4652 96.5502 62.6012C96.634 62.7372 96.7673 62.8354 96.922 62.8749C97.339 63.0309 97.768 63.155 98.197 63.275C99.156 63.545 100.118 63.802 101.077 64.069C101.608 64.217 102.088 64.244 102.342 63.618C102.35 63.597 102.417 63.6 102.517 63.579C102.494 63.715 102.485 63.821 102.457 63.921C102.107 65.181 101.745 66.437 101.411 67.7C101.395 67.8173 101.337 67.9248 101.246 68.0013C101.156 68.0778 101.04 68.118 100.922 68.114C100.543 68.14 100.166 68.18 99.788 68.214L99.746 68.0909C99.8851 68.0101 100.029 67.9387 100.178 67.877C100.645 67.691 101.044 67.3673 101.323 66.949C101.602 66.5307 101.746 66.0375 101.738 65.535C101.724 65.4245 101.683 65.3192 101.618 65.2285C101.554 65.1377 101.468 65.0644 101.368 65.015C100.751 64.7977 100.123 64.6165 99.485 64.472C99.397 64.451 99.196 64.5989 99.161 64.7059C98.91 65.4629 98.8541 66.1799 99.8111 66.5859L99.711 66.67L97.38 66.028C97.439 65.954 97.456 65.914 97.473 65.915C97.6679 65.9503 97.8682 65.94 98.0584 65.8849C98.2486 65.8299 98.4234 65.7315 98.5692 65.5975C98.715 65.4635 98.8278 65.2976 98.8987 65.1127C98.9696 64.9279 98.9968 64.7291 98.9781 64.532C98.9781 64.448 98.851 64.308 98.757 64.28C98.088 64.08 97.412 63.905 96.74 63.712C96.302 63.586 96.0619 63.7829 95.9149 64.1719C95.6968 64.6162 95.6121 65.1142 95.671 65.6056C95.73 66.097 95.93 66.5609 96.247 66.941C96.3382 67.0581 96.4217 67.181 96.497 67.309C96.5155 67.3853 96.5262 67.4634 96.529 67.5419" fill="white"/>
            <path d="M18.919 78.952L20.181 80.71L20.096 80.85C19.253 80.112 18.428 80.5849 17.612 80.8259C16.373 81.1919 15.134 81.5659 13.912 81.9969C13.6971 82.1107 13.446 82.1353 13.2131 82.0656C12.9801 81.9958 12.784 81.8372 12.667 81.624C12.744 81.512 12.831 81.3789 12.925 81.2499C13.851 79.9719 14.786 78.7009 15.7 77.4149C16.087 76.8709 16.592 76.356 16.31 75.562L16.453 75.5229L17.901 77.5579L17.785 77.6689C17.685 77.5689 17.585 77.469 17.485 77.369C17.4443 77.3094 17.3891 77.2611 17.3247 77.2286C17.2603 77.1962 17.1886 77.1805 17.1165 77.1832C17.0444 77.1859 16.9742 77.2069 16.9124 77.2441C16.8505 77.2813 16.7992 77.3335 16.763 77.3959C16.479 77.7589 16.211 78.135 15.963 78.522C15.9368 78.5773 15.9236 78.6378 15.9245 78.699C15.9253 78.7602 15.9402 78.8204 15.968 78.8749C16.314 79.3949 16.674 79.907 17.052 80.405C17.0996 80.4504 17.157 80.4841 17.2198 80.5037C17.2826 80.5233 17.349 80.5282 17.414 80.5179C17.761 80.4355 18.1024 80.331 18.436 80.205C18.998 79.998 19.072 79.8049 18.852 79.2599C18.8276 79.1841 18.8089 79.1066 18.796 79.028L18.921 78.9539M13.754 81.489L13.835 81.6089L16.835 80.687L15.592 78.9449L13.756 81.488" fill="white"/>
            <path d="M58.945 103.154L56.7111 103.448C56.7991 103.3 56.821 103.21 56.869 103.192C57.1154 103.083 57.3272 102.908 57.481 102.687C57.6347 102.465 57.7247 102.206 57.741 101.937C58.087 100.327 58.42 98.7139 58.768 97.1039C58.7906 96.9328 58.8674 96.7734 58.9871 96.649C59.4151 96.324 59.582 96.381 59.812 96.867C60.429 98.167 61.024 99.484 61.67 100.773C62.016 101.464 62.179 102.326 63.149 102.529L63.1151 102.66L60.657 102.96L60.6151 102.827C60.7361 102.784 60.855 102.727 60.979 102.699C61.33 102.605 61.501 102.412 61.343 102.045C61.161 101.623 60.981 101.198 60.768 100.791C60.728 100.736 60.6756 100.691 60.615 100.66C60.5543 100.629 60.4872 100.612 60.419 100.612C59.813 100.673 59.21 100.763 58.609 100.858C58.509 100.874 58.362 100.951 58.343 101.027C58.2242 101.471 58.134 101.922 58.0731 102.377C58.0331 102.725 58.242 102.93 58.6 102.963C58.711 102.973 58.821 102.99 58.931 103.004L58.944 103.159M60.532 100.265L59.216 97.4259L59.0861 97.445L58.4171 100.531L60.531 100.265" fill="white"/>
            <path d="M96.543 45.309L95.892 42.909L96.009 42.852C96.0731 42.9418 96.1305 43.036 96.181 43.134C96.397 43.634 96.562 43.69 97.026 43.399C97.114 43.344 97.196 43.279 97.282 43.219C98.247 42.545 98.247 42.545 97.916 41.368C97.616 40.303 97.616 40.303 96.559 40.246C95.737 40.201 95.5999 40.33 95.5859 41.146C95.5859 41.182 95.548 41.217 95.458 41.376L94.8629 39.176L94.991 39.093C95.457 39.927 96.2459 39.883 97.0189 39.918C98.5189 39.986 100.019 40.095 101.526 40.15C101.951 40.166 102.054 40.46 102.144 40.734C102.175 40.834 101.954 41.055 101.804 41.157C100.438 42.089 99.059 43.001 97.692 43.931C97.203 44.263 96.673 44.579 96.703 45.317L96.543 45.307M101.143 40.636L101.085 40.502L97.959 40.32L98.527 42.411L101.143 40.636Z" fill="white"/>
            <path d="M20.8481 85.9619C21.4074 85.4398 21.9338 84.8833 22.4241 84.2959C22.5871 84.0789 22.4501 83.6359 22.4501 83.2959L22.2711 83.3959L24.1151 85.0109C24.0611 85.0469 24.0281 85.0829 24.0151 85.0759C23.2991 84.7239 23.2211 84.7359 22.6381 85.2999C21.7288 86.1793 20.8204 87.0596 19.9131 87.9409C19.2791 88.5599 19.2721 88.6169 19.6701 89.4969C19.5516 89.4253 19.4384 89.3454 19.3311 89.2579C18.6911 88.6139 18.0311 87.9869 17.4311 87.3109C17.1404 86.9944 16.9209 86.6193 16.7871 86.2109C16.6948 85.908 16.7034 85.5834 16.8116 85.2858C16.9198 84.9882 17.1218 84.7338 17.3871 84.5609C17.6105 84.3703 17.8883 84.2548 18.181 84.2308C18.4737 84.2067 18.7665 84.2754 19.0181 84.4269C19.4783 84.7226 19.9147 85.0539 20.3231 85.4179C20.5073 85.5866 20.6823 85.7652 20.8471 85.9529M20.7041 86.0659C20.33 85.7127 19.9288 85.3894 19.5041 85.0989C19.2101 84.938 18.872 84.8763 18.5401 84.9229C18.2572 84.9667 17.9939 85.094 17.784 85.2886C17.5741 85.4832 17.4271 85.7361 17.3621 86.0149C17.3062 86.3244 17.3428 86.6436 17.4673 86.9324C17.5918 87.2213 17.7987 87.467 18.0621 87.6389C18.1164 87.7016 18.1831 87.7523 18.258 87.7879C18.3328 87.8235 18.4143 87.8432 18.4972 87.8457C18.58 87.8482 18.6625 87.8336 18.7395 87.8026C18.8164 87.7717 18.8861 87.7251 18.9441 87.6659C19.5091 87.1659 20.0621 86.6499 20.7021 86.0659" fill="white"/>
            <path d="M43.673 95.999L46.026 96.505C45.99 96.596 45.983 96.643 45.969 96.645C45.187 96.765 45.144 96.797 44.969 97.577C44.744 98.577 44.503 99.577 44.322 100.577C44.2464 100.986 44.2532 101.406 44.342 101.812C44.515 102.548 45.149 102.753 45.805 102.85C46.0852 102.919 46.3805 102.887 46.64 102.761C46.8995 102.635 47.1068 102.423 47.226 102.16C47.4677 101.572 47.6591 100.964 47.798 100.343C47.97 99.668 48.098 98.981 48.227 98.296C48.327 97.775 48.414 97.237 47.694 97.005L47.767 96.875L49.707 97.264C49.598 97.364 49.564 97.425 49.522 97.431C48.816 97.538 48.722 97.625 48.579 98.309C48.371 99.296 48.164 100.284 47.948 101.27C47.8998 101.503 47.8302 101.73 47.74 101.95C47.5553 102.415 47.1974 102.791 46.7415 102.998C46.2856 103.206 45.7671 103.228 45.295 103.061C44.9955 103.039 44.7047 102.951 44.444 102.802C44.1832 102.653 43.9592 102.447 43.7883 102.2C43.6175 101.953 43.5041 101.671 43.4567 101.375C43.4092 101.078 43.4288 100.775 43.514 100.487C43.742 99.5199 43.914 98.54 44.114 97.567C44.235 96.985 44.414 96.393 43.544 96.135L43.675 95.995" fill="white"/>
            <path d="M21.1289 17.335C20.9405 17.3384 20.752 17.3287 20.5649 17.306C20.1044 17.2421 19.6351 17.3079 19.2099 17.4961C18.7847 17.6842 18.4204 17.9872 18.1579 18.371C18.1004 18.4309 18.0559 18.5021 18.027 18.58C17.9981 18.6579 17.9855 18.7409 17.99 18.8239C17.9945 18.9068 18.016 18.988 18.0531 19.0623C18.0903 19.1366 18.1423 19.2025 18.2059 19.256C18.6649 19.762 19.1449 20.249 19.6059 20.735C20.5289 20.202 20.7059 19.652 20.4179 18.841L21.9919 20.271C21.6226 20.1507 21.2333 20.1038 20.8459 20.133C20.4395 20.3302 20.0693 20.5946 19.7509 20.915C20.3699 21.54 20.9229 22.115 21.4979 22.67C21.6024 22.7697 21.7396 22.8279 21.8839 22.8338C22.0282 22.8397 22.1697 22.7928 22.2819 22.702C22.3949 22.63 22.5139 22.567 22.6299 22.502L22.7299 22.633L20.8379 24.433C20.7829 24.327 20.7509 24.286 20.7579 24.277C21.2339 23.668 20.8699 23.251 20.4519 22.82C19.6519 21.996 18.8749 21.151 18.0839 20.32C17.3669 19.567 17.3639 19.57 16.3989 19.82C16.4436 19.7252 16.4986 19.6357 16.5629 19.553C17.5429 18.615 18.5209 17.675 19.5179 16.753C19.5883 16.7021 19.6693 16.6677 19.7548 16.6523C19.8403 16.6369 19.9282 16.6408 20.0119 16.664C20.4119 16.808 20.7889 17.013 21.1749 17.194L21.1279 17.336" fill="white"/>
            <path d="M94.642 24.6359L95.833 26.2359C95.668 26.2359 95.601 26.2569 95.566 26.2359C95.001 25.8469 94.914 25.8229 94.346 26.2179C93.551 26.7699 92.79 27.3709 91.996 27.9239C91.6584 28.1657 91.2915 28.3637 90.904 28.5129C90.6223 28.6087 90.3208 28.6314 90.028 28.5789C89.035 28.4019 87.828 26.6969 88.17 25.6789C88.331 25.1963 88.6439 24.7788 89.062 24.4889C89.882 23.8949 90.708 23.3079 91.525 22.7089C91.977 22.3779 92.445 22.0419 92.043 21.3369L92.211 21.2849L93.601 23.2069L93.547 23.3779C92.83 22.5779 92.318 23.1599 91.786 23.5269C91.161 23.9579 90.546 24.4049 89.935 24.8559C89.6677 25.0453 89.4156 25.2553 89.181 25.4839C89.03 25.6131 88.9063 25.7711 88.8172 25.9487C88.728 26.1263 88.6752 26.3199 88.6618 26.5182C88.6484 26.7164 88.6746 26.9154 88.7391 27.1033C88.8035 27.2913 88.9048 27.4646 89.037 27.6129C89.13 27.7865 89.2589 27.9383 89.4152 28.0582C89.5714 28.1782 89.7513 28.2634 89.9431 28.3085C90.1348 28.3535 90.3339 28.3572 90.5272 28.3194C90.7204 28.2815 90.9034 28.2029 91.064 28.0889C92.199 27.3829 93.264 26.5609 94.351 25.7829C94.757 25.4929 94.646 25.0969 94.501 24.6999L94.643 24.6449" fill="white"/>
            <path d="M51.347 103.419L50.7941 102.012L50.894 101.925C50.9977 101.991 51.0978 102.063 51.194 102.14C51.573 102.472 51.921 102.84 52.329 103.14C52.5427 103.292 52.791 103.389 53.0515 103.422C53.312 103.454 53.5765 103.421 53.821 103.326C54.0444 103.252 54.242 103.115 54.3906 102.933C54.5393 102.75 54.6329 102.529 54.6605 102.296C54.6881 102.062 54.6485 101.825 54.5464 101.613C54.4444 101.401 54.284 101.222 54.084 101.098C53.7849 100.934 53.4724 100.796 53.15 100.685C52.762 100.536 52.35 100.434 51.975 100.267C51.7708 100.192 51.5839 100.077 51.4255 99.9282C51.2671 99.7793 51.1406 99.5999 51.0536 99.4006C50.9667 99.2014 50.9211 98.9866 50.9196 98.7692C50.9181 98.5518 50.9608 98.3363 51.045 98.1359C51.1927 97.7426 51.4759 97.4149 51.8436 97.2118C52.2114 97.0087 52.6395 96.9435 53.051 97.028C53.475 97.11 53.9011 97.1809 54.4611 97.2809L54.9531 98.5359L54.826 98.6189C54.727 98.4914 54.6176 98.3724 54.499 98.2629C54.1082 97.8887 53.6714 97.5657 53.199 97.3019C53.0479 97.2363 52.8847 97.2029 52.72 97.2037C52.5552 97.2046 52.3924 97.2396 52.2419 97.3068C52.0915 97.3739 51.9566 97.4717 51.8459 97.5938C51.7353 97.7158 51.6512 97.8596 51.5991 98.0159C51.3631 98.6439 51.6211 99.1819 52.3671 99.4939C52.9961 99.7569 53.6671 99.9329 54.2891 100.202C54.5992 100.318 54.8644 100.53 55.0461 100.807C55.2279 101.084 55.3168 101.411 55.3 101.742C55.3296 102.087 55.2487 102.433 55.069 102.729C54.8892 103.025 54.6199 103.257 54.3 103.39C53.8243 103.535 53.3264 103.593 52.8301 103.562C52.336 103.541 51.8433 103.494 51.3541 103.422" fill="white"/>
            <path d="M73.754 91.7599L75.005 92.897L74.936 93.0239C74.7828 92.971 74.6265 92.9276 74.468 92.8939C73.8554 92.7445 73.2284 92.6623 72.598 92.6489C72.4105 92.6632 72.2281 92.7172 72.0631 92.8073C71.898 92.8973 71.7539 93.0214 71.6405 93.1714C71.527 93.3214 71.4467 93.4938 71.4049 93.6771C71.3631 93.8605 71.3607 94.0507 71.398 94.235C71.4892 94.5775 71.7087 94.8717 72.0111 95.0566C72.3135 95.2415 72.6755 95.3028 73.022 95.2279C73.597 95.1519 74.1689 95.0279 74.7449 95.0039C74.9596 94.9694 75.1792 94.9795 75.3898 95.0336C75.6004 95.0876 75.7977 95.1844 75.9693 95.318C76.1408 95.4516 76.2831 95.6191 76.3871 95.8101C76.4911 96.001 76.5548 96.2114 76.574 96.428C76.6216 96.8614 76.5116 97.2975 76.2641 97.6565C76.0165 98.0155 75.648 98.2733 75.226 98.3829C74.826 98.5029 74.426 98.627 73.926 98.783C73.686 98.576 73.3479 98.2829 73.0139 97.9919C72.9504 97.9096 72.8943 97.822 72.846 97.73C73.107 97.811 73.2459 97.8619 73.3829 97.8939C73.8751 98.0447 74.3798 98.1508 74.8909 98.2109C75.0593 98.2143 75.2267 98.1837 75.383 98.1211C75.5394 98.0585 75.6815 97.9651 75.801 97.8464C75.9205 97.7278 76.015 97.5863 76.0787 97.4304C76.1424 97.2745 76.1741 97.1074 76.1719 96.939C76.1723 96.7767 76.1368 96.6164 76.068 96.4695C75.9992 96.3226 75.8987 96.1927 75.7738 96.0892C75.6489 95.9857 75.5027 95.9112 75.3455 95.8708C75.1884 95.8305 75.0243 95.8254 74.8649 95.856C74.3169 95.8981 73.7716 95.9715 73.2319 96.0759C72.9868 96.1482 72.729 96.1673 72.4759 96.1318C72.2228 96.0964 71.9802 96.0073 71.7643 95.8705C71.5484 95.7337 71.3642 95.5523 71.2241 95.3385C71.084 95.1247 70.9913 94.8835 70.952 94.631C70.8757 94.1482 70.9865 93.6544 71.2617 93.2505C71.5369 92.8465 71.9557 92.5627 72.4329 92.4569C73.3969 92.1739 73.3969 92.1739 73.7449 91.7649" fill="white"/>
            <path d="M13.021 37.953C13.004 37.915 12.968 37.876 12.971 37.84C13.043 37.059 13.004 36.964 12.307 36.665C10.968 36.091 9.62297 35.53 8.27697 34.972C7.84397 34.793 7.60997 34.905 7.45197 35.353C7.35159 35.681 7.32789 36.0276 7.38267 36.3662C7.43746 36.7049 7.56928 37.0264 7.76797 37.306C7.84497 37.438 7.92897 37.565 8.00997 37.694L7.90997 37.783C7.52997 37.425 7.14297 37.074 6.77897 36.7C6.72697 36.646 6.75897 36.472 6.79997 36.373C7.36864 34.9843 7.9443 33.5983 8.52697 32.215C8.5548 32.1529 8.59621 32.0979 8.64813 32.0539C8.70005 32.0099 8.76116 31.9782 8.82697 31.961C9.30997 31.934 9.79497 31.949 10.28 31.949L10.294 32.114C10.094 32.169 9.88497 32.214 9.68697 32.281C9.07996 32.4582 8.56614 32.8655 8.25497 33.416C8.20614 33.4789 8.17336 33.5528 8.15945 33.6312C8.14555 33.7096 8.15093 33.7903 8.17515 33.8662C8.19936 33.9421 8.24167 34.0109 8.29844 34.0668C8.3552 34.1227 8.42472 34.1639 8.50097 34.187C9.96764 34.805 11.437 35.414 12.909 36.014C12.9886 36.0571 13.0761 36.0838 13.1663 36.0924C13.2564 36.101 13.3474 36.0913 13.4337 36.064C13.5201 36.0366 13.6 35.9922 13.6688 35.9332C13.7375 35.8743 13.7937 35.8021 13.834 35.721C13.8895 35.6454 13.9536 35.5767 14.025 35.516L14.125 35.573L13.141 37.987L13.022 37.951" fill="white"/>
            <path d="M102.905 60.523L101.569 60.823L101.509 60.67C101.648 60.583 101.786 60.493 101.927 60.409C102.224 60.2695 102.488 60.0673 102.7 59.8163C102.911 59.5653 103.066 59.2715 103.154 58.955C103.221 58.6939 103.199 58.4176 103.09 58.1709C102.981 57.9242 102.792 57.7213 102.554 57.595C102.31 57.4564 102.023 57.4162 101.75 57.4825C101.478 57.5489 101.241 57.7168 101.088 57.952C100.868 58.2867 100.671 58.6362 100.499 58.998C100.379 59.22 100.273 59.45 100.156 59.675C100.067 59.8991 99.9312 60.1017 99.7578 60.2693C99.5844 60.4369 99.3773 60.5657 99.1503 60.6471C98.9233 60.7285 98.6816 60.7607 98.4412 60.7416C98.2008 60.7224 97.9673 60.6524 97.756 60.536C97.3262 60.3327 96.9909 59.972 96.8193 59.5286C96.6477 59.0851 96.653 58.5927 96.8341 58.153C97.1701 57.125 97.17 57.125 97.066 56.624L98.715 56.245L98.78 56.421C98.6078 56.5216 98.4451 56.6378 98.294 56.768C97.8305 57.1539 97.4238 57.6033 97.086 58.103C96.9563 58.3109 96.8898 58.5521 96.8946 58.7971C96.8994 59.0421 96.9752 59.2805 97.1129 59.4832C97.2506 59.6859 97.4442 59.8443 97.6702 59.9391C97.8962 60.0338 98.1448 60.0609 98.3859 60.017C98.7005 59.948 98.9845 59.7798 99.196 59.537C99.4281 59.2285 99.6262 58.896 99.7869 58.545C99.9869 58.195 100.147 57.823 100.373 57.494C100.562 57.2026 100.844 56.9843 101.173 56.8752C101.503 56.7661 101.86 56.7727 102.185 56.894C102.508 56.9639 102.799 57.1395 103.011 57.393C103.224 57.6465 103.346 57.9635 103.358 58.294C103.349 58.6901 103.294 59.0838 103.193 59.467C103.127 59.794 103.018 60.113 102.907 60.512" fill="white"/>
            <path d="M53.548 9.35101C53.575 9.23701 53.575 9.21201 53.582 9.20901C54.471 8.90901 54.509 8.83901 54.535 7.84801C54.57 6.50901 54.626 5.171 54.674 3.832C54.691 3.349 54.493 3.14501 54.007 3.16301C53.6635 3.18309 53.329 3.28104 53.0289 3.44943C52.7289 3.61783 52.4711 3.85227 52.275 4.13501C52.188 4.24501 52.108 4.36101 52.025 4.47401L51.877 4.4C52.094 3.918 52.3029 3.43201 52.5359 2.95901C52.5639 2.90201 52.7229 2.88801 52.8199 2.89101C54.3533 2.94434 55.8866 3.00367 57.42 3.069C57.4746 3.073 57.5275 3.08941 57.5748 3.11696C57.6221 3.14451 57.6625 3.18249 57.6929 3.228C57.8689 3.679 58.0179 4.14001 58.1749 4.59801L58.075 4.65601C58.006 4.56301 57.931 4.47401 57.868 4.37801C57.5127 3.79926 56.9441 3.38336 56.285 3.22C55.757 3.09 55.485 3.31101 55.462 3.84801C55.4093 5.14201 55.3563 6.43601 55.303 7.73001C55.303 7.83001 55.293 7.93801 55.291 8.04301C55.273 8.87701 55.34 8.977 56.204 9.353L53.548 9.35101Z" fill="white"/>
            <path d="M8.59201 70.868C8.13601 70.868 7.679 70.889 7.225 70.854C7.15311 70.8311 7.08733 70.7922 7.03261 70.7402C6.97788 70.6883 6.93563 70.6246 6.90901 70.554C6.43501 69.1313 5.974 67.7043 5.526 66.273C5.50715 66.2132 5.50194 66.1498 5.51077 66.0877C5.51959 66.0256 5.54223 65.9662 5.57701 65.914C5.94401 65.577 6.337 65.268 6.72 64.949L6.82001 65.031C6.74101 65.156 6.67 65.286 6.581 65.404C6.38025 65.6549 6.23156 65.9433 6.14364 66.2524C6.05573 66.5615 6.03036 66.885 6.06901 67.204C6.13801 67.768 6.39601 67.96 6.91701 67.795C8.27701 67.366 9.636 66.932 10.987 66.475C11.801 66.2 11.874 66.059 11.862 65.24C12.2418 66.0414 12.5167 66.8884 12.68 67.76C12.6193 67.7218 12.5646 67.6746 12.518 67.62C12.21 67.12 12.018 67.005 11.454 67.177C9.99 67.622 8.534 68.092 7.081 68.571C6.656 68.711 6.57501 68.952 6.74401 69.378C6.87673 69.6776 7.07258 69.945 7.31817 70.162C7.56376 70.3789 7.8533 70.5403 8.167 70.635C8.316 70.693 8.46701 70.741 8.62001 70.793L8.593 70.867" fill="white"/>
            <path d="M97.184 77.453L95.727 79.61L95.597 79.543C95.6226 79.4406 95.656 79.3403 95.697 79.243C95.86 78.915 95.763 78.675 95.426 78.58C94.015 78.18 92.599 77.798 91.178 77.408C91.164 77.495 91.147 77.531 91.158 77.546C91.996 78.667 92.823 79.796 93.684 80.899C93.975 81.272 94.171 81.241 94.542 80.913C94.6129 80.8598 94.6881 80.8126 94.767 80.772L94.867 80.864L93.661 82.664C93.592 82.564 93.541 82.512 93.55 82.493C93.875 81.811 93.516 81.293 93.141 80.781C92.1817 79.4703 91.2223 78.16 90.263 76.85C90.1778 76.7122 90.1039 76.5677 90.042 76.418L90.128 76.318C90.621 76.449 91.115 76.578 91.608 76.712C92.971 77.082 94.336 77.446 95.694 77.831C95.9037 77.9322 96.1432 77.9538 96.3676 77.8916C96.5921 77.8294 96.7863 77.6878 96.914 77.493C96.951 77.437 97.044 77.418 97.114 77.382L97.191 77.457" fill="white"/>
            <path d="M85.819 90.753L84.546 90.135L84.58 90.003C84.735 90.003 84.89 90.013 85.044 90.003C85.5037 89.999 85.9621 89.9545 86.414 89.87C86.6329 89.8188 86.8391 89.7235 87.02 89.59C87.2009 89.4566 87.3528 89.2877 87.4664 89.0937C87.5799 88.8997 87.6528 88.6845 87.6806 88.4614C87.7084 88.2383 87.6905 88.012 87.628 87.796C87.4064 87.1071 87.0158 86.4846 86.4917 85.9855C85.9677 85.4865 85.3269 85.1266 84.628 84.939C84.2952 84.8585 83.9473 84.8659 83.6182 84.9603C83.2891 85.0547 82.9901 85.233 82.7506 85.4776C82.5111 85.7223 82.3392 86.0249 82.2518 86.3559C82.1644 86.6869 82.1645 87.035 82.252 87.366C82.285 87.5092 82.2928 87.6571 82.275 87.803C82.018 87.3383 81.9377 86.7963 82.049 86.277C82.1236 85.8651 82.2928 85.4763 82.5435 85.1411C82.7942 84.8059 83.1194 84.5336 83.4933 84.3457C83.8673 84.1577 84.2798 84.0593 84.6984 84.0581C85.1169 84.057 85.53 84.1531 85.905 84.339C86.6445 84.7192 87.2469 85.3207 87.6282 86.0596C88.0095 86.7985 88.1506 87.638 88.032 88.461C87.9761 88.7855 87.8431 89.0918 87.6442 89.3543C87.4453 89.6167 87.1863 89.8275 86.889 89.969C86.5126 90.2019 86.1557 90.4651 85.822 90.756" fill="white"/>
            <path d="M46.39 9.86795C47.162 9.73995 47.172 9.20795 47.09 8.66795C46.89 7.36195 46.6723 6.05861 46.437 4.75795C46.3 4.00595 46.199 3.93994 45.437 3.83694L45.413 3.71194L47.802 3.29395L47.845 3.40594C47.797 3.44894 47.756 3.51494 47.7 3.53094C47.216 3.66794 47.144 4.03994 47.207 4.44794C47.426 5.87094 47.654 7.29295 47.902 8.71095C48.002 9.31095 48.219 9.46495 48.83 9.41095C49.2651 9.4101 49.6906 9.2828 50.0548 9.04454C50.4189 8.80629 50.706 8.46734 50.881 8.06895C50.949 7.91595 51.036 7.76894 51.114 7.62194L51.261 7.66294C51.161 8.18194 51.061 8.70195 50.946 9.21695C50.933 9.27495 50.81 9.33595 50.731 9.34895C49.3976 9.56761 48.0643 9.78128 46.731 9.98994C46.647 9.99386 46.5628 9.9885 46.48 9.97395L46.39 9.86795Z" fill="white"/>
            <path d="M92.603 83.884L90.89 85.9C90.859 85.741 90.818 85.667 90.838 85.619C91.081 85.039 91.0709 84.895 90.5919 84.475C89.8089 83.789 89.0039 83.127 88.2089 82.455C88.0499 82.321 87.889 82.188 87.731 82.055C87.243 81.641 86.774 81.128 86.072 81.837L86.002 81.671L87.562 79.834C87.621 79.879 87.6619 79.904 87.6619 79.912C87.4049 80.642 87.4049 80.712 88.0139 81.238C89.0289 82.111 90.059 82.967 91.093 83.818C91.62 84.251 91.693 84.24 92.293 83.89C92.339 83.863 92.4149 83.89 92.6039 83.89" fill="white"/>
            <path d="M67.387 97.4149C67.3899 97.5009 67.3738 97.5864 67.3399 97.6655C67.306 97.7446 67.2552 97.8152 67.191 97.8724C67.1268 97.9297 67.0507 97.9721 66.9683 97.9967C66.8859 98.0213 66.7991 98.0275 66.7141 98.0149C66.632 98.0186 66.5499 98.0058 66.473 97.977C66.396 97.9482 66.3257 97.9041 66.2662 97.8474C66.2068 97.7907 66.1595 97.7225 66.1271 97.6469C66.0948 97.5714 66.0781 97.4901 66.078 97.4079C66.0776 97.3185 66.0951 97.2298 66.1296 97.1473C66.164 97.0648 66.2147 96.99 66.2786 96.9275C66.3425 96.8649 66.4183 96.8158 66.5015 96.7831C66.5847 96.7503 66.6736 96.7346 66.763 96.7369C66.8488 96.739 66.9334 96.7585 67.0115 96.7939C67.0897 96.8294 67.16 96.8802 67.2181 96.9433C67.2762 97.0065 67.321 97.0808 67.3499 97.1616C67.3787 97.2424 67.391 97.3282 67.3861 97.4139" fill="white"/>
            <path d="M39.531 97.407C39.5311 97.4929 39.5131 97.5778 39.4781 97.6563C39.4432 97.7348 39.3922 97.805 39.3283 97.8625C39.2645 97.9199 39.1892 97.9633 39.1075 97.9898C39.0258 98.0162 38.9394 98.0251 38.854 98.016C38.7718 98.0191 38.6899 98.005 38.6134 97.9745C38.537 97.9441 38.4677 97.898 38.4101 97.8393C38.3525 97.7805 38.3078 97.7103 38.2789 97.6333C38.2499 97.5563 38.2374 97.4741 38.242 97.392C38.2396 97.3061 38.2545 97.2206 38.2859 97.1405C38.3174 97.0605 38.3646 96.9876 38.4248 96.9263C38.485 96.865 38.557 96.8165 38.6364 96.7836C38.7158 96.7507 38.8011 96.7342 38.887 96.735C39.0599 96.7432 39.2231 96.8176 39.3427 96.9427C39.4624 97.0677 39.5295 97.2339 39.53 97.407" fill="white"/>
            <path d="M16.919 91.098C16.6266 91.1094 16.3339 91.1057 16.042 91.087C15.9859 91.071 15.9347 91.0413 15.8931 91.0004C15.8515 90.9595 15.8209 90.9088 15.804 90.853C15.773 90.565 15.793 90.272 15.793 89.861L16.973 90.961L16.918 91.0959" fill="white"/>
            <path d="M0.123047 48.98L1.06905 48.125L0.961047 49.859L0.123047 48.98Z" fill="white"/>
            <path d="M101.049 31.662L100.256 30.109L101.465 30.487L101.049 31.662Z" fill="white"/>
            <path d="M9.327 81.732L8.09399 81.477L8.30199 80.388L8.40199 80.353L9.322 81.732" fill="white"/>
            <path d="M27.8601 99.033L29.4291 99.823L28.2621 100.248L27.8621 99.033" fill="white"/>
            <path d="M21.063 11.8499L19.718 13.0069L19.832 11.7369L21.063 11.8489" fill="white"/>
            <path d="M15.2729 17.1449C15.2579 16.9539 15.2499 16.8819 15.2469 16.8099C15.2129 15.7999 15.2919 15.7349 16.3799 15.9099C16.3412 15.9733 16.2984 16.0341 16.2519 16.0919C15.9519 16.4199 15.6519 16.7439 15.2719 17.1489" fill="white"/>
            <path d="M105.534 49.2979L105.341 47.5249L106.334 48.3139L105.534 49.299" fill="white"/>
            <path d="M1.16699 59.022L0.166992 58.25L0.966992 57.271L1.16699 59.022Z" fill="white"/>
            <path d="M100.294 78.2339L99.1119 78.6129L99.903 77.0339L100.294 78.2339Z" fill="white"/>
            <path d="M3.534 33.9509L4.68301 33.4199L4.083 35.0899L3.53101 33.9499" fill="white"/>
            <path d="M89.757 15.4249H90.728L90.828 16.6109L89.761 15.4249" fill="white"/>
            <path d="M103.336 68.573L103.936 69.689L102.822 70.296L103.336 68.573Z" fill="white"/>
            <path d="M0.848012 51.287V52.922L0.0620117 52.007L0.848012 51.287Z" fill="white"/>
            <path d="M55.357 0.850013H53.808L54.661 0.0880127L55.361 0.850013" fill="white"/>
            <path d="M48.95 0.999036L47.329 1.19904L48.1169 0.212036L48.9839 0.881036L48.95 0.997036" fill="white"/>
            <path d="M105.654 55.3049V53.668L106.482 54.5289L105.654 55.3049Z" fill="white"/>
            <path d="M51.9539 106.323L51.2109 105.578H52.8049L51.9539 106.323Z" fill="white"/>
            <path d="M104.13 65.637L104.787 66.723L103.748 67.4L104.13 65.637Z" fill="white"/>
            <path d="M84.2109 95.5419L84.074 96.6179L82.825 96.4449L84.1099 95.4879L84.2109 95.5419Z" fill="white"/>
            <path d="M24.205 96.776L22.976 97.0149L22.7209 95.7899L24.205 96.776Z" fill="white"/>
            <path d="M76.442 100.139L76.049 101.317L74.8409 100.944L76.441 100.144" fill="white"/>
            <path d="M78.3459 6.24203L78.7399 7.42503L77.1799 6.63804L78.3459 6.23804" fill="white"/>
            <path d="M22.1189 11.118L22.3099 9.86304L23.5209 10.069L22.1209 11.118" fill="white"/>
            <path d="M51.193 0.000976562L52.11 0.830977L50.382 0.959977L51.193 0.000976562Z" fill="white"/>
            <path d="M35.554 3.82702L36.0309 2.82703L37.17 3.36102L35.6239 3.91603L35.554 3.82903" fill="white"/>
            <path d="M105.04 61.45L105.254 59.6649L106.021 60.6379L105.04 61.45Z" fill="white"/>
            <path d="M104.777 62.682L105.511 63.719L104.485 64.426L104.777 62.682Z" fill="white"/>
            <path d="M20.461 95.2001L20.3149 93.9611L21.7009 95.01L20.461 95.2001Z" fill="white"/>
            <path d="M95.5281 22.283L96.755 22.49L96.589 23.735L95.5281 22.283Z" fill="white"/>
            <path d="M9.81592 84.043L9.99592 82.811L11.0519 84.2111L9.81592 84.041" fill="white"/>
            <path d="M2.84694 67.9L1.86694 67.3589L2.46194 66.2589L2.93894 67.8329L2.84694 67.8979" fill="white"/>
            <path d="M95.058 84.744C95.123 85.231 95.172 85.5881 95.224 85.9821L94 86.188L95.0569 84.744" fill="white"/>
            <path d="M58.5359 1.07195L56.7679 0.960949L57.713 0.147949L58.5359 1.07195Z" fill="white"/>
            <path d="M92.056 88.4039L93.12 87.1689C93.139 87.3049 93.151 87.369 93.157 87.436C93.257 88.491 93.256 88.4909 92.056 88.4039Z" fill="white"/>
            <path d="M45.048 0.606934L46.06 1.29493L44.453 1.60593L44.384 1.52293L45.047 0.606934" fill="white"/>
            <path d="M63.829 0.995972L64.5621 2.01597L62.8401 1.73697L63.829 0.996972" fill="white"/>
            <path d="M7.70104 79.085C7.51504 79.056 7.40104 79.048 7.28704 79.018C7.04704 78.952 6.81004 78.875 6.51904 78.787L6.82504 77.587L7.70004 79.087" fill="white"/>
            <path d="M86.24 12.48L84.927 11.503L85.142 11.458C86.209 11.22 86.2649 11.268 86.2419 12.48" fill="white"/>
            <path d="M87.7291 92.677L88.913 91.552C88.925 91.6319 88.9327 91.7123 88.936 91.793C88.891 92.909 89.193 92.847 87.728 92.677" fill="white"/>
            <path d="M97.583 81.153L98.3831 79.793C98.9151 80.753 98.73 81.087 97.583 81.153Z" fill="white"/>
            <path d="M79.849 8.11692C80.1635 8.00443 80.484 7.90962 80.809 7.83293C80.895 7.81693 81.066 7.94292 81.109 8.04092C81.2098 8.34273 81.294 8.64987 81.361 8.96093L79.854 8.11692" fill="white"/>
            <path d="M2.49992 36.878L3.59992 36.278L3.09992 37.962L2.49292 36.873" fill="white"/>
            <path d="M36.804 103.853L36.204 102.743L37.887 103.255L36.802 103.855" fill="white"/>
            <path d="M69.1801 103.098L70.821 102.504L70.295 103.634L69.1801 103.098Z" fill="white"/>
            <path d="M33.3831 101.676L35.0161 102.276L33.868 102.806L33.3831 101.674" fill="white"/>
            <path d="M73.663 101.386L73.187 102.56L72.054 102.088L73.663 101.388" fill="white"/>
            <path d="M77.6 99.6119L79.123 98.718L78.813 99.918L77.6 99.6179" fill="white"/>
            <path d="M5.2351 32.2669L4.7561 31.0979L5.8931 30.6489L5.2351 32.2669Z" fill="white"/>
            <path d="M101.68 75.442L100.509 75.918L101.203 74.303L101.68 75.442Z" fill="white"/>
            <path d="M81.72 97.1429L81.488 98.349L80.2521 98.1L81.72 97.1429Z" fill="white"/>
            <path d="M25.2529 97.495L26.7649 98.382L25.5789 98.7079L25.2539 97.495" fill="white"/>
            <path d="M105.244 46.2719L104.924 44.5339L105.944 45.2439L105.244 46.2709" fill="white"/>
            <path d="M40.823 104.043L39.779 104.701L39.11 103.66L40.823 104.043Z" fill="white"/>
            <path d="M64.321 105.279L63.2791 104.628L64.979 104.2L64.317 105.279" fill="white"/>
            <path d="M61.287 105.816L60.272 105.136L62.01 104.805L61.287 105.816Z" fill="white"/>
            <path d="M105.41 42.209L104.746 43.255L104.327 41.563L105.41 42.209Z" fill="white"/>
            <path d="M58.213 106.219L57.213 105.458L58.927 105.236L58.211 106.219" fill="white"/>
            <path d="M55.122 106.387L54.178 105.581L55.952 105.464L55.122 106.387Z" fill="white"/>
            <path d="M106.391 57.5629L105.441 58.3929L105.541 56.7279L106.39 57.562" fill="white"/>
            <path d="M6.11501 28.3399L7.30102 27.9299L6.53201 29.5069L6.11501 28.3399Z" fill="white"/>
            <path d="M7.66211 25.6329L8.86911 25.3059L7.98911 26.8309L7.66311 25.6309" fill="white"/>
            <path d="M97.2579 24.803L98.489 25.056L98.246 26.265L97.2579 24.803Z" fill="white"/>
            <path d="M11.3201 21.632L11.1831 20.552L12.2291 20.392L12.3071 20.48L11.4281 21.687L11.3201 21.632Z" fill="white"/>
            <path d="M93.6691 19.8879L94.9 20.0229L94.814 21.0929L94.708 21.1499L93.6691 19.8879Z" fill="white"/>
            <path d="M12.9081 86.618L11.6851 86.518L11.7851 85.276L12.9121 86.621" fill="white"/>
            <path d="M5.01402 73.671L3.86401 73.231L4.30101 72.0599L5.01402 73.671Z" fill="white"/>
            <path d="M24.6199 9.35699C24.6549 9.17899 24.6669 9.111 24.6819 9.043C24.9109 8.037 24.9119 8.03699 26.0349 8.44899L24.6189 9.35699" fill="white"/>
            <path d="M72.7401 3.65493L73.2791 4.75493L71.593 4.14693L72.7401 3.65393" fill="white"/>
            <path d="M38.4451 2.995C38.4651 2.92722 38.4884 2.86047 38.515 2.795C39.008 1.835 39.0291 1.83 40.0081 2.524L38.4451 3" fill="white"/>
            <path d="M43.0591 1.82001L41.347 2.22001L42.005 1.18201L43.0591 1.81801" fill="white"/>
            <path d="M0.851 54.403V55.938L0 55.187L0.735 54.3311L0.851 54.4" fill="white"/>
            <path d="M2.2381 40.775L1.6521 39.849L2.5641 39.282L2.6771 39.327L2.3501 40.766L2.2371 40.775" fill="white"/>
            <path d="M104.657 39.175L104.081 40.275L103.568 38.5959L104.657 39.172" fill="white"/>
            <path d="M86.6349 93.682L86.535 94.782L85.335 94.6699L86.535 93.637L86.6349 93.684" fill="white"/>
            <path d="M27.241 7.77097L27.552 6.58997L28.761 6.88996L27.241 7.76996" fill="white"/>
            <path d="M29.9219 6.35901L30.3059 5.18701L31.4909 5.56401L29.9209 6.36401" fill="white"/>
            <path d="M74.4141 5.30802L75.6071 4.87402L76.044 5.99902L74.4141 5.30802Z" fill="white"/>
            <path d="M98.993 27.464L100.042 27.736L99.7161 28.9359L98.916 27.56L98.989 27.46" fill="white"/>
            <path d="M32.1871 101.119L31.0561 101.591L30.5681 100.457L32.1861 101.119" fill="white"/>
            <path d="M3.29689 69.191L3.89689 70.836L2.78589 70.336L3.29489 69.196" fill="white"/>
            <path d="M87.413 13.338C87.713 13.338 88.013 13.322 88.313 13.349C88.389 13.356 88.498 13.489 88.513 13.577C88.559 13.845 88.566 14.1199 88.6 14.5329L87.375 13.483L87.409 13.338" fill="white"/>
            <path d="M43.837 104.694L42.782 105.378L42.082 104.372L43.838 104.694" fill="white"/>
            <path d="M45.8579 105.926L45.075 104.955L46.812 105.168L45.8579 105.926Z" fill="white"/>
            <path d="M65.807 2.37695L66.842 1.72095L67.506 2.76095L65.807 2.37695Z" fill="white"/>
            <path d="M1.26793 60.317L1.58793 62.017L0.575928 61.3259L1.26793 60.3149" fill="white"/>
            <path d="M83.6429 9.47498L83.8959 10.675L82.423 9.73798L83.6429 9.47898" fill="white"/>
            <path d="M0.464111 45.94C0.587111 45.827 0.671111 45.74 0.764111 45.668C0.945111 45.516 1.12911 45.368 1.40811 45.14L1.22011 46.862L0.467111 45.94" fill="white"/>
            <path d="M14.938 88.8651C13.491 88.8781 13.679 89.047 13.73 87.785L13.845 87.671L14.938 88.8651Z" fill="white"/>
            <path d="M91.038 89.4559C91.0611 89.5213 91.0798 89.5881 91.094 89.6559C91.169 90.7259 91.116 90.7719 89.944 90.6039L91.038 89.4559Z" fill="white"/>
            <path d="M102.244 34.484L101.558 32.884C101.869 32.9856 102.176 33.1031 102.475 33.236C102.519 33.2743 102.552 33.3229 102.572 33.3774C102.592 33.4319 102.598 33.4906 102.59 33.548C102.512 33.831 102.39 34.101 102.245 34.48" fill="white"/>
            <path d="M10.544 22.786L9.60003 24.243L9.33203 23.061L10.543 22.785" fill="white"/>
            <path d="M66.25 103.96L67.913 103.46L67.334 104.535L66.25 103.957" fill="white"/>
            <path d="M18.108 92.0709L19.343 93.119H18.114L17.99 92.119L18.108 92.0659" fill="white"/>
            <path d="M106.515 51.395L105.687 52.315C105.66 51.703 105.638 51.222 105.617 50.742L105.717 50.667L106.517 51.395" fill="white"/>
            <path d="M70.423 3.68996L68.736 3.18396L69.8019 2.61096L70.423 3.68896" fill="white"/>
            <path d="M101.776 73.0649L102.32 71.585C103.027 72.363 102.91 72.7089 101.776 73.0649Z" fill="white"/>
            <path d="M103.251 37.358L102.642 35.712L103.753 36.239L103.253 37.358" fill="white"/>
            <path d="M96.816 82.291L97.0651 83.473L95.8651 83.773L96.821 82.286" fill="white"/>
            <path d="M49.8521 105.427L48.936 106.247L48.119 105.347L49.8521 105.427Z" fill="white"/>
            <path d="M59.942 1.16393L60.795 0.507935L61.543 1.43993L59.943 1.28193C59.943 1.2426 59.942 1.20327 59.942 1.16393Z" fill="white"/>
            <path d="M1.59903 43.743L0.978027 42.86L1.83003 42.26L1.94503 42.29L1.71803 43.727L1.59903 43.746" fill="white"/>
            <path d="M14.2869 18.1259L13.3079 19.3139C12.9339 18.2369 13.1349 17.9839 14.2869 18.1259Z" fill="white"/>
            <path d="M1.13794 64.362L1.78394 63.319L2.16594 64.981L1.13794 64.362Z" fill="white"/>
            <path d="M5.50192 74.8831L6.28292 76.425L5.11792 76.059L5.50192 74.8831Z" fill="white"/>
            <path d="M33.1319 3.93604L34.2679 4.38504L32.8539 5.00703L32.7649 4.92504L33.1319 3.93604Z" fill="white"/>
            <path d="M18.696 13.822L17.557 14.884C17.181 13.974 17.436 13.72 18.696 13.822Z" fill="white"/>
            <path d="M91.709 17.634C92.128 17.634 92.418 17.622 92.709 17.644C92.7519 17.6604 92.7901 17.6873 92.8199 17.7222C92.8498 17.7572 92.8705 17.799 92.88 17.844C92.899 18.144 92.8879 18.451 92.8879 18.886L91.7119 17.633" fill="white"/>
        </g>
    </g>
    <defs>
        <clipPath id="clip0_1749_820">
            <rect width="106.515" height="106.391" fill="white"/>
        </clipPath>
    </defs>
</svg>
