<svg xmlns="http://www.w3.org/2000/svg" width="112" height="112" fill="none" viewBox="0 0 112 112">
    <g clip-path="url(#a)">
        <path fill="currentColor" d="M56.012 112.023c30.934 0 56.011-25.077 56.011-56.011S86.946 0 56.012 0 0 25.077 0 56.012s25.077 56.011 56.012 56.011"/>
        <path fill="#fff" d="M43.104 38.33c-.672-1.321-5.956-1.228-5.956.301v11.216a13.8 13.8 0 0 1 3.824-4.519c.07-2.48.81-4.89 2.155-6.998zM72.488 58.375s-1.993-8.25-7.207-10.52c-1.53-.487-5.956.787-3.267 7.322-.65-.764-3.129-5.585-1.043-8.69a8 8 0 0 1 6.118-3.105c1.53 0 2.804-1.228 2.804-2.758 0-.255-.023-.533-.116-.788-.44-3.012-4.38-2.595-4.38-2.595s-10.243-.209-12.676 6.558c0-8.204 10.498-8.25 10.498-8.25 0-2.55-8.806-4.102-14.415.232-7.577 5.84-7.508 15.897-1.46 23.521a13.46 13.46 0 0 1-5.955-10.428c-.997 1.275-3.963 5.956-3.106 14.507 1.252 12.908 28.69 23.243 33.209 16.708s1.043-21.76 1.043-21.76zM58.468 70.75v3.36c0 .65-.185.742-.742.44-1.853-1.065-3.684-2.131-5.538-3.174-.626-.37-.927-.88-.904-1.622v-6.257c0-.742.162-.834.788-.464 1.9 1.09 3.777 2.202 5.7 3.291.51.301.72.695.72 1.275v3.22zm-.116-5.469a464 464 0 0 1-5.747-3.314c-.602-.347-.58-.533 0-.904 1.83-1.065 3.685-2.132 5.539-3.198.556-.324 1.135-.347 1.715 0 1.853 1.09 3.73 2.156 5.584 3.222.603.347.603.533 0 .88-1.923 1.113-3.823 2.225-5.747 3.314-.185.116-.417.186-.649.278-.231-.092-.486-.162-.695-.278m7.624 6.025c-1.9 1.09-3.8 2.202-5.724 3.291-.463.278-.672.14-.672-.44v-6.605c0-.602.209-1.02.742-1.32 1.923-1.09 3.847-2.225 5.77-3.315.533-.3.719-.185.719.418v6.535c0 .648-.278 1.112-.835 1.436"/>
    </g>
    <defs>
        <clipPath id="a">
            <path fill="#fff" d="M0 0h112v112H0z"/>
        </clipPath>
    </defs>
</svg>