<svg xmlns="http://www.w3.org/2000/svg" width="112" height="112" fill="none" viewBox="0 0 112 112">
    <g clip-path="url(#a)">
        <path fill="currentColor" d="M56.012 112.023c30.934 0 56.011-25.077 56.011-56.011S86.946 0 56.012 0 0 25.077 0 56.012s25.077 56.011 56.012 56.011"/>
        <path fill="#fff" d="M68.155 49.106c-.325-.371-.88-.464-1.39-.487-.51 0-1.02.07-1.507-.093-.973-.3-1.46-1.367-2.04-2.248-1.181-1.83-3.197-3.128-5.376-3.406-.579-.07-1.274-.162-1.506-.695-.093-.186-.093-.417-.093-.626-.023-.487-.116-1.02-.486-1.344-.371-.325-1.066-.278-1.228.185-.14.394.162.788.324 1.159.463 1.09-1.066 1.298-1.761 1.437-1.066.231-2.155.324-3.175.741a5.93 5.93 0 0 0-3.082 2.781c-.371.696-.742 1.6-1.53 1.622-.37 0-.788-.162-1.043.07-.3.255-.115.742.14 1.02.254.278.602.556.625.95 0 .255-.116.486-.232.718-1.158 2.248-1.112 3.337-.857 5.863.232 2.294.927 3.245 1.09 3.592.138.325.046.695-.07 1.043-.116.324-.279.672-.232 1.02.046.347.37.695.718.602.325-.093.44-.533.672-.765.394-.394 1.066-.255 1.507.093.417.348.672.858 1.043 1.275.973 1.135 2.549 1.552 4.055 1.576 1.483.046 2.99-.232 4.473-.14h.139c0 .093.023.186.023.279 0 .231-.14.417-.232.625-.093.186-.116.417 0 .603.139.208.463.255.672.139.232-.116.37-.348.487-.58.162-.324.231-.672.255-1.02.602 0 1.205-.046 1.691-.37.417-.278.719-.672 1.09-.996.764-.672 1.784-.95 2.549-1.6.857-.741 1.274-1.877 1.645-2.966.278-.139.602.14.904.163.44 0 .718-.58.533-.997-.186-.417-.626-.626-1.066-.742a14.3 14.3 0 0 0 0-4.217c-.093-.626-.232-1.275-.116-1.9.139-.626.649-1.229 1.274-1.206.302 0 .603.14.881.047.487-.14.556-.88.232-1.252zM55.13 58.49a4.17 4.17 0 0 1-4.171-4.171 4.154 4.154 0 0 1 4.171-4.171 4.154 4.154 0 0 1 4.171 4.17 4.154 4.154 0 0 1-4.171 4.172"/>
        <path fill="#fff" d="M55.154 76.034c-11.911 0-21.598-9.687-21.598-21.598 0-11.912 9.687-21.598 21.598-21.598 11.912 0 21.598 9.686 21.598 21.598s-9.686 21.598-21.598 21.598m0-40.879c-10.637 0-19.28 8.644-19.28 19.28 0 10.638 8.643 19.281 19.28 19.281s19.28-8.643 19.28-19.28-8.643-19.281-19.28-19.281"/>
        <path fill="#fff" d="M77.424 79.023c-.278 0-.579-.092-.788-.3l-8.18-7.648a1.17 1.17 0 0 1-.046-1.646 1.17 1.17 0 0 1 1.645-.046l8.18 7.647c.464.44.487 1.16.047 1.646-.232.255-.533.37-.858.37z"/>
    </g>
    <defs>
        <clipPath id="a">
            <path fill="#fff" d="M0 0h112v112H0z"/>
        </clipPath>
    </defs>
</svg>