<svg xmlns="http://www.w3.org/2000/svg" width="112" height="112" fill="none" viewBox="0 0 112 112">
    <g clip-path="url(#a)">
        <path fill="currentColor" d="M56.012 112.023c30.934 0 56.011-25.077 56.011-56.011S86.946 0 56.012 0 0 25.077 0 56.012s25.077 56.011 56.012 56.011"/>
        <path fill="#fff" d="M67.807 51.238s-1.39-5.724-5.006-7.3c-1.065-.348-4.148.556-2.27 5.098-.464-.533-2.156-3.87-.742-6.025a5.54 5.54 0 0 1 4.24-2.155c1.067 0 1.947-.858 1.947-1.924 0-.185 0-.37-.07-.533-.3-2.108-3.058-1.807-3.058-1.807s-7.115-.14-8.806 4.565c0-5.7 7.276-5.724 7.276-5.724 0-1.761-6.118-2.85-10.01.162-5.261 4.056-5.215 11.031-.997 16.338-2.434-1.622-3.963-4.31-4.148-7.254-.696.881-2.758 4.149-2.156 10.081.881 8.968 19.93 16.152 23.059 11.61 3.128-4.542.718-15.11.718-15.11zM47.39 37.31c-.463-.927-4.147-.857-4.147.209v7.786a9.6 9.6 0 0 1 2.642-3.128c.046-1.715.579-3.407 1.483-4.867zM55.988 80.808c-8.32 0-15.04 1.182-15.04 2.618 0 1.437 6.744 2.62 15.04 2.62 8.297 0 15.04-1.183 15.04-2.62 0-1.436-6.743-2.618-15.04-2.618m0 4.38c-5.561 0-10.08-.788-10.08-1.762 0-.973 4.519-1.76 10.08-1.76 5.562 0 10.081.787 10.081 1.76 0 .974-4.519 1.762-10.08 1.762M76.497 57.17a.7.7 0 0 1-.648-.44.71.71 0 0 1 .394-.904c5.33-2.04 7.068-3.777 6.952-4.658-.278-1.807-3.986-2.618-11.031-2.526-.37 0-.695-.301-.695-.672 0-.394.3-.695.672-.695 8.203-.162 12.027.997 12.444 3.708.301 2.016-2.34 4.079-7.833 6.187-.092.023-.162.047-.255.047z"/>
        <path fill="#fff" d="m77.378 53.602-.162 2.572 1.738 1.877-6.095-.348zM35.572 67.228c-2.595 0-4.635-.51-5.19-1.97-.742-1.947 1.505-4.588 6.673-7.88a.68.68 0 0 1 .95.21c.209.324.116.764-.208.95-5.052 3.22-6.466 5.353-6.141 6.233.324.858 3.082 1.831 11.401.14.371-.07.742.162.811.532.07.371-.162.742-.533.811-2.549.51-5.4.95-7.786.95z"/>
        <path fill="#fff" d="m37.171 60.948-.37-2.55-2.086-1.506 6.025-.88z"/>
    </g>
    <defs>
        <clipPath id="a">
            <path fill="#fff" d="M0 0h112v112H0z"/>
        </clipPath>
    </defs>
</svg>