<svg xmlns="http://www.w3.org/2000/svg" width="112" height="112" fill="none" viewBox="0 0 112 112">
    <g clip-path="url(#a)">
        <path fill="#201E3D" d="M56.012 112.023c30.934 0 56.011-25.077 56.011-56.011S86.946 0 56.012 0 0 25.077 0 56.012s25.077 56.011 56.012 56.011"/>
        <path fill="#fff" d="M63.08 51H61c0-6.614 3.725-12 8.303-12H79v2.08h-9.697c-3.371 0-6.222 4.534-6.222 9.92M75.49 61c-2.547 0-5.637-.06-7.83-.32-4.906-.582-6.493-8.437-6.66-9.32l2.046-.36c.376 2.024 1.984 7.355 4.865 7.695 4.155.501 11.943.24 12.026.24L80 60.94c-.167 0-2.088.06-4.51.06M45.08 62H43c0-6.614 3.725-12 8.303-12H61v2.08h-9.697c-3.371 0-6.222 4.534-6.222 9.92M57.49 76c-2.547 0-5.616-.066-7.83-.353-4.906-.639-6.493-9.28-6.66-10.25L45.046 65c.376 2.227 1.984 8.09 4.865 8.465 4.155.551 11.943.286 12.026.264L62 75.935c-.167 0-2.088.066-4.53.066z"/>
        <path fill="#fff" d="M61.5 57a5.5 5.5 0 1 0 0-11 5.5 5.5 0 0 0 0 11M63 80a5 5 0 1 0 0-10 5 5 0 0 0 0 10M78.5 46a5.5 5.5 0 1 0 0-11 5.5 5.5 0 0 0 0 11M43 61H28v2h15z"/>
        <path fill="#fff" d="M29 67a5 5 0 1 0 0-10 5 5 0 0 0 0 10M44.5 67c3.038 0 5.5-2.239 5.5-5s-2.462-5-5.5-5-5.5 2.239-5.5 5 2.462 5 5.5 5M85.115 59.808l-4.413-4.766a1.145 1.145 0 0 0-1.618-.062l-4.766 4.413a1.145 1.145 0 0 0-.062 1.618l4.413 4.765c.43.465 1.154.492 1.618.063l4.766-4.413c.464-.43.492-1.154.062-1.618"/>
    </g>
    <defs>
        <clipPath id="a">
            <path fill="#fff" d="M0 0h112v112H0z"/>
        </clipPath>
    </defs>
</svg>