<svg xmlns="http://www.w3.org/2000/svg" width="112" height="112" fill="none" viewBox="0 0 112 112">
    <g clip-path="url(#a)">
        <path fill="currentColor" d="M56.012 112.023c30.934 0 56.011-25.077 56.011-56.011S86.946 0 56.012 0 0 25.077 0 56.012s25.077 56.011 56.012 56.011"/>
        <path fill="#fff" d="M68.317 61.295s-1.437-5.979-5.237-7.624c-1.113-.37-4.334.58-2.387 5.33-.487-.556-2.271-4.055-.765-6.303 1.066-1.39 2.688-2.202 4.45-2.248 1.112 0 2.016-.88 2.039-1.993q0-.277-.07-.556c-.324-2.202-3.198-1.9-3.198-1.9s-7.439-.14-9.2 4.75c0-5.956 7.624-5.979 7.624-5.979 0-1.854-6.396-2.99-10.474.162-5.492 4.241-5.446 11.541-1.043 17.08a9.85 9.85 0 0 1-4.334-7.578c-.718.927-2.873 4.333-2.248 10.52.904 9.386 20.834 16.871 24.101 12.12 3.268-4.75.742-15.804.742-15.804zM46.974 46.742c-.487-.973-4.334-.904-4.334.209v8.134a9.9 9.9 0 0 1 2.781-3.268c.046-1.807.603-3.545 1.553-5.075M52.512 42.71l1.507-.65v-7.74l2.688 1.16-3.453-8.204-3.453 8.203 2.711-1.158zM85.674 66.579l-8.203-3.476 1.135 2.711h-8.644l.186 1.507h8.458l-1.135 2.71zM47.252 73.647l-1.09-1.043-6.627 6.628-1.09-2.735-3.36 8.25 8.25-3.36-2.734-1.112z"/>
        <path fill="#fff" d="M67.251 65.814H54.019v-21.18l-1.507.81v20.81l-4.194 4.195 1.274.857 3.986-3.986h13.928z"/>
    </g>
    <defs>
        <clipPath id="a">
            <path fill="#fff" d="M0 0h112v112H0z"/>
        </clipPath>
    </defs>
</svg>