<svg xmlns="http://www.w3.org/2000/svg" width="112" height="112" fill="none" viewBox="0 0 112 112">
    <g clip-path="url(#a)">
        <path fill="currentColor" d="M56.012 112.023c30.934 0 56.011-25.077 56.011-56.011S86.946 0 56.012 0 0 25.077 0 56.012s25.077 56.011 56.012 56.011"/>
        <path fill="#fff" d="M82.476 45.352c-.139-.765-.672-1.39-1.228-1.924-1.298-1.274-2.827-2.387-4.565-2.966s-3.685-.603-5.33.185c-.417.209-.811.44-1.252.58s-.927.139-1.39.115c-.973-.023-1.97-.115-2.92.047-.973.162-1.923.625-2.433 1.46-.255.417-2.016 2.433-2.526 3.128-.65.904-.58 2.202-1.252 3.082-.324.44-.834.742-1.042 1.252-.255.602 0 1.32-.14 1.97-.046.231-.139.44-.254.625-.279.394-.904.255-.997-.208-.162-.835-.58-1.924-.996-2.04-.047 0-.116-.023-.163-.023-.579-.093-1.089-.625-1.112-1.205-.116-1.877-1.066-2.734-1.437-3.615-.278-.626-.324-1.367-.741-1.923-.325-.418-.834-.673-1.182-1.043-.464-.51-.649-1.205-1.136-1.692-.88-.857-2.34-.626-3.453-.093s-2.155 1.321-3.383 1.39c-.695.047-1.39-.092-2.086-.231-2.665-.556-8.018 2.109-8.32 3.777-.208 1.066-.045 2.202.186 3.268.093.487-.07 2.503-.231 3.036-.418 1.552.139 3.314 1.413 4.287s3.198 1.02 4.473.07c.602-.464 1.043-1.113 1.691-1.53.626-.417 1.39-.556 2.132-.695.672-.116 1.437-.186 2.017.208.51.348.764 1.043 1.32 1.321.418.209.927.14 1.345-.023.44-.185.81-.44 1.205-.695a6.7 6.7 0 0 1 2.178-.811c.417-.07.88-.116 1.182-.417.348-.325.394-.858.649-1.252.463-.695 1.413-.81 2.224-.857.116 0 .418.278.51.347 1.136 1.09 0 3.546-3.244 4.427-2.735.741-4.496 3.522-3.8 6.28.231.973.671 1.9 1.181 2.734.65 1.043 1.46 2.017 1.738 3.198.14.556.116 1.159.116 1.738-.046 1.46-.139 2.944.209 4.357.347 1.414 1.297 2.781 2.688 3.221.857.278 1.784.162 2.642-.139s1.622-.764 2.387-1.251c1.437-.88 2.873-1.761 4.333-2.665.719-.44 1.46-.904 1.993-1.576s.788-1.622.44-2.387c-.278-.602-.834-.996-1.32-1.46-.835-.811-1.414-1.83-2.295-2.619-1.205-1.089-2.873-1.599-3.94-2.827a2.05 2.05 0 0 1-.51-.996c-.069-.348 0-.719.047-1.066.14-1.646-.394-3.198-.44-4.844-.023-1.158 1.02-2.039 2.016-2.665.464-.278 1.066-.556 1.483-.208.209.185.302.463.487.672.37.44 1.043.486 1.599.347s1.09-.417 1.645-.486c.65-.07 1.298.139 1.924.347l4.24 1.46c.927.325 1.9.65 2.874.533.672-.07 1.252-.44 1.9-.625 6.072-1.785 5.91-5.215 5.77-5.747-.416-1.553 1.183-3.083.904-4.682z"/>
    </g>
    <defs>
        <clipPath id="a">
            <path fill="#fff" d="M0 0h112v112H0z"/>
        </clipPath>
    </defs>
</svg>