<svg xmlns="http://www.w3.org/2000/svg" width="112" height="112" fill="none" viewBox="0 0 112 112">
    <g clip-path="url(#a)">
        <rect width="112" height="112" fill="currentColor" rx="56"/>
        <path fill="#fff" d="M72.98 57.66s-2-8.3-7.26-10.58c-1.54-.5-6 .8-3.3 7.38-.66-.78-3.14-5.62-1.06-8.74a8 8 0 0 1 6.16-3.12 2.8 2.8 0 0 0 2.72-3.56c-.44-3.04-4.42-2.62-4.42-2.62s-10.3-.2-12.76 6.6c0-8.26 10.56-8.3 10.56-8.3 0-2.56-8.86-4.14-14.52.24-7.62 5.88-7.56 16-1.46 23.68a13.58 13.58 0 0 1-6-10.5c-1 1.28-4 6-3.12 14.6 1.26 13 28.88 23.4 33.42 16.82s1.04-21.9 1.04-21.9M43.4 37.48c-.68-1.34-6-1.24-6 .3v11.28a14 14 0 0 1 3.84-4.54 14 14 0 0 1 2.16-7.04"/>
    </g>
    <defs>
        <clipPath id="a">
            <path fill="#fff" d="M0 0h112v112H0z"/>
        </clipPath>
    </defs>
</svg>