<svg xmlns="http://www.w3.org/2000/svg" width="112" height="112" fill="none" viewBox="0 0 112 112">
    <g clip-path="url(#a)">
        <path fill="#201E3D" d="M56.012 112.023c30.934 0 56.011-25.077 56.011-56.011S86.946 0 56.012 0 0 25.077 0 56.012s25.077 56.011 56.012 56.011"/>
        <path fill="#fff" d="M56.568 43.22c0 .254.162.44.255.718.023-.255.092-.417.115-.603.024-.208 0-.44.047-.648-.14 0-.278.092-.44.023-.047 0-.093.046-.07.07.185.115.023.277.07.416zM59.117 46.047c.046-.116-.07-.116-.14-.162 0 .092-.045.185.047.231.047 0 .07-.023.093-.07M56.336 46.997s0-.162.07-.232c.046-.046 0-.093.023-.139 0-.07-.023-.139.046-.208 0-.163-.046-.209-.209-.186h-.162c-.116-.208-.278-.116-.417-.046.14.232.348.394.44.649.024.07.07.208.186.185zM56.684 36.73c0-.185.046-.347.07-.532-.024.023-.047.07-.07.093-.093.254-.093.486-.07.741.047-.093.047-.208.047-.324zM56.545 45.792c.07-.44.115-.858.185-1.298l-.046-.046c-.163.046-.325.092-.487.162a.18.18 0 0 1-.116.046h-.046v.047c.092.115 0 .162-.07.208-.07.047-.139.07-.208.047-.093.255 0 .533-.07.81.093.186.278.186.464.256.208.07.37 0 .417-.232zM56.614 44.077s-.093-.116-.093-.185c-.046-.209-.162-.371-.278-.557-.255.394-.324.812-.394 1.229.302-.116.65-.163.927-.348-.092 0-.162-.023-.162-.139M56.684 40.253h-.07l-.046.047.046-.047zM54.9 47.692h-.186s-.209.162-.232.301v.047c.185-.047.255-.209.394-.325zM54.459 48.341s-.07-.07-.116-.07c.046 0 .093 0 .116.07M59.812 46.464s-.232-.07-.324-.093c.092.093.185.232.324.093M55.2 48.364s-.115-.023-.162-.046c-.046 0-.07-.046-.116-.07.093-.046.209 0 .255-.092-.092-.14 0-.279-.046-.417a.24.24 0 0 0-.209.115c-.139.186-.185.44-.324.65-.046.069 0 .092.07.092.139 0 .278-.046.393-.093.047 0 .163 0 .14-.116zM55.316 50.31s.047-.069.07-.069c0 0-.047 0-.07.07M54.946 51.98v.046zc0-.023.023-.07.046-.092v-.047.047s-.046.07-.046.092M55.247 49.57c0-.233-.07-.464-.047-.696 0-.07-.046-.093-.092-.093h-.348c.093.163.14.348.162.533.024.186.07.394.209.556.093.093.139.093.162-.046-.093-.093-.046-.185-.046-.278zM56.128 42.246s-.024-.046-.047-.07v-.023.024s.023.046.046.07M57.796 47.553s-.14 0-.14.093a.4.4 0 0 1 .047.162c.047.093 0 .209 0 .301-.185.186-.116.301.093.394.046 0 .07.07.116.116.162.162.116.348.07.533-.047.209-.14.394-.232.58 0 .069-.023.139-.047.208 0 0 .023 0 .047.023.208-.347.417-.672.625-1.02.047-.069.14-.139.116-.254-.139-.302-.347-.557-.463-.881-.047-.14-.116-.209-.255-.278z"/>
        <path fill="#fff" d="M57.796 48.62c-.232-.117-.487-.233-.672-.441-.046.046-.046.093-.023.162.07.58-.023 1.159-.116 1.715v.116c0 .116.046.255.139.301.116.046.232-.046.324-.139a.4.4 0 0 0 .093-.162c.023-.162.093-.301.116-.464 0-.231.162-.417.232-.625.046-.186.046-.348-.093-.487zM57.17 50.612c0 .394 0 .788-.023 1.182 0 .07-.023.162.093.209.07-.371.139-.742.185-1.113q.047-.324-.255-.278M55.919 47.623v-.116c-.185.07-.209.208-.116.37.093-.046.14-.092.116-.208-.046 0-.046-.046 0-.07z"/>
        <path fill="#fff" d="M73.879 57.402s-.093-.162-.163-.232c-.393-.463-.787-.904-1.181-1.367-.232-.255-.44-.51-.533-.834-.047-.209-.07-.417.278-.278.185.092.394.139.602.185.209.046.417 0 .533-.185.116-.209-.07-.348-.232-.44-.695-.51-1.436-.858-2.294-1.02-.37-.07-.649-.278-.857-.626-.348-.649-.603-1.344-.88-2.016-.696-1.761-1.623-3.407-2.643-5.006-.278-.44-.51-.904-.602-1.436-.209-1.182-.394-2.364-.718-3.5-.325-1.158-.51-2.364-.927-3.499-.325-.88-.881-1.483-1.785-1.692l-1.46-.347c-.718-.186-1.437-.348-2.086-.742-.278-.162-.579-.324-.671-.649-.325-1.089.092-2.04.625-2.943.325-.533.51-1.112.162-1.437-.231-.231-.278-.463-.255-.741.047-.765-.208-1.437-.532-2.132-.65-1.414-2.318-1.53-3.43-1.09-1.182.464-1.414 1.6-1.692 2.689-.116.417.07.904-.232 1.274-.301.348-.324.695-.116 1.043.51.88.997 1.738.927 2.827-.023.533-.231.881-.695 1.066-.81.348-1.622.672-2.48.835-1.599.278-2.665 1.112-3.105 2.757-.44 1.738-.95 3.476-1.251 5.26-.186 1.183-.51 2.272-1.228 3.268-.464.65-.811 1.368-1.182 2.063-.65 1.228-1.159 2.549-1.692 3.847-.185.463-.51.81-.997.904-.88.162-1.622.579-2.317 1.066-.185.115-.394.231-.278.51.14.254.37.254.603.185.208-.07.37-.209.579-.278.255-.116.348 0 .278.255-.139.44-.37.81-.718 1.112-.394.37-.742.788-1.066 1.228-.093.14-.279.325-.116.487.185.185.37 0 .51-.116.278-.232.51-.487.764-.742.116-.115.255-.347.464-.185.162.116 0 .301-.047.464l-.764 1.529c-.093.162-.07.301.092.394.163.116.232-.046.279-.14.278-.37.556-.787.81-1.158.093-.116.116-.347.302-.255.185.093.046.278 0 .394-.023.093-.093.186-.116.302-.116.324-.232.625-.255.973 0 .116 0 .232.116.278s.209-.07.255-.162c.139-.278.255-.603.394-.881s.139-.626.51-.834c.139.324-.047.533-.116.788-.047.185.046.324.185.37.162.047.255-.069.301-.208a4 4 0 0 0 .116-.487c.278-1.112.835-2.109 1.205-3.198.278-.81.719-1.53 1.252-2.201 1.066-1.344 2.201-2.619 3.012-4.148.858-1.6 1.692-3.222 2.387-4.89.047-.116.047-.37.255-.325.162.047.14.232.162.394.093.881.302 1.738.394 2.619.093.834.047 1.645-.07 2.456-.138.904-.486 1.762-.694 2.665-.302 1.39-.58 2.804-1.02 4.172-.37 1.135-.556 2.317-.626 3.5-.07 1.088-.07 2.177.047 3.267.139 1.344.37 2.688.695 4.009.278 1.089.44 2.178.324 3.267-.092.811-.139 1.622-.208 2.41-.186 1.947-.14 3.917.07 5.863.161 1.576.44 3.152.37 4.751-.046 1.112-.44 2.109-.904 3.082-.162.348-.093.487.162.626.209.116.464.185.696.209.347.023.695.069 1.043.185.625.208 1.135-.255 1.112-.904 0-.162-.047-.324-.093-.51-.023-.139-.046-.278.116-.37.649-.394.718-.974.556-1.646-.046-.185 0-.37-.046-.556-.116-.417.185-.834-.023-1.205-.163-.278-.163-.58-.116-.858.162-1.089.324-2.178.556-3.267.301-1.46.626-2.92.556-4.426 0-.464.116-.904.232-1.368.278-1.02.58-2.039.626-3.128 0-.533 0-1.066.139-1.6.486-1.969 1.135-3.892 1.413-5.908.07-.487 0-.997.232-1.46.046-.116.046-.255.209-.279.185 0 .185.163.231.279a.6.6 0 0 1 .047.278c0 1.53.394 2.99.602 4.495.209 1.368.417 2.758.603 4.125.139.95.347 1.9.579 2.828.209.788.417 1.552.325 2.363-.07.65.069 1.275.139 1.924.162 1.298.672 2.503.718 3.823.046 1.298.232 2.596.162 3.917 0 .44.046.88.301 1.228.232.325.279.603.163.974-.14.51.37 1.204.88 1.25.58.047 1.136-.046 1.669-.208.394-.116.51-.533.301-.88-.487-.835-.718-1.738-.765-2.689 0-.254.093-.51.07-.787-.093-1.252-.023-2.503.139-3.731.255-1.831.278-3.662.324-5.493.023-.973-.255-1.923-.301-2.896-.093-1.831.116-3.616.533-5.377.278-1.182.44-2.41.649-3.615.232-1.228.116-2.433 0-3.661-.093-.927-.278-1.808-.487-2.689-.232-.927-.463-1.854-.649-2.804-.231-1.205-.695-2.34-.88-3.568-.255-1.646.116-3.268.37-4.89 0-.116.07-.302.255-.302.14 0 .186.163.232.255.371.95.788 1.9 1.252 2.805.788 1.552 1.575 3.105 2.665 4.495.996 1.275 2.178 2.434 2.734 4.032.37 1.09 1.02 2.086 1.113 3.268 0 .278.069.718.417.649.255-.046.139-.463.07-.718-.024-.116-.094-.255.045-.325.21-.07.209.14.255.232.186.417.348.857.51 1.274.07.163.116.394.371.302.232-.093.162-.302.093-.487-.14-.417-.209-.857-.394-1.274-.023-.07-.07-.232.046-.279.116-.046.185.07.255.163.232.37.463.764.718 1.112.116.162.209.487.44.348.186-.093.093-.394.047-.603 0-.07-.046-.139-.093-.209a31 31 0 0 1-.672-1.181c-.07-.116-.208-.255-.023-.418.162-.115.301 0 .417.07.232.209.44.44.65.649.115.116.23.208.347.301s.231.162.37.047c.116-.116.093-.255.047-.394zM59.743 42.64s-.07 0-.07.047c-.417.51-.95.324-1.483.255-.116 0-.255-.047-.37-.07-.117-.023-.14 0-.163.116-.116 1.205-.301 2.41-.463 3.615.162.046.324.093.463.185.139.07.232 0 .324-.07.116-.069.116-.185.07-.254-.07-.14 0-.209.093-.278.07-.07.185-.07.278 0 .208.093.347.278.486.44.047-.139 0-.255-.046-.347-.093-.186-.116-.348-.046-.534.07-.208-.093-.393-.14-.602-.069-.232 0-.464-.023-.695 0-.07.047-.116.093-.116.07 0 .116.046.116.116v.58c0 .092 0 .184.07.254.069 0 .139-.023.185 0 .046.046 0 .07-.046.093v.046c.092 0 .092.07.115.14.047.045.14.022.163.115-.07.093-.186.093-.325.093.14.116.255.208.255.394 0 .07.093.116.162 0 .07-.093.14-.186.232-.209.046.023.023.046 0 .07-.07.07-.232.139-.185.231.046.116.231.093.324.116.162.023.047-.162.186-.255 0 .255.023.51.162.742-.301-.116-.58-.232-.858-.278-.231.44-.649.602-1.066.764-.231.093-.208.07-.116.302.14.347.325.672.487 1.02.046 0 .093-.07.162-.047q.105.07.07.209c.023.463 0 .903-.07 1.367-.023.347 0 .695 0 1.043 0 .463.186.904.232 1.344 0 .162.046.301 0 .463-.023.093-.093.07-.162.093v-.162c.139-.186.046-.394 0-.556-.278-.95-.14-1.9-.162-2.85 0-.047 0-.07.023-.093v-.51c-.023 0-.07-.047-.093-.047-.139.047-.162.186-.232.278-.231.371-.463.765-.741 1.136-.14.185-.116.463-.162.695-.047.301-.093.603-.163.904-.046.185-.023.348.163.44.115.07.231.14.324.232.162.14.348.162.556.14.14 0 .186.092.14.161-.117.186.069.163.138.209 0 0 .07 0 .093.07-.116.069-.209 0-.278-.07-.209-.186-.487-.232-.695-.394-.047-.023-.093-.046-.14.023.047.023.093.07.093.14.162.3.302.578.348.926.07.023.093.116.07.162-.047.301.069.556.185.811.07.186.139.371.116.556-.023.302.162.557.116.835 0 .463 0 .927-.255 1.344-.14.185-.278.07-.418 0-.324-.209-.695-.255-1.065-.301-.21-.023-.232.162-.348.255-.093-.093 0-.163 0-.232 0-.116.046-.232-.023-.348V56.8h.07c.092.325.393.21.602.255.208.024.37.093.556.186.046 0 .093.046.139.07.324.162.394.115.487-.232.07-.279.07-.58.092-.881 0-.232 0-.44-.07-.672-.092-.37-.092-.37-.463-.278-.278.185-.278.185-.07.533.117.185.186.347 0 .533l-.208.208c-.162.279-.44.232-.672.209a1.8 1.8 0 0 1-.672-.232c-.046-.023-.116-.046-.07-.116.024-.07.093-.023.14 0 .278.116.556.232.857.232.14 0 .255-.023.348-.139q.324-.464 0-.95s-.093-.093-.162-.093c-.302 0-.487-.208-.696-.394-.023-.023-.07-.07-.046-.116.023-.046.07 0 .116 0 .07.047.139.07.185.093.348.278.626.325.973-.046.14-.186.116-.348.047-.556-.093-.255-.232-.464-.278-.719 0-.093-.07-.185-.209-.232-.116-.046-.185-.185-.185-.347 0-.209-.047-.394-.301-.44-.047.092-.093.162-.14.255v.139h.047c.162.347.255.718.301 1.112-.139-.209-.162-.487-.347-.718-.047.254.115.486.023.764-.186-.208-.047-.463-.163-.649-.046-.023-.092-.07-.139 0 0 0-.046.047-.07.047-.092.07-.208.139-.23.208 0 .07.092.163.138.255-.116-.046-.162-.162-.255-.255-.046 0-.092.047-.139.047-.046.208.047.393.07.602.046.301-.047.556-.07.858 0-.464.093-.904-.07-1.345-.092.07-.138.209-.277.14-.14-.047-.186-.116 0-.21.07-.138.185-.23.278-.323.07-.348 0-.719-.047-1.066 0-.163-.046-.302-.046-.464a.5.5 0 0 0-.116-.301c-.139-.186-.208-.186-.37 0-.07.07-.14.116-.186.185v.023c-.023.163-.116.302-.185.464-.07.185-.14.347-.186.533 0 .046 0 .093-.023.116-.209.185-.301.44-.44.672 0 .07-.047.139-.047.208a1.68 1.68 0 0 0 0 1.066c.047.116.093.209.209.278.301.047.487-.139.672-.3.046-.047.093-.117.162-.047.047.046 0 .116-.046.162-.162.209-.37.37-.649.37-.185.117-.278-.046-.394-.138-.07-.07-.116-.186-.255-.116-.07.139-.07.324-.185.463 0 .023-.024.047-.07.047.046.023 0 .07 0 .092 0 .024 0 .047-.023.047v.162c.046.07.093.162.116.232.232.417.394.486.834.347.046 0 .093-.023.14-.046.069-.046.161-.116.23-.162.047-.023.07-.07.117 0 .046.046.023.092 0 .116-.093.046-.162.162-.278.162-.464.208-.719.278-1.159-.255l-.046.07c0 .231.07.463.139.695.07.208.185.231.37.139a4 4 0 0 0 .44-.255.76.76 0 0 1 .488-.116c.162-.046.324.093.51-.023-.117.208.115.347.092.556-.278-.394-.37-.44-.88-.325-.093 0-.117.07-.186.116 0 .047-.046.07-.093.07h-.023c-.046.07-.116.093-.185.116-.58.301-.51.116-.672-.348-.07-.162-.07-.347-.093-.533a.4.4 0 0 1 0-.394c-.046-.185-.162-.347 0-.533.07-.185.278-.301.324-.486.116-.44.07-.928.209-1.368.023-.231.139-.44.255-.649.046-.07.139-.162 0-.255v-.092c.232-.696.533-1.344.834-2.016a.9.9 0 0 0 .07-.371c-.255.185-.302.486-.51.649-.07.092-.116.208-.209.278-.139.185-.301.324-.533.394-.046 0-.092.092-.162 0-.046-.093.046-.093.093-.116a.5.5 0 0 1 .116-.07c-.093-.023-.163-.07-.14-.162 0-.07.093-.07.163-.07.185 0 .301-.092.394-.231.162-.232.231-.51.394-.742 0-.139.185-.185.185-.347-.278-.163-.278-.464-.324-.719 0-.092-.047-.185-.047-.278-.023-.116-.07-.278-.185-.301a.53.53 0 0 0-.44.232c-.325.486-.44 1.02-.58 1.552-.07.302.047.556.14.835.023.092.069.185.023.3-.163-.092-.116-.277-.186-.393-.301-.603-.046-1.136.162-1.692 0-.07.047-.116.07-.185.092-.162.139-.301-.162-.348.208-.07.37-.139.417-.324 0-.047 0-.07.023-.116 0 0 .023-.046 0-.07 0 0-.023 0-.046.024-.07.023-.116.139-.232.092.092-.092.185-.208.278-.301 0-.046.139-.139-.046-.162-.024 0-.047-.023-.024-.07 0 0 .047-.023.07-.023h.394c.07 0 .139 0 .093-.093v-.023c-.024-.046-.07-.07-.093-.116a.396.396 0 0 1 .139-.579c.417-.232.533-.649.533-1.09-.07-.046-.07-.115 0-.161v-.163c0-.139-.046-.208-.14-.3-.022 0-.045.022-.092.045a5 5 0 0 0-.347.812q-.174.555-.765.764c-.07.023-.116.093-.186.116a.13.13 0 0 1-.115.07c-.14.07-.279.162-.394.231 0 0 0-.023-.024-.046.14-.139.279-.255.464-.324.209-.116.417-.255.602-.417.348-.302.44-.719.534-1.136.046-.232-.093-.394-.279-.278-.231.139-.278 0-.347-.14a.18.18 0 0 0-.047-.092.7.7 0 0 0-.092-.185c.07-.047.116-.023.185 0 .047.023.093.07.162.046.255-.116.487.023.742.047.093 0 .116-.047.162-.14.07-.231 0-.463.07-.695.023-.092.023-.208.046-.301-.046-.093-.093 0-.14 0-.115.116-.208.255-.37.347v.07h-.023v-.023h-.023q-.07.069-.14 0c-.046-.07 0-.093.047-.116.185-.301.487-.464.695-.742.07-.07.116-.139.163-.231.07-.209-.093-.255-.209-.325-.162 0-.348-.023-.51-.046h-.718c-.278 0-.464.185-.672.347l-.116.116c-.047.047-.093.07-.14.024q-.069-.07 0-.14c.464-.44.974-.648 1.646-.532.255.046.51 0 .765 0-.023-.047-.07-.116-.047-.186.093-.232-.069-.394-.185-.556-.208-.301-.348-.603-.232-.973.024-.116-.092-.116-.092-.186-.07-.185-.023-.324.139-.44.023-.093-.047-.185-.116-.162-.186.046-.255-.07-.348-.162-.139 0-.185-.07-.116-.186.07-.139.186-.255.07-.417 0 0 0-.07.023-.093-.07-.07-.046-.139 0-.185.185-.185.162-.417.14-.626-.047-.394.022-.764-.024-1.159 0-.092.07-.115.116-.139.208-.185.417-.185.51 0 .139.093.278.186.278.371 0 .14 0 .278-.209.255-.208 0-.162.14-.093.232a.75.75 0 0 1 .14.533c.092-.116.046-.278.139-.394 0-.093.046-.162.07-.255 0-.023 0-.046.022-.046.07-.209.232-.371.186-.603-.232-.347-.464-.695-.811-.95-.047-.046-.093-.093-.07-.162.116-.348-.07-.672-.116-1.02 0-.139 0-.255-.046-.394-.047-.116.093-.116.162-.139.093-.046.116.046.116.116 0 .325.139.626.162.95 0 .162.116.278.116.417.185.371.51.65.742.997.046.07.139.093.231.07.14-.487.14-1.02.278-1.507.093-.255.024-.533.024-.811 0-.07-.07-.186.07-.209.138 0 .115.116.115.186v.51c.348.115.348.115.324.533-.07.278-.092.556-.092.857v.162c.116.325.347.626.394.974 0 .115-.047.254.046.37l.487.14c.07.023.116.069.139.162a.5.5 0 0 1 0 .255c-.047.185-.186.347-.093.556.255 0 .44.208.672.231h.07c.347.047.602.209.788.51.139.186.347.302.486.51.556.58.394 1.6-.347 1.947z"/>
        <path fill="#fff" d="M57.1 47.206c.21.138.418.208.65.069.046-.023.115-.046.162-.07.278-.092.556-.208.81-.393.047-.047.163-.093.094-.163-.163-.139-.255-.324-.464-.417-.07-.023-.139-.046-.208 0-.07.047-.047.14 0 .185.07.163 0 .279-.14.348-.046.023-.092 0-.092.093.07.023.07.07.023.139-.046.046-.07.07-.116 0-.07-.116-.185-.162-.324-.209a2 2 0 0 0-.348-.092c0 .185-.07.347-.046.533zM56.985 50.983s.046-.278-.07-.301c-.115 0-.092.185-.092.278-.023.208-.116.324-.325.324a.21.21 0 0 0-.185.093c.232.185.463.37.672.58h.023v-.163c-.046-.278 0-.533 0-.811zM56.429 53.44s-.116.069-.163.138c.07.023.116 0 .14-.046 0-.023.046-.07.023-.093h-.023zM56.127 50.658s0-.185-.139-.185c-.115.093-.07.37.07.464 0-.093 0-.186.046-.279zM55.942 50.264s.232.116.255-.046c.07-.278.139-.556.139-.857 0-.047 0-.07.023-.093.023-.162 0-.301 0-.464-.093-.092-.046-.208-.046-.3v-.163c-.093-.14 0-.278-.047-.417 0-.07 0-.14-.092-.047a2.3 2.3 0 0 0-.116.371c.023.093-.046.163-.046.255l-.14.765c.093.324.047.649.07.973z"/>
        <path fill="#fff" d="M56.429 53.44c.046-.024.07-.047.092-.117.047 0 .047-.046 0-.092l-.046.046c-.023.046-.07.07-.07.14zM56.104 52.072s-.07.185-.046.278c.093.394.07.811.07 1.205.324-.301.556-.672.787-1.043-.208-.07-.324-.255-.51-.347-.092-.047-.185-.163-.3-.093"/>
    </g>
    <defs>
        <clipPath id="a">
            <path fill="#fff" d="M0 0h112v112H0z"/>
        </clipPath>
    </defs>
</svg>