<svg xmlns="http://www.w3.org/2000/svg" width="112" height="112" fill="none" viewBox="0 0 112 112">
    <g clip-path="url(#a)">
        <path fill="#201E3D" d="M56.012 112.023c30.934 0 56.011-25.077 56.011-56.011S86.946 0 56.012 0 0 25.077 0 56.012s25.077 56.011 56.012 56.011"/>
        <path fill="#fff" d="M73.74 50.563c-.424-.472-1.15-.59-1.816-.59s-1.332.089-1.968-.118c-1.272-.383-1.907-1.74-2.634-2.86-1.544-2.331-4.178-3.953-7.024-4.337-.757-.088-1.665-.206-1.968-.885-.12-.236-.12-.53-.12-.796-.03-.62-.152-1.298-.636-1.71-.485-.414-1.393-.355-1.605.235-.182.502.212 1.003.424 1.475.605 1.386-1.393 1.652-2.27 1.829-1.393.295-2.816.413-4.148.914-1.726.649-3.18 1.947-3.997 3.54-.454.885-.968 2.035-1.998 2.064-.454 0-.999-.206-1.362.089-.363.324-.151.944.181 1.298.334.354.788.708.818 1.209 0 .324-.151.62-.303.914-1.514 2.861-1.453 4.218-1.12 7.433.303 2.92 1.211 4.1 1.423 4.572.182.413.06.885-.09 1.327-.152.413-.364.856-.304 1.298s.485.885.939.767c.424-.118.575-.678.878-.973.514-.502 1.392-.325 1.937.118.545.442.878 1.091 1.363 1.622 1.241 1.445 3.33 1.976 5.268 2.006 1.937.059 3.905-.295 5.843-.177h.181c0 .118.03.236.03.354 0 .295-.181.53-.302.796-.091.236-.152.531 0 .767.181.266.605.325.878.177.303-.148.484-.442.636-.708.212-.413.302-.855.333-1.298.787 0 1.574-.059 2.21-.472.545-.324.938-.855 1.422-1.268.97-.855 2.332-1.21 3.3-2.035 1.12-.944 1.666-2.39 2.15-3.776.363-.177.757.177 1.18.207.576 0 .94-.738.697-1.268-.242-.531-.817-.797-1.393-.944.273-1.77.273-3.599 0-5.369-.12-.796-.302-1.622-.151-2.418.182-.797.848-1.564 1.665-1.534.394 0 .787.177 1.15.059.636-.177.727-1.12.303-1.593zM56.817 62.48c-2.998 0-5.42-2.36-5.42-5.28s2.422-5.28 5.42-5.28 5.419 2.36 5.419 5.28-2.422 5.28-5.42 5.28"/>
        <path fill="#fff" d="M67.622 81.41H46.024c-7.903 0-14.322-6.419-14.322-14.298V45.514c0-7.903 6.42-14.299 14.322-14.299h21.598c7.902 0 14.321 6.42 14.321 14.299v21.598c0 7.902-6.419 14.298-14.321 14.298M46.024 33.533c-6.605 0-12.005 5.376-12.005 11.98v21.599c0 6.605 5.377 11.98 12.005 11.98h21.598c6.604 0 12.004-5.376 12.004-11.98V45.514c0-6.605-5.377-11.981-12.004-11.981z"/>
    </g>
    <defs>
        <clipPath id="a">
            <path fill="#fff" d="M0 0h112v112H0z"/>
        </clipPath>
    </defs>
</svg>