<svg xmlns="http://www.w3.org/2000/svg" width="112" height="112" fill="none" viewBox="0 0 112 112">
    <g clip-path="url(#a)">
        <path fill="#201E3D" d="M56.012 112.023c30.934 0 56.011-25.077 56.011-56.011S86.946 0 56.012 0 0 25.077 0 56.012s25.077 56.011 56.012 56.011"/>
        <path fill="#fff" d="M43.451 38.631c-.695-1.344-6.048-1.251-6.048.301v11.379a14.2 14.2 0 0 1 3.87-4.589c.07-2.526.834-4.982 2.178-7.114zM63.752 69.754H51.655v9.06c4.032 2.11 8.389 3.57 12.097 4.103V69.73zM47.738 59.998v-6.466h-3.545c.741 2.248 1.923 4.426 3.545 6.466M67.691 65.814h6.674c-.37-3.87-1.042-6.813-1.042-6.813s-.65-2.711-2.202-5.469h-3.43zM51.678 53.532v12.282h12.097V53.532h-1.808c.14.672.371 1.414.696 2.248-.255-.278-.742-1.136-1.16-2.248z"/>
        <path fill="#fff" d="M47.739 59.998a13.78 13.78 0 0 1-5.145-6.466h-3.036c-.857 2.48-1.506 5.956-1.043 10.59.047.58.186 1.136.325 1.692h8.875v-5.816zM47.739 69.754h-7.022c1.668 2.48 4.148 4.774 7.022 6.72zM67.691 69.754v13.371c2.086-.162 3.731-.788 4.566-2.016 1.946-2.827 2.41-7.207 2.34-11.355zM47.739 49.592V37.38c-3.43 3.36-4.797 7.74-4.38 12.212zM51.678 49.592h9.107c.047-.927.279-1.853.812-2.641.602-.788 1.367-1.39 2.178-1.9v-7.347c-3.221.37-8.83 1.715-10.567 6.512 0-7.88 9.524-8.343 10.567-8.366v-.486c-.858-1.947-6.975-3.06-12.097-.742zM67.691 43.822h.093a2.854 2.854 0 0 0 2.85-2.804 2.2 2.2 0 0 0-.115-.788c-.255-1.761-1.669-2.364-2.85-2.55v6.165z"/>
    </g>
    <defs>
        <clipPath id="a">
            <path fill="#fff" d="M0 0h112v112H0z"/>
        </clipPath>
    </defs>
</svg>