<svg width="60" height="60" viewBox="0 0 60 60" fill="none"
    xmlns="http://www.w3.org/2000/svg">
    <g clip-path="url(#clip0_1772_39)">
        <path fill-rule="evenodd" clip-rule="evenodd" d="M59.0662 28.2864C58.9322 24.7557 58.1561 21.2783 56.7601 18.0241C53.7716 10.9511 48.136 5.31548 41.063 2.32704C37.4231 0.765604 33.504 -0.0202835 29.5436 0.000397782C25.5831 -0.0202835 21.664 0.765604 18.0241 2.32704C10.9408 5.31548 5.31548 10.9511 2.32704 18.0241C0.765604 21.664 -0.0202835 25.5831 0.000397782 29.5436C-0.0202835 33.504 0.765604 37.4231 2.32704 41.063C5.31548 48.136 10.9408 53.7613 18.0138 56.7498C21.3662 58.1879 24.9556 58.9681 28.5959 59.0662H30.4809C34.1212 58.9681 37.7105 58.1879 41.063 56.7498C48.1464 53.7717 53.7716 48.136 56.7601 41.063C58.1561 37.8088 58.9322 34.3314 59.0662 30.8008V28.2864ZM35.0861 35.6032L15.8733 44.5685C15.5941 44.7029 15.2735 44.7029 14.9943 44.5685C14.4773 44.3203 14.2498 43.6999 14.4979 43.1829L23.4633 23.97C23.5667 23.7425 23.7528 23.5667 23.97 23.4633L43.1828 14.498C43.462 14.3635 43.7826 14.3635 44.0618 14.498C44.5788 14.7461 44.8063 15.3666 44.5582 15.8836L35.5928 35.0965C35.4894 35.324 35.3033 35.4998 35.0861 35.6032ZM26.6689 29.5332C26.6379 31.1464 27.9201 32.4596 29.5229 32.4907H29.5332C30.3191 32.5113 31.074 32.2011 31.6324 31.6427C32.1597 31.105 32.47 30.3915 32.4803 29.6366C32.5113 28.0235 31.2291 26.7102 29.6263 26.6792C28.0132 26.6482 26.6999 27.9304 26.6689 29.5332Z" fill="currentColor"/>
    </g>
    <defs>
        <clipPath id="clip0_1772_39">
            <rect width="60" height="60" fill="currentColor"/>
        </clipPath>
    </defs>
</svg>
